<?xml version="1.0" encoding="utf-8"?>
<svg xmlns="http://www.w3.org/2000/svg" xmlns:xlink="http://www.w3.org/1999/xlink" width="672" height="480" viewBox="0 0 2688 1920">
<defs>
  <clipPath id="clip390">
    <rect x="0" y="0" width="2688" height="1920"/>
  </clipPath>
</defs>
<path clip-path="url(#clip390)" d="M0 1920 L2688 1920 L2688 0 L0 0  Z" fill="#7711d7" fill-rule="evenodd" fill-opacity="0.0313725"/>
<defs>
  <clipPath id="clip391">
    <rect x="537" y="0" width="1883" height="1883"/>
  </clipPath>
</defs>
<path clip-path="url(#clip390)" d="M368.207 1734.12 L2640.76 1734.12 L2640.76 127.792 L368.207 127.792  Z" fill="#7711d7" fill-rule="evenodd" fill-opacity="0.0313725"/>
<defs>
  <clipPath id="clip392">
    <rect x="368" y="127" width="2274" height="1607"/>
  </clipPath>
</defs>
<polyline clip-path="url(#clip392)" style="stroke:#ffffff; stroke-linecap:round; stroke-linejoin:round; stroke-width:2; stroke-opacity:0.1; fill:none" points="432.525,1734.12 432.525,127.792 "/>
<polyline clip-path="url(#clip392)" style="stroke:#ffffff; stroke-linecap:round; stroke-linejoin:round; stroke-width:2; stroke-opacity:0.1; fill:none" points="783.986,1734.12 783.986,127.792 "/>
<polyline clip-path="url(#clip392)" style="stroke:#ffffff; stroke-linecap:round; stroke-linejoin:round; stroke-width:2; stroke-opacity:0.1; fill:none" points="1135.45,1734.12 1135.45,127.792 "/>
<polyline clip-path="url(#clip392)" style="stroke:#ffffff; stroke-linecap:round; stroke-linejoin:round; stroke-width:2; stroke-opacity:0.1; fill:none" points="1486.91,1734.12 1486.91,127.792 "/>
<polyline clip-path="url(#clip392)" style="stroke:#ffffff; stroke-linecap:round; stroke-linejoin:round; stroke-width:2; stroke-opacity:0.1; fill:none" points="1838.37,1734.12 1838.37,127.792 "/>
<polyline clip-path="url(#clip392)" style="stroke:#ffffff; stroke-linecap:round; stroke-linejoin:round; stroke-width:2; stroke-opacity:0.1; fill:none" points="2189.83,1734.12 2189.83,127.792 "/>
<polyline clip-path="url(#clip392)" style="stroke:#ffffff; stroke-linecap:round; stroke-linejoin:round; stroke-width:2; stroke-opacity:0.1; fill:none" points="2541.29,1734.12 2541.29,127.792 "/>
<polyline clip-path="url(#clip390)" style="stroke:#ffffff; stroke-linecap:round; stroke-linejoin:round; stroke-width:4; stroke-opacity:1; fill:none" points="368.207,1734.12 2640.76,1734.12 "/>
<polyline clip-path="url(#clip390)" style="stroke:#ffffff; stroke-linecap:round; stroke-linejoin:round; stroke-width:4; stroke-opacity:1; fill:none" points="432.525,1734.12 432.525,1715.22 "/>
<polyline clip-path="url(#clip390)" style="stroke:#ffffff; stroke-linecap:round; stroke-linejoin:round; stroke-width:4; stroke-opacity:1; fill:none" points="783.986,1734.12 783.986,1715.22 "/>
<polyline clip-path="url(#clip390)" style="stroke:#ffffff; stroke-linecap:round; stroke-linejoin:round; stroke-width:4; stroke-opacity:1; fill:none" points="1135.45,1734.12 1135.45,1715.22 "/>
<polyline clip-path="url(#clip390)" style="stroke:#ffffff; stroke-linecap:round; stroke-linejoin:round; stroke-width:4; stroke-opacity:1; fill:none" points="1486.91,1734.12 1486.91,1715.22 "/>
<polyline clip-path="url(#clip390)" style="stroke:#ffffff; stroke-linecap:round; stroke-linejoin:round; stroke-width:4; stroke-opacity:1; fill:none" points="1838.37,1734.12 1838.37,1715.22 "/>
<polyline clip-path="url(#clip390)" style="stroke:#ffffff; stroke-linecap:round; stroke-linejoin:round; stroke-width:4; stroke-opacity:1; fill:none" points="2189.83,1734.12 2189.83,1715.22 "/>
<polyline clip-path="url(#clip390)" style="stroke:#ffffff; stroke-linecap:round; stroke-linejoin:round; stroke-width:4; stroke-opacity:1; fill:none" points="2541.29,1734.12 2541.29,1715.22 "/>
<path clip-path="url(#clip390)" d="M377.05 1794.89 L384.689 1794.89 L384.689 1768.52 L376.379 1770.19 L376.379 1765.93 L384.643 1764.26 L389.319 1764.26 L389.319 1794.89 L396.958 1794.89 L396.958 1798.82 L377.05 1798.82 L377.05 1794.89 Z" fill="#ffffff" fill-rule="evenodd" fill-opacity="1" /><path clip-path="url(#clip390)" d="M406.541 1798.1 L406.541 1793.84 Q408.3 1794.68 410.106 1795.12 Q411.911 1795.56 413.647 1795.56 Q418.277 1795.56 420.708 1792.46 Q423.161 1789.33 423.508 1782.99 Q422.166 1784.98 420.106 1786.04 Q418.046 1787.11 415.546 1787.11 Q410.36 1787.11 407.328 1783.98 Q404.319 1780.83 404.319 1775.4 Q404.319 1770.07 407.467 1766.85 Q410.615 1763.64 415.846 1763.64 Q421.842 1763.64 424.99 1768.24 Q428.161 1772.83 428.161 1781.58 Q428.161 1789.75 424.272 1794.63 Q420.407 1799.49 413.856 1799.49 Q412.096 1799.49 410.291 1799.15 Q408.485 1798.8 406.541 1798.1 M415.846 1783.45 Q418.995 1783.45 420.823 1781.3 Q422.675 1779.15 422.675 1775.4 Q422.675 1771.67 420.823 1769.52 Q418.995 1767.34 415.846 1767.34 Q412.698 1767.34 410.847 1769.52 Q409.018 1771.67 409.018 1775.4 Q409.018 1779.15 410.847 1781.3 Q412.698 1783.45 415.846 1783.45 Z" fill="#ffffff" fill-rule="evenodd" fill-opacity="1" /><path clip-path="url(#clip390)" d="M447.143 1779.68 Q443.994 1779.68 442.143 1781.83 Q440.314 1783.98 440.314 1787.73 Q440.314 1791.46 442.143 1793.64 Q443.994 1795.79 447.143 1795.79 Q450.291 1795.79 452.119 1793.64 Q453.971 1791.46 453.971 1787.73 Q453.971 1783.98 452.119 1781.83 Q450.291 1779.68 447.143 1779.68 M456.425 1765.02 L456.425 1769.28 Q454.666 1768.45 452.86 1768.01 Q451.078 1767.57 449.319 1767.57 Q444.689 1767.57 442.235 1770.7 Q439.805 1773.82 439.457 1780.14 Q440.823 1778.13 442.883 1777.06 Q444.944 1775.97 447.42 1775.97 Q452.629 1775.97 455.638 1779.15 Q458.67 1782.29 458.67 1787.73 Q458.67 1793.06 455.522 1796.27 Q452.374 1799.49 447.143 1799.49 Q441.147 1799.49 437.976 1794.91 Q434.805 1790.3 434.805 1781.58 Q434.805 1773.38 438.694 1768.52 Q442.582 1763.64 449.133 1763.64 Q450.893 1763.64 452.675 1763.98 Q454.481 1764.33 456.425 1765.02 Z" fill="#ffffff" fill-rule="evenodd" fill-opacity="1" /><path clip-path="url(#clip390)" d="M476.726 1767.34 Q473.115 1767.34 471.286 1770.9 Q469.48 1774.45 469.48 1781.58 Q469.48 1788.68 471.286 1792.25 Q473.115 1795.79 476.726 1795.79 Q480.36 1795.79 482.166 1792.25 Q483.994 1788.68 483.994 1781.58 Q483.994 1774.45 482.166 1770.9 Q480.36 1767.34 476.726 1767.34 M476.726 1763.64 Q482.536 1763.64 485.591 1768.24 Q488.67 1772.83 488.67 1781.58 Q488.67 1790.3 485.591 1794.91 Q482.536 1799.49 476.726 1799.49 Q470.916 1799.49 467.837 1794.91 Q464.781 1790.3 464.781 1781.58 Q464.781 1772.83 467.837 1768.24 Q470.916 1763.64 476.726 1763.64 Z" fill="#ffffff" fill-rule="evenodd" fill-opacity="1" /><path clip-path="url(#clip390)" d="M728.512 1794.89 L736.151 1794.89 L736.151 1768.52 L727.84 1770.19 L727.84 1765.93 L736.104 1764.26 L740.78 1764.26 L740.78 1794.89 L748.419 1794.89 L748.419 1798.82 L728.512 1798.82 L728.512 1794.89 Z" fill="#ffffff" fill-rule="evenodd" fill-opacity="1" /><path clip-path="url(#clip390)" d="M758.002 1798.1 L758.002 1793.84 Q759.762 1794.68 761.567 1795.12 Q763.373 1795.56 765.109 1795.56 Q769.738 1795.56 772.169 1792.46 Q774.623 1789.33 774.97 1782.99 Q773.627 1784.98 771.567 1786.04 Q769.507 1787.11 767.007 1787.11 Q761.822 1787.11 758.789 1783.98 Q755.78 1780.83 755.78 1775.4 Q755.78 1770.07 758.928 1766.85 Q762.076 1763.64 767.308 1763.64 Q773.303 1763.64 776.451 1768.24 Q779.623 1772.83 779.623 1781.58 Q779.623 1789.75 775.734 1794.63 Q771.868 1799.49 765.317 1799.49 Q763.558 1799.49 761.752 1799.15 Q759.947 1798.8 758.002 1798.1 M767.308 1783.45 Q770.456 1783.45 772.285 1781.3 Q774.136 1779.15 774.136 1775.4 Q774.136 1771.67 772.285 1769.52 Q770.456 1767.34 767.308 1767.34 Q764.16 1767.34 762.308 1769.52 Q760.479 1771.67 760.479 1775.4 Q760.479 1779.15 762.308 1781.3 Q764.16 1783.45 767.308 1783.45 Z" fill="#ffffff" fill-rule="evenodd" fill-opacity="1" /><path clip-path="url(#clip390)" d="M786.845 1764.26 L809.067 1764.26 L809.067 1766.25 L796.521 1798.82 L791.636 1798.82 L803.442 1768.2 L786.845 1768.2 L786.845 1764.26 Z" fill="#ffffff" fill-rule="evenodd" fill-opacity="1" /><path clip-path="url(#clip390)" d="M828.187 1767.34 Q824.576 1767.34 822.747 1770.9 Q820.942 1774.45 820.942 1781.58 Q820.942 1788.68 822.747 1792.25 Q824.576 1795.79 828.187 1795.79 Q831.821 1795.79 833.627 1792.25 Q835.456 1788.68 835.456 1781.58 Q835.456 1774.45 833.627 1770.9 Q831.821 1767.34 828.187 1767.34 M828.187 1763.64 Q833.997 1763.64 837.053 1768.24 Q840.131 1772.83 840.131 1781.58 Q840.131 1790.3 837.053 1794.91 Q833.997 1799.49 828.187 1799.49 Q822.377 1799.49 819.298 1794.91 Q816.243 1790.3 816.243 1781.58 Q816.243 1772.83 819.298 1768.24 Q822.377 1763.64 828.187 1763.64 Z" fill="#ffffff" fill-rule="evenodd" fill-opacity="1" /><path clip-path="url(#clip390)" d="M1079.97 1794.89 L1087.61 1794.89 L1087.61 1768.52 L1079.3 1770.19 L1079.3 1765.93 L1087.57 1764.26 L1092.24 1764.26 L1092.24 1794.89 L1099.88 1794.89 L1099.88 1798.82 L1079.97 1798.82 L1079.97 1794.89 Z" fill="#ffffff" fill-rule="evenodd" fill-opacity="1" /><path clip-path="url(#clip390)" d="M1109.46 1798.1 L1109.46 1793.84 Q1111.22 1794.68 1113.03 1795.12 Q1114.83 1795.56 1116.57 1795.56 Q1121.2 1795.56 1123.63 1792.46 Q1126.08 1789.33 1126.43 1782.99 Q1125.09 1784.98 1123.03 1786.04 Q1120.97 1787.11 1118.47 1787.11 Q1113.28 1787.11 1110.25 1783.98 Q1107.24 1780.83 1107.24 1775.4 Q1107.24 1770.07 1110.39 1766.85 Q1113.54 1763.64 1118.77 1763.64 Q1124.76 1763.64 1127.91 1768.24 Q1131.08 1772.83 1131.08 1781.58 Q1131.08 1789.75 1127.19 1794.63 Q1123.33 1799.49 1116.78 1799.49 Q1115.02 1799.49 1113.21 1799.15 Q1111.41 1798.8 1109.46 1798.1 M1118.77 1783.45 Q1121.92 1783.45 1123.75 1781.3 Q1125.6 1779.15 1125.6 1775.4 Q1125.6 1771.67 1123.75 1769.52 Q1121.92 1767.34 1118.77 1767.34 Q1115.62 1767.34 1113.77 1769.52 Q1111.94 1771.67 1111.94 1775.4 Q1111.94 1779.15 1113.77 1781.3 Q1115.62 1783.45 1118.77 1783.45 Z" fill="#ffffff" fill-rule="evenodd" fill-opacity="1" /><path clip-path="url(#clip390)" d="M1149.49 1782.41 Q1146.15 1782.41 1144.23 1784.19 Q1142.33 1785.97 1142.33 1789.1 Q1142.33 1792.22 1144.23 1794.01 Q1146.15 1795.79 1149.49 1795.79 Q1152.82 1795.79 1154.74 1794.01 Q1156.66 1792.2 1156.66 1789.1 Q1156.66 1785.97 1154.74 1784.19 Q1152.84 1782.41 1149.49 1782.41 M1144.81 1780.42 Q1141.8 1779.68 1140.11 1777.62 Q1138.44 1775.56 1138.44 1772.59 Q1138.44 1768.45 1141.38 1766.04 Q1144.35 1763.64 1149.49 1763.64 Q1154.65 1763.64 1157.59 1766.04 Q1160.53 1768.45 1160.53 1772.59 Q1160.53 1775.56 1158.84 1777.62 Q1157.17 1779.68 1154.19 1780.42 Q1157.57 1781.21 1159.44 1783.5 Q1161.34 1785.79 1161.34 1789.1 Q1161.34 1794.12 1158.26 1796.81 Q1155.2 1799.49 1149.49 1799.49 Q1143.77 1799.49 1140.69 1796.81 Q1137.63 1794.12 1137.63 1789.1 Q1137.63 1785.79 1139.53 1783.5 Q1141.43 1781.21 1144.81 1780.42 M1143.1 1773.03 Q1143.1 1775.72 1144.76 1777.22 Q1146.45 1778.73 1149.49 1778.73 Q1152.5 1778.73 1154.19 1777.22 Q1155.9 1775.72 1155.9 1773.03 Q1155.9 1770.35 1154.19 1768.84 Q1152.5 1767.34 1149.49 1767.34 Q1146.45 1767.34 1144.76 1768.84 Q1143.1 1770.35 1143.1 1773.03 Z" fill="#ffffff" fill-rule="evenodd" fill-opacity="1" /><path clip-path="url(#clip390)" d="M1179.65 1767.34 Q1176.04 1767.34 1174.21 1770.9 Q1172.4 1774.45 1172.4 1781.58 Q1172.4 1788.68 1174.21 1792.25 Q1176.04 1795.79 1179.65 1795.79 Q1183.28 1795.79 1185.09 1792.25 Q1186.92 1788.68 1186.92 1781.58 Q1186.92 1774.45 1185.09 1770.9 Q1183.28 1767.34 1179.65 1767.34 M1179.65 1763.64 Q1185.46 1763.64 1188.51 1768.24 Q1191.59 1772.83 1191.59 1781.58 Q1191.59 1790.3 1188.51 1794.91 Q1185.46 1799.49 1179.65 1799.49 Q1173.84 1799.49 1170.76 1794.91 Q1167.7 1790.3 1167.7 1781.58 Q1167.7 1772.83 1170.76 1768.24 Q1173.84 1763.64 1179.65 1763.64 Z" fill="#ffffff" fill-rule="evenodd" fill-opacity="1" /><path clip-path="url(#clip390)" d="M1431.43 1794.89 L1439.07 1794.89 L1439.07 1768.52 L1430.76 1770.19 L1430.76 1765.93 L1439.03 1764.26 L1443.7 1764.26 L1443.7 1794.89 L1451.34 1794.89 L1451.34 1798.82 L1431.43 1798.82 L1431.43 1794.89 Z" fill="#ffffff" fill-rule="evenodd" fill-opacity="1" /><path clip-path="url(#clip390)" d="M1460.92 1798.1 L1460.92 1793.84 Q1462.68 1794.68 1464.49 1795.12 Q1466.3 1795.56 1468.03 1795.56 Q1472.66 1795.56 1475.09 1792.46 Q1477.55 1789.33 1477.89 1782.99 Q1476.55 1784.98 1474.49 1786.04 Q1472.43 1787.11 1469.93 1787.11 Q1464.74 1787.11 1461.71 1783.98 Q1458.7 1780.83 1458.7 1775.4 Q1458.7 1770.07 1461.85 1766.85 Q1465 1763.64 1470.23 1763.64 Q1476.23 1763.64 1479.37 1768.24 Q1482.55 1772.83 1482.55 1781.58 Q1482.55 1789.75 1478.66 1794.63 Q1474.79 1799.49 1468.24 1799.49 Q1466.48 1799.49 1464.67 1799.15 Q1462.87 1798.8 1460.92 1798.1 M1470.23 1783.45 Q1473.38 1783.45 1475.21 1781.3 Q1477.06 1779.15 1477.06 1775.4 Q1477.06 1771.67 1475.21 1769.52 Q1473.38 1767.34 1470.23 1767.34 Q1467.08 1767.34 1465.23 1769.52 Q1463.4 1771.67 1463.4 1775.4 Q1463.4 1779.15 1465.23 1781.3 Q1467.08 1783.45 1470.23 1783.45 Z" fill="#ffffff" fill-rule="evenodd" fill-opacity="1" /><path clip-path="url(#clip390)" d="M1491.09 1798.1 L1491.09 1793.84 Q1492.85 1794.68 1494.65 1795.12 Q1496.46 1795.56 1498.19 1795.56 Q1502.82 1795.56 1505.25 1792.46 Q1507.71 1789.33 1508.05 1782.99 Q1506.71 1784.98 1504.65 1786.04 Q1502.59 1787.11 1500.09 1787.11 Q1494.91 1787.11 1491.87 1783.98 Q1488.86 1780.83 1488.86 1775.4 Q1488.86 1770.07 1492.01 1766.85 Q1495.16 1763.64 1500.39 1763.64 Q1506.39 1763.64 1509.54 1768.24 Q1512.71 1772.83 1512.71 1781.58 Q1512.71 1789.75 1508.82 1794.63 Q1504.95 1799.49 1498.4 1799.49 Q1496.64 1799.49 1494.84 1799.15 Q1493.03 1798.8 1491.09 1798.1 M1500.39 1783.45 Q1503.54 1783.45 1505.37 1781.3 Q1507.22 1779.15 1507.22 1775.4 Q1507.22 1771.67 1505.37 1769.52 Q1503.54 1767.34 1500.39 1767.34 Q1497.24 1767.34 1495.39 1769.52 Q1493.56 1771.67 1493.56 1775.4 Q1493.56 1779.15 1495.39 1781.3 Q1497.24 1783.45 1500.39 1783.45 Z" fill="#ffffff" fill-rule="evenodd" fill-opacity="1" /><path clip-path="url(#clip390)" d="M1531.11 1767.34 Q1527.5 1767.34 1525.67 1770.9 Q1523.86 1774.45 1523.86 1781.58 Q1523.86 1788.68 1525.67 1792.25 Q1527.5 1795.79 1531.11 1795.79 Q1534.74 1795.79 1536.55 1792.25 Q1538.38 1788.68 1538.38 1781.58 Q1538.38 1774.45 1536.55 1770.9 Q1534.74 1767.34 1531.11 1767.34 M1531.11 1763.64 Q1536.92 1763.64 1539.98 1768.24 Q1543.05 1772.83 1543.05 1781.58 Q1543.05 1790.3 1539.98 1794.91 Q1536.92 1799.49 1531.11 1799.49 Q1525.3 1799.49 1522.22 1794.91 Q1519.17 1790.3 1519.17 1781.58 Q1519.17 1772.83 1522.22 1768.24 Q1525.3 1763.64 1531.11 1763.64 Z" fill="#ffffff" fill-rule="evenodd" fill-opacity="1" /><path clip-path="url(#clip390)" d="M1786.98 1794.89 L1803.3 1794.89 L1803.3 1798.82 L1781.36 1798.82 L1781.36 1794.89 Q1784.02 1792.13 1788.6 1787.5 Q1793.21 1782.85 1794.39 1781.51 Q1796.63 1778.98 1797.51 1777.25 Q1798.42 1775.49 1798.42 1773.8 Q1798.42 1771.04 1796.47 1769.31 Q1794.55 1767.57 1791.45 1767.57 Q1789.25 1767.57 1786.8 1768.34 Q1784.37 1769.1 1781.59 1770.65 L1781.59 1765.93 Q1784.41 1764.79 1786.87 1764.21 Q1789.32 1763.64 1791.36 1763.64 Q1796.73 1763.64 1799.92 1766.32 Q1803.12 1769.01 1803.12 1773.5 Q1803.12 1775.63 1802.31 1777.55 Q1801.52 1779.45 1799.41 1782.04 Q1798.83 1782.71 1795.73 1785.93 Q1792.63 1789.12 1786.98 1794.89 Z" fill="#ffffff" fill-rule="evenodd" fill-opacity="1" /><path clip-path="url(#clip390)" d="M1823.12 1767.34 Q1819.5 1767.34 1817.68 1770.9 Q1815.87 1774.45 1815.87 1781.58 Q1815.87 1788.68 1817.68 1792.25 Q1819.5 1795.79 1823.12 1795.79 Q1826.75 1795.79 1828.56 1792.25 Q1830.38 1788.68 1830.38 1781.58 Q1830.38 1774.45 1828.56 1770.9 Q1826.75 1767.34 1823.12 1767.34 M1823.12 1763.64 Q1828.93 1763.64 1831.98 1768.24 Q1835.06 1772.83 1835.06 1781.58 Q1835.06 1790.3 1831.98 1794.91 Q1828.93 1799.49 1823.12 1799.49 Q1817.31 1799.49 1814.23 1794.91 Q1811.17 1790.3 1811.17 1781.58 Q1811.17 1772.83 1814.23 1768.24 Q1817.31 1763.64 1823.12 1763.64 Z" fill="#ffffff" fill-rule="evenodd" fill-opacity="1" /><path clip-path="url(#clip390)" d="M1853.28 1767.34 Q1849.67 1767.34 1847.84 1770.9 Q1846.03 1774.45 1846.03 1781.58 Q1846.03 1788.68 1847.84 1792.25 Q1849.67 1795.79 1853.28 1795.79 Q1856.91 1795.79 1858.72 1792.25 Q1860.55 1788.68 1860.55 1781.58 Q1860.55 1774.45 1858.72 1770.9 Q1856.91 1767.34 1853.28 1767.34 M1853.28 1763.64 Q1859.09 1763.64 1862.14 1768.24 Q1865.22 1772.83 1865.22 1781.58 Q1865.22 1790.3 1862.14 1794.91 Q1859.09 1799.49 1853.28 1799.49 Q1847.47 1799.49 1844.39 1794.91 Q1841.33 1790.3 1841.33 1781.58 Q1841.33 1772.83 1844.39 1768.24 Q1847.47 1763.64 1853.28 1763.64 Z" fill="#ffffff" fill-rule="evenodd" fill-opacity="1" /><path clip-path="url(#clip390)" d="M1883.44 1767.34 Q1879.83 1767.34 1878 1770.9 Q1876.19 1774.45 1876.19 1781.58 Q1876.19 1788.68 1878 1792.25 Q1879.83 1795.79 1883.44 1795.79 Q1887.07 1795.79 1888.88 1792.25 Q1890.71 1788.68 1890.71 1781.58 Q1890.71 1774.45 1888.88 1770.9 Q1887.07 1767.34 1883.44 1767.34 M1883.44 1763.64 Q1889.25 1763.64 1892.3 1768.24 Q1895.38 1772.83 1895.38 1781.58 Q1895.38 1790.3 1892.3 1794.91 Q1889.25 1799.49 1883.44 1799.49 Q1877.63 1799.49 1874.55 1794.91 Q1871.49 1790.3 1871.49 1781.58 Q1871.49 1772.83 1874.55 1768.24 Q1877.63 1763.64 1883.44 1763.64 Z" fill="#ffffff" fill-rule="evenodd" fill-opacity="1" /><path clip-path="url(#clip390)" d="M2138.44 1794.89 L2154.76 1794.89 L2154.76 1798.82 L2132.82 1798.82 L2132.82 1794.89 Q2135.48 1792.13 2140.06 1787.5 Q2144.67 1782.85 2145.85 1781.51 Q2148.1 1778.98 2148.97 1777.25 Q2149.88 1775.49 2149.88 1773.8 Q2149.88 1771.04 2147.93 1769.31 Q2146.01 1767.57 2142.91 1767.57 Q2140.71 1767.57 2138.26 1768.34 Q2135.83 1769.1 2133.05 1770.65 L2133.05 1765.93 Q2135.87 1764.79 2138.33 1764.21 Q2140.78 1763.64 2142.82 1763.64 Q2148.19 1763.64 2151.38 1766.32 Q2154.58 1769.01 2154.58 1773.5 Q2154.58 1775.63 2153.77 1777.55 Q2152.98 1779.45 2150.87 1782.04 Q2150.29 1782.71 2147.19 1785.93 Q2144.09 1789.12 2138.44 1794.89 Z" fill="#ffffff" fill-rule="evenodd" fill-opacity="1" /><path clip-path="url(#clip390)" d="M2174.58 1767.34 Q2170.97 1767.34 2169.14 1770.9 Q2167.33 1774.45 2167.33 1781.58 Q2167.33 1788.68 2169.14 1792.25 Q2170.97 1795.79 2174.58 1795.79 Q2178.21 1795.79 2180.02 1792.25 Q2181.85 1788.68 2181.85 1781.58 Q2181.85 1774.45 2180.02 1770.9 Q2178.21 1767.34 2174.58 1767.34 M2174.58 1763.64 Q2180.39 1763.64 2183.44 1768.24 Q2186.52 1772.83 2186.52 1781.58 Q2186.52 1790.3 2183.44 1794.91 Q2180.39 1799.49 2174.58 1799.49 Q2168.77 1799.49 2165.69 1794.91 Q2162.63 1790.3 2162.63 1781.58 Q2162.63 1772.83 2165.69 1768.24 Q2168.77 1763.64 2174.58 1763.64 Z" fill="#ffffff" fill-rule="evenodd" fill-opacity="1" /><path clip-path="url(#clip390)" d="M2195.55 1794.89 L2203.19 1794.89 L2203.19 1768.52 L2194.88 1770.19 L2194.88 1765.93 L2203.14 1764.26 L2207.82 1764.26 L2207.82 1794.89 L2215.46 1794.89 L2215.46 1798.82 L2195.55 1798.82 L2195.55 1794.89 Z" fill="#ffffff" fill-rule="evenodd" fill-opacity="1" /><path clip-path="url(#clip390)" d="M2234.9 1767.34 Q2231.29 1767.34 2229.46 1770.9 Q2227.65 1774.45 2227.65 1781.58 Q2227.65 1788.68 2229.46 1792.25 Q2231.29 1795.79 2234.9 1795.79 Q2238.53 1795.79 2240.34 1792.25 Q2242.17 1788.68 2242.17 1781.58 Q2242.17 1774.45 2240.34 1770.9 Q2238.53 1767.34 2234.9 1767.34 M2234.9 1763.64 Q2240.71 1763.64 2243.77 1768.24 Q2246.84 1772.83 2246.84 1781.58 Q2246.84 1790.3 2243.77 1794.91 Q2240.71 1799.49 2234.9 1799.49 Q2229.09 1799.49 2226.01 1794.91 Q2222.96 1790.3 2222.96 1781.58 Q2222.96 1772.83 2226.01 1768.24 Q2229.09 1763.64 2234.9 1763.64 Z" fill="#ffffff" fill-rule="evenodd" fill-opacity="1" /><path clip-path="url(#clip390)" d="M2489.9 1794.89 L2506.22 1794.89 L2506.22 1798.82 L2484.28 1798.82 L2484.28 1794.89 Q2486.94 1792.13 2491.52 1787.5 Q2496.13 1782.85 2497.31 1781.51 Q2499.56 1778.98 2500.44 1777.25 Q2501.34 1775.49 2501.34 1773.8 Q2501.34 1771.04 2499.39 1769.31 Q2497.47 1767.57 2494.37 1767.57 Q2492.17 1767.57 2489.72 1768.34 Q2487.29 1769.1 2484.51 1770.65 L2484.51 1765.93 Q2487.33 1764.79 2489.79 1764.21 Q2492.24 1763.64 2494.28 1763.64 Q2499.65 1763.64 2502.84 1766.32 Q2506.04 1769.01 2506.04 1773.5 Q2506.04 1775.63 2505.23 1777.55 Q2504.44 1779.45 2502.33 1782.04 Q2501.76 1782.71 2498.65 1785.93 Q2495.55 1789.12 2489.9 1794.89 Z" fill="#ffffff" fill-rule="evenodd" fill-opacity="1" /><path clip-path="url(#clip390)" d="M2526.04 1767.34 Q2522.43 1767.34 2520.6 1770.9 Q2518.79 1774.45 2518.79 1781.58 Q2518.79 1788.68 2520.6 1792.25 Q2522.43 1795.79 2526.04 1795.79 Q2529.67 1795.79 2531.48 1792.25 Q2533.31 1788.68 2533.31 1781.58 Q2533.31 1774.45 2531.48 1770.9 Q2529.67 1767.34 2526.04 1767.34 M2526.04 1763.64 Q2531.85 1763.64 2534.9 1768.24 Q2537.98 1772.83 2537.98 1781.58 Q2537.98 1790.3 2534.9 1794.91 Q2531.85 1799.49 2526.04 1799.49 Q2520.23 1799.49 2517.15 1794.91 Q2514.09 1790.3 2514.09 1781.58 Q2514.09 1772.83 2517.15 1768.24 Q2520.23 1763.64 2526.04 1763.64 Z" fill="#ffffff" fill-rule="evenodd" fill-opacity="1" /><path clip-path="url(#clip390)" d="M2550.23 1794.89 L2566.55 1794.89 L2566.55 1798.82 L2544.6 1798.82 L2544.6 1794.89 Q2547.26 1792.13 2551.85 1787.5 Q2556.45 1782.85 2557.63 1781.51 Q2559.88 1778.98 2560.76 1777.25 Q2561.66 1775.49 2561.66 1773.8 Q2561.66 1771.04 2559.72 1769.31 Q2557.8 1767.57 2554.7 1767.57 Q2552.5 1767.57 2550.04 1768.34 Q2547.61 1769.1 2544.83 1770.65 L2544.83 1765.93 Q2547.66 1764.79 2550.11 1764.21 Q2552.57 1763.64 2554.6 1763.64 Q2559.97 1763.64 2563.17 1766.32 Q2566.36 1769.01 2566.36 1773.5 Q2566.36 1775.63 2565.55 1777.55 Q2564.76 1779.45 2562.66 1782.04 Q2562.08 1782.71 2558.98 1785.93 Q2555.88 1789.12 2550.23 1794.89 Z" fill="#ffffff" fill-rule="evenodd" fill-opacity="1" /><path clip-path="url(#clip390)" d="M2586.36 1767.34 Q2582.75 1767.34 2580.92 1770.9 Q2579.12 1774.45 2579.12 1781.58 Q2579.12 1788.68 2580.92 1792.25 Q2582.75 1795.79 2586.36 1795.79 Q2590 1795.79 2591.8 1792.25 Q2593.63 1788.68 2593.63 1781.58 Q2593.63 1774.45 2591.8 1770.9 Q2590 1767.34 2586.36 1767.34 M2586.36 1763.64 Q2592.17 1763.64 2595.23 1768.24 Q2598.31 1772.83 2598.31 1781.58 Q2598.31 1790.3 2595.23 1794.91 Q2592.17 1799.49 2586.36 1799.49 Q2580.55 1799.49 2577.47 1794.91 Q2574.42 1790.3 2574.42 1781.58 Q2574.42 1772.83 2577.47 1768.24 Q2580.55 1763.64 2586.36 1763.64 Z" fill="#ffffff" fill-rule="evenodd" fill-opacity="1" /><path clip-path="url(#clip390)" d="M1435.41 1835.78 L1442.32 1835.78 L1455.5 1855.32 L1468.58 1835.78 L1475.49 1835.78 L1458.68 1860.67 L1458.68 1883.3 L1452.22 1883.3 L1452.22 1860.67 L1435.41 1835.78 Z" fill="#ffffff" fill-rule="evenodd" fill-opacity="1" /><path clip-path="url(#clip390)" d="M1503.34 1864.01 L1503.34 1866.88 L1476.41 1866.88 Q1476.79 1872.92 1480.04 1876.11 Q1483.32 1879.26 1489.14 1879.26 Q1492.51 1879.26 1495.67 1878.43 Q1498.85 1877.6 1501.97 1875.95 L1501.97 1881.49 Q1498.82 1882.82 1495.51 1883.52 Q1492.2 1884.22 1488.79 1884.22 Q1480.26 1884.22 1475.26 1879.26 Q1470.3 1874.29 1470.3 1865.83 Q1470.3 1857.07 1475.01 1851.95 Q1479.75 1846.79 1487.77 1846.79 Q1494.96 1846.79 1499.13 1851.44 Q1503.34 1856.06 1503.34 1864.01 M1497.48 1862.29 Q1497.42 1857.49 1494.77 1854.62 Q1492.16 1851.76 1487.84 1851.76 Q1482.93 1851.76 1479.97 1854.53 Q1477.05 1857.3 1476.6 1862.33 L1497.48 1862.29 Z" fill="#ffffff" fill-rule="evenodd" fill-opacity="1" /><path clip-path="url(#clip390)" d="M1529.15 1865.38 Q1522.05 1865.38 1519.31 1867 Q1516.58 1868.63 1516.58 1872.54 Q1516.58 1875.66 1518.61 1877.51 Q1520.68 1879.32 1524.22 1879.32 Q1529.09 1879.32 1532.01 1875.88 Q1534.97 1872.42 1534.97 1866.69 L1534.97 1865.38 L1529.15 1865.38 M1540.83 1862.96 L1540.83 1883.3 L1534.97 1883.3 L1534.97 1877.89 Q1532.97 1881.14 1529.98 1882.7 Q1526.98 1884.22 1522.66 1884.22 Q1517.18 1884.22 1513.93 1881.17 Q1510.72 1878.08 1510.72 1872.92 Q1510.72 1866.91 1514.73 1863.85 Q1518.77 1860.8 1526.76 1860.8 L1534.97 1860.8 L1534.97 1860.23 Q1534.97 1856.18 1532.3 1853.99 Q1529.66 1851.76 1524.85 1851.76 Q1521.8 1851.76 1518.9 1852.49 Q1516 1853.22 1513.33 1854.69 L1513.33 1849.28 Q1516.54 1848.03 1519.57 1847.43 Q1522.59 1846.79 1525.46 1846.79 Q1533.19 1846.79 1537.01 1850.8 Q1540.83 1854.81 1540.83 1862.96 Z" fill="#ffffff" fill-rule="evenodd" fill-opacity="1" /><path clip-path="url(#clip390)" d="M1573.55 1853.13 Q1572.56 1852.55 1571.39 1852.3 Q1570.24 1852.01 1568.84 1852.01 Q1563.87 1852.01 1561.2 1855.26 Q1558.56 1858.47 1558.56 1864.52 L1558.56 1883.3 L1552.67 1883.3 L1552.67 1847.65 L1558.56 1847.65 L1558.56 1853.19 Q1560.4 1849.94 1563.36 1848.39 Q1566.32 1846.79 1570.56 1846.79 Q1571.16 1846.79 1571.89 1846.89 Q1572.63 1846.95 1573.52 1847.11 L1573.55 1853.13 Z" fill="#ffffff" fill-rule="evenodd" fill-opacity="1" /><polyline clip-path="url(#clip392)" style="stroke:#ffffff; stroke-linecap:round; stroke-linejoin:round; stroke-width:2; stroke-opacity:0.1; fill:none" points="368.207,1514.45 2640.76,1514.45 "/>
<polyline clip-path="url(#clip392)" style="stroke:#ffffff; stroke-linecap:round; stroke-linejoin:round; stroke-width:2; stroke-opacity:0.1; fill:none" points="368.207,1113.21 2640.76,1113.21 "/>
<polyline clip-path="url(#clip392)" style="stroke:#ffffff; stroke-linecap:round; stroke-linejoin:round; stroke-width:2; stroke-opacity:0.1; fill:none" points="368.207,711.97 2640.76,711.97 "/>
<polyline clip-path="url(#clip392)" style="stroke:#ffffff; stroke-linecap:round; stroke-linejoin:round; stroke-width:2; stroke-opacity:0.1; fill:none" points="368.207,310.732 2640.76,310.732 "/>
<polyline clip-path="url(#clip390)" style="stroke:#ffffff; stroke-linecap:round; stroke-linejoin:round; stroke-width:4; stroke-opacity:1; fill:none" points="368.207,1734.12 368.207,127.792 "/>
<polyline clip-path="url(#clip390)" style="stroke:#ffffff; stroke-linecap:round; stroke-linejoin:round; stroke-width:4; stroke-opacity:1; fill:none" points="368.207,1514.45 387.105,1514.45 "/>
<polyline clip-path="url(#clip390)" style="stroke:#ffffff; stroke-linecap:round; stroke-linejoin:round; stroke-width:4; stroke-opacity:1; fill:none" points="368.207,1113.21 387.105,1113.21 "/>
<polyline clip-path="url(#clip390)" style="stroke:#ffffff; stroke-linecap:round; stroke-linejoin:round; stroke-width:4; stroke-opacity:1; fill:none" points="368.207,711.97 387.105,711.97 "/>
<polyline clip-path="url(#clip390)" style="stroke:#ffffff; stroke-linecap:round; stroke-linejoin:round; stroke-width:4; stroke-opacity:1; fill:none" points="368.207,310.732 387.105,310.732 "/>
<path clip-path="url(#clip390)" d="M122.997 1534.24 L139.316 1534.24 L139.316 1538.17 L117.372 1538.17 L117.372 1534.24 Q120.034 1531.48 124.617 1526.85 Q129.224 1522.2 130.404 1520.86 Q132.65 1518.34 133.529 1516.6 Q134.432 1514.84 134.432 1513.15 Q134.432 1510.4 132.488 1508.66 Q130.566 1506.92 127.464 1506.92 Q125.265 1506.92 122.812 1507.69 Q120.381 1508.45 117.603 1510 L117.603 1505.28 Q120.427 1504.15 122.881 1503.57 Q125.335 1502.99 127.372 1502.99 Q132.742 1502.99 135.937 1505.67 Q139.131 1508.36 139.131 1512.85 Q139.131 1514.98 138.321 1516.9 Q137.534 1518.8 135.427 1521.39 Q134.849 1522.06 131.747 1525.28 Q128.645 1528.47 122.997 1534.24 Z" fill="#ffffff" fill-rule="evenodd" fill-opacity="1" /><path clip-path="url(#clip390)" d="M149.131 1532.29 L154.015 1532.29 L154.015 1538.17 L149.131 1538.17 L149.131 1532.29 Z" fill="#ffffff" fill-rule="evenodd" fill-opacity="1" /><path clip-path="url(#clip390)" d="M174.2 1506.69 Q170.589 1506.69 168.76 1510.26 Q166.955 1513.8 166.955 1520.93 Q166.955 1528.03 168.76 1531.6 Q170.589 1535.14 174.2 1535.14 Q177.834 1535.14 179.64 1531.6 Q181.469 1528.03 181.469 1520.93 Q181.469 1513.8 179.64 1510.26 Q177.834 1506.69 174.2 1506.69 M174.2 1502.99 Q180.01 1502.99 183.066 1507.59 Q186.145 1512.18 186.145 1520.93 Q186.145 1529.65 183.066 1534.26 Q180.01 1538.84 174.2 1538.84 Q168.39 1538.84 165.311 1534.26 Q162.256 1529.65 162.256 1520.93 Q162.256 1512.18 165.311 1507.59 Q168.39 1502.99 174.2 1502.99 Z" fill="#ffffff" fill-rule="evenodd" fill-opacity="1" /><path clip-path="url(#clip390)" d="M222.533 1512.71 L211.955 1523.34 L222.533 1533.91 L219.779 1536.71 L209.154 1526.09 L198.529 1536.71 L195.797 1533.91 L206.353 1523.34 L195.797 1512.71 L198.529 1509.91 L209.154 1520.53 L219.779 1509.91 L222.533 1512.71 Z" fill="#ffffff" fill-rule="evenodd" fill-opacity="1" /><path clip-path="url(#clip390)" d="M234.894 1534.24 L242.533 1534.24 L242.533 1507.87 L234.223 1509.54 L234.223 1505.28 L242.487 1503.61 L247.163 1503.61 L247.163 1534.24 L254.802 1534.24 L254.802 1538.17 L234.894 1538.17 L234.894 1534.24 Z" fill="#ffffff" fill-rule="evenodd" fill-opacity="1" /><path clip-path="url(#clip390)" d="M274.246 1506.69 Q270.635 1506.69 268.806 1510.26 Q267.001 1513.8 267.001 1520.93 Q267.001 1528.03 268.806 1531.6 Q270.635 1535.14 274.246 1535.14 Q277.88 1535.14 279.686 1531.6 Q281.514 1528.03 281.514 1520.93 Q281.514 1513.8 279.686 1510.26 Q277.88 1506.69 274.246 1506.69 M274.246 1502.99 Q280.056 1502.99 283.112 1507.59 Q286.19 1512.18 286.19 1520.93 Q286.19 1529.65 283.112 1534.26 Q280.056 1538.84 274.246 1538.84 Q268.436 1538.84 265.357 1534.26 Q262.302 1529.65 262.302 1520.93 Q262.302 1512.18 265.357 1507.59 Q268.436 1502.99 274.246 1502.99 Z" fill="#ffffff" fill-rule="evenodd" fill-opacity="1" /><path clip-path="url(#clip390)" d="M286.736 1507.57 L292.942 1507.57 L292.942 1486.14 L286.19 1487.5 L286.19 1484.04 L292.905 1482.68 L296.704 1482.68 L296.704 1507.57 L302.91 1507.57 L302.91 1510.76 L286.736 1510.76 L286.736 1507.57 Z" fill="#ffffff" fill-rule="evenodd" fill-opacity="1" /><path clip-path="url(#clip390)" d="M322.094 1495.62 Q324.822 1496.21 326.345 1498.05 Q327.887 1499.89 327.887 1502.6 Q327.887 1506.76 325.028 1509.03 Q322.17 1511.31 316.903 1511.31 Q315.136 1511.31 313.255 1510.95 Q311.393 1510.61 309.399 1509.92 L309.399 1506.25 Q310.979 1507.17 312.86 1507.64 Q314.741 1508.11 316.791 1508.11 Q320.364 1508.11 322.226 1506.7 Q324.107 1505.29 324.107 1502.6 Q324.107 1500.12 322.358 1498.73 Q320.627 1497.32 317.524 1497.32 L314.252 1497.32 L314.252 1494.19 L317.675 1494.19 Q320.477 1494.19 321.963 1493.08 Q323.449 1491.95 323.449 1489.85 Q323.449 1487.69 321.906 1486.54 Q320.383 1485.37 317.524 1485.37 Q315.963 1485.37 314.176 1485.71 Q312.39 1486.05 310.246 1486.76 L310.246 1483.38 Q312.408 1482.78 314.289 1482.48 Q316.189 1482.17 317.863 1482.17 Q322.188 1482.17 324.709 1484.15 Q327.229 1486.11 327.229 1489.45 Q327.229 1491.79 325.894 1493.4 Q324.558 1495 322.094 1495.62 Z" fill="#ffffff" fill-rule="evenodd" fill-opacity="1" /><path clip-path="url(#clip390)" d="M131.816 1106.45 L120.011 1124.9 L131.816 1124.9 L131.816 1106.45 M130.589 1102.38 L136.469 1102.38 L136.469 1124.9 L141.399 1124.9 L141.399 1128.79 L136.469 1128.79 L136.469 1136.94 L131.816 1136.94 L131.816 1128.79 L116.214 1128.79 L116.214 1124.27 L130.589 1102.38 Z" fill="#ffffff" fill-rule="evenodd" fill-opacity="1" /><path clip-path="url(#clip390)" d="M149.131 1131.06 L154.015 1131.06 L154.015 1136.94 L149.131 1136.94 L149.131 1131.06 Z" fill="#ffffff" fill-rule="evenodd" fill-opacity="1" /><path clip-path="url(#clip390)" d="M174.2 1105.45 Q170.589 1105.45 168.76 1109.02 Q166.955 1112.56 166.955 1119.69 Q166.955 1126.8 168.76 1130.36 Q170.589 1133.9 174.2 1133.9 Q177.834 1133.9 179.64 1130.36 Q181.469 1126.8 181.469 1119.69 Q181.469 1112.56 179.64 1109.02 Q177.834 1105.45 174.2 1105.45 M174.2 1101.75 Q180.01 1101.75 183.066 1106.36 Q186.145 1110.94 186.145 1119.69 Q186.145 1128.42 183.066 1133.02 Q180.01 1137.61 174.2 1137.61 Q168.39 1137.61 165.311 1133.02 Q162.256 1128.42 162.256 1119.69 Q162.256 1110.94 165.311 1106.36 Q168.39 1101.75 174.2 1101.75 Z" fill="#ffffff" fill-rule="evenodd" fill-opacity="1" /><path clip-path="url(#clip390)" d="M222.533 1111.47 L211.955 1122.1 L222.533 1132.68 L219.779 1135.48 L209.154 1124.85 L198.529 1135.48 L195.797 1132.68 L206.353 1122.1 L195.797 1111.47 L198.529 1108.67 L209.154 1119.3 L219.779 1108.67 L222.533 1111.47 Z" fill="#ffffff" fill-rule="evenodd" fill-opacity="1" /><path clip-path="url(#clip390)" d="M234.894 1133 L242.533 1133 L242.533 1106.63 L234.223 1108.3 L234.223 1104.04 L242.487 1102.38 L247.163 1102.38 L247.163 1133 L254.802 1133 L254.802 1136.94 L234.894 1136.94 L234.894 1133 Z" fill="#ffffff" fill-rule="evenodd" fill-opacity="1" /><path clip-path="url(#clip390)" d="M274.246 1105.45 Q270.635 1105.45 268.806 1109.02 Q267.001 1112.56 267.001 1119.69 Q267.001 1126.8 268.806 1130.36 Q270.635 1133.9 274.246 1133.9 Q277.88 1133.9 279.686 1130.36 Q281.514 1126.8 281.514 1119.69 Q281.514 1112.56 279.686 1109.02 Q277.88 1105.45 274.246 1105.45 M274.246 1101.75 Q280.056 1101.75 283.112 1106.36 Q286.19 1110.94 286.19 1119.69 Q286.19 1128.42 283.112 1133.02 Q280.056 1137.61 274.246 1137.61 Q268.436 1137.61 265.357 1133.02 Q262.302 1128.42 262.302 1119.69 Q262.302 1110.94 265.357 1106.36 Q268.436 1101.75 274.246 1101.75 Z" fill="#ffffff" fill-rule="evenodd" fill-opacity="1" /><path clip-path="url(#clip390)" d="M286.736 1106.33 L292.942 1106.33 L292.942 1084.91 L286.19 1086.26 L286.19 1082.8 L292.905 1081.44 L296.704 1081.44 L296.704 1106.33 L302.91 1106.33 L302.91 1109.52 L286.736 1109.52 L286.736 1106.33 Z" fill="#ffffff" fill-rule="evenodd" fill-opacity="1" /><path clip-path="url(#clip390)" d="M322.094 1094.38 Q324.822 1094.97 326.345 1096.81 Q327.887 1098.65 327.887 1101.36 Q327.887 1105.52 325.028 1107.79 Q322.17 1110.07 316.903 1110.07 Q315.136 1110.07 313.255 1109.71 Q311.393 1109.37 309.399 1108.68 L309.399 1105.01 Q310.979 1105.93 312.86 1106.4 Q314.741 1106.87 316.791 1106.87 Q320.364 1106.87 322.226 1105.46 Q324.107 1104.05 324.107 1101.36 Q324.107 1098.88 322.358 1097.49 Q320.627 1096.08 317.524 1096.08 L314.252 1096.08 L314.252 1092.96 L317.675 1092.96 Q320.477 1092.96 321.963 1091.85 Q323.449 1090.72 323.449 1088.61 Q323.449 1086.45 321.906 1085.3 Q320.383 1084.13 317.524 1084.13 Q315.963 1084.13 314.176 1084.47 Q312.39 1084.81 310.246 1085.53 L310.246 1082.14 Q312.408 1081.54 314.289 1081.24 Q316.189 1080.94 317.863 1080.94 Q322.188 1080.94 324.709 1082.91 Q327.229 1084.87 327.229 1088.22 Q327.229 1090.55 325.894 1092.17 Q324.558 1093.76 322.094 1094.38 Z" fill="#ffffff" fill-rule="evenodd" fill-opacity="1" /><path clip-path="url(#clip390)" d="M129.548 716.554 Q126.4 716.554 124.548 718.706 Q122.719 720.859 122.719 724.609 Q122.719 728.336 124.548 730.512 Q126.4 732.665 129.548 732.665 Q132.696 732.665 134.525 730.512 Q136.376 728.336 136.376 724.609 Q136.376 720.859 134.525 718.706 Q132.696 716.554 129.548 716.554 M138.83 701.901 L138.83 706.16 Q137.071 705.327 135.265 704.887 Q133.483 704.447 131.724 704.447 Q127.094 704.447 124.64 707.572 Q122.21 710.697 121.863 717.017 Q123.228 715.003 125.288 713.938 Q127.349 712.85 129.825 712.85 Q135.034 712.85 138.043 716.021 Q141.075 719.169 141.075 724.609 Q141.075 729.933 137.927 733.151 Q134.779 736.368 129.548 736.368 Q123.552 736.368 120.381 731.785 Q117.21 727.179 117.21 718.452 Q117.21 710.257 121.099 705.396 Q124.988 700.512 131.538 700.512 Q133.298 700.512 135.08 700.859 Q136.886 701.207 138.83 701.901 Z" fill="#ffffff" fill-rule="evenodd" fill-opacity="1" /><path clip-path="url(#clip390)" d="M149.131 729.818 L154.015 729.818 L154.015 735.697 L149.131 735.697 L149.131 729.818 Z" fill="#ffffff" fill-rule="evenodd" fill-opacity="1" /><path clip-path="url(#clip390)" d="M174.2 704.216 Q170.589 704.216 168.76 707.781 Q166.955 711.322 166.955 718.452 Q166.955 725.558 168.76 729.123 Q170.589 732.665 174.2 732.665 Q177.834 732.665 179.64 729.123 Q181.469 725.558 181.469 718.452 Q181.469 711.322 179.64 707.781 Q177.834 704.216 174.2 704.216 M174.2 700.512 Q180.01 700.512 183.066 705.119 Q186.145 709.702 186.145 718.452 Q186.145 727.179 183.066 731.785 Q180.01 736.368 174.2 736.368 Q168.39 736.368 165.311 731.785 Q162.256 727.179 162.256 718.452 Q162.256 709.702 165.311 705.119 Q168.39 700.512 174.2 700.512 Z" fill="#ffffff" fill-rule="evenodd" fill-opacity="1" /><path clip-path="url(#clip390)" d="M222.533 710.234 L211.955 720.859 L222.533 731.438 L219.779 734.239 L209.154 723.614 L198.529 734.239 L195.797 731.438 L206.353 720.859 L195.797 710.234 L198.529 707.433 L209.154 718.058 L219.779 707.433 L222.533 710.234 Z" fill="#ffffff" fill-rule="evenodd" fill-opacity="1" /><path clip-path="url(#clip390)" d="M234.894 731.762 L242.533 731.762 L242.533 705.396 L234.223 707.063 L234.223 702.804 L242.487 701.137 L247.163 701.137 L247.163 731.762 L254.802 731.762 L254.802 735.697 L234.894 735.697 L234.894 731.762 Z" fill="#ffffff" fill-rule="evenodd" fill-opacity="1" /><path clip-path="url(#clip390)" d="M274.246 704.216 Q270.635 704.216 268.806 707.781 Q267.001 711.322 267.001 718.452 Q267.001 725.558 268.806 729.123 Q270.635 732.665 274.246 732.665 Q277.88 732.665 279.686 729.123 Q281.514 725.558 281.514 718.452 Q281.514 711.322 279.686 707.781 Q277.88 704.216 274.246 704.216 M274.246 700.512 Q280.056 700.512 283.112 705.119 Q286.19 709.702 286.19 718.452 Q286.19 727.179 283.112 731.785 Q280.056 736.368 274.246 736.368 Q268.436 736.368 265.357 731.785 Q262.302 727.179 262.302 718.452 Q262.302 709.702 265.357 705.119 Q268.436 700.512 274.246 700.512 Z" fill="#ffffff" fill-rule="evenodd" fill-opacity="1" /><path clip-path="url(#clip390)" d="M286.736 705.089 L292.942 705.089 L292.942 683.667 L286.19 685.022 L286.19 681.561 L292.905 680.207 L296.704 680.207 L296.704 705.089 L302.91 705.089 L302.91 708.287 L286.736 708.287 L286.736 705.089 Z" fill="#ffffff" fill-rule="evenodd" fill-opacity="1" /><path clip-path="url(#clip390)" d="M322.094 693.146 Q324.822 693.73 326.345 695.573 Q327.887 697.416 327.887 700.124 Q327.887 704.281 325.028 706.556 Q322.17 708.832 316.903 708.832 Q315.136 708.832 313.255 708.475 Q311.393 708.136 309.399 707.44 L309.399 703.773 Q310.979 704.694 312.86 705.165 Q314.741 705.635 316.791 705.635 Q320.364 705.635 322.226 704.224 Q324.107 702.814 324.107 700.124 Q324.107 697.642 322.358 696.25 Q320.627 694.839 317.524 694.839 L314.252 694.839 L314.252 691.717 L317.675 691.717 Q320.477 691.717 321.963 690.607 Q323.449 689.479 323.449 687.372 Q323.449 685.21 321.906 684.062 Q320.383 682.896 317.524 682.896 Q315.963 682.896 314.176 683.235 Q312.39 683.573 310.246 684.288 L310.246 680.903 Q312.408 680.301 314.289 680 Q316.189 679.699 317.863 679.699 Q322.188 679.699 324.709 681.674 Q327.229 683.63 327.229 686.978 Q327.229 689.31 325.894 690.927 Q324.558 692.526 322.094 693.146 Z" fill="#ffffff" fill-rule="evenodd" fill-opacity="1" /><path clip-path="url(#clip390)" d="M128.969 318.047 Q125.636 318.047 123.714 319.83 Q121.816 321.612 121.816 324.737 Q121.816 327.862 123.714 329.644 Q125.636 331.427 128.969 331.427 Q132.302 331.427 134.224 329.644 Q136.145 327.839 136.145 324.737 Q136.145 321.612 134.224 319.83 Q132.325 318.047 128.969 318.047 M124.293 316.056 Q121.284 315.316 119.594 313.256 Q117.927 311.195 117.927 308.232 Q117.927 304.089 120.867 301.682 Q123.83 299.274 128.969 299.274 Q134.131 299.274 137.071 301.682 Q140.011 304.089 140.011 308.232 Q140.011 311.195 138.321 313.256 Q136.654 315.316 133.668 316.056 Q137.048 316.844 138.923 319.135 Q140.821 321.427 140.821 324.737 Q140.821 329.76 137.742 332.445 Q134.687 335.13 128.969 335.13 Q123.251 335.13 120.173 332.445 Q117.117 329.76 117.117 324.737 Q117.117 321.427 119.015 319.135 Q120.913 316.844 124.293 316.056 M122.58 308.672 Q122.58 311.357 124.247 312.862 Q125.937 314.367 128.969 314.367 Q131.978 314.367 133.668 312.862 Q135.381 311.357 135.381 308.672 Q135.381 305.987 133.668 304.482 Q131.978 302.978 128.969 302.978 Q125.937 302.978 124.247 304.482 Q122.58 305.987 122.58 308.672 Z" fill="#ffffff" fill-rule="evenodd" fill-opacity="1" /><path clip-path="url(#clip390)" d="M149.131 328.58 L154.015 328.58 L154.015 334.459 L149.131 334.459 L149.131 328.58 Z" fill="#ffffff" fill-rule="evenodd" fill-opacity="1" /><path clip-path="url(#clip390)" d="M174.2 302.978 Q170.589 302.978 168.76 306.543 Q166.955 310.084 166.955 317.214 Q166.955 324.32 168.76 327.885 Q170.589 331.427 174.2 331.427 Q177.834 331.427 179.64 327.885 Q181.469 324.32 181.469 317.214 Q181.469 310.084 179.64 306.543 Q177.834 302.978 174.2 302.978 M174.2 299.274 Q180.01 299.274 183.066 303.881 Q186.145 308.464 186.145 317.214 Q186.145 325.941 183.066 330.547 Q180.01 335.13 174.2 335.13 Q168.39 335.13 165.311 330.547 Q162.256 325.941 162.256 317.214 Q162.256 308.464 165.311 303.881 Q168.39 299.274 174.2 299.274 Z" fill="#ffffff" fill-rule="evenodd" fill-opacity="1" /><path clip-path="url(#clip390)" d="M222.533 308.996 L211.955 319.621 L222.533 330.2 L219.779 333.001 L209.154 322.376 L198.529 333.001 L195.797 330.2 L206.353 319.621 L195.797 308.996 L198.529 306.195 L209.154 316.82 L219.779 306.195 L222.533 308.996 Z" fill="#ffffff" fill-rule="evenodd" fill-opacity="1" /><path clip-path="url(#clip390)" d="M234.894 330.524 L242.533 330.524 L242.533 304.158 L234.223 305.825 L234.223 301.566 L242.487 299.899 L247.163 299.899 L247.163 330.524 L254.802 330.524 L254.802 334.459 L234.894 334.459 L234.894 330.524 Z" fill="#ffffff" fill-rule="evenodd" fill-opacity="1" /><path clip-path="url(#clip390)" d="M274.246 302.978 Q270.635 302.978 268.806 306.543 Q267.001 310.084 267.001 317.214 Q267.001 324.32 268.806 327.885 Q270.635 331.427 274.246 331.427 Q277.88 331.427 279.686 327.885 Q281.514 324.32 281.514 317.214 Q281.514 310.084 279.686 306.543 Q277.88 302.978 274.246 302.978 M274.246 299.274 Q280.056 299.274 283.112 303.881 Q286.19 308.464 286.19 317.214 Q286.19 325.941 283.112 330.547 Q280.056 335.13 274.246 335.13 Q268.436 335.13 265.357 330.547 Q262.302 325.941 262.302 317.214 Q262.302 308.464 265.357 303.881 Q268.436 299.274 274.246 299.274 Z" fill="#ffffff" fill-rule="evenodd" fill-opacity="1" /><path clip-path="url(#clip390)" d="M286.736 303.851 L292.942 303.851 L292.942 282.429 L286.19 283.784 L286.19 280.323 L292.905 278.969 L296.704 278.969 L296.704 303.851 L302.91 303.851 L302.91 307.049 L286.736 307.049 L286.736 303.851 Z" fill="#ffffff" fill-rule="evenodd" fill-opacity="1" /><path clip-path="url(#clip390)" d="M322.094 291.909 Q324.822 292.492 326.345 294.335 Q327.887 296.178 327.887 298.886 Q327.887 303.043 325.028 305.318 Q322.17 307.594 316.903 307.594 Q315.136 307.594 313.255 307.237 Q311.393 306.898 309.399 306.202 L309.399 302.535 Q310.979 303.456 312.86 303.927 Q314.741 304.397 316.791 304.397 Q320.364 304.397 322.226 302.986 Q324.107 301.576 324.107 298.886 Q324.107 296.404 322.358 295.012 Q320.627 293.601 317.524 293.601 L314.252 293.601 L314.252 290.479 L317.675 290.479 Q320.477 290.479 321.963 289.369 Q323.449 288.241 323.449 286.135 Q323.449 283.972 321.906 282.824 Q320.383 281.658 317.524 281.658 Q315.963 281.658 314.176 281.997 Q312.39 282.335 310.246 283.05 L310.246 279.665 Q312.408 279.063 314.289 278.762 Q316.189 278.461 317.863 278.461 Q322.188 278.461 324.709 280.436 Q327.229 282.392 327.229 285.74 Q327.229 288.072 325.894 289.689 Q324.558 291.288 322.094 291.909 Z" fill="#ffffff" fill-rule="evenodd" fill-opacity="1" /><path clip-path="url(#clip390)" d="M14.1184 1274.64 L14.1184 1234.44 L19.5293 1234.44 L19.5293 1251.31 L61.6384 1251.31 L61.6384 1257.77 L19.5293 1257.77 L19.5293 1274.64 L14.1184 1274.64 Z" fill="#ffffff" fill-rule="evenodd" fill-opacity="1" /><path clip-path="url(#clip390)" d="M30.0964 1225.75 Q30.0964 1230.46 33.7885 1233.2 Q37.4488 1235.94 43.8463 1235.94 Q50.2438 1235.94 53.9359 1233.23 Q57.5962 1230.49 57.5962 1225.75 Q57.5962 1221.07 53.9041 1218.33 Q50.212 1215.6 43.8463 1215.6 Q37.5124 1215.6 33.8203 1218.33 Q30.0964 1221.07 30.0964 1225.75 M25.1311 1225.75 Q25.1311 1218.11 30.0964 1213.75 Q35.0616 1209.39 43.8463 1209.39 Q52.5991 1209.39 57.5962 1213.75 Q62.5615 1218.11 62.5615 1225.75 Q62.5615 1233.42 57.5962 1237.78 Q52.5991 1242.11 43.8463 1242.11 Q35.0616 1242.11 30.0964 1237.78 Q25.1311 1233.42 25.1311 1225.75 Z" fill="#ffffff" fill-rule="evenodd" fill-opacity="1" /><path clip-path="url(#clip390)" d="M15.869 1193.89 L25.9905 1193.89 L25.9905 1181.83 L30.542 1181.83 L30.542 1193.89 L49.8937 1193.89 Q54.2542 1193.89 55.4955 1192.71 Q56.7368 1191.5 56.7368 1187.84 L56.7368 1181.83 L61.6384 1181.83 L61.6384 1187.84 Q61.6384 1194.62 59.124 1197.2 Q56.5777 1199.78 49.8937 1199.78 L30.542 1199.78 L30.542 1204.08 L25.9905 1204.08 L25.9905 1199.78 L15.869 1199.78 L15.869 1193.89 Z" fill="#ffffff" fill-rule="evenodd" fill-opacity="1" /><path clip-path="url(#clip390)" d="M43.719 1157.92 Q43.719 1165.02 45.3422 1167.76 Q46.9655 1170.5 50.8804 1170.5 Q53.9996 1170.5 55.8457 1168.46 Q57.6599 1166.39 57.6599 1162.86 Q57.6599 1157.99 54.2224 1155.06 Q50.7531 1152.1 45.0239 1152.1 L43.719 1152.1 L43.719 1157.92 M41.3 1146.24 L61.6384 1146.24 L61.6384 1152.1 L56.2276 1152.1 Q59.4741 1154.1 61.0337 1157.1 Q62.5615 1160.09 62.5615 1164.42 Q62.5615 1169.89 59.5059 1173.14 Q56.4186 1176.35 51.2623 1176.35 Q45.2467 1176.35 42.1912 1172.34 Q39.1357 1168.3 39.1357 1160.31 L39.1357 1152.1 L38.5628 1152.1 Q34.5205 1152.1 32.3244 1154.77 Q30.0964 1157.41 30.0964 1162.22 Q30.0964 1165.28 30.8284 1168.17 Q31.5605 1171.07 33.0246 1173.74 L27.6137 1173.74 Q26.3724 1170.53 25.7677 1167.5 Q25.1311 1164.48 25.1311 1161.62 Q25.1311 1153.88 29.1415 1150.06 Q33.1519 1146.24 41.3 1146.24 Z" fill="#ffffff" fill-rule="evenodd" fill-opacity="1" /><path clip-path="url(#clip390)" d="M12.1132 1134.18 L12.1132 1128.32 L61.6384 1128.32 L61.6384 1134.18 L12.1132 1134.18 Z" fill="#ffffff" fill-rule="evenodd" fill-opacity="1" /><path clip-path="url(#clip390)" d="M54.859 1062.69 L42.0957 1062.69 L42.0957 1073.2 L36.8122 1073.2 L36.8122 1056.33 L57.2143 1056.33 Q59.856 1060.05 61.2247 1064.54 Q62.5615 1069.03 62.5615 1074.12 Q62.5615 1085.26 56.0684 1091.56 Q49.5436 1097.83 37.9262 1097.83 Q26.2769 1097.83 19.7839 1091.56 Q13.2591 1085.26 13.2591 1074.12 Q13.2591 1069.47 14.4049 1065.3 Q15.5507 1061.1 17.7787 1057.57 L24.6219 1057.57 Q21.5981 1061.13 20.0704 1065.14 Q18.5426 1069.15 18.5426 1073.58 Q18.5426 1082.3 23.4124 1086.69 Q28.2821 1091.05 37.9262 1091.05 Q47.5384 1091.05 52.4082 1086.69 Q57.2779 1082.3 57.2779 1073.58 Q57.2779 1070.17 56.705 1067.5 Q56.1003 1064.83 54.859 1062.69 Z" fill="#ffffff" fill-rule="evenodd" fill-opacity="1" /><path clip-path="url(#clip390)" d="M19.402 1038.15 L56.3549 1038.15 L56.3549 1030.39 Q56.3549 1020.55 51.8989 1016 Q47.4429 1011.42 37.8307 1011.42 Q28.2821 1011.42 23.858 1016 Q19.402 1020.55 19.402 1030.39 L19.402 1038.15 M14.1184 1044.58 L14.1184 1031.37 Q14.1184 1017.56 19.8794 1011.1 Q25.6085 1004.64 37.8307 1004.64 Q50.1165 1004.64 55.8775 1011.13 Q61.6384 1017.62 61.6384 1031.37 L61.6384 1044.58 L14.1184 1044.58 Z" fill="#ffffff" fill-rule="evenodd" fill-opacity="1" /><path clip-path="url(#clip390)" d="M19.402 987.959 L37.2578 987.959 L37.2578 979.875 Q37.2578 975.387 34.9343 972.936 Q32.6108 970.486 28.314 970.486 Q24.0489 970.486 21.7255 972.936 Q19.402 975.387 19.402 979.875 L19.402 987.959 M14.1184 994.389 L14.1184 979.875 Q14.1184 971.886 17.7469 967.812 Q21.3435 963.706 28.314 963.706 Q35.3481 963.706 38.9447 967.812 Q42.5413 971.886 42.5413 979.875 L42.5413 987.959 L61.6384 987.959 L61.6384 994.389 L14.1184 994.389 Z" fill="#ffffff" fill-rule="evenodd" fill-opacity="1" /><path clip-path="url(#clip390)" d="M12.1769 920.547 Q19.4975 924.812 26.6589 926.881 Q33.8203 928.949 41.1727 928.949 Q48.5251 928.949 55.7502 926.881 Q62.9434 924.78 70.2321 920.547 L70.2321 925.639 Q62.7524 930.413 55.5274 932.801 Q48.3023 935.156 41.1727 935.156 Q34.0749 935.156 26.8817 932.801 Q19.6884 930.445 12.1769 925.639 L12.1769 920.547 Z" fill="#ffffff" fill-rule="evenodd" fill-opacity="1" /><path clip-path="url(#clip390)" d="M25.9905 909.184 L25.9905 903.327 L61.6384 903.327 L61.6384 909.184 L25.9905 909.184 M12.1132 909.184 L12.1132 903.327 L19.5293 903.327 L19.5293 909.184 L12.1132 909.184 Z" fill="#ffffff" fill-rule="evenodd" fill-opacity="1" /><path clip-path="url(#clip390)" d="M40.1224 861.441 L61.6384 861.441 L61.6384 867.297 L40.3133 867.297 Q35.2526 867.297 32.7381 869.271 Q30.2237 871.244 30.2237 875.191 Q30.2237 879.933 33.2474 882.671 Q36.2711 885.408 41.491 885.408 L61.6384 885.408 L61.6384 891.296 L25.9905 891.296 L25.9905 885.408 L31.5287 885.408 Q28.314 883.307 26.7225 880.475 Q25.1311 877.61 25.1311 873.886 Q25.1311 867.743 28.9505 864.592 Q32.7381 861.441 40.1224 861.441 Z" fill="#ffffff" fill-rule="evenodd" fill-opacity="1" /><path clip-path="url(#clip390)" d="M56.2276 822.674 L56.2276 800.235 L61.6384 800.235 L61.6384 830.408 L56.2276 830.408 Q52.44 826.748 46.0743 820.446 Q39.6768 814.112 37.8307 812.489 Q34.3614 809.401 31.9743 808.192 Q29.5553 806.951 27.2318 806.951 Q23.4442 806.951 21.0571 809.624 Q18.6699 812.266 18.6699 816.531 Q18.6699 819.555 19.7203 822.929 Q20.7706 826.271 22.9031 830.09 L16.4101 830.09 Q14.8505 826.207 14.0548 822.833 Q13.2591 819.459 13.2591 816.658 Q13.2591 809.274 16.9512 804.882 Q20.6433 800.489 26.818 800.489 Q29.7463 800.489 32.388 801.603 Q34.998 802.686 38.5628 805.582 Q39.4858 806.378 43.91 810.643 Q48.3023 814.908 56.2276 822.674 Z" fill="#ffffff" fill-rule="evenodd" fill-opacity="1" /><path clip-path="url(#clip390)" d="M18.3516 772.99 Q18.3516 777.955 23.2532 780.469 Q28.123 782.952 37.9262 782.952 Q47.6975 782.952 52.5991 780.469 Q57.4689 777.955 57.4689 772.99 Q57.4689 767.992 52.5991 765.51 Q47.6975 762.995 37.9262 762.995 Q28.123 762.995 23.2532 765.51 Q18.3516 767.992 18.3516 772.99 M13.2591 772.99 Q13.2591 765.001 19.593 760.799 Q25.895 756.566 37.9262 756.566 Q49.9255 756.566 56.2594 760.799 Q62.5615 765.001 62.5615 772.99 Q62.5615 780.979 56.2594 785.212 Q49.9255 789.413 37.9262 789.413 Q25.895 789.413 19.593 785.212 Q13.2591 780.979 13.2591 772.99 Z" fill="#ffffff" fill-rule="evenodd" fill-opacity="1" /><path clip-path="url(#clip390)" d="M56.2276 744.153 L56.2276 733.649 L19.9749 733.649 L22.2665 745.076 L16.4101 745.076 L14.1184 733.713 L14.1184 727.284 L56.2276 727.284 L56.2276 716.78 L61.6384 716.78 L61.6384 744.153 L56.2276 744.153 Z" fill="#ffffff" fill-rule="evenodd" fill-opacity="1" /><path clip-path="url(#clip390)" d="M14.1184 703.731 L14.1184 678.491 L19.5293 678.491 L19.5293 697.842 L31.1785 697.842 Q30.7011 696.442 30.4783 695.041 Q30.2237 693.641 30.2237 692.241 Q30.2237 684.283 34.5842 679.636 Q38.9447 674.989 46.3926 674.989 Q54.0633 674.989 58.3283 679.764 Q62.5615 684.538 62.5615 693.227 Q62.5615 696.219 62.0522 699.338 Q61.543 702.426 60.5244 705.736 L54.0633 705.736 Q55.6229 702.871 56.3867 699.816 Q57.1506 696.76 57.1506 693.355 Q57.1506 687.848 54.2542 684.634 Q51.3578 681.419 46.3926 681.419 Q41.4273 681.419 38.5309 684.634 Q35.6345 687.848 35.6345 693.355 Q35.6345 695.933 36.2074 698.511 Q36.7804 701.057 37.9898 703.731 L14.1184 703.731 Z" fill="#ffffff" fill-rule="evenodd" fill-opacity="1" /><path clip-path="url(#clip390)" d="M71.2188 626.546 L71.2188 629.729 L61.6384 629.761 Q61.5748 633.103 60.8746 636.445 Q60.1425 639.787 58.7102 643.161 L52.9811 643.161 Q55.0181 639.914 56.0684 636.604 Q57.087 633.262 57.1188 629.729 L42.605 629.729 Q41.4592 636.763 38.7219 639.978 Q35.9846 643.161 31.2104 643.161 Q26.0223 643.161 23.0304 639.692 Q20.0386 636.222 19.593 629.729 L12.1132 629.729 L12.1132 626.546 L19.4975 626.546 Q19.6248 623.586 20.134 620.817 Q20.6115 618.048 21.4708 615.406 L27.0408 615.406 Q25.704 618.048 24.972 620.849 Q24.2399 623.618 24.1126 626.546 L37.7034 626.546 Q38.8174 619.321 41.682 615.916 Q44.5465 612.51 49.5118 612.51 Q54.8908 612.51 58.01 616.139 Q61.0974 619.735 61.5748 626.546 L71.2188 626.546 M37.1305 629.729 L24.0808 629.729 Q24.4945 633.421 26.1815 635.363 Q27.8684 637.305 30.6693 637.305 Q33.4065 637.305 34.9343 635.522 Q36.4621 633.708 37.1305 629.729 M43.2416 626.546 L57.0233 626.546 Q56.4822 622.504 54.7317 620.467 Q52.9811 618.398 50.1165 618.398 Q47.3156 618.398 45.6605 620.372 Q44.0054 622.313 43.2416 626.546 Z" fill="#ffffff" fill-rule="evenodd" fill-opacity="1" /><path clip-path="url(#clip390)" d="M12.1769 601.879 L12.1769 596.787 Q19.6884 592.013 26.8817 589.657 Q34.0749 587.27 41.1727 587.27 Q48.3023 587.27 55.5274 589.657 Q62.7524 592.013 70.2321 596.787 L70.2321 601.879 Q62.9434 597.646 55.7502 595.577 Q48.5251 593.477 41.1727 593.477 Q33.8203 593.477 26.6589 595.577 Q19.4975 597.646 12.1769 601.879 Z" fill="#ffffff" fill-rule="evenodd" fill-opacity="1" /><path clip-path="url(#clip390)" d="M665.276 12.096 L716.439 12.096 L716.439 18.9825 L694.969 18.9825 L694.969 72.576 L686.746 72.576 L686.746 18.9825 L665.276 18.9825 L665.276 12.096 Z" fill="#ffffff" fill-rule="evenodd" fill-opacity="1" /><path clip-path="url(#clip390)" d="M727.498 32.4315 Q721.503 32.4315 718.019 37.1306 Q714.535 41.7891 714.535 49.9314 Q714.535 58.0738 717.978 62.7728 Q721.462 67.4314 727.498 67.4314 Q733.453 67.4314 736.936 62.7323 Q740.42 58.0333 740.42 49.9314 Q740.42 41.8701 736.936 37.1711 Q733.453 32.4315 727.498 32.4315 M727.498 26.1121 Q737.22 26.1121 742.77 32.4315 Q748.32 38.7509 748.32 49.9314 Q748.32 61.0714 742.77 67.4314 Q737.22 73.7508 727.498 73.7508 Q717.735 73.7508 712.185 67.4314 Q706.676 61.0714 706.676 49.9314 Q706.676 38.7509 712.185 32.4315 Q717.735 26.1121 727.498 26.1121 Z" fill="#ffffff" fill-rule="evenodd" fill-opacity="1" /><path clip-path="url(#clip390)" d="M768.047 14.324 L768.047 27.2059 L783.4 27.2059 L783.4 32.9987 L768.047 32.9987 L768.047 57.6282 Q768.047 63.1779 769.546 64.7578 Q771.086 66.3376 775.744 66.3376 L783.4 66.3376 L783.4 72.576 L775.744 72.576 Q767.116 72.576 763.834 69.3758 Q760.553 66.1351 760.553 57.6282 L760.553 32.9987 L755.085 32.9987 L755.085 27.2059 L760.553 27.2059 L760.553 14.324 L768.047 14.324 Z" fill="#ffffff" fill-rule="evenodd" fill-opacity="1" /><path clip-path="url(#clip390)" d="M813.823 49.7694 Q804.789 49.7694 801.305 51.8354 Q797.822 53.9013 797.822 58.8839 Q797.822 62.8538 800.414 65.2034 Q803.047 67.5124 807.544 67.5124 Q813.742 67.5124 817.468 63.1374 Q821.236 58.7219 821.236 51.4303 L821.236 49.7694 L813.823 49.7694 M828.689 46.6907 L828.689 72.576 L821.236 72.576 L821.236 65.6895 Q818.684 69.8214 814.876 71.8063 Q811.068 73.7508 805.559 73.7508 Q798.591 73.7508 794.459 69.8619 Q790.368 65.9325 790.368 59.3701 Q790.368 51.7138 795.472 47.825 Q800.617 43.9361 810.784 43.9361 L821.236 43.9361 L821.236 43.2069 Q821.236 38.0623 817.833 35.2672 Q814.471 32.4315 808.354 32.4315 Q804.465 32.4315 800.779 33.3632 Q797.092 34.295 793.69 36.1584 L793.69 29.2718 Q797.781 27.692 801.629 26.9223 Q805.478 26.1121 809.124 26.1121 Q818.967 26.1121 823.828 31.2163 Q828.689 36.3204 828.689 46.6907 Z" fill="#ffffff" fill-rule="evenodd" fill-opacity="1" /><path clip-path="url(#clip390)" d="M844.042 9.54393 L851.496 9.54393 L851.496 72.576 L844.042 72.576 L844.042 9.54393 Z" fill="#ffffff" fill-rule="evenodd" fill-opacity="1" /><path clip-path="url(#clip390)" d="M935.026 63.9476 L935.026 47.7034 L921.658 47.7034 L921.658 40.9789 L943.128 40.9789 L943.128 66.9452 Q938.388 70.3075 932.676 72.0494 Q926.964 73.7508 920.483 73.7508 Q906.305 73.7508 898.284 65.4869 Q890.304 57.1826 890.304 42.3968 Q890.304 27.5705 898.284 19.3066 Q906.305 11.0023 920.483 11.0023 Q926.397 11.0023 931.704 12.4606 Q937.051 13.9189 941.548 16.7545 L941.548 25.464 Q937.011 21.6156 931.907 19.6712 Q926.802 17.7268 921.172 17.7268 Q910.072 17.7268 904.482 23.9246 Q898.932 30.1225 898.932 42.3968 Q898.932 54.6305 904.482 60.8284 Q910.072 67.0263 921.172 67.0263 Q925.506 67.0263 928.909 66.2971 Q932.312 65.5274 935.026 63.9476 Z" fill="#ffffff" fill-rule="evenodd" fill-opacity="1" /><path clip-path="url(#clip390)" d="M966.258 18.8205 L966.258 65.8515 L976.142 65.8515 Q988.66 65.8515 994.452 60.1802 Q1000.29 54.509 1000.29 42.2752 Q1000.29 30.1225 994.452 24.4918 Q988.66 18.8205 976.142 18.8205 L966.258 18.8205 M958.075 12.096 L974.887 12.096 Q992.468 12.096 1000.69 19.4281 Q1008.91 26.7198 1008.91 42.2752 Q1008.91 57.9117 1000.65 65.2439 Q992.387 72.576 974.887 72.576 L958.075 72.576 L958.075 12.096 Z" fill="#ffffff" fill-rule="evenodd" fill-opacity="1" /><path clip-path="url(#clip390)" d="M1030.14 18.8205 L1030.14 41.5461 L1040.43 41.5461 Q1046.14 41.5461 1049.26 38.5889 Q1052.38 35.6318 1052.38 30.163 Q1052.38 24.7348 1049.26 21.7777 Q1046.14 18.8205 1040.43 18.8205 L1030.14 18.8205 M1021.96 12.096 L1040.43 12.096 Q1050.6 12.096 1055.78 16.714 Q1061.01 21.2916 1061.01 30.163 Q1061.01 39.1155 1055.78 43.6931 Q1050.6 48.2706 1040.43 48.2706 L1030.14 48.2706 L1030.14 72.576 L1021.96 72.576 L1021.96 12.096 Z" fill="#ffffff" fill-rule="evenodd" fill-opacity="1" /><path clip-path="url(#clip390)" d="M1115.94 9.62495 Q1110.51 18.942 1107.88 28.0566 Q1105.24 37.1711 1105.24 46.5287 Q1105.24 55.8863 1107.88 65.0818 Q1110.55 74.2369 1115.94 83.5134 L1109.46 83.5134 Q1103.38 73.9938 1100.34 64.7983 Q1097.35 55.6027 1097.35 46.5287 Q1097.35 37.4952 1100.34 28.3401 Q1103.34 19.1851 1109.46 9.62495 L1115.94 9.62495 Z" fill="#ffffff" fill-rule="evenodd" fill-opacity="1" /><path clip-path="url(#clip390)" d="M1130.4 27.2059 L1137.85 27.2059 L1137.85 72.576 L1130.4 72.576 L1130.4 27.2059 M1130.4 9.54393 L1137.85 9.54393 L1137.85 18.9825 L1130.4 18.9825 L1130.4 9.54393 Z" fill="#ffffff" fill-rule="evenodd" fill-opacity="1" /><path clip-path="url(#clip390)" d="M1191.16 45.1919 L1191.16 72.576 L1183.71 72.576 L1183.71 45.4349 Q1183.71 38.994 1181.2 35.7938 Q1178.69 32.5936 1173.66 32.5936 Q1167.63 32.5936 1164.14 36.4419 Q1160.66 40.2903 1160.66 46.9338 L1160.66 72.576 L1153.17 72.576 L1153.17 27.2059 L1160.66 27.2059 L1160.66 34.2544 Q1163.33 30.163 1166.94 28.1376 Q1170.59 26.1121 1175.33 26.1121 Q1183.14 26.1121 1187.15 30.9732 Q1191.16 35.7938 1191.16 45.1919 Z" fill="#ffffff" fill-rule="evenodd" fill-opacity="1" /><path clip-path="url(#clip390)" d="M1240.5 65.6895 L1269.06 65.6895 L1269.06 72.576 L1230.66 72.576 L1230.66 65.6895 Q1235.32 60.8689 1243.34 52.7671 Q1251.4 44.6248 1253.47 42.2752 Q1257.4 37.8598 1258.94 34.8216 Q1260.52 31.7429 1260.52 28.7857 Q1260.52 23.9651 1257.11 20.927 Q1253.75 17.8888 1248.32 17.8888 Q1244.47 17.8888 1240.18 19.2256 Q1235.93 20.5624 1231.07 23.2765 L1231.07 15.0127 Q1236.01 13.0277 1240.3 12.015 Q1244.6 11.0023 1248.16 11.0023 Q1257.56 11.0023 1263.15 15.7013 Q1268.74 20.4004 1268.74 28.2591 Q1268.74 31.9859 1267.32 35.3482 Q1265.94 38.6699 1262.26 43.2069 Q1261.25 44.3817 1255.82 50.0125 Q1250.39 55.6027 1240.5 65.6895 Z" fill="#ffffff" fill-rule="evenodd" fill-opacity="1" /><path clip-path="url(#clip390)" d="M1303.74 17.4837 Q1297.42 17.4837 1294.22 23.7221 Q1291.06 29.92 1291.06 42.3968 Q1291.06 54.833 1294.22 61.0714 Q1297.42 67.2693 1303.74 67.2693 Q1310.1 67.2693 1313.26 61.0714 Q1316.46 54.833 1316.46 42.3968 Q1316.46 29.92 1313.26 23.7221 Q1310.1 17.4837 1303.74 17.4837 M1303.74 11.0023 Q1313.91 11.0023 1319.25 19.0636 Q1324.64 27.0843 1324.64 42.3968 Q1324.64 57.6687 1319.25 65.73 Q1313.91 73.7508 1303.74 73.7508 Q1293.57 73.7508 1288.18 65.73 Q1282.84 57.6687 1282.84 42.3968 Q1282.84 27.0843 1288.18 19.0636 Q1293.57 11.0023 1303.74 11.0023 Z" fill="#ffffff" fill-rule="evenodd" fill-opacity="1" /><path clip-path="url(#clip390)" d="M1340.44 65.6895 L1353.81 65.6895 L1353.81 19.5497 L1339.27 22.4663 L1339.27 15.0127 L1353.73 12.096 L1361.91 12.096 L1361.91 65.6895 L1375.28 65.6895 L1375.28 72.576 L1340.44 72.576 L1340.44 65.6895 Z" fill="#ffffff" fill-rule="evenodd" fill-opacity="1" /><path clip-path="url(#clip390)" d="M1391.89 12.096 L1424.01 12.096 L1424.01 18.9825 L1399.38 18.9825 L1399.38 33.8088 Q1401.16 33.2012 1402.95 32.9176 Q1404.73 32.5936 1406.51 32.5936 Q1416.64 32.5936 1422.55 38.1433 Q1428.47 43.6931 1428.47 53.1722 Q1428.47 62.9348 1422.39 68.3631 Q1416.31 73.7508 1405.25 73.7508 Q1401.45 73.7508 1397.48 73.1026 Q1393.55 72.4545 1389.33 71.1582 L1389.33 62.9348 Q1392.98 64.9198 1396.87 65.892 Q1400.76 66.8642 1405.09 66.8642 Q1412.1 66.8642 1416.19 63.1779 Q1420.28 59.4916 1420.28 53.1722 Q1420.28 46.8528 1416.19 43.1664 Q1412.1 39.4801 1405.09 39.4801 Q1401.81 39.4801 1398.53 40.2093 Q1395.29 40.9384 1391.89 42.4778 L1391.89 12.096 Z" fill="#ffffff" fill-rule="evenodd" fill-opacity="1" /><path clip-path="url(#clip390)" d="M1490.12 84.7692 L1486.07 84.7692 L1486.03 72.576 Q1481.78 72.495 1477.52 71.6038 Q1473.27 70.6721 1468.98 68.8492 L1468.98 61.5575 Q1473.11 64.1501 1477.32 65.4869 Q1481.57 66.7832 1486.07 66.8237 L1486.07 48.3516 Q1477.12 46.8933 1473.03 43.4095 Q1468.98 39.9257 1468.98 33.8494 Q1468.98 27.2464 1473.39 23.4385 Q1477.81 19.6307 1486.07 19.0636 L1486.07 9.54393 L1490.12 9.54393 L1490.12 18.942 Q1493.89 19.1041 1497.41 19.7522 Q1500.94 20.3598 1504.3 21.4536 L1504.3 28.5427 Q1500.94 26.8413 1497.37 25.9096 Q1493.85 24.9779 1490.12 24.8158 L1490.12 42.1132 Q1499.32 43.531 1503.65 47.1768 Q1507.99 50.8226 1507.99 57.1421 Q1507.99 63.9881 1503.37 67.958 Q1498.79 71.8873 1490.12 72.495 L1490.12 84.7692 M1486.07 41.384 L1486.07 24.7753 Q1481.37 25.3019 1478.9 27.4489 Q1476.43 29.5959 1476.43 33.1607 Q1476.43 36.6445 1478.7 38.5889 Q1481.01 40.5333 1486.07 41.384 M1490.12 49.1618 L1490.12 66.7022 Q1495.27 66.0135 1497.86 63.7855 Q1500.49 61.5575 1500.49 57.9117 Q1500.49 54.3469 1497.98 52.2405 Q1495.51 50.134 1490.12 49.1618 Z" fill="#ffffff" fill-rule="evenodd" fill-opacity="1" /><path clip-path="url(#clip390)" d="M1521.52 9.62495 L1528 9.62495 Q1534.07 19.1851 1537.07 28.3401 Q1540.11 37.4952 1540.11 46.5287 Q1540.11 55.6027 1537.07 64.7983 Q1534.07 73.9938 1528 83.5134 L1521.52 83.5134 Q1526.9 74.2369 1529.54 65.0818 Q1532.21 55.8863 1532.21 46.5287 Q1532.21 37.1711 1529.54 28.0566 Q1526.9 18.942 1521.52 9.62495 Z" fill="#ffffff" fill-rule="evenodd" fill-opacity="1" /><path clip-path="url(#clip390)" d="M1604.4 9.54393 L1604.4 15.7418 L1597.27 15.7418 Q1593.26 15.7418 1591.68 17.3622 Q1590.14 18.9825 1590.14 23.1955 L1590.14 27.2059 L1602.41 27.2059 L1602.41 32.9987 L1590.14 32.9987 L1590.14 72.576 L1582.64 72.576 L1582.64 32.9987 L1575.51 32.9987 L1575.51 27.2059 L1582.64 27.2059 L1582.64 24.0462 Q1582.64 16.471 1586.17 13.0277 Q1589.69 9.54393 1597.35 9.54393 L1604.4 9.54393 Z" fill="#ffffff" fill-rule="evenodd" fill-opacity="1" /><path clip-path="url(#clip390)" d="M1636.93 34.1734 Q1635.67 33.4443 1634.17 33.1202 Q1632.71 32.7556 1630.93 32.7556 Q1624.61 32.7556 1621.21 36.8875 Q1617.85 40.9789 1617.85 48.6757 L1617.85 72.576 L1610.35 72.576 L1610.35 27.2059 L1617.85 27.2059 L1617.85 34.2544 Q1620.2 30.1225 1623.96 28.1376 Q1627.73 26.1121 1633.12 26.1121 Q1633.89 26.1121 1634.82 26.2337 Q1635.75 26.3147 1636.89 26.5172 L1636.93 34.1734 Z" fill="#ffffff" fill-rule="evenodd" fill-opacity="1" /><path clip-path="url(#clip390)" d="M1660.5 32.4315 Q1654.51 32.4315 1651.02 37.1306 Q1647.54 41.7891 1647.54 49.9314 Q1647.54 58.0738 1650.98 62.7728 Q1654.47 67.4314 1660.5 67.4314 Q1666.46 67.4314 1669.94 62.7323 Q1673.42 58.0333 1673.42 49.9314 Q1673.42 41.8701 1669.94 37.1711 Q1666.46 32.4315 1660.5 32.4315 M1660.5 26.1121 Q1670.22 26.1121 1675.77 32.4315 Q1681.32 38.7509 1681.32 49.9314 Q1681.32 61.0714 1675.77 67.4314 Q1670.22 73.7508 1660.5 73.7508 Q1650.74 73.7508 1645.19 67.4314 Q1639.68 61.0714 1639.68 49.9314 Q1639.68 38.7509 1645.19 32.4315 Q1650.74 26.1121 1660.5 26.1121 Z" fill="#ffffff" fill-rule="evenodd" fill-opacity="1" /><path clip-path="url(#clip390)" d="M1729 35.9153 Q1731.8 30.8922 1735.69 28.5022 Q1739.58 26.1121 1744.84 26.1121 Q1751.93 26.1121 1755.78 31.0947 Q1759.63 36.0368 1759.63 45.1919 L1759.63 72.576 L1752.13 72.576 L1752.13 45.4349 Q1752.13 38.913 1749.82 35.7533 Q1747.52 32.5936 1742.78 32.5936 Q1736.98 32.5936 1733.62 36.4419 Q1730.26 40.2903 1730.26 46.9338 L1730.26 72.576 L1722.76 72.576 L1722.76 45.4349 Q1722.76 38.8725 1720.46 35.7533 Q1718.15 32.5936 1713.33 32.5936 Q1707.61 32.5936 1704.25 36.4824 Q1700.89 40.3308 1700.89 46.9338 L1700.89 72.576 L1693.4 72.576 L1693.4 27.2059 L1700.89 27.2059 L1700.89 34.2544 Q1703.44 30.082 1707.01 28.0971 Q1710.57 26.1121 1715.47 26.1121 Q1720.42 26.1121 1723.86 28.6237 Q1727.34 31.1352 1729 35.9153 Z" fill="#ffffff" fill-rule="evenodd" fill-opacity="1" /><path clip-path="url(#clip390)" d="M1803.34 65.6895 L1816.71 65.6895 L1816.71 19.5497 L1802.16 22.4663 L1802.16 15.0127 L1816.62 12.096 L1824.81 12.096 L1824.81 65.6895 L1838.17 65.6895 L1838.17 72.576 L1803.34 72.576 L1803.34 65.6895 Z" fill="#ffffff" fill-rule="evenodd" fill-opacity="1" /><path clip-path="url(#clip390)" d="M1854.95 71.3202 L1854.95 63.8666 Q1858.02 65.3249 1861.18 66.0946 Q1864.34 66.8642 1867.38 66.8642 Q1875.48 66.8642 1879.74 61.436 Q1884.03 55.9673 1884.64 44.8678 Q1882.29 48.3516 1878.68 50.215 Q1875.08 52.0784 1870.7 52.0784 Q1861.63 52.0784 1856.32 46.6097 Q1851.06 41.1005 1851.06 31.5808 Q1851.06 22.2638 1856.57 16.633 Q1862.08 11.0023 1871.23 11.0023 Q1881.72 11.0023 1887.23 19.0636 Q1892.78 27.0843 1892.78 42.3968 Q1892.78 56.6965 1885.98 65.2439 Q1879.21 73.7508 1867.75 73.7508 Q1864.67 73.7508 1861.51 73.1431 Q1858.35 72.5355 1854.95 71.3202 M1871.23 45.678 Q1876.74 45.678 1879.94 41.9107 Q1883.18 38.1433 1883.18 31.5808 Q1883.18 25.0589 1879.94 21.2916 Q1876.74 17.4837 1871.23 17.4837 Q1865.72 17.4837 1862.48 21.2916 Q1859.28 25.0589 1859.28 31.5808 Q1859.28 38.1433 1862.48 41.9107 Q1865.72 45.678 1871.23 45.678 Z" fill="#ffffff" fill-rule="evenodd" fill-opacity="1" /><path clip-path="url(#clip390)" d="M1926 39.075 Q1920.49 39.075 1917.25 42.8424 Q1914.05 46.6097 1914.05 53.1722 Q1914.05 59.6941 1917.25 63.502 Q1920.49 67.2693 1926 67.2693 Q1931.51 67.2693 1934.71 63.502 Q1937.95 59.6941 1937.95 53.1722 Q1937.95 46.6097 1934.71 42.8424 Q1931.51 39.075 1926 39.075 M1942.24 13.4328 L1942.24 20.8865 Q1939.16 19.4281 1936 18.6585 Q1932.88 17.8888 1929.81 17.8888 Q1921.7 17.8888 1917.41 23.3575 Q1913.16 28.8262 1912.55 39.8852 Q1914.94 36.3609 1918.54 34.4975 Q1922.15 32.5936 1926.48 32.5936 Q1935.6 32.5936 1940.87 38.1433 Q1946.17 43.6525 1946.17 53.1722 Q1946.17 62.4892 1940.66 68.12 Q1935.15 73.7508 1926 73.7508 Q1915.51 73.7508 1909.96 65.73 Q1904.41 57.6687 1904.41 42.3968 Q1904.41 28.0566 1911.21 19.5497 Q1918.02 11.0023 1929.48 11.0023 Q1932.56 11.0023 1935.68 11.6099 Q1938.84 12.2175 1942.24 13.4328 Z" fill="#ffffff" fill-rule="evenodd" fill-opacity="1" /><path clip-path="url(#clip390)" d="M1977.77 43.8551 Q1971.94 43.8551 1968.57 46.9743 Q1965.25 50.0935 1965.25 55.5622 Q1965.25 61.0309 1968.57 64.1501 Q1971.94 67.2693 1977.77 67.2693 Q1983.6 67.2693 1986.96 64.1501 Q1990.33 60.9904 1990.33 55.5622 Q1990.33 50.0935 1986.96 46.9743 Q1983.64 43.8551 1977.77 43.8551 M1969.59 40.3713 Q1964.32 39.075 1961.36 35.4697 Q1958.45 31.8644 1958.45 26.6793 Q1958.45 19.4281 1963.59 15.2152 Q1968.78 11.0023 1977.77 11.0023 Q1986.8 11.0023 1991.95 15.2152 Q1997.09 19.4281 1997.09 26.6793 Q1997.09 31.8644 1994.13 35.4697 Q1991.22 39.075 1985.99 40.3713 Q1991.91 41.7486 1995.19 45.759 Q1998.51 49.7694 1998.51 55.5622 Q1998.51 64.3527 1993.12 69.0517 Q1987.77 73.7508 1977.77 73.7508 Q1967.76 73.7508 1962.38 69.0517 Q1957.03 64.3527 1957.03 55.5622 Q1957.03 49.7694 1960.35 45.759 Q1963.67 41.7486 1969.59 40.3713 M1966.59 27.4489 Q1966.59 32.148 1969.51 34.7811 Q1972.46 37.4142 1977.77 37.4142 Q1983.04 37.4142 1985.99 34.7811 Q1988.99 32.148 1988.99 27.4489 Q1988.99 22.7499 1985.99 20.1168 Q1983.04 17.4837 1977.77 17.4837 Q1972.46 17.4837 1969.51 20.1168 Q1966.59 22.7499 1966.59 27.4489 Z" fill="#ffffff" fill-rule="evenodd" fill-opacity="1" /><path clip-path="url(#clip390)" d="M2045.74 14.324 L2045.74 27.2059 L2061.1 27.2059 L2061.1 32.9987 L2045.74 32.9987 L2045.74 57.6282 Q2045.74 63.1779 2047.24 64.7578 Q2048.78 66.3376 2053.44 66.3376 L2061.1 66.3376 L2061.1 72.576 L2053.44 72.576 Q2044.81 72.576 2041.53 69.3758 Q2038.25 66.1351 2038.25 57.6282 L2038.25 32.9987 L2032.78 32.9987 L2032.78 27.2059 L2038.25 27.2059 L2038.25 14.324 L2045.74 14.324 Z" fill="#ffffff" fill-rule="evenodd" fill-opacity="1" /><path clip-path="url(#clip390)" d="M2088.48 32.4315 Q2082.48 32.4315 2079 37.1306 Q2075.52 41.7891 2075.52 49.9314 Q2075.52 58.0738 2078.96 62.7728 Q2082.44 67.4314 2088.48 67.4314 Q2094.43 67.4314 2097.92 62.7323 Q2101.4 58.0333 2101.4 49.9314 Q2101.4 41.8701 2097.92 37.1711 Q2094.43 32.4315 2088.48 32.4315 M2088.48 26.1121 Q2098.2 26.1121 2103.75 32.4315 Q2109.3 38.7509 2109.3 49.9314 Q2109.3 61.0714 2103.75 67.4314 Q2098.2 73.7508 2088.48 73.7508 Q2078.72 73.7508 2073.17 67.4314 Q2067.66 61.0714 2067.66 49.9314 Q2067.66 38.7509 2073.17 32.4315 Q2078.72 26.1121 2088.48 26.1121 Z" fill="#ffffff" fill-rule="evenodd" fill-opacity="1" /><path clip-path="url(#clip390)" d="M2156.13 65.6895 L2184.69 65.6895 L2184.69 72.576 L2146.29 72.576 L2146.29 65.6895 Q2150.95 60.8689 2158.97 52.7671 Q2167.03 44.6248 2169.09 42.2752 Q2173.02 37.8598 2174.56 34.8216 Q2176.14 31.7429 2176.14 28.7857 Q2176.14 23.9651 2172.74 20.927 Q2169.38 17.8888 2163.95 17.8888 Q2160.1 17.8888 2155.81 19.2256 Q2151.55 20.5624 2146.69 23.2765 L2146.69 15.0127 Q2151.63 13.0277 2155.93 12.015 Q2160.22 11.0023 2163.79 11.0023 Q2173.18 11.0023 2178.77 15.7013 Q2184.37 20.4004 2184.37 28.2591 Q2184.37 31.9859 2182.95 35.3482 Q2181.57 38.6699 2177.88 43.2069 Q2176.87 44.3817 2171.44 50.0125 Q2166.01 55.6027 2156.13 65.6895 Z" fill="#ffffff" fill-rule="evenodd" fill-opacity="1" /><path clip-path="url(#clip390)" d="M2219.36 17.4837 Q2213.05 17.4837 2209.85 23.7221 Q2206.69 29.92 2206.69 42.3968 Q2206.69 54.833 2209.85 61.0714 Q2213.05 67.2693 2219.36 67.2693 Q2225.72 67.2693 2228.88 61.0714 Q2232.08 54.833 2232.08 42.3968 Q2232.08 29.92 2228.88 23.7221 Q2225.72 17.4837 2219.36 17.4837 M2219.36 11.0023 Q2229.53 11.0023 2234.88 19.0636 Q2240.27 27.0843 2240.27 42.3968 Q2240.27 57.6687 2234.88 65.73 Q2229.53 73.7508 2219.36 73.7508 Q2209.2 73.7508 2203.81 65.73 Q2198.46 57.6687 2198.46 42.3968 Q2198.46 27.0843 2203.81 19.0636 Q2209.2 11.0023 2219.36 11.0023 Z" fill="#ffffff" fill-rule="evenodd" fill-opacity="1" /><path clip-path="url(#clip390)" d="M2261.7 65.6895 L2290.26 65.6895 L2290.26 72.576 L2251.85 72.576 L2251.85 65.6895 Q2256.51 60.8689 2264.53 52.7671 Q2272.59 44.6248 2274.66 42.2752 Q2278.59 37.8598 2280.13 34.8216 Q2281.71 31.7429 2281.71 28.7857 Q2281.71 23.9651 2278.31 20.927 Q2274.94 17.8888 2269.52 17.8888 Q2265.67 17.8888 2261.37 19.2256 Q2257.12 20.5624 2252.26 23.2765 L2252.26 15.0127 Q2257.2 13.0277 2261.49 12.015 Q2265.79 11.0023 2269.35 11.0023 Q2278.75 11.0023 2284.34 15.7013 Q2289.93 20.4004 2289.93 28.2591 Q2289.93 31.9859 2288.51 35.3482 Q2287.14 38.6699 2283.45 43.2069 Q2282.44 44.3817 2277.01 50.0125 Q2271.58 55.6027 2261.7 65.6895 Z" fill="#ffffff" fill-rule="evenodd" fill-opacity="1" /><path clip-path="url(#clip390)" d="M2308.85 65.6895 L2322.22 65.6895 L2322.22 19.5497 L2307.67 22.4663 L2307.67 15.0127 L2322.14 12.096 L2330.32 12.096 L2330.32 65.6895 L2343.69 65.6895 L2343.69 72.576 L2308.85 72.576 L2308.85 65.6895 Z" fill="#ffffff" fill-rule="evenodd" fill-opacity="1" /><polyline clip-path="url(#clip392)" style="stroke:#009af9; stroke-linecap:round; stroke-linejoin:round; stroke-width:4; stroke-opacity:1; fill:none" points="432.525,1688.65 467.671,1676.59 502.817,1664.19 537.963,1647.69 573.109,1632.82 608.255,1616.66 643.401,1604.25 678.548,1585.74 713.694,1566.55 748.84,1552.7 783.986,1537.18 819.132,1515.92 854.278,1490.31 889.424,1482.67 924.57,1479.92 959.717,1456.81 994.863,1438 1030.01,1418.24 1065.15,1397.47 1100.3,1387.74 1135.45,1377.54 1170.59,1375.42 1205.74,1361.11 1240.89,1335.19 1276.03,1313.72 1311.18,1292.99 1346.32,1269.75 1381.47,1239.79 1416.62,1214.42 1451.76,1194.32 1486.91,1183.79 1522.05,1168.64 1557.2,1155.13 1592.35,1129.99 1627.49,1105.7 1662.64,1076.59 1697.79,1044.06 1732.93,1019.48 1768.08,987.644 1803.22,945.743 1838.37,926.255 1873.52,903.45 1908.66,871.974 1943.81,825.307 1978.95,781.642 2014.1,731.512 2049.25,679.623 2084.39,654.047 2119.54,670.971 2154.68,614.45 2189.83,571.375 2224.98,534.956 2260.12,496.187 2295.27,452.323 2330.42,407.273 2365.56,365.008 2400.71,312.518 2435.85,259.845 2471,216.938 2506.15,269.86 2541.29,173.254 "/>
<path clip-path="url(#clip390)" d="M443.959 285.016 L1171.12 285.016 L1171.12 181.336 L443.959 181.336  Z" fill="#7711d7" fill-rule="evenodd" fill-opacity="0.0313725"/>
<polyline clip-path="url(#clip390)" style="stroke:#ffffff; stroke-linecap:round; stroke-linejoin:round; stroke-width:4; stroke-opacity:1; fill:none" points="443.959,285.016 1171.12,285.016 1171.12,181.336 443.959,181.336 443.959,285.016 "/>
<polyline clip-path="url(#clip390)" style="stroke:#009af9; stroke-linecap:round; stroke-linejoin:round; stroke-width:4; stroke-opacity:1; fill:none" points="469.209,233.176 620.713,233.176 "/>
<path clip-path="url(#clip390)" d="M645.963 215.896 L675.199 215.896 L675.199 219.831 L662.931 219.831 L662.931 250.456 L658.232 250.456 L658.232 219.831 L645.963 219.831 L645.963 215.896 Z" fill="#ffffff" fill-rule="evenodd" fill-opacity="1" /><path clip-path="url(#clip390)" d="M681.519 227.517 Q678.093 227.517 676.102 230.202 Q674.111 232.864 674.111 237.517 Q674.111 242.169 676.079 244.854 Q678.069 247.516 681.519 247.516 Q684.921 247.516 686.912 244.831 Q688.903 242.146 688.903 237.517 Q688.903 232.91 686.912 230.225 Q684.921 227.517 681.519 227.517 M681.519 223.906 Q687.074 223.906 690.245 227.517 Q693.417 231.128 693.417 237.517 Q693.417 243.882 690.245 247.516 Q687.074 251.128 681.519 251.128 Q675.94 251.128 672.769 247.516 Q669.62 243.882 669.62 237.517 Q669.62 231.128 672.769 227.517 Q675.94 223.906 681.519 223.906 Z" fill="#ffffff" fill-rule="evenodd" fill-opacity="1" /><path clip-path="url(#clip390)" d="M704.69 217.169 L704.69 224.531 L713.463 224.531 L713.463 227.841 L704.69 227.841 L704.69 241.915 Q704.69 245.086 705.546 245.989 Q706.426 246.891 709.088 246.891 L713.463 246.891 L713.463 250.456 L709.088 250.456 Q704.157 250.456 702.282 248.628 Q700.407 246.776 700.407 241.915 L700.407 227.841 L697.282 227.841 L697.282 224.531 L700.407 224.531 L700.407 217.169 L704.69 217.169 Z" fill="#ffffff" fill-rule="evenodd" fill-opacity="1" /><path clip-path="url(#clip390)" d="M730.847 237.424 Q725.685 237.424 723.694 238.604 Q721.703 239.785 721.703 242.632 Q721.703 244.901 723.185 246.243 Q724.69 247.563 727.259 247.563 Q730.801 247.563 732.93 245.063 Q735.083 242.54 735.083 238.373 L735.083 237.424 L730.847 237.424 M739.342 235.665 L739.342 250.456 L735.083 250.456 L735.083 246.521 Q733.625 248.882 731.449 250.016 Q729.273 251.128 726.125 251.128 Q722.143 251.128 719.782 248.905 Q717.444 246.66 717.444 242.91 Q717.444 238.535 720.361 236.313 Q723.301 234.091 729.111 234.091 L735.083 234.091 L735.083 233.674 Q735.083 230.734 733.139 229.137 Q731.217 227.517 727.722 227.517 Q725.5 227.517 723.393 228.049 Q721.287 228.581 719.342 229.646 L719.342 225.711 Q721.68 224.808 723.879 224.368 Q726.078 223.906 728.162 223.906 Q733.787 223.906 736.565 226.822 Q739.342 229.739 739.342 235.665 Z" fill="#ffffff" fill-rule="evenodd" fill-opacity="1" /><path clip-path="url(#clip390)" d="M748.115 214.438 L752.375 214.438 L752.375 250.456 L748.115 250.456 L748.115 214.438 Z" fill="#ffffff" fill-rule="evenodd" fill-opacity="1" /><path clip-path="url(#clip390)" d="M800.106 245.526 L800.106 236.243 L792.467 236.243 L792.467 232.401 L804.735 232.401 L804.735 247.239 Q802.027 249.16 798.763 250.155 Q795.499 251.128 791.796 251.128 Q783.694 251.128 779.111 246.405 Q774.55 241.66 774.55 233.211 Q774.55 224.739 779.111 220.017 Q783.694 215.271 791.796 215.271 Q795.175 215.271 798.208 216.105 Q801.263 216.938 803.833 218.558 L803.833 223.535 Q801.24 221.336 798.323 220.225 Q795.407 219.114 792.189 219.114 Q785.847 219.114 782.652 222.656 Q779.481 226.197 779.481 233.211 Q779.481 240.202 782.652 243.743 Q785.847 247.285 792.189 247.285 Q794.666 247.285 796.611 246.868 Q798.555 246.429 800.106 245.526 Z" fill="#ffffff" fill-rule="evenodd" fill-opacity="1" /><path clip-path="url(#clip390)" d="M817.953 219.739 L817.953 246.614 L823.601 246.614 Q830.754 246.614 834.064 243.373 Q837.397 240.132 837.397 233.142 Q837.397 226.197 834.064 222.98 Q830.754 219.739 823.601 219.739 L817.953 219.739 M813.277 215.896 L822.884 215.896 Q832.93 215.896 837.629 220.086 Q842.328 224.253 842.328 233.142 Q842.328 242.077 837.606 246.266 Q832.883 250.456 822.884 250.456 L813.277 250.456 L813.277 215.896 Z" fill="#ffffff" fill-rule="evenodd" fill-opacity="1" /><path clip-path="url(#clip390)" d="M854.457 219.739 L854.457 232.725 L860.337 232.725 Q863.601 232.725 865.383 231.035 Q867.166 229.345 867.166 226.22 Q867.166 223.118 865.383 221.429 Q863.601 219.739 860.337 219.739 L854.457 219.739 M849.782 215.896 L860.337 215.896 Q866.147 215.896 869.11 218.535 Q872.096 221.151 872.096 226.22 Q872.096 231.336 869.11 233.952 Q866.147 236.567 860.337 236.567 L854.457 236.567 L854.457 250.456 L849.782 250.456 L849.782 215.896 Z" fill="#ffffff" fill-rule="evenodd" fill-opacity="1" /><path clip-path="url(#clip390)" d="M903.485 214.484 Q900.383 219.808 898.878 225.017 Q897.374 230.225 897.374 235.572 Q897.374 240.919 898.878 246.174 Q900.406 251.405 903.485 256.706 L899.781 256.706 Q896.309 251.266 894.573 246.012 Q892.86 240.757 892.86 235.572 Q892.86 230.41 894.573 225.179 Q896.286 219.947 899.781 214.484 L903.485 214.484 Z" fill="#ffffff" fill-rule="evenodd" fill-opacity="1" /><path clip-path="url(#clip390)" d="M911.749 224.531 L916.008 224.531 L916.008 250.456 L911.749 250.456 L911.749 224.531 M911.749 214.438 L916.008 214.438 L916.008 219.831 L911.749 219.831 L911.749 214.438 Z" fill="#ffffff" fill-rule="evenodd" fill-opacity="1" /><path clip-path="url(#clip390)" d="M946.471 234.808 L946.471 250.456 L942.212 250.456 L942.212 234.947 Q942.212 231.267 940.776 229.438 Q939.341 227.609 936.471 227.609 Q933.022 227.609 931.031 229.808 Q929.04 232.007 929.04 235.804 L929.04 250.456 L924.758 250.456 L924.758 224.531 L929.04 224.531 L929.04 228.558 Q930.568 226.22 932.628 225.063 Q934.712 223.906 937.42 223.906 Q941.888 223.906 944.179 226.683 Q946.471 229.438 946.471 234.808 Z" fill="#ffffff" fill-rule="evenodd" fill-opacity="1" /><path clip-path="url(#clip390)" d="M974.665 246.521 L990.984 246.521 L990.984 250.456 L969.04 250.456 L969.04 246.521 Q971.702 243.767 976.285 239.137 Q980.892 234.484 982.072 233.142 Q984.318 230.618 985.197 228.882 Q986.1 227.123 986.1 225.433 Q986.1 222.679 984.156 220.943 Q982.235 219.206 979.133 219.206 Q976.934 219.206 974.48 219.97 Q972.049 220.734 969.272 222.285 L969.272 217.563 Q972.096 216.429 974.549 215.85 Q977.003 215.271 979.04 215.271 Q984.41 215.271 987.605 217.956 Q990.799 220.642 990.799 225.132 Q990.799 227.262 989.989 229.183 Q989.202 231.081 987.096 233.674 Q986.517 234.345 983.415 237.563 Q980.313 240.757 974.665 246.521 Z" fill="#ffffff" fill-rule="evenodd" fill-opacity="1" /><path clip-path="url(#clip390)" d="M1010.8 218.975 Q1007.19 218.975 1005.36 222.54 Q1003.55 226.081 1003.55 233.211 Q1003.55 240.317 1005.36 243.882 Q1007.19 247.424 1010.8 247.424 Q1014.43 247.424 1016.24 243.882 Q1018.07 240.317 1018.07 233.211 Q1018.07 226.081 1016.24 222.54 Q1014.43 218.975 1010.8 218.975 M1010.8 215.271 Q1016.61 215.271 1019.66 219.878 Q1022.74 224.461 1022.74 233.211 Q1022.74 241.938 1019.66 246.544 Q1016.61 251.128 1010.8 251.128 Q1004.99 251.128 1001.91 246.544 Q998.855 241.938 998.855 233.211 Q998.855 224.461 1001.91 219.878 Q1004.99 215.271 1010.8 215.271 Z" fill="#ffffff" fill-rule="evenodd" fill-opacity="1" /><path clip-path="url(#clip390)" d="M1031.77 246.521 L1039.41 246.521 L1039.41 220.156 L1031.1 221.822 L1031.1 217.563 L1039.36 215.896 L1044.04 215.896 L1044.04 246.521 L1051.68 246.521 L1051.68 250.456 L1031.77 250.456 L1031.77 246.521 Z" fill="#ffffff" fill-rule="evenodd" fill-opacity="1" /><path clip-path="url(#clip390)" d="M1061.17 215.896 L1079.53 215.896 L1079.53 219.831 L1065.45 219.831 L1065.45 228.304 Q1066.47 227.956 1067.49 227.794 Q1068.51 227.609 1069.53 227.609 Q1075.31 227.609 1078.69 230.78 Q1082.07 233.952 1082.07 239.368 Q1082.07 244.947 1078.6 248.049 Q1075.13 251.128 1068.81 251.128 Q1066.63 251.128 1064.36 250.757 Q1062.12 250.387 1059.71 249.646 L1059.71 244.947 Q1061.79 246.081 1064.02 246.637 Q1066.24 247.192 1068.72 247.192 Q1072.72 247.192 1075.06 245.086 Q1077.4 242.979 1077.4 239.368 Q1077.4 235.757 1075.06 233.651 Q1072.72 231.544 1068.72 231.544 Q1066.84 231.544 1064.97 231.961 Q1063.11 232.378 1061.17 233.257 L1061.17 215.896 Z" fill="#ffffff" fill-rule="evenodd" fill-opacity="1" /><path clip-path="url(#clip390)" d="M1117.3 257.424 L1114.99 257.424 L1114.97 250.456 Q1112.53 250.41 1110.1 249.901 Q1107.67 249.368 1105.22 248.327 L1105.22 244.16 Q1107.58 245.641 1109.99 246.405 Q1112.42 247.146 1114.99 247.169 L1114.99 236.614 Q1109.87 235.78 1107.53 233.79 Q1105.22 231.799 1105.22 228.327 Q1105.22 224.554 1107.74 222.378 Q1110.27 220.202 1114.99 219.878 L1114.99 214.438 L1117.3 214.438 L1117.3 219.808 Q1119.46 219.901 1121.47 220.271 Q1123.48 220.618 1125.41 221.243 L1125.41 225.294 Q1123.48 224.322 1121.45 223.79 Q1119.43 223.257 1117.3 223.165 L1117.3 233.049 Q1122.56 233.859 1125.03 235.942 Q1127.51 238.026 1127.51 241.637 Q1127.51 245.549 1124.87 247.817 Q1122.26 250.063 1117.3 250.41 L1117.3 257.424 M1114.99 232.632 L1114.99 223.142 Q1112.3 223.443 1110.89 224.669 Q1109.48 225.896 1109.48 227.933 Q1109.48 229.924 1110.78 231.035 Q1112.09 232.146 1114.99 232.632 M1117.3 237.077 L1117.3 247.1 Q1120.24 246.706 1121.72 245.433 Q1123.23 244.16 1123.23 242.077 Q1123.23 240.04 1121.79 238.836 Q1120.38 237.632 1117.3 237.077 Z" fill="#ffffff" fill-rule="evenodd" fill-opacity="1" /><path clip-path="url(#clip390)" d="M1135.24 214.484 L1138.95 214.484 Q1142.42 219.947 1144.13 225.179 Q1145.87 230.41 1145.87 235.572 Q1145.87 240.757 1144.13 246.012 Q1142.42 251.266 1138.95 256.706 L1135.24 256.706 Q1138.32 251.405 1139.83 246.174 Q1141.35 240.919 1141.35 235.572 Q1141.35 230.225 1139.83 225.017 Q1138.32 219.808 1135.24 214.484 Z" fill="#ffffff" fill-rule="evenodd" fill-opacity="1" /></svg>
