<?xml version="1.0" encoding="utf-8"?>
<svg xmlns="http://www.w3.org/2000/svg" xmlns:xlink="http://www.w3.org/1999/xlink" width="800" height="600" viewBox="0 0 3200 2400">
<defs>
  <clipPath id="clip380">
    <rect x="0" y="0" width="3200" height="2400"/>
  </clipPath>
</defs>
<path clip-path="url(#clip380)" d="M0 2400 L3200 2400 L3200 0 L0 0  Z" fill="#7711d7" fill-rule="evenodd" fill-opacity="0.0313725"/>
<defs>
  <clipPath id="clip381">
    <rect x="640" y="0" width="2241" height="2241"/>
  </clipPath>
</defs>
<path clip-path="url(#clip380)" d="M194.274 2274.13 L3152.76 2274.13 L3152.76 47.2441 L194.274 47.2441  Z" fill="#7711d7" fill-rule="evenodd" fill-opacity="0.0313725"/>
<defs>
  <clipPath id="clip382">
    <rect x="194" y="47" width="2959" height="2228"/>
  </clipPath>
</defs>
<polyline clip-path="url(#clip382)" style="stroke:#ffffff; stroke-linecap:round; stroke-linejoin:round; stroke-width:2; stroke-opacity:0.1; fill:none" points="558.229,2274.13 558.229,47.2441 "/>
<polyline clip-path="url(#clip382)" style="stroke:#ffffff; stroke-linecap:round; stroke-linejoin:round; stroke-width:2; stroke-opacity:0.1; fill:none" points="1079.39,2274.13 1079.39,47.2441 "/>
<polyline clip-path="url(#clip382)" style="stroke:#ffffff; stroke-linecap:round; stroke-linejoin:round; stroke-width:2; stroke-opacity:0.1; fill:none" points="1600.55,2274.13 1600.55,47.2441 "/>
<polyline clip-path="url(#clip382)" style="stroke:#ffffff; stroke-linecap:round; stroke-linejoin:round; stroke-width:2; stroke-opacity:0.1; fill:none" points="2121.71,2274.13 2121.71,47.2441 "/>
<polyline clip-path="url(#clip382)" style="stroke:#ffffff; stroke-linecap:round; stroke-linejoin:round; stroke-width:2; stroke-opacity:0.1; fill:none" points="2642.88,2274.13 2642.88,47.2441 "/>
<polyline clip-path="url(#clip380)" style="stroke:#ffffff; stroke-linecap:round; stroke-linejoin:round; stroke-width:4; stroke-opacity:1; fill:none" points="194.274,2274.13 3152.76,2274.13 "/>
<polyline clip-path="url(#clip380)" style="stroke:#ffffff; stroke-linecap:round; stroke-linejoin:round; stroke-width:4; stroke-opacity:1; fill:none" points="558.229,2274.13 558.229,2255.23 "/>
<polyline clip-path="url(#clip380)" style="stroke:#ffffff; stroke-linecap:round; stroke-linejoin:round; stroke-width:4; stroke-opacity:1; fill:none" points="1079.39,2274.13 1079.39,2255.23 "/>
<polyline clip-path="url(#clip380)" style="stroke:#ffffff; stroke-linecap:round; stroke-linejoin:round; stroke-width:4; stroke-opacity:1; fill:none" points="1600.55,2274.13 1600.55,2255.23 "/>
<polyline clip-path="url(#clip380)" style="stroke:#ffffff; stroke-linecap:round; stroke-linejoin:round; stroke-width:4; stroke-opacity:1; fill:none" points="2121.71,2274.13 2121.71,2255.23 "/>
<polyline clip-path="url(#clip380)" style="stroke:#ffffff; stroke-linecap:round; stroke-linejoin:round; stroke-width:4; stroke-opacity:1; fill:none" points="2642.88,2274.13 2642.88,2255.23 "/>
<path clip-path="url(#clip380)" d="M505.255 2326.1 L534.931 2326.1 L534.931 2330.03 L505.255 2330.03 L505.255 2326.1 Z" fill="#ffffff" fill-rule="evenodd" fill-opacity="1" /><path clip-path="url(#clip380)" d="M555.023 2311.45 Q551.412 2311.45 549.583 2315.01 Q547.778 2318.55 547.778 2325.68 Q547.778 2332.79 549.583 2336.35 Q551.412 2339.9 555.023 2339.9 Q558.657 2339.9 560.463 2336.35 Q562.291 2332.79 562.291 2325.68 Q562.291 2318.55 560.463 2315.01 Q558.657 2311.45 555.023 2311.45 M555.023 2307.74 Q560.833 2307.74 563.889 2312.35 Q566.967 2316.93 566.967 2325.68 Q566.967 2334.41 563.889 2339.02 Q560.833 2343.6 555.023 2343.6 Q549.213 2343.6 546.134 2339.02 Q543.079 2334.41 543.079 2325.68 Q543.079 2316.93 546.134 2312.35 Q549.213 2307.74 555.023 2307.74 Z" fill="#ffffff" fill-rule="evenodd" fill-opacity="1" /><path clip-path="url(#clip380)" d="M575.185 2337.05 L580.069 2337.05 L580.069 2342.93 L575.185 2342.93 L575.185 2337.05 Z" fill="#ffffff" fill-rule="evenodd" fill-opacity="1" /><path clip-path="url(#clip380)" d="M590.301 2308.37 L608.657 2308.37 L608.657 2312.3 L594.583 2312.3 L594.583 2320.78 Q595.601 2320.43 596.62 2320.27 Q597.639 2320.08 598.657 2320.08 Q604.444 2320.08 607.824 2323.25 Q611.203 2326.42 611.203 2331.84 Q611.203 2337.42 607.731 2340.52 Q604.259 2343.6 597.939 2343.6 Q595.764 2343.6 593.495 2343.23 Q591.25 2342.86 588.842 2342.12 L588.842 2337.42 Q590.926 2338.55 593.148 2339.11 Q595.37 2339.66 597.847 2339.66 Q601.851 2339.66 604.189 2337.56 Q606.527 2335.45 606.527 2331.84 Q606.527 2328.23 604.189 2326.12 Q601.851 2324.02 597.847 2324.02 Q595.972 2324.02 594.097 2324.43 Q592.245 2324.85 590.301 2325.73 L590.301 2308.37 Z" fill="#ffffff" fill-rule="evenodd" fill-opacity="1" /><path clip-path="url(#clip380)" d="M1056.78 2311.45 Q1053.16 2311.45 1051.34 2315.01 Q1049.53 2318.55 1049.53 2325.68 Q1049.53 2332.79 1051.34 2336.35 Q1053.16 2339.9 1056.78 2339.9 Q1060.41 2339.9 1062.21 2336.35 Q1064.04 2332.79 1064.04 2325.68 Q1064.04 2318.55 1062.21 2315.01 Q1060.41 2311.45 1056.78 2311.45 M1056.78 2307.74 Q1062.59 2307.74 1065.64 2312.35 Q1068.72 2316.93 1068.72 2325.68 Q1068.72 2334.41 1065.64 2339.02 Q1062.59 2343.6 1056.78 2343.6 Q1050.96 2343.6 1047.89 2339.02 Q1044.83 2334.41 1044.83 2325.68 Q1044.83 2316.93 1047.89 2312.35 Q1050.96 2307.74 1056.78 2307.74 Z" fill="#ffffff" fill-rule="evenodd" fill-opacity="1" /><path clip-path="url(#clip380)" d="M1076.94 2337.05 L1081.82 2337.05 L1081.82 2342.93 L1076.94 2342.93 L1076.94 2337.05 Z" fill="#ffffff" fill-rule="evenodd" fill-opacity="1" /><path clip-path="url(#clip380)" d="M1102.01 2311.45 Q1098.4 2311.45 1096.57 2315.01 Q1094.76 2318.55 1094.76 2325.68 Q1094.76 2332.79 1096.57 2336.35 Q1098.4 2339.9 1102.01 2339.9 Q1105.64 2339.9 1107.45 2336.35 Q1109.27 2332.79 1109.27 2325.68 Q1109.27 2318.55 1107.45 2315.01 Q1105.64 2311.45 1102.01 2311.45 M1102.01 2307.74 Q1107.82 2307.74 1110.87 2312.35 Q1113.95 2316.93 1113.95 2325.68 Q1113.95 2334.41 1110.87 2339.02 Q1107.82 2343.6 1102.01 2343.6 Q1096.2 2343.6 1093.12 2339.02 Q1090.06 2334.41 1090.06 2325.68 Q1090.06 2316.93 1093.12 2312.35 Q1096.2 2307.74 1102.01 2307.74 Z" fill="#ffffff" fill-rule="evenodd" fill-opacity="1" /><path clip-path="url(#clip380)" d="M1578.43 2311.45 Q1574.82 2311.45 1572.99 2315.01 Q1571.19 2318.55 1571.19 2325.68 Q1571.19 2332.79 1572.99 2336.35 Q1574.82 2339.9 1578.43 2339.9 Q1582.07 2339.9 1583.87 2336.35 Q1585.7 2332.79 1585.7 2325.68 Q1585.7 2318.55 1583.87 2315.01 Q1582.07 2311.45 1578.43 2311.45 M1578.43 2307.74 Q1584.24 2307.74 1587.3 2312.35 Q1590.38 2316.93 1590.38 2325.68 Q1590.38 2334.41 1587.3 2339.02 Q1584.24 2343.6 1578.43 2343.6 Q1572.62 2343.6 1569.55 2339.02 Q1566.49 2334.41 1566.49 2325.68 Q1566.49 2316.93 1569.55 2312.35 Q1572.62 2307.74 1578.43 2307.74 Z" fill="#ffffff" fill-rule="evenodd" fill-opacity="1" /><path clip-path="url(#clip380)" d="M1598.6 2337.05 L1603.48 2337.05 L1603.48 2342.93 L1598.6 2342.93 L1598.6 2337.05 Z" fill="#ffffff" fill-rule="evenodd" fill-opacity="1" /><path clip-path="url(#clip380)" d="M1613.71 2308.37 L1632.07 2308.37 L1632.07 2312.3 L1617.99 2312.3 L1617.99 2320.78 Q1619.01 2320.43 1620.03 2320.27 Q1621.05 2320.08 1622.07 2320.08 Q1627.86 2320.08 1631.24 2323.25 Q1634.61 2326.42 1634.61 2331.84 Q1634.61 2337.42 1631.14 2340.52 Q1627.67 2343.6 1621.35 2343.6 Q1619.17 2343.6 1616.91 2343.23 Q1614.66 2342.86 1612.25 2342.12 L1612.25 2337.42 Q1614.34 2338.55 1616.56 2339.11 Q1618.78 2339.66 1621.26 2339.66 Q1625.26 2339.66 1627.6 2337.56 Q1629.94 2335.45 1629.94 2331.84 Q1629.94 2328.23 1627.6 2326.12 Q1625.26 2324.02 1621.26 2324.02 Q1619.38 2324.02 1617.51 2324.43 Q1615.66 2324.85 1613.71 2325.73 L1613.71 2308.37 Z" fill="#ffffff" fill-rule="evenodd" fill-opacity="1" /><path clip-path="url(#clip380)" d="M2088.87 2338.99 L2096.51 2338.99 L2096.51 2312.63 L2088.2 2314.29 L2088.2 2310.03 L2096.46 2308.37 L2101.14 2308.37 L2101.14 2338.99 L2108.77 2338.99 L2108.77 2342.93 L2088.87 2342.93 L2088.87 2338.99 Z" fill="#ffffff" fill-rule="evenodd" fill-opacity="1" /><path clip-path="url(#clip380)" d="M2118.22 2337.05 L2123.1 2337.05 L2123.1 2342.93 L2118.22 2342.93 L2118.22 2337.05 Z" fill="#ffffff" fill-rule="evenodd" fill-opacity="1" /><path clip-path="url(#clip380)" d="M2143.29 2311.45 Q2139.68 2311.45 2137.85 2315.01 Q2136.04 2318.55 2136.04 2325.68 Q2136.04 2332.79 2137.85 2336.35 Q2139.68 2339.9 2143.29 2339.9 Q2146.92 2339.9 2148.73 2336.35 Q2150.56 2332.79 2150.56 2325.68 Q2150.56 2318.55 2148.73 2315.01 Q2146.92 2311.45 2143.29 2311.45 M2143.29 2307.74 Q2149.1 2307.74 2152.15 2312.35 Q2155.23 2316.93 2155.23 2325.68 Q2155.23 2334.41 2152.15 2339.02 Q2149.1 2343.6 2143.29 2343.6 Q2137.48 2343.6 2134.4 2339.02 Q2131.34 2334.41 2131.34 2325.68 Q2131.34 2316.93 2134.4 2312.35 Q2137.48 2307.74 2143.29 2307.74 Z" fill="#ffffff" fill-rule="evenodd" fill-opacity="1" /><path clip-path="url(#clip380)" d="M2610.53 2338.99 L2618.17 2338.99 L2618.17 2312.63 L2609.85 2314.29 L2609.85 2310.03 L2618.12 2308.37 L2622.79 2308.37 L2622.79 2338.99 L2630.43 2338.99 L2630.43 2342.93 L2610.53 2342.93 L2610.53 2338.99 Z" fill="#ffffff" fill-rule="evenodd" fill-opacity="1" /><path clip-path="url(#clip380)" d="M2639.88 2337.05 L2644.76 2337.05 L2644.76 2342.93 L2639.88 2342.93 L2639.88 2337.05 Z" fill="#ffffff" fill-rule="evenodd" fill-opacity="1" /><path clip-path="url(#clip380)" d="M2654.99 2308.37 L2673.35 2308.37 L2673.35 2312.3 L2659.28 2312.3 L2659.28 2320.78 Q2660.29 2320.43 2661.31 2320.27 Q2662.33 2320.08 2663.35 2320.08 Q2669.14 2320.08 2672.52 2323.25 Q2675.9 2326.42 2675.9 2331.84 Q2675.9 2337.42 2672.42 2340.52 Q2668.95 2343.6 2662.63 2343.6 Q2660.46 2343.6 2658.19 2343.23 Q2655.94 2342.86 2653.54 2342.12 L2653.54 2337.42 Q2655.62 2338.55 2657.84 2339.11 Q2660.06 2339.66 2662.54 2339.66 Q2666.54 2339.66 2668.88 2337.56 Q2671.22 2335.45 2671.22 2331.84 Q2671.22 2328.23 2668.88 2326.12 Q2666.54 2324.02 2662.54 2324.02 Q2660.66 2324.02 2658.79 2324.43 Q2656.94 2324.85 2654.99 2325.73 L2654.99 2308.37 Z" fill="#ffffff" fill-rule="evenodd" fill-opacity="1" /><polyline clip-path="url(#clip382)" style="stroke:#ffffff; stroke-linecap:round; stroke-linejoin:round; stroke-width:2; stroke-opacity:0.1; fill:none" points="194.274,2211.1 3152.76,2211.1 "/>
<polyline clip-path="url(#clip382)" style="stroke:#ffffff; stroke-linecap:round; stroke-linejoin:round; stroke-width:2; stroke-opacity:0.1; fill:none" points="194.274,1737.1 3152.76,1737.1 "/>
<polyline clip-path="url(#clip382)" style="stroke:#ffffff; stroke-linecap:round; stroke-linejoin:round; stroke-width:2; stroke-opacity:0.1; fill:none" points="194.274,1263.1 3152.76,1263.1 "/>
<polyline clip-path="url(#clip382)" style="stroke:#ffffff; stroke-linecap:round; stroke-linejoin:round; stroke-width:2; stroke-opacity:0.1; fill:none" points="194.274,789.095 3152.76,789.095 "/>
<polyline clip-path="url(#clip382)" style="stroke:#ffffff; stroke-linecap:round; stroke-linejoin:round; stroke-width:2; stroke-opacity:0.1; fill:none" points="194.274,315.092 3152.76,315.092 "/>
<polyline clip-path="url(#clip380)" style="stroke:#ffffff; stroke-linecap:round; stroke-linejoin:round; stroke-width:4; stroke-opacity:1; fill:none" points="194.274,2274.13 194.274,47.2441 "/>
<polyline clip-path="url(#clip380)" style="stroke:#ffffff; stroke-linecap:round; stroke-linejoin:round; stroke-width:4; stroke-opacity:1; fill:none" points="194.274,2211.1 213.172,2211.1 "/>
<polyline clip-path="url(#clip380)" style="stroke:#ffffff; stroke-linecap:round; stroke-linejoin:round; stroke-width:4; stroke-opacity:1; fill:none" points="194.274,1737.1 213.172,1737.1 "/>
<polyline clip-path="url(#clip380)" style="stroke:#ffffff; stroke-linecap:round; stroke-linejoin:round; stroke-width:4; stroke-opacity:1; fill:none" points="194.274,1263.1 213.172,1263.1 "/>
<polyline clip-path="url(#clip380)" style="stroke:#ffffff; stroke-linecap:round; stroke-linejoin:round; stroke-width:4; stroke-opacity:1; fill:none" points="194.274,789.095 213.172,789.095 "/>
<polyline clip-path="url(#clip380)" style="stroke:#ffffff; stroke-linecap:round; stroke-linejoin:round; stroke-width:4; stroke-opacity:1; fill:none" points="194.274,315.092 213.172,315.092 "/>
<path clip-path="url(#clip380)" d="M58.9365 2196.9 Q55.3254 2196.9 53.4967 2200.47 Q51.6912 2204.01 51.6912 2211.14 Q51.6912 2218.24 53.4967 2221.81 Q55.3254 2225.35 58.9365 2225.35 Q62.5707 2225.35 64.3763 2221.81 Q66.205 2218.24 66.205 2211.14 Q66.205 2204.01 64.3763 2200.47 Q62.5707 2196.9 58.9365 2196.9 M58.9365 2193.2 Q64.7467 2193.2 67.8022 2197.8 Q70.8809 2202.39 70.8809 2211.14 Q70.8809 2219.86 67.8022 2224.47 Q64.7467 2229.05 58.9365 2229.05 Q53.1264 2229.05 50.0477 2224.47 Q46.9921 2219.86 46.9921 2211.14 Q46.9921 2202.39 50.0477 2197.8 Q53.1264 2193.2 58.9365 2193.2 Z" fill="#ffffff" fill-rule="evenodd" fill-opacity="1" /><path clip-path="url(#clip380)" d="M79.0984 2222.5 L83.9827 2222.5 L83.9827 2228.38 L79.0984 2228.38 L79.0984 2222.5 Z" fill="#ffffff" fill-rule="evenodd" fill-opacity="1" /><path clip-path="url(#clip380)" d="M104.168 2196.9 Q100.557 2196.9 98.728 2200.47 Q96.9224 2204.01 96.9224 2211.14 Q96.9224 2218.24 98.728 2221.81 Q100.557 2225.35 104.168 2225.35 Q107.802 2225.35 109.608 2221.81 Q111.436 2218.24 111.436 2211.14 Q111.436 2204.01 109.608 2200.47 Q107.802 2196.9 104.168 2196.9 M104.168 2193.2 Q109.978 2193.2 113.033 2197.8 Q116.112 2202.39 116.112 2211.14 Q116.112 2219.86 113.033 2224.47 Q109.978 2229.05 104.168 2229.05 Q98.3576 2229.05 95.2789 2224.47 Q92.2234 2219.86 92.2234 2211.14 Q92.2234 2202.39 95.2789 2197.8 Q98.3576 2193.2 104.168 2193.2 Z" fill="#ffffff" fill-rule="evenodd" fill-opacity="1" /><path clip-path="url(#clip380)" d="M134.33 2196.9 Q130.719 2196.9 128.89 2200.47 Q127.084 2204.01 127.084 2211.14 Q127.084 2218.24 128.89 2221.81 Q130.719 2225.35 134.33 2225.35 Q137.964 2225.35 139.769 2221.81 Q141.598 2218.24 141.598 2211.14 Q141.598 2204.01 139.769 2200.47 Q137.964 2196.9 134.33 2196.9 M134.33 2193.2 Q140.14 2193.2 143.195 2197.8 Q146.274 2202.39 146.274 2211.14 Q146.274 2219.86 143.195 2224.47 Q140.14 2229.05 134.33 2229.05 Q128.519 2229.05 125.441 2224.47 Q122.385 2219.86 122.385 2211.14 Q122.385 2202.39 125.441 2197.8 Q128.519 2193.2 134.33 2193.2 Z" fill="#ffffff" fill-rule="evenodd" fill-opacity="1" /><path clip-path="url(#clip380)" d="M59.9319 1722.9 Q56.3208 1722.9 54.4921 1726.46 Q52.6865 1730.01 52.6865 1737.13 Q52.6865 1744.24 54.4921 1747.81 Q56.3208 1751.35 59.9319 1751.35 Q63.5661 1751.35 65.3717 1747.81 Q67.2004 1744.24 67.2004 1737.13 Q67.2004 1730.01 65.3717 1726.46 Q63.5661 1722.9 59.9319 1722.9 M59.9319 1719.2 Q65.742 1719.2 68.7976 1723.8 Q71.8763 1728.38 71.8763 1737.13 Q71.8763 1745.86 68.7976 1750.47 Q65.742 1755.05 59.9319 1755.05 Q54.1217 1755.05 51.043 1750.47 Q47.9875 1745.86 47.9875 1737.13 Q47.9875 1728.38 51.043 1723.8 Q54.1217 1719.2 59.9319 1719.2 Z" fill="#ffffff" fill-rule="evenodd" fill-opacity="1" /><path clip-path="url(#clip380)" d="M80.0938 1748.5 L84.978 1748.5 L84.978 1754.38 L80.0938 1754.38 L80.0938 1748.5 Z" fill="#ffffff" fill-rule="evenodd" fill-opacity="1" /><path clip-path="url(#clip380)" d="M99.1909 1750.44 L115.51 1750.44 L115.51 1754.38 L93.566 1754.38 L93.566 1750.44 Q96.228 1747.69 100.811 1743.06 Q105.418 1738.41 106.598 1737.07 Q108.844 1734.54 109.723 1732.81 Q110.626 1731.05 110.626 1729.36 Q110.626 1726.6 108.682 1724.87 Q106.76 1723.13 103.658 1723.13 Q101.459 1723.13 99.0057 1723.89 Q96.5752 1724.66 93.7974 1726.21 L93.7974 1721.49 Q96.6215 1720.35 99.0752 1719.77 Q101.529 1719.2 103.566 1719.2 Q108.936 1719.2 112.131 1721.88 Q115.325 1724.57 115.325 1729.06 Q115.325 1731.19 114.515 1733.11 Q113.728 1735.01 111.621 1737.6 Q111.043 1738.27 107.941 1741.49 Q104.839 1744.68 99.1909 1750.44 Z" fill="#ffffff" fill-rule="evenodd" fill-opacity="1" /><path clip-path="url(#clip380)" d="M125.371 1719.82 L143.728 1719.82 L143.728 1723.76 L129.654 1723.76 L129.654 1732.23 Q130.672 1731.88 131.691 1731.72 Q132.709 1731.53 133.728 1731.53 Q139.515 1731.53 142.894 1734.7 Q146.274 1737.88 146.274 1743.29 Q146.274 1748.87 142.802 1751.97 Q139.33 1755.05 133.01 1755.05 Q130.834 1755.05 128.566 1754.68 Q126.32 1754.31 123.913 1753.57 L123.913 1748.87 Q125.996 1750.01 128.219 1750.56 Q130.441 1751.12 132.918 1751.12 Q136.922 1751.12 139.26 1749.01 Q141.598 1746.9 141.598 1743.29 Q141.598 1739.68 139.26 1737.57 Q136.922 1735.47 132.918 1735.47 Q131.043 1735.47 129.168 1735.88 Q127.316 1736.3 125.371 1737.18 L125.371 1719.82 Z" fill="#ffffff" fill-rule="evenodd" fill-opacity="1" /><path clip-path="url(#clip380)" d="M58.9365 1248.9 Q55.3254 1248.9 53.4967 1252.46 Q51.6912 1256 51.6912 1263.13 Q51.6912 1270.24 53.4967 1273.8 Q55.3254 1277.34 58.9365 1277.34 Q62.5707 1277.34 64.3763 1273.8 Q66.205 1270.24 66.205 1263.13 Q66.205 1256 64.3763 1252.46 Q62.5707 1248.9 58.9365 1248.9 M58.9365 1245.19 Q64.7467 1245.19 67.8022 1249.8 Q70.8809 1254.38 70.8809 1263.13 Q70.8809 1271.86 67.8022 1276.47 Q64.7467 1281.05 58.9365 1281.05 Q53.1264 1281.05 50.0477 1276.47 Q46.9921 1271.86 46.9921 1263.13 Q46.9921 1254.38 50.0477 1249.8 Q53.1264 1245.19 58.9365 1245.19 Z" fill="#ffffff" fill-rule="evenodd" fill-opacity="1" /><path clip-path="url(#clip380)" d="M79.0984 1274.5 L83.9827 1274.5 L83.9827 1280.38 L79.0984 1280.38 L79.0984 1274.5 Z" fill="#ffffff" fill-rule="evenodd" fill-opacity="1" /><path clip-path="url(#clip380)" d="M94.2141 1245.82 L112.57 1245.82 L112.57 1249.75 L98.4965 1249.75 L98.4965 1258.22 Q99.515 1257.88 100.534 1257.72 Q101.552 1257.53 102.571 1257.53 Q108.358 1257.53 111.737 1260.7 Q115.117 1263.87 115.117 1269.29 Q115.117 1274.87 111.645 1277.97 Q108.172 1281.05 101.853 1281.05 Q99.677 1281.05 97.4085 1280.68 Q95.1632 1280.31 92.7558 1279.57 L92.7558 1274.87 Q94.8391 1276 97.0613 1276.56 Q99.2835 1277.11 101.76 1277.11 Q105.765 1277.11 108.103 1275.01 Q110.441 1272.9 110.441 1269.29 Q110.441 1265.68 108.103 1263.57 Q105.765 1261.47 101.76 1261.47 Q99.8854 1261.47 98.0104 1261.88 Q96.1585 1262.3 94.2141 1263.18 L94.2141 1245.82 Z" fill="#ffffff" fill-rule="evenodd" fill-opacity="1" /><path clip-path="url(#clip380)" d="M134.33 1248.9 Q130.719 1248.9 128.89 1252.46 Q127.084 1256 127.084 1263.13 Q127.084 1270.24 128.89 1273.8 Q130.719 1277.34 134.33 1277.34 Q137.964 1277.34 139.769 1273.8 Q141.598 1270.24 141.598 1263.13 Q141.598 1256 139.769 1252.46 Q137.964 1248.9 134.33 1248.9 M134.33 1245.19 Q140.14 1245.19 143.195 1249.8 Q146.274 1254.38 146.274 1263.13 Q146.274 1271.86 143.195 1276.47 Q140.14 1281.05 134.33 1281.05 Q128.519 1281.05 125.441 1276.47 Q122.385 1271.86 122.385 1263.13 Q122.385 1254.38 125.441 1249.8 Q128.519 1245.19 134.33 1245.19 Z" fill="#ffffff" fill-rule="evenodd" fill-opacity="1" /><path clip-path="url(#clip380)" d="M59.9319 774.893 Q56.3208 774.893 54.4921 778.458 Q52.6865 782 52.6865 789.129 Q52.6865 796.236 54.4921 799.801 Q56.3208 803.342 59.9319 803.342 Q63.5661 803.342 65.3717 799.801 Q67.2004 796.236 67.2004 789.129 Q67.2004 782 65.3717 778.458 Q63.5661 774.893 59.9319 774.893 M59.9319 771.19 Q65.742 771.19 68.7976 775.796 Q71.8763 780.379 71.8763 789.129 Q71.8763 797.856 68.7976 802.463 Q65.742 807.046 59.9319 807.046 Q54.1217 807.046 51.043 802.463 Q47.9875 797.856 47.9875 789.129 Q47.9875 780.379 51.043 775.796 Q54.1217 771.19 59.9319 771.19 Z" fill="#ffffff" fill-rule="evenodd" fill-opacity="1" /><path clip-path="url(#clip380)" d="M80.0938 800.495 L84.978 800.495 L84.978 806.375 L80.0938 806.375 L80.0938 800.495 Z" fill="#ffffff" fill-rule="evenodd" fill-opacity="1" /><path clip-path="url(#clip380)" d="M93.9826 771.815 L116.205 771.815 L116.205 773.805 L103.658 806.375 L98.7743 806.375 L110.58 775.75 L93.9826 775.75 L93.9826 771.815 Z" fill="#ffffff" fill-rule="evenodd" fill-opacity="1" /><path clip-path="url(#clip380)" d="M125.371 771.815 L143.728 771.815 L143.728 775.75 L129.654 775.75 L129.654 784.222 Q130.672 783.875 131.691 783.713 Q132.709 783.528 133.728 783.528 Q139.515 783.528 142.894 786.699 Q146.274 789.87 146.274 795.287 Q146.274 800.865 142.802 803.967 Q139.33 807.046 133.01 807.046 Q130.834 807.046 128.566 806.676 Q126.32 806.305 123.913 805.564 L123.913 800.865 Q125.996 802 128.219 802.555 Q130.441 803.111 132.918 803.111 Q136.922 803.111 139.26 801.004 Q141.598 798.898 141.598 795.287 Q141.598 791.676 139.26 789.569 Q136.922 787.463 132.918 787.463 Q131.043 787.463 129.168 787.879 Q127.316 788.296 125.371 789.176 L125.371 771.815 Z" fill="#ffffff" fill-rule="evenodd" fill-opacity="1" /><path clip-path="url(#clip380)" d="M49.7467 328.437 L57.3856 328.437 L57.3856 302.071 L49.0754 303.738 L49.0754 299.479 L57.3393 297.812 L62.0152 297.812 L62.0152 328.437 L69.654 328.437 L69.654 332.372 L49.7467 332.372 L49.7467 328.437 Z" fill="#ffffff" fill-rule="evenodd" fill-opacity="1" /><path clip-path="url(#clip380)" d="M79.0984 326.492 L83.9827 326.492 L83.9827 332.372 L79.0984 332.372 L79.0984 326.492 Z" fill="#ffffff" fill-rule="evenodd" fill-opacity="1" /><path clip-path="url(#clip380)" d="M104.168 300.891 Q100.557 300.891 98.728 304.455 Q96.9224 307.997 96.9224 315.127 Q96.9224 322.233 98.728 325.798 Q100.557 329.339 104.168 329.339 Q107.802 329.339 109.608 325.798 Q111.436 322.233 111.436 315.127 Q111.436 307.997 109.608 304.455 Q107.802 300.891 104.168 300.891 M104.168 297.187 Q109.978 297.187 113.033 301.793 Q116.112 306.377 116.112 315.127 Q116.112 323.853 113.033 328.46 Q109.978 333.043 104.168 333.043 Q98.3576 333.043 95.2789 328.46 Q92.2234 323.853 92.2234 315.127 Q92.2234 306.377 95.2789 301.793 Q98.3576 297.187 104.168 297.187 Z" fill="#ffffff" fill-rule="evenodd" fill-opacity="1" /><path clip-path="url(#clip380)" d="M134.33 300.891 Q130.719 300.891 128.89 304.455 Q127.084 307.997 127.084 315.127 Q127.084 322.233 128.89 325.798 Q130.719 329.339 134.33 329.339 Q137.964 329.339 139.769 325.798 Q141.598 322.233 141.598 315.127 Q141.598 307.997 139.769 304.455 Q137.964 300.891 134.33 300.891 M134.33 297.187 Q140.14 297.187 143.195 301.793 Q146.274 306.377 146.274 315.127 Q146.274 323.853 143.195 328.46 Q140.14 333.043 134.33 333.043 Q128.519 333.043 125.441 328.46 Q122.385 323.853 122.385 315.127 Q122.385 306.377 125.441 301.793 Q128.519 297.187 134.33 297.187 Z" fill="#ffffff" fill-rule="evenodd" fill-opacity="1" /><path clip-path="url(#clip382)" d="M278.005 2209.02 L287.09 2208.82 L296.176 2208.61 L380.185 2205.57 L464.193 2199.43 L514.679 2193.26 L565.165 2184.32 L607.85 2173.86 L650.535 2159.99 L673.719 2150.73 L696.903 2140.06 L720.087 2127.82 L743.271 2113.85 L764.645 2099.28 L786.019 2082.95 L807.392 2064.71 L828.766 2044.41 L851.681 2020.2 L874.595 1993.28 L897.51 1963.5 L920.425 1930.69 L946.974 1888.72 L973.523 1842.31 L1000.07 1791.33 L1026.62 1735.68 L1050.21 1682.3 L1073.81 1625.24 L1097.4 1564.59 L1121 1500.47 L1141.68 1441.54 L1162.37 1380.25 L1183.06 1316.81 L1203.75 1251.44 L1248.87 1103.59 L1293.98 951.309 L1339.36 797.753 L1384.75 648.505 L1397.29 608.679 L1409.83 569.674 L1422.38 531.597 L1434.92 494.556 L1447.47 458.658 L1460.01 424.008 L1472.55 390.707 L1485.1 358.858 L1497.03 329.989 L1508.97 302.602 L1520.9 276.775 L1532.84 252.58 L1544.77 230.089 L1556.71 209.364 L1568.65 190.469 L1580.58 173.458 L1592.99 157.822 L1605.4 144.328 L1617.81 133.02 L1630.22 123.934 L1642.63 117.1 L1655.04 112.54 L1667.45 110.269 L1679.86 110.295 L1690.31 112.097 L1700.75 115.523 L1711.2 120.564 L1721.65 127.208 L1732.09 135.441 L1742.54 145.243 L1752.99 156.592 L1763.43 169.461 L1776.19 187.192 L1788.94 207.085 L1801.69 229.073 L1814.45 253.084 L1827.2 279.037 L1839.96 306.848 L1852.71 336.425 L1865.46 367.674 L1888.83 428.93 L1912.2 494.818 L1923.88 529.291 L1935.56 564.668 L1947.25 600.863 L1958.93 637.789 L2002.09 779.098 L2045.26 924.848 L2088.98 1072.83 L2132.7 1217.37 L2157.2 1295.63 L2181.7 1371.32 L2206.2 1444.03 L2230.7 1513.42 L2252.9 1573.22 L2275.1 1629.93 L2297.3 1683.45 L2319.51 1733.71 L2344.92 1787.23 L2370.34 1836.48 L2395.76 1881.52 L2421.18 1922.47 L2444.72 1956.88 L2468.25 1988.07 L2491.79 2016.19 L2515.32 2041.44 L2538.53 2063.7 L2561.73 2083.53 L2584.93 2101.11 L2608.14 2116.63 L2630.66 2129.9 L2653.19 2141.56 L2675.72 2151.75 L2698.25 2160.64 L2744.44 2175.32 L2790.63 2186.11 L2841.23 2194.52 L2891.84 2200.31 L2965.35 2205.5 L3038.86 2208.3 L3053.94 2208.68 L3069.03 2209.02 L3069.03 2211.1 L3053.94 2211.1 L3038.86 2211.1 L2965.35 2211.1 L2891.84 2211.1 L2841.23 2211.1 L2790.63 2211.1 L2744.44 2211.1 L2698.25 2211.1 L2675.72 2211.1 L2653.19 2211.1 L2630.66 2211.1 L2608.14 2211.1 L2584.93 2211.1 L2561.73 2211.1 L2538.53 2211.1 L2515.32 2211.1 L2491.79 2211.1 L2468.25 2211.1 L2444.72 2211.1 L2421.18 2211.1 L2395.76 2211.1 L2370.34 2211.1 L2344.92 2211.1 L2319.51 2211.1 L2297.3 2211.1 L2275.1 2211.1 L2252.9 2211.1 L2230.7 2211.1 L2206.2 2211.1 L2181.7 2211.1 L2157.2 2211.1 L2132.7 2211.1 L2088.98 2211.1 L2045.26 2211.1 L2002.09 2211.1 L1958.93 2211.1 L1947.25 2211.1 L1935.56 2211.1 L1923.88 2211.1 L1912.2 2211.1 L1888.83 2211.1 L1865.46 2211.1 L1852.71 2211.1 L1839.96 2211.1 L1827.2 2211.1 L1814.45 2211.1 L1801.69 2211.1 L1788.94 2211.1 L1776.19 2211.1 L1763.43 2211.1 L1752.99 2211.1 L1742.54 2211.1 L1732.09 2211.1 L1721.65 2211.1 L1711.2 2211.1 L1700.75 2211.1 L1690.31 2211.1 L1679.86 2211.1 L1667.45 2211.1 L1655.04 2211.1 L1642.63 2211.1 L1630.22 2211.1 L1617.81 2211.1 L1605.4 2211.1 L1592.99 2211.1 L1580.58 2211.1 L1568.65 2211.1 L1556.71 2211.1 L1544.77 2211.1 L1532.84 2211.1 L1520.9 2211.1 L1508.97 2211.1 L1497.03 2211.1 L1485.1 2211.1 L1472.55 2211.1 L1460.01 2211.1 L1447.47 2211.1 L1434.92 2211.1 L1422.38 2211.1 L1409.83 2211.1 L1397.29 2211.1 L1384.75 2211.1 L1339.36 2211.1 L1293.98 2211.1 L1248.87 2211.1 L1203.75 2211.1 L1183.06 2211.1 L1162.37 2211.1 L1141.68 2211.1 L1121 2211.1 L1097.4 2211.1 L1073.81 2211.1 L1050.21 2211.1 L1026.62 2211.1 L1000.07 2211.1 L973.523 2211.1 L946.974 2211.1 L920.425 2211.1 L897.51 2211.1 L874.595 2211.1 L851.681 2211.1 L828.766 2211.1 L807.392 2211.1 L786.019 2211.1 L764.645 2211.1 L743.271 2211.1 L720.087 2211.1 L696.903 2211.1 L673.719 2211.1 L650.535 2211.1 L607.85 2211.1 L565.165 2211.1 L514.679 2211.1 L464.193 2211.1 L380.185 2211.1 L296.176 2211.1 L287.09 2211.1 L278.005 2211.1  Z" fill="#ffc0cb" fill-rule="evenodd" fill-opacity="0.5"/>
<polyline clip-path="url(#clip382)" style="stroke:#800080; stroke-linecap:round; stroke-linejoin:round; stroke-width:4; stroke-opacity:1; fill:none" points="278.005,2209.02 287.09,2208.82 296.176,2208.61 380.185,2205.57 464.193,2199.43 514.679,2193.26 565.165,2184.32 607.85,2173.86 650.535,2159.99 673.719,2150.73 696.903,2140.06 720.087,2127.82 743.271,2113.85 764.645,2099.28 786.019,2082.95 807.392,2064.71 828.766,2044.41 851.681,2020.2 874.595,1993.28 897.51,1963.5 920.425,1930.69 946.974,1888.72 973.523,1842.31 1000.07,1791.33 1026.62,1735.68 1050.21,1682.3 1073.81,1625.24 1097.4,1564.59 1121,1500.47 1141.68,1441.54 1162.37,1380.25 1183.06,1316.81 1203.75,1251.44 1248.87,1103.59 1293.98,951.309 1339.36,797.753 1384.75,648.505 1397.29,608.679 1409.83,569.674 1422.38,531.597 1434.92,494.556 1447.47,458.658 1460.01,424.008 1472.55,390.707 1485.1,358.858 1497.03,329.989 1508.97,302.602 1520.9,276.775 1532.84,252.58 1544.77,230.089 1556.71,209.364 1568.65,190.469 1580.58,173.458 1592.99,157.822 1605.4,144.328 1617.81,133.02 1630.22,123.934 1642.63,117.1 1655.04,112.54 1667.45,110.269 1679.86,110.295 1690.31,112.097 1700.75,115.523 1711.2,120.564 1721.65,127.208 1732.09,135.441 1742.54,145.243 1752.99,156.592 1763.43,169.461 1776.19,187.192 1788.94,207.085 1801.69,229.073 1814.45,253.084 1827.2,279.037 1839.96,306.848 1852.71,336.425 1865.46,367.674 1888.83,428.93 1912.2,494.818 1923.88,529.291 1935.56,564.668 1947.25,600.863 1958.93,637.789 2002.09,779.098 2045.26,924.848 2088.98,1072.83 2132.7,1217.37 2157.2,1295.63 2181.7,1371.32 2206.2,1444.03 2230.7,1513.42 2252.9,1573.22 2275.1,1629.93 2297.3,1683.45 2319.51,1733.71 2344.92,1787.23 2370.34,1836.48 2395.76,1881.52 2421.18,1922.47 2444.72,1956.88 2468.25,1988.07 2491.79,2016.19 2515.32,2041.44 2538.53,2063.7 2561.73,2083.53 2584.93,2101.11 2608.14,2116.63 2630.66,2129.9 2653.19,2141.56 2675.72,2151.75 2698.25,2160.64 2744.44,2175.32 2790.63,2186.11 2841.23,2194.52 2891.84,2200.31 2965.35,2205.5 3038.86,2208.3 3053.94,2208.68 3069.03,2209.02 "/>
<path clip-path="url(#clip380)" d="M2041.42 221.698 L3054.14 221.698 L3054.14 121.474 L2041.42 121.474  Z" fill="#7711d7" fill-rule="evenodd" fill-opacity="0.0313725"/>
<polyline clip-path="url(#clip380)" style="stroke:#ffffff; stroke-linecap:round; stroke-linejoin:round; stroke-width:4; stroke-opacity:1; fill:none" points="2041.42,221.698 3054.14,221.698 3054.14,121.474 2041.42,121.474 2041.42,221.698 "/>
<path clip-path="url(#clip380)" d="M2074.29 191.63 L2271.52 191.63 L2271.52 151.541 L2074.29 151.541 L2074.29 191.63  Z" fill="#ffc0cb" fill-rule="evenodd" fill-opacity="0.5"/>
<polyline clip-path="url(#clip380)" style="stroke:#800080; stroke-linecap:round; stroke-linejoin:round; stroke-width:4; stroke-opacity:1; fill:none" points="2074.29,151.541 2271.52,151.541 "/>
<path clip-path="url(#clip380)" d="M2304.4 150.677 L2310.69 150.677 L2326.02 179.589 L2326.02 150.677 L2330.55 150.677 L2330.55 185.237 L2324.26 185.237 L2308.93 156.325 L2308.93 185.237 L2304.4 185.237 L2304.4 150.677 Z" fill="#ffffff" fill-rule="evenodd" fill-opacity="1" /><path clip-path="url(#clip380)" d="M2349.72 162.297 Q2346.29 162.297 2344.3 164.982 Q2342.31 167.644 2342.31 172.297 Q2342.31 176.95 2344.28 179.635 Q2346.27 182.297 2349.72 182.297 Q2353.12 182.297 2355.11 179.612 Q2357.1 176.927 2357.1 172.297 Q2357.1 167.691 2355.11 165.005 Q2353.12 162.297 2349.72 162.297 M2349.72 158.686 Q2355.28 158.686 2358.45 162.297 Q2361.62 165.908 2361.62 172.297 Q2361.62 178.663 2358.45 182.297 Q2355.28 185.908 2349.72 185.908 Q2344.14 185.908 2340.97 182.297 Q2337.82 178.663 2337.82 172.297 Q2337.82 165.908 2340.97 162.297 Q2344.14 158.686 2349.72 158.686 Z" fill="#ffffff" fill-rule="evenodd" fill-opacity="1" /><path clip-path="url(#clip380)" d="M2383.7 163.292 Q2382.98 162.876 2382.13 162.691 Q2381.29 162.482 2380.28 162.482 Q2376.66 162.482 2374.72 164.843 Q2372.8 167.181 2372.8 171.579 L2372.8 185.237 L2368.52 185.237 L2368.52 159.311 L2372.8 159.311 L2372.8 163.339 Q2374.14 160.978 2376.29 159.843 Q2378.45 158.686 2381.53 158.686 Q2381.97 158.686 2382.5 158.755 Q2383.03 158.802 2383.68 158.917 L2383.7 163.292 Z" fill="#ffffff" fill-rule="evenodd" fill-opacity="1" /><path clip-path="url(#clip380)" d="M2407.52 164.288 Q2409.12 161.417 2411.34 160.052 Q2413.56 158.686 2416.57 158.686 Q2420.62 158.686 2422.82 161.533 Q2425.02 164.357 2425.02 169.589 L2425.02 185.237 L2420.74 185.237 L2420.74 169.728 Q2420.74 166.001 2419.42 164.195 Q2418.1 162.39 2415.39 162.39 Q2412.08 162.39 2410.16 164.589 Q2408.24 166.788 2408.24 170.584 L2408.24 185.237 L2403.96 185.237 L2403.96 169.728 Q2403.96 165.978 2402.64 164.195 Q2401.32 162.39 2398.56 162.39 Q2395.3 162.39 2393.38 164.612 Q2391.46 166.811 2391.46 170.584 L2391.46 185.237 L2387.17 185.237 L2387.17 159.311 L2391.46 159.311 L2391.46 163.339 Q2392.91 160.954 2394.95 159.82 Q2396.99 158.686 2399.79 158.686 Q2402.61 158.686 2404.58 160.121 Q2406.57 161.556 2407.52 164.288 Z" fill="#ffffff" fill-rule="evenodd" fill-opacity="1" /><path clip-path="url(#clip380)" d="M2445.3 172.204 Q2440.14 172.204 2438.15 173.385 Q2436.16 174.566 2436.16 177.413 Q2436.16 179.681 2437.64 181.024 Q2439.14 182.343 2441.71 182.343 Q2445.25 182.343 2447.38 179.843 Q2449.53 177.32 2449.53 173.153 L2449.53 172.204 L2445.3 172.204 M2453.79 170.445 L2453.79 185.237 L2449.53 185.237 L2449.53 181.302 Q2448.08 183.663 2445.9 184.797 Q2443.72 185.908 2440.58 185.908 Q2436.6 185.908 2434.23 183.686 Q2431.9 181.44 2431.9 177.69 Q2431.9 173.316 2434.81 171.093 Q2437.75 168.871 2443.56 168.871 L2449.53 168.871 L2449.53 168.454 Q2449.53 165.515 2447.59 163.917 Q2445.67 162.297 2442.17 162.297 Q2439.95 162.297 2437.85 162.829 Q2435.74 163.362 2433.79 164.427 L2433.79 160.492 Q2436.13 159.589 2438.33 159.149 Q2440.53 158.686 2442.61 158.686 Q2448.24 158.686 2451.02 161.603 Q2453.79 164.519 2453.79 170.445 Z" fill="#ffffff" fill-rule="evenodd" fill-opacity="1" /><path clip-path="url(#clip380)" d="M2462.57 149.218 L2466.83 149.218 L2466.83 185.237 L2462.57 185.237 L2462.57 149.218 Z" fill="#ffffff" fill-rule="evenodd" fill-opacity="1" /><path clip-path="url(#clip380)" d="M2494.93 181.348 L2494.93 195.098 L2490.65 195.098 L2490.65 159.311 L2494.93 159.311 L2494.93 163.246 Q2496.27 160.931 2498.31 159.82 Q2500.37 158.686 2503.22 158.686 Q2507.94 158.686 2510.88 162.436 Q2513.84 166.186 2513.84 172.297 Q2513.84 178.408 2510.88 182.158 Q2507.94 185.908 2503.22 185.908 Q2500.37 185.908 2498.31 184.797 Q2496.27 183.663 2494.93 181.348 M2509.42 172.297 Q2509.42 167.598 2507.47 164.936 Q2505.55 162.251 2502.17 162.251 Q2498.79 162.251 2496.85 164.936 Q2494.93 167.598 2494.93 172.297 Q2494.93 176.996 2496.85 179.681 Q2498.79 182.343 2502.17 182.343 Q2505.55 182.343 2507.47 179.681 Q2509.42 176.996 2509.42 172.297 Z" fill="#ffffff" fill-rule="evenodd" fill-opacity="1" /><path clip-path="url(#clip380)" d="M2520.9 149.218 L2525.16 149.218 L2525.16 185.237 L2520.9 185.237 L2520.9 149.218 Z" fill="#ffffff" fill-rule="evenodd" fill-opacity="1" /><path clip-path="url(#clip380)" d="M2544.12 162.297 Q2540.69 162.297 2538.7 164.982 Q2536.71 167.644 2536.71 172.297 Q2536.71 176.95 2538.68 179.635 Q2540.67 182.297 2544.12 182.297 Q2547.52 182.297 2549.51 179.612 Q2551.5 176.927 2551.5 172.297 Q2551.5 167.691 2549.51 165.005 Q2547.52 162.297 2544.12 162.297 M2544.12 158.686 Q2549.67 158.686 2552.84 162.297 Q2556.02 165.908 2556.02 172.297 Q2556.02 178.663 2552.84 182.297 Q2549.67 185.908 2544.12 185.908 Q2538.54 185.908 2535.37 182.297 Q2532.22 178.663 2532.22 172.297 Q2532.22 165.908 2535.37 162.297 Q2538.54 158.686 2544.12 158.686 Z" fill="#ffffff" fill-rule="evenodd" fill-opacity="1" /><path clip-path="url(#clip380)" d="M2567.29 151.95 L2567.29 159.311 L2576.06 159.311 L2576.06 162.621 L2567.29 162.621 L2567.29 176.695 Q2567.29 179.866 2568.15 180.769 Q2569.02 181.672 2571.69 181.672 L2576.06 181.672 L2576.06 185.237 L2571.69 185.237 Q2566.76 185.237 2564.88 183.408 Q2563.01 181.556 2563.01 176.695 L2563.01 162.621 L2559.88 162.621 L2559.88 159.311 L2563.01 159.311 L2563.01 151.95 L2567.29 151.95 Z" fill="#ffffff" fill-rule="evenodd" fill-opacity="1" /><path clip-path="url(#clip380)" d="M2592.27 195.098 L2592.27 159.311 L2596.52 159.311 L2596.52 175.422 Q2596.52 178.778 2598.12 180.491 Q2599.72 182.204 2602.84 182.204 Q2606.27 182.204 2607.98 180.26 Q2609.72 178.315 2609.72 174.427 L2609.72 159.311 L2613.98 159.311 L2613.98 179.265 Q2613.98 180.653 2614.37 181.325 Q2614.79 181.973 2615.64 181.973 Q2615.85 181.973 2616.22 181.857 Q2616.59 181.718 2617.24 181.44 L2617.24 184.866 Q2616.29 185.399 2615.44 185.653 Q2614.6 185.908 2613.79 185.908 Q2612.2 185.908 2611.25 185.005 Q2610.3 184.103 2609.95 182.251 Q2608.79 184.079 2607.1 185.005 Q2605.44 185.908 2603.17 185.908 Q2600.81 185.908 2599.14 185.005 Q2597.5 184.103 2596.52 182.297 L2596.52 195.098 L2592.27 195.098 Z" fill="#ffffff" fill-rule="evenodd" fill-opacity="1" /><path clip-path="url(#clip380)" d="M2637.33 163.709 L2667.01 163.709 L2667.01 167.598 L2637.33 167.598 L2637.33 163.709 M2637.33 173.153 L2667.01 173.153 L2667.01 177.089 L2637.33 177.089 L2637.33 173.153 Z" fill="#ffffff" fill-rule="evenodd" fill-opacity="1" /><path clip-path="url(#clip380)" d="M2702.17 153.755 Q2698.56 153.755 2696.73 157.32 Q2694.93 160.862 2694.93 167.991 Q2694.93 175.098 2696.73 178.663 Q2698.56 182.204 2702.17 182.204 Q2705.81 182.204 2707.61 178.663 Q2709.44 175.098 2709.44 167.991 Q2709.44 160.862 2707.61 157.32 Q2705.81 153.755 2702.17 153.755 M2702.17 150.052 Q2707.98 150.052 2711.04 154.658 Q2714.12 159.242 2714.12 167.991 Q2714.12 176.718 2711.04 181.325 Q2707.98 185.908 2702.17 185.908 Q2696.36 185.908 2693.28 181.325 Q2690.23 176.718 2690.23 167.991 Q2690.23 159.242 2693.28 154.658 Q2696.36 150.052 2702.17 150.052 Z" fill="#ffffff" fill-rule="evenodd" fill-opacity="1" /><path clip-path="url(#clip380)" d="M2722.33 179.357 L2727.22 179.357 L2727.22 185.237 L2722.33 185.237 L2722.33 179.357 Z" fill="#ffffff" fill-rule="evenodd" fill-opacity="1" /><path clip-path="url(#clip380)" d="M2737.45 150.677 L2755.81 150.677 L2755.81 154.612 L2741.73 154.612 L2741.73 163.084 Q2742.75 162.737 2743.77 162.575 Q2744.79 162.39 2745.81 162.39 Q2751.59 162.39 2754.97 165.561 Q2758.35 168.732 2758.35 174.149 Q2758.35 179.728 2754.88 182.829 Q2751.41 185.908 2745.09 185.908 Q2742.91 185.908 2740.64 185.538 Q2738.4 185.167 2735.99 184.427 L2735.99 179.728 Q2738.07 180.862 2740.3 181.417 Q2742.52 181.973 2745 181.973 Q2749 181.973 2751.34 179.866 Q2753.68 177.76 2753.68 174.149 Q2753.68 170.538 2751.34 168.431 Q2749 166.325 2745 166.325 Q2743.12 166.325 2741.25 166.741 Q2739.39 167.158 2737.45 168.038 L2737.45 150.677 Z" fill="#ffffff" fill-rule="evenodd" fill-opacity="1" /><path clip-path="url(#clip380)" d="M2766.38 150.677 L2788.61 150.677 L2788.61 152.667 L2776.06 185.237 L2771.18 185.237 L2782.98 154.612 L2766.38 154.612 L2766.38 150.677 Z" fill="#ffffff" fill-rule="evenodd" fill-opacity="1" /><path clip-path="url(#clip380)" d="M2798.21 179.357 L2803.1 179.357 L2803.1 183.339 L2799.3 190.746 L2796.32 190.746 L2798.21 183.339 L2798.21 179.357 Z" fill="#ffffff" fill-rule="evenodd" fill-opacity="1" /><path clip-path="url(#clip380)" d="M2834.69 162.691 Q2831.18 162.691 2829.28 165.237 Q2827.29 167.899 2827.29 172.297 Q2827.29 176.95 2829.25 179.635 Q2831.25 182.297 2834.69 182.297 Q2838.1 182.297 2840.09 179.612 Q2842.08 176.927 2842.08 172.297 Q2842.08 168.061 2840.09 165.237 Q2838.26 162.691 2834.69 162.691 M2834.69 159.311 L2848.84 159.311 L2848.84 163.57 L2844.07 163.57 Q2846.59 167.181 2846.59 172.297 Q2846.59 178.663 2843.42 182.274 Q2840.25 185.908 2834.69 185.908 Q2829.12 185.908 2825.97 182.274 Q2822.8 178.663 2822.8 172.297 Q2822.8 165.885 2825.97 162.297 Q2828.58 159.311 2834.69 159.311 Z" fill="#ffffff" fill-rule="evenodd" fill-opacity="1" /><path clip-path="url(#clip380)" d="M2868.93 163.709 L2898.61 163.709 L2898.61 167.598 L2868.93 167.598 L2868.93 163.709 M2868.93 173.153 L2898.61 173.153 L2898.61 177.089 L2868.93 177.089 L2868.93 173.153 Z" fill="#ffffff" fill-rule="evenodd" fill-opacity="1" /><path clip-path="url(#clip380)" d="M2933.77 153.755 Q2930.16 153.755 2928.33 157.32 Q2926.52 160.862 2926.52 167.991 Q2926.52 175.098 2928.33 178.663 Q2930.16 182.204 2933.77 182.204 Q2937.4 182.204 2939.21 178.663 Q2941.04 175.098 2941.04 167.991 Q2941.04 160.862 2939.21 157.32 Q2937.4 153.755 2933.77 153.755 M2933.77 150.052 Q2939.58 150.052 2942.63 154.658 Q2945.71 159.242 2945.71 167.991 Q2945.71 176.718 2942.63 181.325 Q2939.58 185.908 2933.77 185.908 Q2927.96 185.908 2924.88 181.325 Q2921.82 176.718 2921.82 167.991 Q2921.82 159.242 2924.88 154.658 Q2927.96 150.052 2933.77 150.052 Z" fill="#ffffff" fill-rule="evenodd" fill-opacity="1" /><path clip-path="url(#clip380)" d="M2953.93 179.357 L2958.81 179.357 L2958.81 185.237 L2953.93 185.237 L2953.93 179.357 Z" fill="#ffffff" fill-rule="evenodd" fill-opacity="1" /><path clip-path="url(#clip380)" d="M2983.17 166.603 Q2986.52 167.32 2988.4 169.589 Q2990.3 171.857 2990.3 175.191 Q2990.3 180.306 2986.78 183.107 Q2983.26 185.908 2976.78 185.908 Q2974.6 185.908 2972.29 185.468 Q2969.99 185.052 2967.54 184.195 L2967.54 179.681 Q2969.49 180.815 2971.8 181.394 Q2974.12 181.973 2976.64 181.973 Q2981.04 181.973 2983.33 180.237 Q2985.64 178.501 2985.64 175.191 Q2985.64 172.135 2983.49 170.422 Q2981.36 168.686 2977.54 168.686 L2973.51 168.686 L2973.51 164.843 L2977.73 164.843 Q2981.18 164.843 2983 163.478 Q2984.83 162.089 2984.83 159.496 Q2984.83 156.834 2982.93 155.422 Q2981.06 153.987 2977.54 153.987 Q2975.62 153.987 2973.42 154.404 Q2971.22 154.82 2968.58 155.7 L2968.58 151.533 Q2971.24 150.792 2973.56 150.422 Q2975.9 150.052 2977.96 150.052 Q2983.28 150.052 2986.38 152.482 Q2989.49 154.89 2989.49 159.01 Q2989.49 161.88 2987.84 163.871 Q2986.2 165.839 2983.17 166.603 Z" fill="#ffffff" fill-rule="evenodd" fill-opacity="1" /><path clip-path="url(#clip380)" d="M3009.74 166.093 Q3006.59 166.093 3004.74 168.246 Q3002.91 170.399 3002.91 174.149 Q3002.91 177.876 3004.74 180.052 Q3006.59 182.204 3009.74 182.204 Q3012.89 182.204 3014.72 180.052 Q3016.57 177.876 3016.57 174.149 Q3016.57 170.399 3014.72 168.246 Q3012.89 166.093 3009.74 166.093 M3019.02 151.441 L3019.02 155.7 Q3017.26 154.867 3015.46 154.427 Q3013.68 153.987 3011.92 153.987 Q3007.29 153.987 3004.83 157.112 Q3002.4 160.237 3002.05 166.556 Q3003.42 164.542 3005.48 163.478 Q3007.54 162.39 3010.02 162.39 Q3015.23 162.39 3018.24 165.561 Q3021.27 168.709 3021.27 174.149 Q3021.27 179.473 3018.12 182.69 Q3014.97 185.908 3009.74 185.908 Q3003.74 185.908 3000.57 181.325 Q2997.4 176.718 2997.4 167.991 Q2997.4 159.797 3001.29 154.936 Q3005.18 150.052 3011.73 150.052 Q3013.49 150.052 3015.27 150.399 Q3017.08 150.746 3019.02 151.441 Z" fill="#ffffff" fill-rule="evenodd" fill-opacity="1" /></svg>
