<?xml version="1.0" encoding="utf-8"?>
<svg xmlns="http://www.w3.org/2000/svg" xmlns:xlink="http://www.w3.org/1999/xlink" width="800" height="600" viewBox="0 0 3200 2400">
<defs>
  <clipPath id="clip100">
    <rect x="0" y="0" width="3200" height="2400"/>
  </clipPath>
</defs>
<path clip-path="url(#clip100)" d="M0 2400 L3200 2400 L3200 0 L0 0  Z" fill="#7711d7" fill-rule="evenodd" fill-opacity="0.0313725"/>
<defs>
  <clipPath id="clip101">
    <rect x="640" y="0" width="2241" height="2241"/>
  </clipPath>
</defs>
<defs>
  <clipPath id="clip102">
    <rect x="280" y="47" width="2873" height="2125"/>
  </clipPath>
</defs>
<path clip-path="url(#clip100)" d="M297.502 2170.9 L3152.76 2170.9 L3152.76 131.032 L297.502 131.032  Z" fill="#7711d7" fill-rule="evenodd" fill-opacity="0.0313725"/>
<defs>
  <clipPath id="clip103">
    <rect x="297" y="131" width="2856" height="2041"/>
  </clipPath>
</defs>
<polyline clip-path="url(#clip103)" style="stroke:#ffffff; stroke-linecap:round; stroke-linejoin:round; stroke-width:2; stroke-opacity:0.1; fill:none" points="378.311,2170.9 378.311,131.032 "/>
<polyline clip-path="url(#clip103)" style="stroke:#ffffff; stroke-linecap:round; stroke-linejoin:round; stroke-width:2; stroke-opacity:0.1; fill:none" points="1159.67,2170.9 1159.67,131.032 "/>
<polyline clip-path="url(#clip103)" style="stroke:#ffffff; stroke-linecap:round; stroke-linejoin:round; stroke-width:2; stroke-opacity:0.1; fill:none" points="1941.03,2170.9 1941.03,131.032 "/>
<polyline clip-path="url(#clip103)" style="stroke:#ffffff; stroke-linecap:round; stroke-linejoin:round; stroke-width:2; stroke-opacity:0.1; fill:none" points="2722.39,2170.9 2722.39,131.032 "/>
<polyline clip-path="url(#clip100)" style="stroke:#ffffff; stroke-linecap:round; stroke-linejoin:round; stroke-width:4; stroke-opacity:1; fill:none" points="297.502,2170.9 3152.76,2170.9 "/>
<polyline clip-path="url(#clip100)" style="stroke:#ffffff; stroke-linecap:round; stroke-linejoin:round; stroke-width:4; stroke-opacity:1; fill:none" points="378.311,2170.9 378.311,2152 "/>
<polyline clip-path="url(#clip100)" style="stroke:#ffffff; stroke-linecap:round; stroke-linejoin:round; stroke-width:4; stroke-opacity:1; fill:none" points="1159.67,2170.9 1159.67,2152 "/>
<polyline clip-path="url(#clip100)" style="stroke:#ffffff; stroke-linecap:round; stroke-linejoin:round; stroke-width:4; stroke-opacity:1; fill:none" points="1941.03,2170.9 1941.03,2152 "/>
<polyline clip-path="url(#clip100)" style="stroke:#ffffff; stroke-linecap:round; stroke-linejoin:round; stroke-width:4; stroke-opacity:1; fill:none" points="2722.39,2170.9 2722.39,2152 "/>
<path clip-path="url(#clip100)" d="M378.311 2208.22 Q374.7 2208.22 372.871 2211.78 Q371.066 2215.32 371.066 2222.45 Q371.066 2229.56 372.871 2233.13 Q374.7 2236.67 378.311 2236.67 Q381.945 2236.67 383.751 2233.13 Q385.58 2229.56 385.58 2222.45 Q385.58 2215.32 383.751 2211.78 Q381.945 2208.22 378.311 2208.22 M378.311 2204.51 Q384.121 2204.51 387.177 2209.12 Q390.255 2213.7 390.255 2222.45 Q390.255 2231.18 387.177 2235.79 Q384.121 2240.37 378.311 2240.37 Q372.501 2240.37 369.422 2235.79 Q366.367 2231.18 366.367 2222.45 Q366.367 2213.7 369.422 2209.12 Q372.501 2204.51 378.311 2204.51 Z" fill="#ffffff" fill-rule="evenodd" fill-opacity="1" /><path clip-path="url(#clip100)" d="M1123.36 2235.76 L1139.68 2235.76 L1139.68 2239.7 L1117.74 2239.7 L1117.74 2235.76 Q1120.4 2233.01 1124.98 2228.38 Q1129.59 2223.73 1130.77 2222.39 Q1133.01 2219.86 1133.89 2218.13 Q1134.8 2216.37 1134.8 2214.68 Q1134.8 2211.92 1132.85 2210.19 Q1130.93 2208.45 1127.83 2208.45 Q1125.63 2208.45 1123.18 2209.21 Q1120.75 2209.98 1117.97 2211.53 L1117.97 2206.81 Q1120.79 2205.67 1123.25 2205.09 Q1125.7 2204.51 1127.74 2204.51 Q1133.11 2204.51 1136.3 2207.2 Q1139.5 2209.89 1139.5 2214.38 Q1139.5 2216.51 1138.69 2218.43 Q1137.9 2220.32 1135.79 2222.92 Q1135.21 2223.59 1132.11 2226.81 Q1129.01 2230 1123.36 2235.76 Z" fill="#ffffff" fill-rule="evenodd" fill-opacity="1" /><path clip-path="url(#clip100)" d="M1159.5 2208.22 Q1155.89 2208.22 1154.06 2211.78 Q1152.25 2215.32 1152.25 2222.45 Q1152.25 2229.56 1154.06 2233.13 Q1155.89 2236.67 1159.5 2236.67 Q1163.13 2236.67 1164.94 2233.13 Q1166.76 2229.56 1166.76 2222.45 Q1166.76 2215.32 1164.94 2211.78 Q1163.13 2208.22 1159.5 2208.22 M1159.5 2204.51 Q1165.31 2204.51 1168.36 2209.12 Q1171.44 2213.7 1171.44 2222.45 Q1171.44 2231.18 1168.36 2235.79 Q1165.31 2240.37 1159.5 2240.37 Q1153.69 2240.37 1150.61 2235.79 Q1147.55 2231.18 1147.55 2222.45 Q1147.55 2213.7 1150.61 2209.12 Q1153.69 2204.51 1159.5 2204.51 Z" fill="#ffffff" fill-rule="evenodd" fill-opacity="1" /><path clip-path="url(#clip100)" d="M1189.66 2208.22 Q1186.05 2208.22 1184.22 2211.78 Q1182.41 2215.32 1182.41 2222.45 Q1182.41 2229.56 1184.22 2233.13 Q1186.05 2236.67 1189.66 2236.67 Q1193.29 2236.67 1195.1 2233.13 Q1196.93 2229.56 1196.93 2222.45 Q1196.93 2215.32 1195.1 2211.78 Q1193.29 2208.22 1189.66 2208.22 M1189.66 2204.51 Q1195.47 2204.51 1198.52 2209.12 Q1201.6 2213.7 1201.6 2222.45 Q1201.6 2231.18 1198.52 2235.79 Q1195.47 2240.37 1189.66 2240.37 Q1183.85 2240.37 1180.77 2235.79 Q1177.71 2231.18 1177.71 2222.45 Q1177.71 2213.7 1180.77 2209.12 Q1183.85 2204.51 1189.66 2204.51 Z" fill="#ffffff" fill-rule="evenodd" fill-opacity="1" /><path clip-path="url(#clip100)" d="M1914.12 2209.21 L1902.31 2227.66 L1914.12 2227.66 L1914.12 2209.21 M1912.89 2205.14 L1918.77 2205.14 L1918.77 2227.66 L1923.7 2227.66 L1923.7 2231.55 L1918.77 2231.55 L1918.77 2239.7 L1914.12 2239.7 L1914.12 2231.55 L1898.52 2231.55 L1898.52 2227.04 L1912.89 2205.14 Z" fill="#ffffff" fill-rule="evenodd" fill-opacity="1" /><path clip-path="url(#clip100)" d="M1941.43 2208.22 Q1937.82 2208.22 1935.99 2211.78 Q1934.19 2215.32 1934.19 2222.45 Q1934.19 2229.56 1935.99 2233.13 Q1937.82 2236.67 1941.43 2236.67 Q1945.07 2236.67 1946.87 2233.13 Q1948.7 2229.56 1948.7 2222.45 Q1948.7 2215.32 1946.87 2211.78 Q1945.07 2208.22 1941.43 2208.22 M1941.43 2204.51 Q1947.24 2204.51 1950.3 2209.12 Q1953.38 2213.7 1953.38 2222.45 Q1953.38 2231.18 1950.3 2235.79 Q1947.24 2240.37 1941.43 2240.37 Q1935.62 2240.37 1932.55 2235.79 Q1929.49 2231.18 1929.49 2222.45 Q1929.49 2213.7 1932.55 2209.12 Q1935.62 2204.51 1941.43 2204.51 Z" fill="#ffffff" fill-rule="evenodd" fill-opacity="1" /><path clip-path="url(#clip100)" d="M1971.6 2208.22 Q1967.98 2208.22 1966.16 2211.78 Q1964.35 2215.32 1964.35 2222.45 Q1964.35 2229.56 1966.16 2233.13 Q1967.98 2236.67 1971.6 2236.67 Q1975.23 2236.67 1977.04 2233.13 Q1978.86 2229.56 1978.86 2222.45 Q1978.86 2215.32 1977.04 2211.78 Q1975.23 2208.22 1971.6 2208.22 M1971.6 2204.51 Q1977.41 2204.51 1980.46 2209.12 Q1983.54 2213.7 1983.54 2222.45 Q1983.54 2231.18 1980.46 2235.79 Q1977.41 2240.37 1971.6 2240.37 Q1965.79 2240.37 1962.71 2235.79 Q1959.65 2231.18 1959.65 2222.45 Q1959.65 2213.7 1962.71 2209.12 Q1965.79 2204.51 1971.6 2204.51 Z" fill="#ffffff" fill-rule="evenodd" fill-opacity="1" /><path clip-path="url(#clip100)" d="M2692.71 2220.56 Q2689.56 2220.56 2687.71 2222.71 Q2685.88 2224.86 2685.88 2228.61 Q2685.88 2232.34 2687.71 2234.51 Q2689.56 2236.67 2692.71 2236.67 Q2695.86 2236.67 2697.69 2234.51 Q2699.54 2232.34 2699.54 2228.61 Q2699.54 2224.86 2697.69 2222.71 Q2695.86 2220.56 2692.71 2220.56 M2701.99 2205.9 L2701.99 2210.16 Q2700.23 2209.33 2698.43 2208.89 Q2696.65 2208.45 2694.89 2208.45 Q2690.26 2208.45 2687.8 2211.57 Q2685.37 2214.7 2685.03 2221.02 Q2686.39 2219.01 2688.45 2217.94 Q2690.51 2216.85 2692.99 2216.85 Q2698.2 2216.85 2701.21 2220.02 Q2704.24 2223.17 2704.24 2228.61 Q2704.24 2233.94 2701.09 2237.15 Q2697.94 2240.37 2692.71 2240.37 Q2686.72 2240.37 2683.55 2235.79 Q2680.37 2231.18 2680.37 2222.45 Q2680.37 2214.26 2684.26 2209.4 Q2688.15 2204.51 2694.7 2204.51 Q2696.46 2204.51 2698.24 2204.86 Q2700.05 2205.21 2701.99 2205.9 Z" fill="#ffffff" fill-rule="evenodd" fill-opacity="1" /><path clip-path="url(#clip100)" d="M2722.29 2208.22 Q2718.68 2208.22 2716.86 2211.78 Q2715.05 2215.32 2715.05 2222.45 Q2715.05 2229.56 2716.86 2233.13 Q2718.68 2236.67 2722.29 2236.67 Q2725.93 2236.67 2727.73 2233.13 Q2729.56 2229.56 2729.56 2222.45 Q2729.56 2215.32 2727.73 2211.78 Q2725.93 2208.22 2722.29 2208.22 M2722.29 2204.51 Q2728.11 2204.51 2731.16 2209.12 Q2734.24 2213.7 2734.24 2222.45 Q2734.24 2231.18 2731.16 2235.79 Q2728.11 2240.37 2722.29 2240.37 Q2716.48 2240.37 2713.41 2235.79 Q2710.35 2231.18 2710.35 2222.45 Q2710.35 2213.7 2713.41 2209.12 Q2716.48 2204.51 2722.29 2204.51 Z" fill="#ffffff" fill-rule="evenodd" fill-opacity="1" /><path clip-path="url(#clip100)" d="M2752.46 2208.22 Q2748.85 2208.22 2747.02 2211.78 Q2745.21 2215.32 2745.21 2222.45 Q2745.21 2229.56 2747.02 2233.13 Q2748.85 2236.67 2752.46 2236.67 Q2756.09 2236.67 2757.9 2233.13 Q2759.73 2229.56 2759.73 2222.45 Q2759.73 2215.32 2757.9 2211.78 Q2756.09 2208.22 2752.46 2208.22 M2752.46 2204.51 Q2758.27 2204.51 2761.32 2209.12 Q2764.4 2213.7 2764.4 2222.45 Q2764.4 2231.18 2761.32 2235.79 Q2758.27 2240.37 2752.46 2240.37 Q2746.65 2240.37 2743.57 2235.79 Q2740.51 2231.18 2740.51 2222.45 Q2740.51 2213.7 2743.57 2209.12 Q2746.65 2204.51 2752.46 2204.51 Z" fill="#ffffff" fill-rule="evenodd" fill-opacity="1" /><path clip-path="url(#clip100)" d="M1277.74 2298.49 Q1281.13 2299.64 1284.3 2303.39 Q1287.53 2307.14 1290.76 2313.7 L1301.44 2334.95 L1290.14 2334.95 L1280.19 2315 Q1276.34 2307.19 1272.69 2304.64 Q1269.1 2302.09 1262.85 2302.09 L1251.39 2302.09 L1251.39 2334.95 L1240.87 2334.95 L1240.87 2257.19 L1264.62 2257.19 Q1277.95 2257.19 1284.51 2262.76 Q1291.07 2268.34 1291.07 2279.59 Q1291.07 2286.93 1287.64 2291.77 Q1284.25 2296.62 1277.74 2298.49 M1251.39 2265.84 L1251.39 2293.44 L1264.62 2293.44 Q1272.22 2293.44 1276.07 2289.95 Q1279.98 2286.41 1279.98 2279.59 Q1279.98 2272.76 1276.07 2269.33 Q1272.22 2265.84 1264.62 2265.84 L1251.39 2265.84 Z" fill="#ffffff" fill-rule="evenodd" fill-opacity="1" /><path clip-path="url(#clip100)" d="M1359.67 2303.39 L1359.67 2308.08 L1315.61 2308.08 Q1316.23 2317.97 1321.54 2323.18 Q1326.91 2328.34 1336.44 2328.34 Q1341.96 2328.34 1347.12 2326.98 Q1352.32 2325.63 1357.43 2322.92 L1357.43 2331.98 Q1352.27 2334.17 1346.86 2335.32 Q1341.44 2336.46 1335.87 2336.46 Q1321.91 2336.46 1313.73 2328.34 Q1305.61 2320.21 1305.61 2306.36 Q1305.61 2292.04 1313.31 2283.65 Q1321.07 2275.21 1334.2 2275.21 Q1345.97 2275.21 1352.79 2282.82 Q1359.67 2290.37 1359.67 2303.39 M1350.08 2300.58 Q1349.98 2292.71 1345.66 2288.02 Q1341.39 2283.34 1334.3 2283.34 Q1326.28 2283.34 1321.44 2287.87 Q1316.65 2292.4 1315.92 2300.63 L1350.08 2300.58 Z" fill="#ffffff" fill-rule="evenodd" fill-opacity="1" /><path clip-path="url(#clip100)" d="M1375.4 2253.91 L1384.98 2253.91 L1384.98 2334.95 L1375.4 2334.95 L1375.4 2253.91 Z" fill="#ffffff" fill-rule="evenodd" fill-opacity="1" /><path clip-path="url(#clip100)" d="M1431.54 2305.63 Q1419.93 2305.63 1415.45 2308.29 Q1410.97 2310.94 1410.97 2317.35 Q1410.97 2322.45 1414.3 2325.47 Q1417.69 2328.44 1423.47 2328.44 Q1431.44 2328.44 1436.23 2322.82 Q1441.07 2317.14 1441.07 2307.76 L1441.07 2305.63 L1431.54 2305.63 M1450.66 2301.67 L1450.66 2334.95 L1441.07 2334.95 L1441.07 2326.1 Q1437.79 2331.41 1432.9 2333.96 Q1428 2336.46 1420.92 2336.46 Q1411.96 2336.46 1406.65 2331.46 Q1401.39 2326.41 1401.39 2317.97 Q1401.39 2308.13 1407.95 2303.13 Q1414.56 2298.13 1427.64 2298.13 L1441.07 2298.13 L1441.07 2297.19 Q1441.07 2290.58 1436.7 2286.98 Q1432.38 2283.34 1424.51 2283.34 Q1419.51 2283.34 1414.77 2284.54 Q1410.03 2285.73 1405.66 2288.13 L1405.66 2279.27 Q1410.92 2277.24 1415.87 2276.25 Q1420.81 2275.21 1425.5 2275.21 Q1438.16 2275.21 1444.41 2281.77 Q1450.66 2288.34 1450.66 2301.67 Z" fill="#ffffff" fill-rule="evenodd" fill-opacity="1" /><path clip-path="url(#clip100)" d="M1479.88 2260.06 L1479.88 2276.62 L1499.62 2276.62 L1499.62 2284.07 L1479.88 2284.07 L1479.88 2315.73 Q1479.88 2322.87 1481.8 2324.9 Q1483.78 2326.93 1489.77 2326.93 L1499.62 2326.93 L1499.62 2334.95 L1489.77 2334.95 Q1478.68 2334.95 1474.46 2330.84 Q1470.24 2326.67 1470.24 2315.73 L1470.24 2284.07 L1463.21 2284.07 L1463.21 2276.62 L1470.24 2276.62 L1470.24 2260.06 L1479.88 2260.06 Z" fill="#ffffff" fill-rule="evenodd" fill-opacity="1" /><path clip-path="url(#clip100)" d="M1512.22 2276.62 L1521.8 2276.62 L1521.8 2334.95 L1512.22 2334.95 L1512.22 2276.62 M1512.22 2253.91 L1521.8 2253.91 L1521.8 2266.05 L1512.22 2266.05 L1512.22 2253.91 Z" fill="#ffffff" fill-rule="evenodd" fill-opacity="1" /><path clip-path="url(#clip100)" d="M1534.98 2276.62 L1545.14 2276.62 L1563.36 2325.58 L1581.59 2276.62 L1591.75 2276.62 L1569.88 2334.95 L1556.85 2334.95 L1534.98 2276.62 Z" fill="#ffffff" fill-rule="evenodd" fill-opacity="1" /><path clip-path="url(#clip100)" d="M1654.87 2303.39 L1654.87 2308.08 L1610.81 2308.08 Q1611.44 2317.97 1616.75 2323.18 Q1622.11 2328.34 1631.65 2328.34 Q1637.17 2328.34 1642.32 2326.98 Q1647.53 2325.63 1652.64 2322.92 L1652.64 2331.98 Q1647.48 2334.17 1642.06 2335.32 Q1636.65 2336.46 1631.07 2336.46 Q1617.11 2336.46 1608.94 2328.34 Q1600.81 2320.21 1600.81 2306.36 Q1600.81 2292.04 1608.52 2283.65 Q1616.28 2275.21 1629.41 2275.21 Q1641.18 2275.21 1648 2282.82 Q1654.87 2290.37 1654.87 2303.39 M1645.29 2300.58 Q1645.19 2292.71 1640.86 2288.02 Q1636.59 2283.34 1629.51 2283.34 Q1621.49 2283.34 1616.65 2287.87 Q1611.85 2292.4 1611.12 2300.63 L1645.29 2300.58 Z" fill="#ffffff" fill-rule="evenodd" fill-opacity="1" /><path clip-path="url(#clip100)" d="M1704.51 2276.62 L1714.09 2276.62 L1714.09 2334.95 L1704.51 2334.95 L1704.51 2276.62 M1704.51 2253.91 L1714.09 2253.91 L1714.09 2266.05 L1704.51 2266.05 L1704.51 2253.91 Z" fill="#ffffff" fill-rule="evenodd" fill-opacity="1" /><path clip-path="url(#clip100)" d="M1782.63 2299.74 L1782.63 2334.95 L1773.05 2334.95 L1773.05 2300.06 Q1773.05 2291.77 1769.82 2287.66 Q1766.59 2283.55 1760.13 2283.55 Q1752.37 2283.55 1747.9 2288.49 Q1743.42 2293.44 1743.42 2301.98 L1743.42 2334.95 L1733.78 2334.95 L1733.78 2276.62 L1743.42 2276.62 L1743.42 2285.68 Q1746.85 2280.42 1751.49 2277.82 Q1756.18 2275.21 1762.27 2275.21 Q1772.32 2275.21 1777.48 2281.46 Q1782.63 2287.66 1782.63 2299.74 Z" fill="#ffffff" fill-rule="evenodd" fill-opacity="1" /><path clip-path="url(#clip100)" d="M1843.73 2278.86 L1843.73 2287.82 Q1839.67 2285.58 1835.55 2284.48 Q1831.49 2283.34 1827.32 2283.34 Q1818 2283.34 1812.84 2289.27 Q1807.69 2295.16 1807.69 2305.84 Q1807.69 2316.51 1812.84 2322.45 Q1818 2328.34 1827.32 2328.34 Q1831.49 2328.34 1835.55 2327.24 Q1839.67 2326.1 1843.73 2323.86 L1843.73 2332.71 Q1839.72 2334.59 1835.39 2335.52 Q1831.12 2336.46 1826.28 2336.46 Q1813.1 2336.46 1805.34 2328.18 Q1797.58 2319.9 1797.58 2305.84 Q1797.58 2291.57 1805.39 2283.39 Q1813.26 2275.21 1826.91 2275.21 Q1831.33 2275.21 1835.55 2276.15 Q1839.77 2277.04 1843.73 2278.86 Z" fill="#ffffff" fill-rule="evenodd" fill-opacity="1" /><path clip-path="url(#clip100)" d="M1883 2283.34 Q1875.29 2283.34 1870.81 2289.38 Q1866.33 2295.37 1866.33 2305.84 Q1866.33 2316.31 1870.76 2322.35 Q1875.24 2328.34 1883 2328.34 Q1890.65 2328.34 1895.13 2322.3 Q1899.61 2316.25 1899.61 2305.84 Q1899.61 2295.47 1895.13 2289.43 Q1890.65 2283.34 1883 2283.34 M1883 2275.21 Q1895.5 2275.21 1902.63 2283.34 Q1909.77 2291.46 1909.77 2305.84 Q1909.77 2320.16 1902.63 2328.34 Q1895.5 2336.46 1883 2336.46 Q1870.45 2336.46 1863.31 2328.34 Q1856.23 2320.16 1856.23 2305.84 Q1856.23 2291.46 1863.31 2283.34 Q1870.45 2275.21 1883 2275.21 Z" fill="#ffffff" fill-rule="evenodd" fill-opacity="1" /><path clip-path="url(#clip100)" d="M1971.07 2287.82 Q1974.66 2281.36 1979.66 2278.29 Q1984.66 2275.21 1991.44 2275.21 Q2000.55 2275.21 2005.5 2281.62 Q2010.45 2287.97 2010.45 2299.74 L2010.45 2334.95 L2000.81 2334.95 L2000.81 2300.06 Q2000.81 2291.67 1997.84 2287.61 Q1994.87 2283.55 1988.78 2283.55 Q1981.33 2283.55 1977.01 2288.49 Q1972.69 2293.44 1972.69 2301.98 L1972.69 2334.95 L1963.05 2334.95 L1963.05 2300.06 Q1963.05 2291.62 1960.08 2287.61 Q1957.11 2283.55 1950.91 2283.55 Q1943.57 2283.55 1939.25 2288.55 Q1934.93 2293.49 1934.93 2301.98 L1934.93 2334.95 L1925.29 2334.95 L1925.29 2276.62 L1934.93 2276.62 L1934.93 2285.68 Q1938.21 2280.32 1942.79 2277.76 Q1947.37 2275.21 1953.68 2275.21 Q1960.03 2275.21 1964.46 2278.44 Q1968.94 2281.67 1971.07 2287.82 Z" fill="#ffffff" fill-rule="evenodd" fill-opacity="1" /><path clip-path="url(#clip100)" d="M2079.46 2303.39 L2079.46 2308.08 L2035.39 2308.08 Q2036.02 2317.97 2041.33 2323.18 Q2046.7 2328.34 2056.23 2328.34 Q2061.75 2328.34 2066.9 2326.98 Q2072.11 2325.63 2077.22 2322.92 L2077.22 2331.98 Q2072.06 2334.17 2066.64 2335.32 Q2061.23 2336.46 2055.65 2336.46 Q2041.7 2336.46 2033.52 2328.34 Q2025.39 2320.21 2025.39 2306.36 Q2025.39 2292.04 2033.1 2283.65 Q2040.86 2275.21 2053.99 2275.21 Q2065.76 2275.21 2072.58 2282.82 Q2079.46 2290.37 2079.46 2303.39 M2069.87 2300.58 Q2069.77 2292.71 2065.45 2288.02 Q2061.17 2283.34 2054.09 2283.34 Q2046.07 2283.34 2041.23 2287.87 Q2036.44 2292.4 2035.71 2300.63 L2069.87 2300.58 Z" fill="#ffffff" fill-rule="evenodd" fill-opacity="1" /><path clip-path="url(#clip100)" d="M2146.6 2267.5 Q2146.6 2269.81 2144.7 2271.55 Q2142.86 2273.24 2140.86 2273.24 Q2139.01 2273.24 2137.85 2272.13 Q2136.75 2270.97 2136.75 2269.34 Q2136.75 2267.18 2138.59 2265.39 Q2140.44 2263.6 2142.6 2263.6 Q2144.39 2263.6 2145.49 2264.7 Q2146.6 2265.81 2146.6 2267.5 M2147.55 2319.51 Q2147.55 2319.93 2147.08 2321.62 Q2146.6 2323.25 2145.44 2325.78 Q2144.34 2328.26 2142.81 2330.58 Q2141.28 2332.9 2138.75 2334.53 Q2136.27 2336.16 2133.43 2336.16 Q2129.58 2336.16 2127.05 2333.63 Q2124.57 2331.1 2124.57 2327.31 Q2124.57 2325.25 2127.05 2318.67 Q2134.22 2299.48 2134.48 2298.69 Q2135.69 2295.69 2135.69 2293.05 Q2135.69 2291.84 2135.43 2291.1 Q2135.17 2290.31 2134.64 2290.05 Q2134.11 2289.73 2133.8 2289.68 Q2133.53 2289.63 2133 2289.63 Q2129.9 2289.63 2127 2292.79 Q2124.1 2295.95 2122.1 2303.02 Q2121.67 2304.33 2121.41 2304.65 Q2121.15 2304.97 2120.36 2304.97 Q2119.04 2304.91 2119.04 2303.86 Q2119.04 2303.54 2119.41 2302.33 Q2119.78 2301.07 2120.46 2299.17 Q2121.15 2297.22 2122.36 2295.22 Q2123.57 2293.16 2125.05 2291.37 Q2126.58 2289.58 2128.74 2288.42 Q2130.9 2287.26 2133.32 2287.26 Q2137.27 2287.26 2139.7 2289.84 Q2142.17 2292.37 2142.17 2296.11 Q2142.17 2298.17 2140.75 2301.8 Q2139.01 2306.55 2138.38 2308.07 L2134.16 2319.41 Q2132.64 2323.52 2132.16 2324.78 Q2131.74 2325.99 2131.37 2327.47 Q2131.05 2328.89 2131.05 2330.21 Q2131.05 2332.05 2131.63 2332.9 Q2132.27 2333.74 2133.64 2333.74 Q2137.43 2333.74 2140.22 2330 Q2143.02 2326.2 2144.65 2320.41 Q2144.7 2320.25 2144.76 2319.98 Q2145.18 2318.67 2145.6 2318.51 Q2145.81 2318.46 2146.23 2318.46 Q2147.55 2318.46 2147.55 2319.51 Z" fill="#ffffff" fill-rule="evenodd" fill-opacity="1" /><path clip-path="url(#clip100)" d="M2198.26 2334.67 Q2198.26 2340.06 2195.53 2345.26 Q2192.84 2350.46 2188.6 2353.67 Q2184.35 2356.84 2180.04 2356.84 Q2177.45 2356.84 2175.72 2355.44 Q2174.02 2354 2173.1 2351.98 Q2172.4 2354.48 2170.89 2360.5 Q2169.38 2366.51 2169.38 2367.1 Q2169.38 2367.43 2169.45 2367.58 Q2169.52 2367.73 2169.86 2367.91 Q2170.19 2368.13 2171 2368.21 Q2171.81 2368.32 2173.18 2368.32 Q2173.88 2368.32 2174.13 2368.32 Q2174.43 2368.35 2174.69 2368.54 Q2174.98 2368.72 2174.98 2369.13 Q2174.98 2370.64 2173.62 2370.64 Q2172.4 2370.64 2169.89 2370.53 Q2167.38 2370.42 2166.13 2370.42 Q2165.06 2370.42 2162.92 2370.53 Q2160.78 2370.64 2159.78 2370.64 Q2158.79 2370.64 2158.79 2369.76 Q2158.79 2369.24 2158.94 2368.91 Q2159.05 2368.61 2159.34 2368.47 Q2159.64 2368.35 2159.89 2368.32 Q2160.12 2368.32 2160.56 2368.32 Q2162.26 2368.32 2162.99 2368.02 Q2163.73 2367.76 2163.99 2367.21 Q2164.28 2366.69 2164.62 2365.22 L2173.1 2331.57 Q2173.62 2329.32 2173.62 2327.74 Q2173.62 2325.75 2172.99 2325.01 Q2172.36 2324.27 2171.26 2324.27 Q2169.34 2324.27 2168.08 2326.56 Q2166.83 2328.84 2165.76 2333.27 Q2165.43 2334.49 2165.21 2334.75 Q2165.02 2335.01 2164.47 2335.01 Q2163.55 2334.97 2163.55 2334.23 Q2163.55 2334.05 2163.84 2332.87 Q2164.14 2331.65 2164.69 2329.88 Q2165.28 2328.07 2165.91 2326.93 Q2166.28 2326.15 2166.61 2325.64 Q2166.94 2325.12 2167.6 2324.31 Q2168.31 2323.5 2169.3 2323.05 Q2170.3 2322.61 2171.52 2322.61 Q2173.88 2322.61 2175.83 2324.01 Q2177.79 2325.41 2178.3 2328.25 Q2180.41 2325.78 2182.99 2324.2 Q2185.57 2322.61 2188.19 2322.61 Q2192.54 2322.61 2195.38 2326 Q2198.26 2329.36 2198.26 2334.67 M2192.8 2331.35 Q2192.8 2328 2191.51 2326.15 Q2190.26 2324.27 2187.97 2324.27 Q2185.13 2324.27 2181.84 2327.15 Q2178.6 2329.88 2177.93 2332.42 L2174.21 2347.22 L2173.99 2348.43 Q2173.99 2348.66 2174.1 2349.32 Q2174.25 2349.95 2174.65 2350.98 Q2175.09 2352.01 2175.68 2352.93 Q2176.31 2353.82 2177.42 2354.48 Q2178.56 2355.15 2179.96 2355.15 Q2182.21 2355.15 2184.65 2353.16 Q2187.12 2351.16 2188.96 2347.4 Q2190.11 2344.97 2191.44 2339.73 Q2192.8 2334.45 2192.8 2331.35 Z" fill="#ffffff" fill-rule="evenodd" fill-opacity="1" /><polyline clip-path="url(#clip103)" style="stroke:#ffffff; stroke-linecap:round; stroke-linejoin:round; stroke-width:2; stroke-opacity:0.1; fill:none" points="297.502,2170.9 3152.76,2170.9 "/>
<polyline clip-path="url(#clip103)" style="stroke:#ffffff; stroke-linecap:round; stroke-linejoin:round; stroke-width:2; stroke-opacity:0.1; fill:none" points="297.502,1615.91 3152.76,1615.91 "/>
<polyline clip-path="url(#clip103)" style="stroke:#ffffff; stroke-linecap:round; stroke-linejoin:round; stroke-width:2; stroke-opacity:0.1; fill:none" points="297.502,1060.92 3152.76,1060.92 "/>
<polyline clip-path="url(#clip103)" style="stroke:#ffffff; stroke-linecap:round; stroke-linejoin:round; stroke-width:2; stroke-opacity:0.1; fill:none" points="297.502,505.935 3152.76,505.935 "/>
<polyline clip-path="url(#clip100)" style="stroke:#ffffff; stroke-linecap:round; stroke-linejoin:round; stroke-width:4; stroke-opacity:1; fill:none" points="297.502,2170.9 297.502,131.032 "/>
<polyline clip-path="url(#clip100)" style="stroke:#ffffff; stroke-linecap:round; stroke-linejoin:round; stroke-width:4; stroke-opacity:1; fill:none" points="297.502,2170.9 316.4,2170.9 "/>
<polyline clip-path="url(#clip100)" style="stroke:#ffffff; stroke-linecap:round; stroke-linejoin:round; stroke-width:4; stroke-opacity:1; fill:none" points="297.502,1615.91 316.4,1615.91 "/>
<polyline clip-path="url(#clip100)" style="stroke:#ffffff; stroke-linecap:round; stroke-linejoin:round; stroke-width:4; stroke-opacity:1; fill:none" points="297.502,1060.92 316.4,1060.92 "/>
<polyline clip-path="url(#clip100)" style="stroke:#ffffff; stroke-linecap:round; stroke-linejoin:round; stroke-width:4; stroke-opacity:1; fill:none" points="297.502,505.935 316.4,505.935 "/>
<path clip-path="url(#clip100)" d="M162.165 2156.7 Q158.553 2156.7 156.725 2160.26 Q154.919 2163.8 154.919 2170.93 Q154.919 2178.04 156.725 2181.61 Q158.553 2185.15 162.165 2185.15 Q165.799 2185.15 167.604 2181.61 Q169.433 2178.04 169.433 2170.93 Q169.433 2163.8 167.604 2160.26 Q165.799 2156.7 162.165 2156.7 M162.165 2152.99 Q167.975 2152.99 171.03 2157.6 Q174.109 2162.18 174.109 2170.93 Q174.109 2179.66 171.03 2184.27 Q167.975 2188.85 162.165 2188.85 Q156.354 2188.85 153.276 2184.27 Q150.22 2179.66 150.22 2170.93 Q150.22 2162.18 153.276 2157.6 Q156.354 2152.99 162.165 2152.99 Z" fill="#ffffff" fill-rule="evenodd" fill-opacity="1" /><path clip-path="url(#clip100)" d="M182.326 2182.3 L187.211 2182.3 L187.211 2188.18 L182.326 2188.18 L182.326 2182.3 Z" fill="#ffffff" fill-rule="evenodd" fill-opacity="1" /><path clip-path="url(#clip100)" d="M207.396 2156.7 Q203.785 2156.7 201.956 2160.26 Q200.15 2163.8 200.15 2170.93 Q200.15 2178.04 201.956 2181.61 Q203.785 2185.15 207.396 2185.15 Q211.03 2185.15 212.836 2181.61 Q214.664 2178.04 214.664 2170.93 Q214.664 2163.8 212.836 2160.26 Q211.03 2156.7 207.396 2156.7 M207.396 2152.99 Q213.206 2152.99 216.261 2157.6 Q219.34 2162.18 219.34 2170.93 Q219.34 2179.66 216.261 2184.27 Q213.206 2188.85 207.396 2188.85 Q201.586 2188.85 198.507 2184.27 Q195.451 2179.66 195.451 2170.93 Q195.451 2162.18 198.507 2157.6 Q201.586 2152.99 207.396 2152.99 Z" fill="#ffffff" fill-rule="evenodd" fill-opacity="1" /><path clip-path="url(#clip100)" d="M237.558 2156.7 Q233.947 2156.7 232.118 2160.26 Q230.312 2163.8 230.312 2170.93 Q230.312 2178.04 232.118 2181.61 Q233.947 2185.15 237.558 2185.15 Q241.192 2185.15 242.997 2181.61 Q244.826 2178.04 244.826 2170.93 Q244.826 2163.8 242.997 2160.26 Q241.192 2156.7 237.558 2156.7 M237.558 2152.99 Q243.368 2152.99 246.423 2157.6 Q249.502 2162.18 249.502 2170.93 Q249.502 2179.66 246.423 2184.27 Q243.368 2188.85 237.558 2188.85 Q231.747 2188.85 228.669 2184.27 Q225.613 2179.66 225.613 2170.93 Q225.613 2162.18 228.669 2157.6 Q231.747 2152.99 237.558 2152.99 Z" fill="#ffffff" fill-rule="evenodd" fill-opacity="1" /><path clip-path="url(#clip100)" d="M163.391 1601.71 Q159.78 1601.71 157.952 1605.27 Q156.146 1608.82 156.146 1615.95 Q156.146 1623.05 157.952 1626.62 Q159.78 1630.16 163.391 1630.16 Q167.026 1630.16 168.831 1626.62 Q170.66 1623.05 170.66 1615.95 Q170.66 1608.82 168.831 1605.27 Q167.026 1601.71 163.391 1601.71 M163.391 1598.01 Q169.202 1598.01 172.257 1602.61 Q175.336 1607.2 175.336 1615.95 Q175.336 1624.67 172.257 1629.28 Q169.202 1633.86 163.391 1633.86 Q157.581 1633.86 154.503 1629.28 Q151.447 1624.67 151.447 1615.95 Q151.447 1607.2 154.503 1602.61 Q157.581 1598.01 163.391 1598.01 Z" fill="#ffffff" fill-rule="evenodd" fill-opacity="1" /><path clip-path="url(#clip100)" d="M183.553 1627.31 L188.438 1627.31 L188.438 1633.19 L183.553 1633.19 L183.553 1627.31 Z" fill="#ffffff" fill-rule="evenodd" fill-opacity="1" /><path clip-path="url(#clip100)" d="M208.623 1601.71 Q205.012 1601.71 203.183 1605.27 Q201.377 1608.82 201.377 1615.95 Q201.377 1623.05 203.183 1626.62 Q205.012 1630.16 208.623 1630.16 Q212.257 1630.16 214.062 1626.62 Q215.891 1623.05 215.891 1615.95 Q215.891 1608.82 214.062 1605.27 Q212.257 1601.71 208.623 1601.71 M208.623 1598.01 Q214.433 1598.01 217.488 1602.61 Q220.567 1607.2 220.567 1615.95 Q220.567 1624.67 217.488 1629.28 Q214.433 1633.86 208.623 1633.86 Q202.812 1633.86 199.734 1629.28 Q196.678 1624.67 196.678 1615.95 Q196.678 1607.2 199.734 1602.61 Q202.812 1598.01 208.623 1598.01 Z" fill="#ffffff" fill-rule="evenodd" fill-opacity="1" /><path clip-path="url(#clip100)" d="M229.595 1629.26 L237.234 1629.26 L237.234 1602.89 L228.923 1604.56 L228.923 1600.3 L237.187 1598.63 L241.863 1598.63 L241.863 1629.26 L249.502 1629.26 L249.502 1633.19 L229.595 1633.19 L229.595 1629.26 Z" fill="#ffffff" fill-rule="evenodd" fill-opacity="1" /><path clip-path="url(#clip100)" d="M163.762 1046.72 Q160.151 1046.72 158.322 1050.29 Q156.516 1053.83 156.516 1060.96 Q156.516 1068.06 158.322 1071.63 Q160.151 1075.17 163.762 1075.17 Q167.396 1075.17 169.202 1071.63 Q171.03 1068.06 171.03 1060.96 Q171.03 1053.83 169.202 1050.29 Q167.396 1046.72 163.762 1046.72 M163.762 1043.02 Q169.572 1043.02 172.627 1047.62 Q175.706 1052.21 175.706 1060.96 Q175.706 1069.68 172.627 1074.29 Q169.572 1078.87 163.762 1078.87 Q157.952 1078.87 154.873 1074.29 Q151.817 1069.68 151.817 1060.96 Q151.817 1052.21 154.873 1047.62 Q157.952 1043.02 163.762 1043.02 Z" fill="#ffffff" fill-rule="evenodd" fill-opacity="1" /><path clip-path="url(#clip100)" d="M183.924 1072.32 L188.808 1072.32 L188.808 1078.2 L183.924 1078.2 L183.924 1072.32 Z" fill="#ffffff" fill-rule="evenodd" fill-opacity="1" /><path clip-path="url(#clip100)" d="M208.993 1046.72 Q205.382 1046.72 203.553 1050.29 Q201.748 1053.83 201.748 1060.96 Q201.748 1068.06 203.553 1071.63 Q205.382 1075.17 208.993 1075.17 Q212.627 1075.17 214.433 1071.63 Q216.261 1068.06 216.261 1060.96 Q216.261 1053.83 214.433 1050.29 Q212.627 1046.72 208.993 1046.72 M208.993 1043.02 Q214.803 1043.02 217.859 1047.62 Q220.937 1052.21 220.937 1060.96 Q220.937 1069.68 217.859 1074.29 Q214.803 1078.87 208.993 1078.87 Q203.183 1078.87 200.104 1074.29 Q197.049 1069.68 197.049 1060.96 Q197.049 1052.21 200.104 1047.62 Q203.183 1043.02 208.993 1043.02 Z" fill="#ffffff" fill-rule="evenodd" fill-opacity="1" /><path clip-path="url(#clip100)" d="M233.183 1074.27 L249.502 1074.27 L249.502 1078.2 L227.558 1078.2 L227.558 1074.27 Q230.22 1071.51 234.803 1066.88 Q239.409 1062.23 240.59 1060.89 Q242.835 1058.37 243.715 1056.63 Q244.618 1054.87 244.618 1053.18 Q244.618 1050.43 242.673 1048.69 Q240.752 1046.95 237.65 1046.95 Q235.451 1046.95 232.997 1047.72 Q230.567 1048.48 227.789 1050.03 L227.789 1045.31 Q230.613 1044.18 233.067 1043.6 Q235.521 1043.02 237.558 1043.02 Q242.928 1043.02 246.122 1045.7 Q249.317 1048.39 249.317 1052.88 Q249.317 1055.01 248.507 1056.93 Q247.72 1058.83 245.613 1061.42 Q245.034 1062.09 241.933 1065.31 Q238.831 1068.5 233.183 1074.27 Z" fill="#ffffff" fill-rule="evenodd" fill-opacity="1" /><path clip-path="url(#clip100)" d="M162.813 491.733 Q159.202 491.733 157.373 495.298 Q155.567 498.84 155.567 505.969 Q155.567 513.076 157.373 516.641 Q159.202 520.182 162.813 520.182 Q166.447 520.182 168.252 516.641 Q170.081 513.076 170.081 505.969 Q170.081 498.84 168.252 495.298 Q166.447 491.733 162.813 491.733 M162.813 488.03 Q168.623 488.03 171.678 492.636 Q174.757 497.22 174.757 505.969 Q174.757 514.696 171.678 519.303 Q168.623 523.886 162.813 523.886 Q157.003 523.886 153.924 519.303 Q150.868 514.696 150.868 505.969 Q150.868 497.22 153.924 492.636 Q157.003 488.03 162.813 488.03 Z" fill="#ffffff" fill-rule="evenodd" fill-opacity="1" /><path clip-path="url(#clip100)" d="M182.975 517.335 L187.859 517.335 L187.859 523.215 L182.975 523.215 L182.975 517.335 Z" fill="#ffffff" fill-rule="evenodd" fill-opacity="1" /><path clip-path="url(#clip100)" d="M208.044 491.733 Q204.433 491.733 202.604 495.298 Q200.799 498.84 200.799 505.969 Q200.799 513.076 202.604 516.641 Q204.433 520.182 208.044 520.182 Q211.678 520.182 213.484 516.641 Q215.312 513.076 215.312 505.969 Q215.312 498.84 213.484 495.298 Q211.678 491.733 208.044 491.733 M208.044 488.03 Q213.854 488.03 216.91 492.636 Q219.988 497.22 219.988 505.969 Q219.988 514.696 216.91 519.303 Q213.854 523.886 208.044 523.886 Q202.234 523.886 199.155 519.303 Q196.1 514.696 196.1 505.969 Q196.1 497.22 199.155 492.636 Q202.234 488.03 208.044 488.03 Z" fill="#ffffff" fill-rule="evenodd" fill-opacity="1" /><path clip-path="url(#clip100)" d="M242.372 504.581 Q245.729 505.298 247.604 507.567 Q249.502 509.835 249.502 513.169 Q249.502 518.284 245.984 521.085 Q242.465 523.886 235.984 523.886 Q233.808 523.886 231.493 523.446 Q229.201 523.03 226.748 522.173 L226.748 517.659 Q228.692 518.794 231.007 519.372 Q233.322 519.951 235.845 519.951 Q240.243 519.951 242.534 518.215 Q244.849 516.479 244.849 513.169 Q244.849 510.113 242.697 508.4 Q240.567 506.664 236.747 506.664 L232.72 506.664 L232.72 502.821 L236.933 502.821 Q240.382 502.821 242.21 501.456 Q244.039 500.067 244.039 497.474 Q244.039 494.812 242.141 493.4 Q240.266 491.965 236.747 491.965 Q234.826 491.965 232.627 492.382 Q230.428 492.798 227.789 493.678 L227.789 489.511 Q230.451 488.771 232.766 488.4 Q235.104 488.03 237.164 488.03 Q242.488 488.03 245.59 490.46 Q248.692 492.868 248.692 496.988 Q248.692 499.858 247.048 501.849 Q245.405 503.817 242.372 504.581 Z" fill="#ffffff" fill-rule="evenodd" fill-opacity="1" /><path clip-path="url(#clip100)" d="M8.75578 1767.38 L37.9744 1767.38 L37.9744 1754.15 Q37.9744 1746.8 34.1723 1742.79 Q30.3702 1738.78 23.339 1738.78 Q16.3599 1738.78 12.5578 1742.79 Q8.75578 1746.8 8.75578 1754.15 L8.75578 1767.38 M0.109991 1777.9 L0.109991 1754.15 Q0.109991 1741.07 6.04746 1734.41 Q11.9328 1727.69 23.339 1727.69 Q34.8494 1727.69 40.7348 1734.41 Q46.6202 1741.07 46.6202 1754.15 L46.6202 1767.38 L77.87 1767.38 L77.87 1777.9 L0.109991 1777.9 Z" fill="#ffffff" fill-rule="evenodd" fill-opacity="1" /><path clip-path="url(#clip100)" d="M28.4953 1682.06 Q27.5578 1683.68 27.1411 1685.61 Q26.6723 1687.48 26.6723 1689.77 Q26.6723 1697.9 31.9848 1702.27 Q37.2452 1706.59 47.141 1706.59 L77.87 1706.59 L77.87 1716.23 L19.537 1716.23 L19.537 1706.59 L28.5994 1706.59 Q23.2869 1703.57 20.7349 1698.73 Q18.1307 1693.89 18.1307 1686.96 Q18.1307 1685.97 18.287 1684.77 Q18.3911 1683.57 18.6516 1682.12 L28.4953 1682.06 Z" fill="#ffffff" fill-rule="evenodd" fill-opacity="1" /><path clip-path="url(#clip100)" d="M26.2557 1651.75 Q26.2557 1659.46 32.2973 1663.94 Q38.2869 1668.42 48.7556 1668.42 Q59.2243 1668.42 65.2659 1663.99 Q71.2554 1659.51 71.2554 1651.75 Q71.2554 1644.09 65.2138 1639.62 Q59.1722 1635.14 48.7556 1635.14 Q38.391 1635.14 32.3494 1639.62 Q26.2557 1644.09 26.2557 1651.75 M18.1307 1651.75 Q18.1307 1639.25 26.2557 1632.12 Q34.3806 1624.98 48.7556 1624.98 Q63.0784 1624.98 71.2554 1632.12 Q79.3804 1639.25 79.3804 1651.75 Q79.3804 1664.3 71.2554 1671.44 Q63.0784 1678.52 48.7556 1678.52 Q34.3806 1678.52 26.2557 1671.44 Q18.1307 1664.3 18.1307 1651.75 Z" fill="#ffffff" fill-rule="evenodd" fill-opacity="1" /><path clip-path="url(#clip100)" d="M48.7556 1567.22 Q38.1827 1567.22 32.1932 1571.6 Q26.1515 1575.92 26.1515 1583.52 Q26.1515 1591.13 32.1932 1595.5 Q38.1827 1599.82 48.7556 1599.82 Q59.3284 1599.82 65.3701 1595.5 Q71.3596 1591.13 71.3596 1583.52 Q71.3596 1575.92 65.3701 1571.6 Q59.3284 1567.22 48.7556 1567.22 M28.3911 1599.82 Q23.1828 1596.8 20.6828 1592.22 Q18.1307 1587.58 18.1307 1581.18 Q18.1307 1570.55 26.5682 1563.94 Q35.0056 1557.27 48.7556 1557.27 Q62.5055 1557.27 70.9429 1563.94 Q79.3804 1570.55 79.3804 1581.18 Q79.3804 1587.58 76.8804 1592.22 Q74.3283 1596.8 69.12 1599.82 L77.87 1599.82 L77.87 1609.46 L-3.17124 1609.46 L-3.17124 1599.82 L28.3911 1599.82 Z" fill="#ffffff" fill-rule="evenodd" fill-opacity="1" /><path clip-path="url(#clip100)" d="M48.5472 1514.88 Q48.5472 1526.49 51.2035 1530.97 Q53.8597 1535.45 60.2659 1535.45 Q65.3701 1535.45 68.3909 1532.12 Q71.3596 1528.73 71.3596 1522.95 Q71.3596 1514.98 65.7346 1510.19 Q60.0576 1505.35 50.6826 1505.35 L48.5472 1505.35 L48.5472 1514.88 M44.5889 1495.76 L77.87 1495.76 L77.87 1505.35 L69.0159 1505.35 Q74.3283 1508.63 76.8804 1513.52 Q79.3804 1518.42 79.3804 1525.5 Q79.3804 1534.46 74.3804 1539.77 Q69.3284 1545.03 60.8909 1545.03 Q51.0472 1545.03 46.0472 1538.47 Q41.0473 1531.86 41.0473 1518.78 L41.0473 1505.35 L40.1098 1505.35 Q33.4952 1505.35 29.9015 1509.72 Q26.2557 1514.04 26.2557 1521.91 Q26.2557 1526.91 27.4536 1531.65 Q28.6515 1536.39 31.0473 1540.76 L22.1932 1540.76 Q20.162 1535.5 19.1724 1530.55 Q18.1307 1525.61 18.1307 1520.92 Q18.1307 1508.26 24.6932 1502.01 Q31.2557 1495.76 44.5889 1495.76 Z" fill="#ffffff" fill-rule="evenodd" fill-opacity="1" /><path clip-path="url(#clip100)" d="M48.7556 1434.15 Q38.1827 1434.15 32.1932 1438.52 Q26.1515 1442.85 26.1515 1450.45 Q26.1515 1458.05 32.1932 1462.43 Q38.1827 1466.75 48.7556 1466.75 Q59.3284 1466.75 65.3701 1462.43 Q71.3596 1458.05 71.3596 1450.45 Q71.3596 1442.85 65.3701 1438.52 Q59.3284 1434.15 48.7556 1434.15 M28.3911 1466.75 Q23.1828 1463.73 20.6828 1459.15 Q18.1307 1454.51 18.1307 1448.11 Q18.1307 1437.48 26.5682 1430.87 Q35.0056 1424.2 48.7556 1424.2 Q62.5055 1424.2 70.9429 1430.87 Q79.3804 1437.48 79.3804 1448.11 Q79.3804 1454.51 76.8804 1459.15 Q74.3283 1463.73 69.12 1466.75 L77.87 1466.75 L77.87 1476.39 L-3.17124 1476.39 L-3.17124 1466.75 L28.3911 1466.75 Z" fill="#ffffff" fill-rule="evenodd" fill-opacity="1" /><path clip-path="url(#clip100)" d="M19.537 1408.31 L19.537 1398.73 L77.87 1398.73 L77.87 1408.31 L19.537 1408.31 M-3.17124 1408.31 L-3.17124 1398.73 L8.96411 1398.73 L8.96411 1408.31 L-3.17124 1408.31 Z" fill="#ffffff" fill-rule="evenodd" fill-opacity="1" /><path clip-path="url(#clip100)" d="M-3.17124 1378.68 L-3.17124 1369.1 L77.87 1369.1 L77.87 1378.68 L-3.17124 1378.68 Z" fill="#ffffff" fill-rule="evenodd" fill-opacity="1" /><path clip-path="url(#clip100)" d="M19.537 1349.04 L19.537 1339.46 L77.87 1339.46 L77.87 1349.04 L19.537 1349.04 M-3.17124 1349.04 L-3.17124 1339.46 L8.96411 1339.46 L8.96411 1349.04 L-3.17124 1349.04 Z" fill="#ffffff" fill-rule="evenodd" fill-opacity="1" /><path clip-path="url(#clip100)" d="M2.97456 1309.93 L19.537 1309.93 L19.537 1290.19 L26.9848 1290.19 L26.9848 1309.93 L58.6513 1309.93 Q65.7867 1309.93 67.818 1308 Q69.8492 1306.02 69.8492 1300.03 L69.8492 1290.19 L77.87 1290.19 L77.87 1300.03 Q77.87 1311.13 73.7554 1315.35 Q69.5888 1319.57 58.6513 1319.57 L26.9848 1319.57 L26.9848 1326.6 L19.537 1326.6 L19.537 1319.57 L2.97456 1319.57 L2.97456 1309.93 Z" fill="#ffffff" fill-rule="evenodd" fill-opacity="1" /><path clip-path="url(#clip100)" d="M83.2866 1253.32 Q93.7032 1257.38 96.8803 1261.23 Q100.057 1265.09 100.057 1271.54 L100.057 1279.2 L92.0366 1279.2 L92.0366 1273.58 Q92.0366 1269.62 90.1616 1267.43 Q88.2866 1265.24 81.3075 1262.59 L76.9325 1260.87 L19.537 1284.46 L19.537 1274.31 L65.1617 1256.08 L19.537 1237.85 L19.537 1227.69 L83.2866 1253.32 Z" fill="#ffffff" fill-rule="evenodd" fill-opacity="1" /><path clip-path="url(#clip100)" d="M28.3911 1142.17 L-3.17124 1142.17 L-3.17124 1132.59 L77.87 1132.59 L77.87 1142.17 L69.12 1142.17 Q74.3283 1145.19 76.8804 1149.83 Q79.3804 1154.41 79.3804 1160.87 Q79.3804 1171.44 70.9429 1178.11 Q62.5055 1184.72 48.7556 1184.72 Q35.0056 1184.72 26.5682 1178.11 Q18.1307 1171.44 18.1307 1160.87 Q18.1307 1154.41 20.6828 1149.83 Q23.1828 1145.19 28.3911 1142.17 M48.7556 1174.83 Q59.3284 1174.83 65.3701 1170.5 Q71.3596 1166.13 71.3596 1158.52 Q71.3596 1150.92 65.3701 1146.55 Q59.3284 1142.17 48.7556 1142.17 Q38.1827 1142.17 32.1932 1146.55 Q26.1515 1150.92 26.1515 1158.52 Q26.1515 1166.13 32.1932 1170.5 Q38.1827 1174.83 48.7556 1174.83 Z" fill="#ffffff" fill-rule="evenodd" fill-opacity="1" /><path clip-path="url(#clip100)" d="M46.3077 1062.95 L50.9951 1062.95 L50.9951 1107.01 Q60.8909 1106.39 66.0992 1101.08 Q71.2554 1095.71 71.2554 1086.18 Q71.2554 1080.66 69.9013 1075.5 Q68.5471 1070.3 65.8388 1065.19 L74.9013 1065.19 Q77.0887 1070.35 78.2346 1075.76 Q79.3804 1081.18 79.3804 1086.75 Q79.3804 1100.71 71.2554 1108.89 Q63.1305 1117.01 49.2764 1117.01 Q34.9536 1117.01 26.5682 1109.31 Q18.1307 1101.55 18.1307 1088.42 Q18.1307 1076.65 25.7349 1069.83 Q33.2869 1062.95 46.3077 1062.95 M43.4952 1072.54 Q35.6306 1072.64 30.9432 1076.96 Q26.2557 1081.23 26.2557 1088.32 Q26.2557 1096.34 30.7869 1101.18 Q35.3181 1105.97 43.5473 1106.7 L43.4952 1072.54 Z" fill="#ffffff" fill-rule="evenodd" fill-opacity="1" /><path clip-path="url(#clip100)" d="M42.6618 998.734 L77.87 998.734 L77.87 1008.32 L42.9743 1008.32 Q34.6931 1008.32 30.5786 1011.55 Q26.464 1014.78 26.464 1021.23 Q26.464 1028.99 31.4119 1033.47 Q36.3598 1037.95 44.9014 1037.95 L77.87 1037.95 L77.87 1047.59 L19.537 1047.59 L19.537 1037.95 L28.5994 1037.95 Q23.339 1034.51 20.7349 1029.88 Q18.1307 1025.19 18.1307 1019.1 Q18.1307 1009.05 24.3807 1003.89 Q30.5786 998.734 42.6618 998.734 Z" fill="#ffffff" fill-rule="evenodd" fill-opacity="1" /><path clip-path="url(#clip100)" d="M21.2557 942.432 L30.3182 942.432 Q28.2348 946.494 27.1932 950.869 Q26.1515 955.244 26.1515 959.932 Q26.1515 967.067 28.339 970.661 Q30.5265 974.203 34.9015 974.203 Q38.2348 974.203 40.1619 971.651 Q42.0368 969.099 43.7556 961.39 L44.4848 958.109 Q46.6722 947.901 50.6826 943.63 Q54.6409 939.307 61.7763 939.307 Q69.9013 939.307 74.6408 945.765 Q79.3804 952.172 79.3804 963.421 Q79.3804 968.109 78.4429 973.213 Q77.5575 978.265 75.7346 983.89 L65.8388 983.89 Q68.5992 978.578 70.0054 973.421 Q71.3596 968.265 71.3596 963.213 Q71.3596 956.442 69.068 952.797 Q66.7242 949.151 62.5055 949.151 Q58.5993 949.151 56.5159 951.807 Q54.4326 954.411 52.5055 963.317 L51.7243 966.651 Q49.8493 975.557 45.9952 979.515 Q42.0889 983.473 35.3181 983.473 Q27.089 983.473 22.6099 977.64 Q18.1307 971.807 18.1307 961.078 Q18.1307 955.765 18.912 951.078 Q19.6932 946.39 21.2557 942.432 Z" fill="#ffffff" fill-rule="evenodd" fill-opacity="1" /><path clip-path="url(#clip100)" d="M19.537 924.047 L19.537 914.463 L77.87 914.463 L77.87 924.047 L19.537 924.047 M-3.17124 924.047 L-3.17124 914.463 L8.96411 914.463 L8.96411 924.047 L-3.17124 924.047 Z" fill="#ffffff" fill-rule="evenodd" fill-opacity="1" /><path clip-path="url(#clip100)" d="M2.97456 884.932 L19.537 884.932 L19.537 865.193 L26.9848 865.193 L26.9848 884.932 L58.6513 884.932 Q65.7867 884.932 67.818 883.005 Q69.8492 881.026 69.8492 875.037 L69.8492 865.193 L77.87 865.193 L77.87 875.037 Q77.87 886.13 73.7554 890.349 Q69.5888 894.568 58.6513 894.568 L26.9848 894.568 L26.9848 901.599 L19.537 901.599 L19.537 894.568 L2.97456 894.568 L2.97456 884.932 Z" fill="#ffffff" fill-rule="evenodd" fill-opacity="1" /><path clip-path="url(#clip100)" d="M83.2866 828.318 Q93.7032 832.381 96.8803 836.235 Q100.057 840.089 100.057 846.547 L100.057 854.203 L92.0366 854.203 L92.0366 848.578 Q92.0366 844.62 90.1616 842.433 Q88.2866 840.245 81.3075 837.589 L76.9325 835.87 L19.537 859.464 L19.537 849.307 L65.1617 831.078 L19.537 812.849 L19.537 802.693 L83.2866 828.318 Z" fill="#ffffff" fill-rule="evenodd" fill-opacity="1" /><path clip-path="url(#clip100)" d="M9.20124 711.803 Q12.0998 711.803 13.8916 713.647 Q15.6834 715.439 15.6834 717.705 Q15.6834 719.339 14.6821 720.551 Q13.6808 721.711 11.9417 721.711 Q10.1498 721.711 8.25263 720.34 Q6.35541 718.97 6.09191 715.861 Q4.14199 717.916 4.14199 721.184 Q4.14199 722.817 5.196 724.187 Q6.19731 725.505 7.83103 726.243 Q9.51744 727.033 19.0562 728.825 Q22.1656 729.405 25.1695 729.932 Q28.1734 730.459 31.3354 731.091 L31.3354 722.132 Q31.3354 720.973 31.3881 720.498 Q31.4408 720.024 31.7044 719.655 Q31.9679 719.234 32.5476 719.234 Q34.0232 719.234 34.3921 719.919 Q34.7083 720.551 34.7083 722.448 L34.7083 731.724 L68.9109 738.206 Q69.9122 738.364 73.0742 739.049 Q76.1836 739.681 81.2955 741.21 Q86.4602 742.738 89.5168 744.266 Q91.2559 745.11 92.8896 746.216 Q94.576 747.27 96.2625 748.799 Q97.9489 750.327 98.9502 752.33 Q100.004 754.332 100.004 756.44 Q100.004 760.024 98.0016 762.817 Q95.999 765.61 92.5734 765.61 Q89.6749 765.61 87.8831 763.818 Q86.0913 761.974 86.0913 759.708 Q86.0913 758.074 87.0926 756.914 Q88.0939 755.702 89.833 755.702 Q90.5708 755.702 91.414 755.966 Q92.2572 756.229 93.2058 756.809 Q94.2071 757.389 94.8923 758.654 Q95.5774 759.918 95.6828 761.657 Q97.6327 759.602 97.6327 756.44 Q97.6327 755.439 97.2111 754.543 Q96.8422 753.647 95.8936 752.909 Q94.945 752.119 93.9963 751.539 Q93.1004 750.959 91.3613 750.38 Q89.6749 749.8 88.4101 749.431 Q87.1453 749.062 84.8792 748.588 Q82.613 748.061 81.2428 747.797 Q79.9253 747.534 77.343 747.059 L34.7083 738.996 L34.7083 746.111 Q34.7083 747.376 34.6556 747.903 Q34.6029 748.377 34.3394 748.746 Q34.0232 749.115 33.3908 749.115 Q32.3895 749.115 31.9679 748.693 Q31.4936 748.219 31.4408 747.692 Q31.3354 747.165 31.3354 745.9 L31.3354 738.417 Q18.0022 735.887 14.4186 734.886 Q10.6242 733.726 7.98913 731.934 Q5.3014 730.143 4.03659 728.14 Q2.77178 726.137 2.29747 724.504 Q1.77047 722.817 1.77047 721.184 Q1.77047 717.494 3.77309 714.649 Q5.72301 711.803 9.20124 711.803 Z" fill="#ffffff" fill-rule="evenodd" fill-opacity="1" /><path clip-path="url(#clip100)" d="M50.8873 697.274 Q32.653 697.274 17.9495 690.476 Q11.7836 687.577 6.61891 683.519 Q1.45427 679.461 -0.811856 676.774 Q-3.07798 674.086 -3.07798 673.348 Q-3.07798 672.294 -2.02397 672.241 Q-1.49696 672.241 -0.17945 673.664 Q17.5279 691.056 50.8873 691.003 Q84.3522 691.003 101.374 674.086 Q103.219 672.241 103.799 672.241 Q104.853 672.241 104.853 673.348 Q104.853 674.086 102.692 676.668 Q100.531 679.251 95.5774 683.256 Q90.6235 687.261 84.563 690.16 Q69.8595 697.274 50.8873 697.274 Z" fill="#ffffff" fill-rule="evenodd" fill-opacity="1" /><path clip-path="url(#clip100)" d="M10.4134 628.269 Q12.7322 628.269 14.4713 630.166 Q16.1577 632.011 16.1577 634.013 Q16.1577 635.858 15.051 637.017 Q13.8916 638.124 12.2579 638.124 Q10.0971 638.124 8.30533 636.279 Q6.51351 634.435 6.51351 632.274 Q6.51351 630.482 7.62022 629.376 Q8.72693 628.269 10.4134 628.269 M62.4287 627.32 Q62.8503 627.32 64.5368 627.795 Q66.1705 628.269 68.7001 629.428 Q71.177 630.535 73.4958 632.063 Q75.8147 633.592 77.4484 636.121 Q79.0821 638.598 79.0821 641.444 Q79.0821 645.291 76.5525 647.821 Q74.0229 650.298 70.2284 650.298 Q68.1731 650.298 61.5855 647.821 Q42.4026 640.653 41.612 640.39 Q38.6081 639.178 35.9731 639.178 Q34.761 639.178 34.0232 639.441 Q33.2327 639.705 32.9692 640.232 Q32.653 640.759 32.6003 641.075 Q32.5476 641.339 32.5476 641.866 Q32.5476 644.975 35.7096 647.873 Q38.8716 650.772 45.9335 652.775 Q47.251 653.196 47.5672 653.46 Q47.8834 653.723 47.8834 654.514 Q47.8307 655.831 46.7767 655.831 Q46.4605 655.831 45.2484 655.462 Q43.9836 655.093 42.0864 654.408 Q40.1364 653.723 38.1338 652.511 Q36.0785 651.299 34.2867 649.823 Q32.4949 648.295 31.3354 646.134 Q30.176 643.974 30.176 641.549 Q30.176 637.597 32.7584 635.173 Q35.288 632.696 39.0297 632.696 Q41.085 632.696 44.7214 634.119 Q49.4644 635.858 50.9927 636.49 L62.3233 640.706 Q66.434 642.234 67.6988 642.709 Q68.9109 643.13 70.3865 643.499 Q71.8094 643.815 73.1269 643.815 Q74.9715 643.815 75.8147 643.236 Q76.6579 642.603 76.6579 641.233 Q76.6579 637.439 72.9161 634.646 Q69.1217 631.852 63.3247 630.219 Q63.1666 630.166 62.903 630.113 Q61.5855 629.692 61.4274 629.27 Q61.3747 629.059 61.3747 628.638 Q61.3747 627.32 62.4287 627.32 Z" fill="#ffffff" fill-rule="evenodd" fill-opacity="1" /><path clip-path="url(#clip100)" d="M77.592 576.609 Q82.9779 576.609 88.1795 579.339 Q93.381 582.032 96.5905 586.275 Q99.7631 590.517 99.7631 594.833 Q99.7631 597.416 98.3612 599.149 Q96.9225 600.846 94.8935 601.769 Q97.4021 602.47 103.415 603.982 Q109.428 605.495 110.019 605.495 Q110.351 605.495 110.498 605.421 Q110.646 605.347 110.83 605.015 Q111.051 604.683 111.125 603.871 Q111.236 603.06 111.236 601.695 Q111.236 600.994 111.236 600.736 Q111.273 600.441 111.457 600.182 Q111.642 599.887 112.048 599.887 Q113.56 599.887 113.56 601.252 Q113.56 602.47 113.449 604.978 Q113.339 607.487 113.339 608.741 Q113.339 609.811 113.449 611.95 Q113.56 614.09 113.56 615.086 Q113.56 616.082 112.675 616.082 Q112.158 616.082 111.826 615.934 Q111.531 615.824 111.384 615.529 Q111.273 615.234 111.236 614.975 Q111.236 614.754 111.236 614.311 Q111.236 612.614 110.941 611.877 Q110.683 611.139 110.129 610.881 Q109.613 610.585 108.137 610.253 L74.4932 601.769 Q72.2429 601.252 70.6566 601.252 Q68.6645 601.252 67.9267 601.879 Q67.1889 602.506 67.1889 603.613 Q67.1889 605.531 69.4761 606.786 Q71.7633 608.04 76.1901 609.11 Q77.4075 609.442 77.6657 609.663 Q77.924 609.848 77.924 610.401 Q77.8871 611.323 77.1493 611.323 Q76.9648 611.323 75.7843 611.028 Q74.5669 610.733 72.7962 610.18 Q70.9886 609.589 69.845 608.962 Q69.0703 608.593 68.5538 608.261 Q68.0374 607.929 67.2258 607.265 Q66.4142 606.564 65.9715 605.568 Q65.5288 604.572 65.5288 603.355 Q65.5288 600.994 66.9306 599.039 Q68.3325 597.084 71.173 596.567 Q68.7014 594.464 67.1151 591.882 Q65.5288 589.3 65.5288 586.68 Q65.5288 582.327 68.9227 579.487 Q72.2797 576.609 77.592 576.609 M74.2718 582.069 Q70.9148 582.069 69.0703 583.36 Q67.1889 584.615 67.1889 586.902 Q67.1889 589.742 70.0663 593.026 Q72.7962 596.272 75.3416 596.936 L90.1347 600.662 L91.3521 600.883 Q91.5734 600.883 92.2374 600.773 Q92.8646 600.625 93.8975 600.219 Q94.9304 599.777 95.8527 599.186 Q96.738 598.559 97.4021 597.452 Q98.0661 596.309 98.0661 594.907 Q98.0661 592.657 96.074 590.222 Q94.0819 587.75 90.3191 585.906 Q87.8844 584.762 82.6459 583.434 Q77.3706 582.069 74.2718 582.069 Z" fill="#ffffff" fill-rule="evenodd" fill-opacity="1" /><path clip-path="url(#clip100)" d="M103.799 565.479 Q103.272 565.479 101.954 564.108 Q84.2468 546.717 50.8873 546.717 Q17.4225 546.717 0.505656 563.423 Q-1.44426 565.479 -2.02397 565.479 Q-3.07798 565.479 -3.07798 564.425 Q-3.07798 563.687 -0.917257 561.105 Q1.24346 558.47 6.19731 554.517 Q11.1512 550.512 17.2117 547.561 Q31.9152 540.446 50.8873 540.446 Q69.1217 540.446 83.8251 547.244 Q89.9911 550.143 95.1558 554.201 Q100.32 558.259 102.587 560.946 Q104.853 563.634 104.853 564.425 Q104.853 565.479 103.799 565.479 Z" fill="#ffffff" fill-rule="evenodd" fill-opacity="1" /><path clip-path="url(#clip100)" d="M833.048 12.6708 L841.231 12.6708 L841.231 66.2642 L870.681 66.2642 L870.681 73.1507 L833.048 73.1507 L833.048 12.6708 Z" fill="#ffffff" fill-rule="evenodd" fill-opacity="1" /><path clip-path="url(#clip100)" d="M895.068 33.0063 Q889.072 33.0063 885.588 37.7053 Q882.105 42.3639 882.105 50.5062 Q882.105 58.6485 885.548 63.3476 Q889.032 68.0061 895.068 68.0061 Q901.022 68.0061 904.506 63.3071 Q907.99 58.608 907.99 50.5062 Q907.99 42.4449 904.506 37.7458 Q901.022 33.0063 895.068 33.0063 M895.068 26.6869 Q904.79 26.6869 910.339 33.0063 Q915.889 39.3257 915.889 50.5062 Q915.889 61.6462 910.339 68.0061 Q904.79 74.3255 895.068 74.3255 Q885.305 74.3255 879.755 68.0061 Q874.246 61.6462 874.246 50.5062 Q874.246 39.3257 879.755 33.0063 Q885.305 26.6869 895.068 26.6869 Z" fill="#ffffff" fill-rule="evenodd" fill-opacity="1" /><path clip-path="url(#clip100)" d="M958.1 49.9391 Q958.1 41.8373 954.737 37.3813 Q951.416 32.9253 945.38 32.9253 Q939.384 32.9253 936.022 37.3813 Q932.7 41.8373 932.7 49.9391 Q932.7 58.0004 936.022 62.4564 Q939.384 66.9124 945.38 66.9124 Q951.416 66.9124 954.737 62.4564 Q958.1 58.0004 958.1 49.9391 M965.553 67.52 Q965.553 79.1056 960.409 84.7363 Q955.264 90.4076 944.651 90.4076 Q940.721 90.4076 937.237 89.8 Q933.754 89.2328 930.472 88.0176 L930.472 80.7664 Q933.754 82.5488 936.954 83.3995 Q940.154 84.2502 943.476 84.2502 Q950.808 84.2502 954.454 80.4019 Q958.1 76.594 958.1 68.8568 L958.1 65.1705 Q955.791 69.1809 952.185 71.1658 Q948.58 73.1507 943.557 73.1507 Q935.212 73.1507 930.108 66.7908 Q925.004 60.4309 925.004 49.9391 Q925.004 39.4067 930.108 33.0468 Q935.212 26.6869 943.557 26.6869 Q948.58 26.6869 952.185 28.6718 Q955.791 30.6568 958.1 34.6672 L958.1 27.7806 L965.553 27.7806 L965.553 67.52 Z" fill="#ffffff" fill-rule="evenodd" fill-opacity="1" /><path clip-path="url(#clip100)" d="M981.23 12.6708 L992.249 12.6708 L1019.07 63.2665 L1019.07 12.6708 L1027.01 12.6708 L1027.01 73.1507 L1015.99 73.1507 L989.17 22.555 L989.17 73.1507 L981.23 73.1507 L981.23 12.6708 Z" fill="#ffffff" fill-rule="evenodd" fill-opacity="1" /><path clip-path="url(#clip100)" d="M1060.55 33.0063 Q1054.55 33.0063 1051.07 37.7053 Q1047.58 42.3639 1047.58 50.5062 Q1047.58 58.6485 1051.03 63.3476 Q1054.51 68.0061 1060.55 68.0061 Q1066.5 68.0061 1069.99 63.3071 Q1073.47 58.608 1073.47 50.5062 Q1073.47 42.4449 1069.99 37.7458 Q1066.5 33.0063 1060.55 33.0063 M1060.55 26.6869 Q1070.27 26.6869 1075.82 33.0063 Q1081.37 39.3257 1081.37 50.5062 Q1081.37 61.6462 1075.82 68.0061 Q1070.27 74.3255 1060.55 74.3255 Q1050.78 74.3255 1045.23 68.0061 Q1039.73 61.6462 1039.73 50.5062 Q1039.73 39.3257 1045.23 33.0063 Q1050.78 26.6869 1060.55 26.6869 Z" fill="#ffffff" fill-rule="evenodd" fill-opacity="1" /><path clip-path="url(#clip100)" d="M1120.01 34.7482 Q1118.76 34.019 1117.26 33.6949 Q1115.8 33.3304 1114.02 33.3304 Q1107.7 33.3304 1104.3 37.4623 Q1100.93 41.5537 1100.93 49.2504 L1100.93 73.1507 L1093.44 73.1507 L1093.44 27.7806 L1100.93 27.7806 L1100.93 34.8292 Q1103.28 30.6973 1107.05 28.7123 Q1110.82 26.6869 1116.21 26.6869 Q1116.98 26.6869 1117.91 26.8084 Q1118.84 26.8894 1119.97 27.092 L1120.01 34.7482 Z" fill="#ffffff" fill-rule="evenodd" fill-opacity="1" /><path clip-path="url(#clip100)" d="M1161.7 36.4901 Q1164.49 31.4669 1168.38 29.0769 Q1172.27 26.6869 1177.54 26.6869 Q1184.63 26.6869 1188.47 31.6695 Q1192.32 36.6116 1192.32 45.7666 L1192.32 73.1507 L1184.83 73.1507 L1184.83 46.0097 Q1184.83 39.4877 1182.52 36.328 Q1180.21 33.1683 1175.47 33.1683 Q1169.68 33.1683 1166.32 37.0167 Q1162.95 40.865 1162.95 47.5085 L1162.95 73.1507 L1155.46 73.1507 L1155.46 46.0097 Q1155.46 39.4472 1153.15 36.328 Q1150.84 33.1683 1146.02 33.1683 Q1140.31 33.1683 1136.95 37.0572 Q1133.58 40.9056 1133.58 47.5085 L1133.58 73.1507 L1126.09 73.1507 L1126.09 27.7806 L1133.58 27.7806 L1133.58 34.8292 Q1136.14 30.6568 1139.7 28.6718 Q1143.27 26.6869 1148.17 26.6869 Q1153.11 26.6869 1156.55 29.1984 Q1160.04 31.71 1161.7 36.4901 Z" fill="#ffffff" fill-rule="evenodd" fill-opacity="1" /><path clip-path="url(#clip100)" d="M1227.81 50.3442 Q1218.78 50.3442 1215.29 52.4101 Q1211.81 54.4761 1211.81 59.4587 Q1211.81 63.4286 1214.4 65.7781 Q1217.03 68.0871 1221.53 68.0871 Q1227.73 68.0871 1231.45 63.7121 Q1235.22 59.2967 1235.22 52.005 L1235.22 50.3442 L1227.81 50.3442 M1242.68 47.2655 L1242.68 73.1507 L1235.22 73.1507 L1235.22 66.2642 Q1232.67 70.3961 1228.86 72.3811 Q1225.05 74.3255 1219.54 74.3255 Q1212.58 74.3255 1208.45 70.4366 Q1204.35 66.5073 1204.35 59.9448 Q1204.35 52.2886 1209.46 48.3997 Q1214.6 44.5109 1224.77 44.5109 L1235.22 44.5109 L1235.22 43.7817 Q1235.22 38.637 1231.82 35.8419 Q1228.46 33.0063 1222.34 33.0063 Q1218.45 33.0063 1214.76 33.938 Q1211.08 34.8697 1207.68 36.7331 L1207.68 29.8466 Q1211.77 28.2667 1215.62 27.4971 Q1219.46 26.6869 1223.11 26.6869 Q1232.95 26.6869 1237.81 31.791 Q1242.68 36.8952 1242.68 47.2655 Z" fill="#ffffff" fill-rule="evenodd" fill-opacity="1" /><path clip-path="url(#clip100)" d="M1258.03 10.1187 L1265.48 10.1187 L1265.48 73.1507 L1258.03 73.1507 L1258.03 10.1187 Z" fill="#ffffff" fill-rule="evenodd" fill-opacity="1" /><path clip-path="url(#clip100)" d="M1330.42 10.1187 L1330.42 16.3166 L1323.29 16.3166 Q1319.28 16.3166 1317.7 17.9369 Q1316.16 19.5573 1316.16 23.7702 L1316.16 27.7806 L1328.43 27.7806 L1328.43 33.5734 L1316.16 33.5734 L1316.16 73.1507 L1308.66 73.1507 L1308.66 33.5734 L1301.54 33.5734 L1301.54 27.7806 L1308.66 27.7806 L1308.66 24.6209 Q1308.66 17.0457 1312.19 13.6025 Q1315.71 10.1187 1323.37 10.1187 L1330.42 10.1187 Z" fill="#ffffff" fill-rule="evenodd" fill-opacity="1" /><path clip-path="url(#clip100)" d="M1336.66 27.7806 L1344.11 27.7806 L1344.11 73.1507 L1336.66 73.1507 L1336.66 27.7806 M1336.66 10.1187 L1344.11 10.1187 L1344.11 19.5573 L1336.66 19.5573 L1336.66 10.1187 Z" fill="#ffffff" fill-rule="evenodd" fill-opacity="1" /><path clip-path="url(#clip100)" d="M1367.08 14.8987 L1367.08 27.7806 L1382.43 27.7806 L1382.43 33.5734 L1367.08 33.5734 L1367.08 58.2029 Q1367.08 63.7527 1368.58 65.3325 Q1370.12 66.9124 1374.78 66.9124 L1382.43 66.9124 L1382.43 73.1507 L1374.78 73.1507 Q1366.15 73.1507 1362.87 69.9505 Q1359.58 66.7098 1359.58 58.2029 L1359.58 33.5734 L1354.12 33.5734 L1354.12 27.7806 L1359.58 27.7806 L1359.58 14.8987 L1367.08 14.8987 Z" fill="#ffffff" fill-rule="evenodd" fill-opacity="1" /><path clip-path="url(#clip100)" d="M1425.98 14.8987 L1425.98 27.7806 L1441.33 27.7806 L1441.33 33.5734 L1425.98 33.5734 L1425.98 58.2029 Q1425.98 63.7527 1427.48 65.3325 Q1429.02 66.9124 1433.68 66.9124 L1441.33 66.9124 L1441.33 73.1507 L1433.68 73.1507 Q1425.05 73.1507 1421.77 69.9505 Q1418.48 66.7098 1418.48 58.2029 L1418.48 33.5734 L1413.02 33.5734 L1413.02 27.7806 L1418.48 27.7806 L1418.48 14.8987 L1425.98 14.8987 Z" fill="#ffffff" fill-rule="evenodd" fill-opacity="1" /><path clip-path="url(#clip100)" d="M1468.72 33.0063 Q1462.72 33.0063 1459.24 37.7053 Q1455.75 42.3639 1455.75 50.5062 Q1455.75 58.6485 1459.2 63.3476 Q1462.68 68.0061 1468.72 68.0061 Q1474.67 68.0061 1478.15 63.3071 Q1481.64 58.608 1481.64 50.5062 Q1481.64 42.4449 1478.15 37.7458 Q1474.67 33.0063 1468.72 33.0063 M1468.72 26.6869 Q1478.44 26.6869 1483.99 33.0063 Q1489.54 39.3257 1489.54 50.5062 Q1489.54 61.6462 1483.99 68.0061 Q1478.44 74.3255 1468.72 74.3255 Q1458.95 74.3255 1453.4 68.0061 Q1447.89 61.6462 1447.89 50.5062 Q1447.89 39.3257 1453.4 33.0063 Q1458.95 26.6869 1468.72 26.6869 Z" fill="#ffffff" fill-rule="evenodd" fill-opacity="1" /><path clip-path="url(#clip100)" d="M1535.64 14.8987 L1535.64 27.7806 L1550.99 27.7806 L1550.99 33.5734 L1535.64 33.5734 L1535.64 58.2029 Q1535.64 63.7527 1537.14 65.3325 Q1538.68 66.9124 1543.33 66.9124 L1550.99 66.9124 L1550.99 73.1507 L1543.33 73.1507 Q1534.71 73.1507 1531.42 69.9505 Q1528.14 66.7098 1528.14 58.2029 L1528.14 33.5734 L1522.67 33.5734 L1522.67 27.7806 L1528.14 27.7806 L1528.14 14.8987 L1535.64 14.8987 Z" fill="#ffffff" fill-rule="evenodd" fill-opacity="1" /><path clip-path="url(#clip100)" d="M1598.51 45.7666 L1598.51 73.1507 L1591.05 73.1507 L1591.05 46.0097 Q1591.05 39.5688 1588.54 36.3685 Q1586.03 33.1683 1581.01 33.1683 Q1574.97 33.1683 1571.49 37.0167 Q1568 40.865 1568 47.5085 L1568 73.1507 L1560.51 73.1507 L1560.51 10.1187 L1568 10.1187 L1568 34.8292 Q1570.68 30.7378 1574.28 28.7123 Q1577.93 26.6869 1582.67 26.6869 Q1590.49 26.6869 1594.5 31.548 Q1598.51 36.3685 1598.51 45.7666 Z" fill="#ffffff" fill-rule="evenodd" fill-opacity="1" /><path clip-path="url(#clip100)" d="M1652.18 48.6023 L1652.18 52.2481 L1617.91 52.2481 Q1618.4 59.9448 1622.53 63.9957 Q1626.7 68.0061 1634.11 68.0061 Q1638.41 68.0061 1642.42 66.9529 Q1646.47 65.8996 1650.44 63.7932 L1650.44 70.8417 Q1646.43 72.5431 1642.22 73.4343 Q1638 74.3255 1633.67 74.3255 Q1622.81 74.3255 1616.45 68.0061 Q1610.13 61.6867 1610.13 50.9113 Q1610.13 39.7713 1616.13 33.2493 Q1622.16 26.6869 1632.37 26.6869 Q1641.53 26.6869 1646.83 32.6012 Q1652.18 38.475 1652.18 48.6023 M1644.73 46.4148 Q1644.65 40.2979 1641.28 36.6521 Q1637.96 33.0063 1632.45 33.0063 Q1626.22 33.0063 1622.45 36.5306 Q1618.72 40.0549 1618.15 46.4553 L1644.73 46.4148 Z" fill="#ffffff" fill-rule="evenodd" fill-opacity="1" /><path clip-path="url(#clip100)" d="M1720.64 34.6672 L1720.64 10.1187 L1728.1 10.1187 L1728.1 73.1507 L1720.64 73.1507 L1720.64 66.3452 Q1718.29 70.3961 1714.69 72.3811 Q1711.12 74.3255 1706.1 74.3255 Q1697.88 74.3255 1692.69 67.763 Q1687.55 61.2006 1687.55 50.5062 Q1687.55 39.8118 1692.69 33.2493 Q1697.88 26.6869 1706.1 26.6869 Q1711.12 26.6869 1714.69 28.6718 Q1718.29 30.6163 1720.64 34.6672 M1695.24 50.5062 Q1695.24 58.7295 1698.6 63.4286 Q1702.01 68.0871 1707.92 68.0871 Q1713.84 68.0871 1717.24 63.4286 Q1720.64 58.7295 1720.64 50.5062 Q1720.64 42.2829 1717.24 37.6243 Q1713.84 32.9253 1707.92 32.9253 Q1702.01 32.9253 1698.6 37.6243 Q1695.24 42.2829 1695.24 50.5062 Z" fill="#ffffff" fill-rule="evenodd" fill-opacity="1" /><path clip-path="url(#clip100)" d="M1764.07 50.3442 Q1755.03 50.3442 1751.55 52.4101 Q1748.07 54.4761 1748.07 59.4587 Q1748.07 63.4286 1750.66 65.7781 Q1753.29 68.0871 1757.79 68.0871 Q1763.99 68.0871 1767.71 63.7121 Q1771.48 59.2967 1771.48 52.005 L1771.48 50.3442 L1764.07 50.3442 M1778.93 47.2655 L1778.93 73.1507 L1771.48 73.1507 L1771.48 66.2642 Q1768.93 70.3961 1765.12 72.3811 Q1761.31 74.3255 1755.8 74.3255 Q1748.84 74.3255 1744.7 70.4366 Q1740.61 66.5073 1740.61 59.9448 Q1740.61 52.2886 1745.72 48.3997 Q1750.86 44.5109 1761.03 44.5109 L1771.48 44.5109 L1771.48 43.7817 Q1771.48 38.637 1768.08 35.8419 Q1764.72 33.0063 1758.6 33.0063 Q1754.71 33.0063 1751.02 33.938 Q1747.34 34.8697 1743.93 36.7331 L1743.93 29.8466 Q1748.03 28.2667 1751.87 27.4971 Q1755.72 26.6869 1759.37 26.6869 Q1769.21 26.6869 1774.07 31.791 Q1778.93 36.8952 1778.93 47.2655 Z" fill="#ffffff" fill-rule="evenodd" fill-opacity="1" /><path clip-path="url(#clip100)" d="M1801.66 14.8987 L1801.66 27.7806 L1817.01 27.7806 L1817.01 33.5734 L1801.66 33.5734 L1801.66 58.2029 Q1801.66 63.7527 1803.16 65.3325 Q1804.7 66.9124 1809.36 66.9124 L1817.01 66.9124 L1817.01 73.1507 L1809.36 73.1507 Q1800.73 73.1507 1797.45 69.9505 Q1794.17 66.7098 1794.17 58.2029 L1794.17 33.5734 L1788.7 33.5734 L1788.7 27.7806 L1794.17 27.7806 L1794.17 14.8987 L1801.66 14.8987 Z" fill="#ffffff" fill-rule="evenodd" fill-opacity="1" /><path clip-path="url(#clip100)" d="M1847.44 50.3442 Q1838.4 50.3442 1834.92 52.4101 Q1831.43 54.4761 1831.43 59.4587 Q1831.43 63.4286 1834.03 65.7781 Q1836.66 68.0871 1841.16 68.0871 Q1847.35 68.0871 1851.08 63.7121 Q1854.85 59.2967 1854.85 52.005 L1854.85 50.3442 L1847.44 50.3442 M1862.3 47.2655 L1862.3 73.1507 L1854.85 73.1507 L1854.85 66.2642 Q1852.3 70.3961 1848.49 72.3811 Q1844.68 74.3255 1839.17 74.3255 Q1832.2 74.3255 1828.07 70.4366 Q1823.98 66.5073 1823.98 59.9448 Q1823.98 52.2886 1829.08 48.3997 Q1834.23 44.5109 1844.4 44.5109 L1854.85 44.5109 L1854.85 43.7817 Q1854.85 38.637 1851.45 35.8419 Q1848.08 33.0063 1841.97 33.0063 Q1838.08 33.0063 1834.39 33.938 Q1830.7 34.8697 1827.3 36.7331 L1827.3 29.8466 Q1831.39 28.2667 1835.24 27.4971 Q1839.09 26.6869 1842.74 26.6869 Q1852.58 26.6869 1857.44 31.791 Q1862.3 36.8952 1862.3 47.2655 Z" fill="#ffffff" fill-rule="evenodd" fill-opacity="1" /><path clip-path="url(#clip100)" d="M1879.56 62.8615 L1888.11 62.8615 L1888.11 69.829 L1881.46 82.7919 L1876.24 82.7919 L1879.56 69.829 L1879.56 62.8615 Z" fill="#ffffff" fill-rule="evenodd" fill-opacity="1" /><path clip-path="url(#clip100)" d="M1968.08 61.1409 Q1967.01 66.4285 1965.58 69.4617 Q1963.28 74.0935 1959.35 74.0935 Q1956.56 74.0935 1954.43 72.4129 Q1952.34 70.7324 1951.8 67.9451 Q1950.74 69.2158 1949.96 69.9536 Q1949.22 70.6914 1947.75 71.8391 Q1946.31 72.9458 1944.51 73.5197 Q1942.71 74.0935 1940.66 74.0935 Q1935.65 74.0935 1932.5 71.4702 Q1928.24 88.6447 1927.87 89.5055 Q1926.68 91.268 1924.96 91.268 Q1923.89 91.268 1923.24 90.6122 Q1922.58 89.9973 1922.58 89.0136 Q1922.62 88.6857 1922.87 87.661 L1934.92 39.0887 Q1935.25 37.777 1936.06 37.0392 Q1936.93 36.2604 1937.42 36.1784 Q1937.91 36.0555 1938.28 36.0555 Q1939.38 36.0555 1940.04 36.6703 Q1940.74 37.2441 1940.74 38.3099 Q1940.74 38.4738 1940.49 39.4166 Q1940.29 40.3183 1939.96 41.712 Q1939.63 43.0646 1939.47 43.6795 L1935.94 57.7798 Q1934.75 62.6165 1934.75 64.9119 Q1934.75 68.396 1936.31 70.3225 Q1937.91 72.208 1940.98 72.208 Q1942.91 72.208 1944.71 71.4292 Q1946.52 70.6094 1947.75 69.5027 Q1948.98 68.396 1949.96 67.2073 Q1950.94 65.9776 1951.39 65.1988 Q1951.85 64.379 1951.89 64.1741 L1954.06 55.6073 L1958.04 39.9084 Q1958.28 38.9247 1958.73 38.2689 Q1959.22 37.5721 1959.8 37.3261 Q1960.37 37.0802 1960.7 37.0392 Q1961.03 36.9572 1961.31 36.9572 Q1962.34 36.9572 1963.04 37.5721 Q1963.73 38.1869 1963.73 39.2526 Q1963.73 39.4576 1963.49 40.4413 Q1963.28 41.3841 1962.95 42.7777 Q1962.63 44.1303 1962.46 44.8681 Q1961.15 50.0328 1961.03 50.5657 L1958.69 59.6243 Q1958.57 60.1571 1958.16 61.8787 Q1957.79 63.6002 1957.58 64.502 Q1957.38 65.3628 1957.17 66.5515 Q1957.01 67.6992 1957.01 68.355 Q1957.01 72.208 1959.55 72.208 Q1960.54 72.208 1961.4 71.6341 Q1962.26 71.0193 1962.83 70.1585 Q1963.45 69.2978 1964.02 67.8221 Q1964.63 66.3055 1965 65.0759 Q1965.37 63.8052 1965.91 61.8377 Q1966.11 60.895 1966.31 60.608 Q1966.52 60.3211 1967.09 60.3211 Q1968.08 60.3211 1968.08 61.1409 Z" fill="#ffffff" fill-rule="evenodd" fill-opacity="1" /><path clip-path="url(#clip100)" d="M1995.97 60.4031 Q1996.05 59.3784 1997.65 59.3784 L2049.09 59.3784 Q2051.51 59.3784 2051.55 60.3211 Q2051.55 61.3458 2049.26 61.3048 L1998.23 61.3048 Q1995.97 61.3458 1995.97 60.4031 M1995.97 44.0074 Q1995.97 42.9826 1997.73 43.0236 L2049.01 43.0236 Q2051.51 43.0236 2051.55 44.0074 Q2051.55 44.9501 2049.42 44.9501 L1997.65 44.9501 Q1995.97 44.9501 1995.97 44.0074 Z" fill="#ffffff" fill-rule="evenodd" fill-opacity="1" /><path clip-path="url(#clip100)" d="M2083.94 73.1508 Q2083.94 71.6341 2084.06 71.1833 Q2084.23 70.7324 2084.88 70.0356 L2100.99 52.0823 Q2109.8 42.1629 2109.8 33.5141 Q2109.8 27.8986 2106.85 23.8816 Q2103.94 19.8647 2098.57 19.8647 Q2094.88 19.8647 2091.77 22.1191 Q2088.65 24.3735 2087.22 28.3905 Q2087.46 28.3085 2088.33 28.3085 Q2090.42 28.3085 2091.56 29.6201 Q2092.75 30.9318 2092.75 32.6943 Q2092.75 34.9487 2091.28 36.0555 Q2089.84 37.1212 2088.41 37.1212 Q2087.83 37.1212 2087.05 36.9982 Q2086.32 36.8752 2085.13 35.7275 Q2083.94 34.5389 2083.94 32.4484 Q2083.94 26.5869 2088.37 21.9142 Q2092.83 17.2414 2099.64 17.2414 Q2107.34 17.2414 2112.39 21.8322 Q2117.47 26.382 2117.47 33.5141 Q2117.47 36.0145 2116.69 38.3099 Q2115.95 40.5643 2114.93 42.3268 Q2113.94 44.0894 2111.24 46.9176 Q2108.53 49.7459 2106.36 51.7543 Q2104.19 53.7628 2099.31 58.0257 L2090.42 66.6744 L2105.54 66.6744 Q2112.92 66.6744 2113.49 66.0186 Q2114.31 64.8299 2115.34 58.5586 L2117.47 58.5586 L2115.09 73.1508 L2083.94 73.1508 Z" fill="#ffffff" fill-rule="evenodd" fill-opacity="1" /><path clip-path="url(#clip100)" d="M2126.78 71.7981 Q2125.51 70.4455 2125.51 68.6829 Q2125.51 66.9204 2126.78 65.6497 Q2128.05 64.3381 2129.98 64.3381 Q2131.82 64.3381 2133.05 65.5677 Q2134.32 66.7564 2134.32 68.7239 Q2134.32 70.6504 2132.97 71.9211 Q2131.66 73.1508 2129.98 73.1508 Q2128.05 73.1508 2126.78 71.7981 Z" fill="#ffffff" fill-rule="evenodd" fill-opacity="1" /><path clip-path="url(#clip100)" d="M2148.61 36.1374 Q2148.61 31.6696 2149.92 28.6364 Q2151.24 25.5622 2153.98 22.529 Q2159.02 17.2414 2166.32 17.2414 Q2169.44 17.2414 2172.18 18.553 Q2174.97 19.8647 2177.59 22.8569 Q2180.26 25.8081 2181.85 31.6696 Q2183.45 37.4901 2183.45 45.524 Q2183.45 58.5176 2177.14 66.7564 Q2170.87 74.9953 2162.39 74.9953 Q2157.02 74.9953 2153.86 72.5769 Q2150.7 70.1175 2150.7 65.9366 Q2150.7 63.7642 2151.93 62.8624 Q2153.16 61.9197 2154.56 61.9197 Q2156.07 61.9197 2157.26 62.9444 Q2158.45 63.9282 2158.45 65.7727 Q2158.45 67.2893 2157.47 68.478 Q2156.52 69.6257 2154.06 69.6257 Q2156.48 72.6589 2162.3 72.6589 Q2164.39 72.6589 2166.48 71.7161 Q2168.57 70.7324 2170.83 68.396 Q2173.12 66.0186 2174.52 61.0589 Q2175.91 56.0992 2175.91 49.131 L2175.91 46.4667 Q2172.55 54.8695 2165.42 54.8695 Q2158.37 54.8695 2153.49 49.4589 Q2148.61 44.0484 2148.61 36.1374 M2156.15 36.2194 Q2156.15 44.5402 2157.67 47.6144 Q2160.25 52.902 2165.5 52.902 Q2170.62 52.902 2173.17 48.3522 Q2175.75 43.7614 2175.75 37.818 Q2175.75 29.5791 2174.39 25.9721 Q2171.89 19.3318 2166.32 19.3318 Q2160.79 19.3318 2157.92 24.6194 Q2156.15 27.7346 2156.15 36.2194 Z" fill="#ffffff" fill-rule="evenodd" fill-opacity="1" /><path clip-path="url(#clip100)" d="M2190.52 60.4851 Q2190.52 51.0985 2202.61 45.0321 Q2197.41 41.507 2196.47 40.4823 Q2192.78 36.3834 2192.78 31.2597 Q2192.78 25.3982 2197.2 21.3403 Q2201.67 17.2414 2207.98 17.2414 Q2214.01 17.2414 2218.56 20.7255 Q2223.11 24.2096 2223.11 29.7431 Q2223.11 37.5311 2212.94 42.7777 Q2219.66 46.9586 2221.26 48.7211 Q2225.36 53.271 2225.36 59.0504 Q2225.36 65.7727 2220.2 70.4045 Q2215.03 74.9953 2207.9 74.9953 Q2200.93 74.9953 2195.73 70.9373 Q2190.52 66.8794 2190.52 60.4851 M2194.7 60.4851 Q2194.7 65.6907 2198.6 69.1748 Q2202.53 72.6589 2207.98 72.6589 Q2213.27 72.6589 2217.21 69.6257 Q2221.18 66.5925 2221.18 62.0836 Q2221.18 60.3211 2220.57 58.8045 Q2219.99 57.2879 2218.8 56.0992 Q2217.66 54.8695 2216.92 54.3367 Q2216.22 53.7628 2214.87 52.8201 L2204.54 46.3028 Q2194.7 51.7543 2194.7 60.4851 M2196.47 27.9806 Q2196.47 31.9975 2200.69 34.7848 L2211.1 41.507 Q2219.42 36.6293 2219.42 29.7431 Q2219.42 25.2753 2216.02 22.324 Q2212.61 19.3318 2207.9 19.3318 Q2203.27 19.3318 2199.87 21.7912 Q2196.47 24.2096 2196.47 27.9806 Z" fill="#ffffff" fill-rule="evenodd" fill-opacity="1" /><path clip-path="url(#clip100)" d="M2233.28 71.7981 Q2232.09 70.4455 2232.09 68.6829 Q2232.09 66.9204 2233.24 65.6087 Q2234.43 64.2561 2236.56 64.2561 Q2239.06 64.2561 2240.5 66.6744 Q2241.93 69.0518 2241.93 73.0688 Q2241.93 77.4136 2240.17 81.4306 Q2238.41 85.4885 2236.69 87.415 Q2234.96 89.3415 2234.27 89.3415 Q2233.45 89.3415 2233.45 88.4398 Q2233.45 88.1118 2234.02 87.497 Q2240.05 81.0207 2240.09 73.0688 Q2240.09 71.7981 2239.92 71.7981 L2239.72 71.9621 Q2238.28 73.1508 2236.56 73.1508 Q2234.47 73.1508 2233.28 71.7981 Z" fill="#ffffff" fill-rule="evenodd" fill-opacity="1" /><path clip-path="url(#clip100)" d="M2312.82 38.9657 Q2312.82 41.8349 2308.72 41.8349 L2299.49 41.8349 Q2302.08 45.524 2302.08 50.9756 Q2302.08 55.6483 2300.15 60.0342 Q2298.26 64.379 2295.23 67.4123 Q2292.24 70.4455 2288.47 72.29 Q2284.7 74.0935 2281.01 74.0935 Q2275.39 74.0935 2271.91 70.2815 Q2268.42 66.4695 2268.42 60.813 Q2268.42 57.8208 2269.45 54.5006 Q2270.52 51.1805 2272.52 48.1063 Q2274.53 44.9911 2277.16 42.4908 Q2279.82 39.9904 2283.26 38.4738 Q2286.75 36.9572 2290.39 36.9572 L2309.54 36.9572 Q2310.56 36.9572 2311.09 37.0392 Q2311.67 37.0802 2312.24 37.5721 Q2312.82 38.0229 2312.82 38.9657 M2296.71 49.9918 Q2296.71 49.0081 2296.58 48.1473 Q2296.46 47.2455 2296.01 46.0568 Q2295.56 44.8272 2294.78 43.9664 Q2294 43.0646 2292.49 42.4498 Q2291.01 41.8349 2289 41.8349 Q2286.17 41.8349 2283.06 43.3925 Q2279.94 44.9501 2277.57 48.8031 Q2275.6 52.0823 2274.61 56.3451 Q2273.63 60.608 2273.63 63.1494 Q2273.63 67.4942 2275.72 69.8716 Q2277.85 72.208 2281.09 72.208 Q2283.75 72.208 2286.79 70.4045 Q2289.82 68.56 2292.16 65.0759 Q2294.21 62.0427 2295.44 57.6158 Q2296.71 53.189 2296.71 49.9918 Z" fill="#ffffff" fill-rule="evenodd" fill-opacity="1" /><path clip-path="url(#clip100)" d="M2339.18 60.4031 Q2339.26 59.3784 2340.86 59.3784 L2392.3 59.3784 Q2394.72 59.3784 2394.76 60.3211 Q2394.76 61.3458 2392.46 61.3048 L2341.43 61.3048 Q2339.18 61.3458 2339.18 60.4031 M2339.18 44.0074 Q2339.18 42.9826 2340.94 43.0236 L2392.22 43.0236 Q2394.72 43.0236 2394.76 44.0074 Q2394.76 44.9501 2392.63 44.9501 L2340.86 44.9501 Q2339.18 44.9501 2339.18 44.0074 Z" fill="#ffffff" fill-rule="evenodd" fill-opacity="1" /><path clip-path="url(#clip100)" d="M2427.15 46.3028 Q2427.15 33.965 2430.26 27.2428 Q2434.61 17.2414 2444.85 17.2414 Q2447.03 17.2414 2449.28 17.8562 Q2451.58 18.4301 2454.44 20.6845 Q2457.35 22.9389 2459.12 26.6279 Q2462.48 33.7601 2462.48 46.3028 Q2462.48 58.5586 2459.36 65.2398 Q2454.81 74.9953 2444.77 74.9953 Q2441 74.9953 2437.15 73.0688 Q2433.33 71.1423 2430.92 66.5105 Q2427.15 59.5833 2427.15 46.3028 M2434.11 45.278 Q2434.11 57.9437 2435.02 62.9854 Q2436.04 68.437 2438.83 70.8144 Q2441.66 73.1508 2444.77 73.1508 Q2448.13 73.1508 2450.92 70.6504 Q2453.75 68.1091 2454.61 62.6575 Q2455.55 57.2879 2455.51 45.278 Q2455.51 33.5961 2454.69 28.9233 Q2453.58 23.4717 2450.63 21.2993 Q2447.72 19.0859 2444.77 19.0859 Q2443.66 19.0859 2442.48 19.4138 Q2441.33 19.7417 2439.65 20.6845 Q2437.97 21.6272 2436.66 23.9636 Q2435.38 26.3 2434.77 29.8251 Q2434.11 34.3749 2434.11 45.278 Z" fill="#ffffff" fill-rule="evenodd" fill-opacity="1" /><path clip-path="url(#clip100)" d="M2469.99 71.7981 Q2468.72 70.4455 2468.72 68.6829 Q2468.72 66.9204 2469.99 65.6497 Q2471.26 64.3381 2473.19 64.3381 Q2475.03 64.3381 2476.26 65.5677 Q2477.53 66.7564 2477.53 68.7239 Q2477.53 70.6504 2476.18 71.9211 Q2474.87 73.1508 2473.19 73.1508 Q2471.26 73.1508 2469.99 71.7981 Z" fill="#ffffff" fill-rule="evenodd" fill-opacity="1" /><path clip-path="url(#clip100)" d="M2491.82 36.1374 Q2491.82 31.6696 2493.13 28.6364 Q2494.44 25.5622 2497.19 22.529 Q2502.23 17.2414 2509.53 17.2414 Q2512.64 17.2414 2515.39 18.553 Q2518.18 19.8647 2520.8 22.8569 Q2523.46 25.8081 2525.06 31.6696 Q2526.66 37.4901 2526.66 45.524 Q2526.66 58.5176 2520.35 66.7564 Q2514.08 74.9953 2505.59 74.9953 Q2500.22 74.9953 2497.07 72.5769 Q2493.91 70.1175 2493.91 65.9366 Q2493.91 63.7642 2495.14 62.8624 Q2496.37 61.9197 2497.76 61.9197 Q2499.28 61.9197 2500.47 62.9444 Q2501.66 63.9282 2501.66 65.7727 Q2501.66 67.2893 2500.67 68.478 Q2499.73 69.6257 2497.27 69.6257 Q2499.69 72.6589 2505.51 72.6589 Q2507.6 72.6589 2509.69 71.7161 Q2511.78 70.7324 2514.04 68.396 Q2516.33 66.0186 2517.72 61.0589 Q2519.12 56.0992 2519.12 49.131 L2519.12 46.4667 Q2515.76 54.8695 2508.62 54.8695 Q2501.57 54.8695 2496.7 49.4589 Q2491.82 44.0484 2491.82 36.1374 M2499.36 36.2194 Q2499.36 44.5402 2500.88 47.6144 Q2503.46 52.902 2508.71 52.902 Q2513.83 52.902 2516.37 48.3522 Q2518.95 43.7614 2518.95 37.818 Q2518.95 29.5791 2517.6 25.9721 Q2515.1 19.3318 2509.53 19.3318 Q2503.99 19.3318 2501.12 24.6194 Q2499.36 27.7346 2499.36 36.2194 Z" fill="#ffffff" fill-rule="evenodd" fill-opacity="1" /><path clip-path="url(#clip100)" d="M2533.73 59.6243 Q2533.73 57.1239 2535.08 56.1812 Q2536.43 55.1974 2537.87 55.1974 Q2539.79 55.1974 2540.9 56.4271 Q2542.05 57.6158 2542.05 59.2964 Q2542.05 60.9769 2540.9 62.2066 Q2539.79 63.3953 2537.87 63.3953 Q2536.93 63.3953 2536.43 63.2313 Q2537.54 67.0843 2540.9 69.8716 Q2544.3 72.6589 2548.77 72.6589 Q2554.39 72.6589 2557.75 67.2073 Q2559.76 63.6822 2559.76 55.6893 Q2559.76 48.6392 2558.24 45.1141 Q2555.9 39.7445 2551.11 39.7445 Q2544.3 39.7445 2540.29 45.606 Q2539.79 46.3438 2539.22 46.3848 Q2538.4 46.3848 2538.2 45.9339 Q2538.03 45.442 2538.03 44.1713 L2538.03 19.3318 Q2538.03 17.3234 2538.85 17.3234 Q2539.18 17.3234 2539.88 17.5693 Q2545.16 19.9057 2551.03 19.9467 Q2557.05 19.9467 2562.46 17.4873 Q2562.87 17.2414 2563.12 17.2414 Q2563.94 17.2414 2563.98 18.1841 Q2563.98 18.512 2563.28 19.4958 Q2562.63 20.4385 2561.19 21.7092 Q2559.76 22.9389 2557.91 24.1276 Q2556.07 25.3163 2553.36 26.136 Q2550.7 26.9148 2547.75 26.9148 Q2544.22 26.9148 2540.61 25.8081 L2540.61 42.1629 Q2544.96 37.9 2551.27 37.9 Q2557.99 37.9 2562.63 43.3106 Q2567.26 48.7211 2567.26 56.2632 Q2567.26 64.1741 2561.76 69.5847 Q2556.31 74.9953 2548.93 74.9953 Q2542.21 74.9953 2537.95 70.1995 Q2533.73 65.4038 2533.73 59.6243 Z" fill="#ffffff" fill-rule="evenodd" fill-opacity="1" /><path clip-path="url(#clip100)" d="M2575.64 46.6307 Q2575.64 33.4321 2582.36 25.3573 Q2589.08 17.2414 2597.73 17.2414 Q2602.77 17.2414 2605.56 19.8237 Q2608.39 22.365 2608.39 26.3 Q2608.39 28.4724 2607.12 29.4152 Q2605.85 30.3579 2604.53 30.3579 Q2603.02 30.3579 2601.83 29.3332 Q2600.64 28.3085 2600.64 26.464 Q2600.64 22.6929 2605.27 22.6929 Q2603.1 19.3318 2597.89 19.3318 Q2596.3 19.3318 2594.66 19.8237 Q2593.02 20.2746 2590.88 21.8322 Q2588.75 23.3898 2587.11 25.8491 Q2585.47 28.3085 2584.33 32.9403 Q2583.18 37.5721 2583.18 43.5975 L2583.18 45.606 Q2586.62 37.2851 2593.67 37.3261 Q2600.72 37.3261 2605.6 42.6957 Q2610.48 48.0653 2610.48 56.0172 Q2610.48 64.1741 2605.4 69.5847 Q2600.31 74.9953 2593.18 74.9953 Q2589.98 74.9953 2587.07 73.6426 Q2584.2 72.331 2581.5 69.2978 Q2578.83 66.2646 2577.24 60.4441 Q2575.64 54.6236 2575.64 46.6307 M2583.34 54.1727 Q2583.34 62.4116 2584.86 66.3465 Q2585.11 67.0024 2585.64 67.9041 Q2586.21 68.8059 2587.15 69.9946 Q2588.14 71.1423 2589.74 71.9211 Q2591.34 72.6589 2593.18 72.6589 Q2598.8 72.6589 2601.5 67.2073 Q2602.94 64.1741 2602.94 55.9353 Q2602.94 47.5325 2601.42 44.4583 Q2598.84 39.2526 2593.59 39.2526 Q2590.07 39.2526 2587.61 41.671 Q2585.19 44.0894 2584.24 47.3275 Q2583.34 50.5657 2583.34 54.1727 Z" fill="#ffffff" fill-rule="evenodd" fill-opacity="1" /><path clip-path="url(#clip103)" d="M378.311 2170.9 L378.585 2170.89 L378.859 2170.65 L379.133 2169.52 L379.407 2166.77 L379.681 2161.8 L379.955 2154.26 L380.229 2143.94 L380.503 2130.81 L380.777 2114.93 L381.051 2096.43 L381.325 2075.48 L381.599 2052.28 L381.873 2027.04 L382.147 1999.98 L382.421 1971.32 L382.695 1941.25 L383.243 1877.7 L383.791 1810.75 L384.339 1741.62 L384.887 1671.34 L385.984 1530.58 L387.08 1393.48 L387.628 1327.35 L388.176 1263.21 L388.724 1201.26 L389.272 1141.62 L389.82 1084.41 L390.368 1029.68 L390.916 977.443 L391.464 927.718 L392.012 880.485 L392.56 835.712 L393.108 793.355 L393.656 753.362 L394.204 715.67 L394.752 680.215 L395.026 663.305 L395.3 646.927 L395.574 631.073 L395.848 615.734 L397.115 551.234 L398.382 496.609 L399.649 450.954 L400.915 413.404 L402.182 383.147 L403.449 359.43 L404.716 341.562 L405.983 328.911 L407.25 320.904 L408.517 317.021 L409.783 316.794 L411.05 319.8 L412.317 325.659 L413.584 334.03 L414.851 344.607 L416.118 357.115 L417.384 371.307 L418.651 386.964 L419.918 403.886 L421.185 421.898 L423.719 460.574 L426.252 501.913 L431.32 589.318 L436.387 679.13 L441.454 768.224 L446.522 854.686 L451.589 937.398 L456.656 1015.75 L459.19 1053.21 L461.724 1089.49 L464.257 1124.6 L466.791 1158.56 L471.858 1223.04 L476.926 1283.12 L481.993 1339 L487.06 1390.94 L492.128 1439.19 L497.195 1484 L502.263 1525.63 L507.33 1564.3 L512.397 1600.24 L517.465 1633.66 L522.532 1664.75 L527.599 1693.7 L532.667 1720.66 L537.734 1745.79 L542.801 1769.24 L547.869 1791.13 L552.936 1811.58 L558.003 1830.7 L564.094 1852.06 L570.184 1871.8 L576.275 1890.06 L582.366 1906.97 L594.547 1937.2 L606.728 1963.29 L618.909 1985.89 L631.09 2005.54 L643.271 2022.69 L655.452 2037.71 L665.751 2048.97 L676.05 2059.09 L686.349 2068.2 L696.648 2076.41 L717.246 2090.56 L737.843 2102.21 L760.219 2112.61 L782.594 2121.15 L804.969 2128.22 L827.344 2134.1 L868.599 2142.58 L909.855 2148.8 L954.085 2153.73 L998.316 2157.39 L1049.56 2160.53 L1100.81 2162.83 L1191.89 2165.58 L1271.76 2167.12 L1358.84 2168.23 L1446.44 2168.97 L1543.29 2169.53 L1635.44 2169.89 L1731.25 2170.15 L1811.91 2170.31 L1910.38 2170.46 L2000.59 2170.55 L2083.9 2170.62 L2168.29 2170.68 L2262.87 2170.72 L2348.58 2170.75 L2446.71 2170.78 L2537.56 2170.8 L2627.14 2170.82 L2714.11 2170.83 L2803.26 2170.84 L2900.94 2170.85 L3042.84 2170.86 L3071.95 2170.87 L3071.95 2170.9 L3042.84 2170.9 L2900.94 2170.9 L2803.26 2170.9 L2714.11 2170.9 L2627.14 2170.9 L2537.56 2170.9 L2446.71 2170.9 L2348.58 2170.9 L2262.87 2170.9 L2168.29 2170.9 L2083.9 2170.9 L2000.59 2170.9 L1910.38 2170.9 L1811.91 2170.9 L1731.25 2170.9 L1635.44 2170.9 L1543.29 2170.9 L1446.44 2170.9 L1358.84 2170.9 L1271.76 2170.9 L1191.89 2170.9 L1100.81 2170.9 L1049.56 2170.9 L998.316 2170.9 L954.085 2170.9 L909.855 2170.9 L868.599 2170.9 L827.344 2170.9 L804.969 2170.9 L782.594 2170.9 L760.219 2170.9 L737.843 2170.9 L717.246 2170.9 L696.648 2170.9 L686.349 2170.9 L676.05 2170.9 L665.751 2170.9 L655.452 2170.9 L643.271 2170.9 L631.09 2170.9 L618.909 2170.9 L606.728 2170.9 L594.547 2170.9 L582.366 2170.9 L576.275 2170.9 L570.184 2170.9 L564.094 2170.9 L558.003 2170.9 L552.936 2170.9 L547.869 2170.9 L542.801 2170.9 L537.734 2170.9 L532.667 2170.9 L527.599 2170.9 L522.532 2170.9 L517.465 2170.9 L512.397 2170.9 L507.33 2170.9 L502.263 2170.9 L497.195 2170.9 L492.128 2170.9 L487.06 2170.9 L481.993 2170.9 L476.926 2170.9 L471.858 2170.9 L466.791 2170.9 L464.257 2170.9 L461.724 2170.9 L459.19 2170.9 L456.656 2170.9 L451.589 2170.9 L446.522 2170.9 L441.454 2170.9 L436.387 2170.9 L431.32 2170.9 L426.252 2170.9 L423.719 2170.9 L421.185 2170.9 L419.918 2170.9 L418.651 2170.9 L417.384 2170.9 L416.118 2170.9 L414.851 2170.9 L413.584 2170.9 L412.317 2170.9 L411.05 2170.9 L409.783 2170.9 L408.517 2170.9 L407.25 2170.9 L405.983 2170.9 L404.716 2170.9 L403.449 2170.9 L402.182 2170.9 L400.915 2170.9 L399.649 2170.9 L398.382 2170.9 L397.115 2170.9 L395.848 2170.9 L395.574 2170.9 L395.3 2170.9 L395.026 2170.9 L394.752 2170.9 L394.204 2170.9 L393.656 2170.9 L393.108 2170.9 L392.56 2170.9 L392.012 2170.9 L391.464 2170.9 L390.916 2170.9 L390.368 2170.9 L389.82 2170.9 L389.272 2170.9 L388.724 2170.9 L388.176 2170.9 L387.628 2170.9 L387.08 2170.9 L385.984 2170.9 L384.887 2170.9 L384.339 2170.9 L383.791 2170.9 L383.243 2170.9 L382.695 2170.9 L382.421 2170.9 L382.147 2170.9 L381.873 2170.9 L381.599 2170.9 L381.325 2170.9 L381.051 2170.9 L380.777 2170.9 L380.503 2170.9 L380.229 2170.9 L379.955 2170.9 L379.681 2170.9 L379.407 2170.9 L379.133 2170.9 L378.859 2170.9 L378.585 2170.9 L378.311 2170.9  Z" fill="#ffc0cb" fill-rule="evenodd" fill-opacity="0.2"/>
<polyline clip-path="url(#clip103)" style="stroke:#ffc0cb; stroke-linecap:round; stroke-linejoin:round; stroke-width:4; stroke-opacity:1; fill:none" points="378.311,2170.9 378.585,2170.89 378.859,2170.65 379.133,2169.52 379.407,2166.77 379.681,2161.8 379.955,2154.26 380.229,2143.94 380.503,2130.81 380.777,2114.93 381.051,2096.43 381.325,2075.48 381.599,2052.28 381.873,2027.04 382.147,1999.98 382.421,1971.32 382.695,1941.25 383.243,1877.7 383.791,1810.75 384.339,1741.62 384.887,1671.34 385.984,1530.58 387.08,1393.48 387.628,1327.35 388.176,1263.21 388.724,1201.26 389.272,1141.62 389.82,1084.41 390.368,1029.68 390.916,977.443 391.464,927.718 392.012,880.485 392.56,835.712 393.108,793.355 393.656,753.362 394.204,715.67 394.752,680.215 395.026,663.305 395.3,646.927 395.574,631.073 395.848,615.734 397.115,551.234 398.382,496.609 399.649,450.954 400.915,413.404 402.182,383.147 403.449,359.43 404.716,341.562 405.983,328.911 407.25,320.904 408.517,317.021 409.783,316.794 411.05,319.8 412.317,325.659 413.584,334.03 414.851,344.607 416.118,357.115 417.384,371.307 418.651,386.964 419.918,403.886 421.185,421.898 423.719,460.574 426.252,501.913 431.32,589.318 436.387,679.13 441.454,768.224 446.522,854.686 451.589,937.398 456.656,1015.75 459.19,1053.21 461.724,1089.49 464.257,1124.6 466.791,1158.56 471.858,1223.04 476.926,1283.12 481.993,1339 487.06,1390.94 492.128,1439.19 497.195,1484 502.263,1525.63 507.33,1564.3 512.397,1600.24 517.465,1633.66 522.532,1664.75 527.599,1693.7 532.667,1720.66 537.734,1745.79 542.801,1769.24 547.869,1791.13 552.936,1811.58 558.003,1830.7 564.094,1852.06 570.184,1871.8 576.275,1890.06 582.366,1906.97 594.547,1937.2 606.728,1963.29 618.909,1985.89 631.09,2005.54 643.271,2022.69 655.452,2037.71 665.751,2048.97 676.05,2059.09 686.349,2068.2 696.648,2076.41 717.246,2090.56 737.843,2102.21 760.219,2112.61 782.594,2121.15 804.969,2128.22 827.344,2134.1 868.599,2142.58 909.855,2148.8 954.085,2153.73 998.316,2157.39 1049.56,2160.53 1100.81,2162.83 1191.89,2165.58 1271.76,2167.12 1358.84,2168.23 1446.44,2168.97 1543.29,2169.53 1635.44,2169.89 1731.25,2170.15 1811.91,2170.31 1910.38,2170.46 2000.59,2170.55 2083.9,2170.62 2168.29,2170.68 2262.87,2170.72 2348.58,2170.75 2446.71,2170.78 2537.56,2170.8 2627.14,2170.82 2714.11,2170.83 2803.26,2170.84 2900.94,2170.85 3042.84,2170.86 3071.95,2170.87 "/>
<path clip-path="url(#clip100)" d="M1842.34 432.308 L3057.58 432.308 L3057.58 199.028 L1842.34 199.028  Z" fill="#7711d7" fill-rule="evenodd" fill-opacity="0.0313725"/>
<polyline clip-path="url(#clip100)" style="stroke:#ffffff; stroke-linecap:round; stroke-linejoin:round; stroke-width:4; stroke-opacity:1; fill:none" points="1842.34,432.308 3057.58,432.308 3057.58,199.028 1842.34,199.028 1842.34,432.308 "/>
<path clip-path="url(#clip100)" d="M1874.07 362.324 L2064.42 362.324 L2064.42 269.012 L1874.07 269.012 L1874.07 362.324  Z" fill="#ffc0cb" fill-rule="evenodd" fill-opacity="0.2"/>
<polyline clip-path="url(#clip100)" style="stroke:#ffc0cb; stroke-linecap:round; stroke-linejoin:round; stroke-width:9; stroke-opacity:1; fill:none" points="1874.07,269.012 2064.42,269.012 "/>
<path clip-path="url(#clip100)" d="M2096.15 275.283 L2106.67 275.283 L2106.67 344.189 L2144.53 344.189 L2144.53 353.043 L2096.15 353.043 L2096.15 275.283 Z" fill="#ffffff" fill-rule="evenodd" fill-opacity="1" /><path clip-path="url(#clip100)" d="M2175.88 301.428 Q2168.18 301.428 2163.7 307.47 Q2159.22 313.46 2159.22 323.928 Q2159.22 334.397 2163.64 340.439 Q2168.12 346.428 2175.88 346.428 Q2183.54 346.428 2188.02 340.387 Q2192.5 334.345 2192.5 323.928 Q2192.5 313.564 2188.02 307.522 Q2183.54 301.428 2175.88 301.428 M2175.88 293.303 Q2188.38 293.303 2195.52 301.428 Q2202.65 309.553 2202.65 323.928 Q2202.65 338.251 2195.52 346.428 Q2188.38 354.553 2175.88 354.553 Q2163.33 354.553 2156.2 346.428 Q2149.11 338.251 2149.11 323.928 Q2149.11 309.553 2156.2 301.428 Q2163.33 293.303 2175.88 293.303 Z" fill="#ffffff" fill-rule="evenodd" fill-opacity="1" /><path clip-path="url(#clip100)" d="M2256.93 323.199 Q2256.93 312.783 2252.6 307.053 Q2248.33 301.324 2240.57 301.324 Q2232.86 301.324 2228.54 307.053 Q2224.27 312.783 2224.27 323.199 Q2224.27 333.564 2228.54 339.293 Q2232.86 345.022 2240.57 345.022 Q2248.33 345.022 2252.6 339.293 Q2256.93 333.564 2256.93 323.199 M2266.51 345.803 Q2266.51 360.699 2259.89 367.938 Q2253.28 375.23 2239.63 375.23 Q2234.58 375.23 2230.1 374.449 Q2225.62 373.72 2221.4 372.157 L2221.4 362.834 Q2225.62 365.126 2229.74 366.22 Q2233.85 367.313 2238.12 367.313 Q2247.55 367.313 2252.24 362.366 Q2256.93 357.47 2256.93 347.522 L2256.93 342.782 Q2253.96 347.939 2249.32 350.491 Q2244.69 353.043 2238.23 353.043 Q2227.5 353.043 2220.94 344.866 Q2214.37 336.689 2214.37 323.199 Q2214.37 309.658 2220.94 301.48 Q2227.5 293.303 2238.23 293.303 Q2244.69 293.303 2249.32 295.856 Q2253.96 298.408 2256.93 303.564 L2256.93 294.71 L2266.51 294.71 L2266.51 345.803 Z" fill="#ffffff" fill-rule="evenodd" fill-opacity="1" /><path clip-path="url(#clip100)" d="M2286.66 275.283 L2300.83 275.283 L2335.31 340.334 L2335.31 275.283 L2345.52 275.283 L2345.52 353.043 L2331.35 353.043 L2296.87 287.991 L2296.87 353.043 L2286.66 353.043 L2286.66 275.283 Z" fill="#ffffff" fill-rule="evenodd" fill-opacity="1" /><path clip-path="url(#clip100)" d="M2388.64 301.428 Q2380.94 301.428 2376.46 307.47 Q2371.98 313.46 2371.98 323.928 Q2371.98 334.397 2376.4 340.439 Q2380.88 346.428 2388.64 346.428 Q2396.3 346.428 2400.78 340.387 Q2405.26 334.345 2405.26 323.928 Q2405.26 313.564 2400.78 307.522 Q2396.3 301.428 2388.64 301.428 M2388.64 293.303 Q2401.14 293.303 2408.28 301.428 Q2415.41 309.553 2415.41 323.928 Q2415.41 338.251 2408.28 346.428 Q2401.14 354.553 2388.64 354.553 Q2376.09 354.553 2368.96 346.428 Q2361.87 338.251 2361.87 323.928 Q2361.87 309.553 2368.96 301.428 Q2376.09 293.303 2388.64 293.303 Z" fill="#ffffff" fill-rule="evenodd" fill-opacity="1" /><path clip-path="url(#clip100)" d="M2465.1 303.668 Q2463.49 302.73 2461.56 302.314 Q2459.68 301.845 2457.39 301.845 Q2449.27 301.845 2444.89 307.158 Q2440.57 312.418 2440.57 322.314 L2440.57 353.043 L2430.93 353.043 L2430.93 294.71 L2440.57 294.71 L2440.57 303.772 Q2443.59 298.46 2448.43 295.908 Q2453.28 293.303 2460.21 293.303 Q2461.2 293.303 2462.39 293.46 Q2463.59 293.564 2465.05 293.824 L2465.1 303.668 Z" fill="#ffffff" fill-rule="evenodd" fill-opacity="1" /><path clip-path="url(#clip100)" d="M2518.69 305.908 Q2522.29 299.449 2527.29 296.376 Q2532.29 293.303 2539.06 293.303 Q2548.17 293.303 2553.12 299.71 Q2558.07 306.064 2558.07 317.835 L2558.07 353.043 L2548.43 353.043 L2548.43 318.147 Q2548.43 309.762 2545.47 305.699 Q2542.5 301.637 2536.4 301.637 Q2528.96 301.637 2524.63 306.585 Q2520.31 311.533 2520.31 320.074 L2520.31 353.043 L2510.67 353.043 L2510.67 318.147 Q2510.67 309.71 2507.71 305.699 Q2504.74 301.637 2498.54 301.637 Q2491.19 301.637 2486.87 306.637 Q2482.55 311.585 2482.55 320.074 L2482.55 353.043 L2472.91 353.043 L2472.91 294.71 L2482.55 294.71 L2482.55 303.772 Q2485.83 298.408 2490.41 295.856 Q2495 293.303 2501.3 293.303 Q2507.65 293.303 2512.08 296.533 Q2516.56 299.762 2518.69 305.908 Z" fill="#ffffff" fill-rule="evenodd" fill-opacity="1" /><path clip-path="url(#clip100)" d="M2603.69 323.72 Q2592.08 323.72 2587.6 326.376 Q2583.12 329.032 2583.12 335.439 Q2583.12 340.543 2586.45 343.564 Q2589.84 346.532 2595.62 346.532 Q2603.59 346.532 2608.38 340.907 Q2613.23 335.23 2613.23 325.855 L2613.23 323.72 L2603.69 323.72 M2622.81 319.762 L2622.81 353.043 L2613.23 353.043 L2613.23 344.189 Q2609.94 349.501 2605.05 352.053 Q2600.15 354.553 2593.07 354.553 Q2584.11 354.553 2578.8 349.553 Q2573.54 344.501 2573.54 336.064 Q2573.54 326.22 2580.1 321.22 Q2586.72 316.22 2599.79 316.22 L2613.23 316.22 L2613.23 315.283 Q2613.23 308.668 2608.85 305.074 Q2604.53 301.428 2596.66 301.428 Q2591.66 301.428 2586.92 302.626 Q2582.18 303.824 2577.81 306.22 L2577.81 297.366 Q2583.07 295.335 2588.02 294.345 Q2592.97 293.303 2597.65 293.303 Q2610.31 293.303 2616.56 299.866 Q2622.81 306.428 2622.81 319.762 Z" fill="#ffffff" fill-rule="evenodd" fill-opacity="1" /><path clip-path="url(#clip100)" d="M2642.55 272.001 L2652.13 272.001 L2652.13 353.043 L2642.55 353.043 L2642.55 272.001 Z" fill="#ffffff" fill-rule="evenodd" fill-opacity="1" /><path clip-path="url(#clip100)" d="M2770.29 287.536 Q2769.82 289.328 2768.98 290.698 Q2768.13 292.068 2767.24 292.701 Q2766.39 293.28 2765.55 293.649 Q2764.76 294.018 2764.23 294.071 L2763.71 294.124 Q2761.7 294.124 2760.7 292.806 Q2760.28 292.279 2761.02 289.381 Q2761.49 287.009 2760.02 284.532 Q2758.75 282.793 2755.85 282.793 Q2752.32 282.793 2748.9 285.586 Q2746.95 287.114 2745.89 288.221 Q2744.89 289.328 2743.94 291.067 Q2740.94 296.653 2736.83 306.824 Q2734.19 313.728 2730.13 320.316 Q2727.76 324.795 2723.44 328.748 Q2719.07 332.753 2716.22 334.071 L2716.43 334.703 Q2720.28 334.703 2723.55 335.704 Q2726.81 336.653 2728.18 337.654 L2729.5 338.603 Q2731.03 339.92 2734.72 341.659 Q2738.46 343.399 2740.94 344.084 Q2744.89 345.296 2747.63 345.296 Q2752.53 345.296 2756.59 341.08 Q2758.75 338.866 2759.86 336.706 Q2761.02 334.545 2761.76 331.436 Q2762.49 328.221 2762.86 325.533 L2765.55 325.006 Q2765.55 325.849 2765.34 327.061 Q2765.18 328.221 2764.86 329.644 Q2764.6 331.014 2764.55 331.225 Q2763.18 336.653 2761.18 340.763 Q2759.17 344.874 2755.59 347.878 Q2753.16 349.881 2751.69 350.935 Q2750.21 351.989 2748 352.885 Q2745.79 353.781 2743.63 353.781 Q2741.31 353.781 2738.41 353.412 Q2735.56 353.043 2734.14 352.41 Q2731.08 351.145 2729.5 350.197 Q2727.92 349.248 2726.24 347.562 Q2721.91 344.189 2718.22 342.397 Q2714.59 340.605 2712.43 340.605 Q2710.53 340.605 2708 341.765 Q2705.52 342.872 2704.26 344.4 Q2700.62 348.616 2697.78 353.675 L2696.04 351.831 Q2697.83 346.508 2702.94 340.5 Q2704.31 338.814 2709.11 335.862 Q2711.9 334.281 2715.38 331.541 Q2718.33 329.275 2721.7 322.898 Q2725.13 316.469 2727.76 309.565 Q2729.08 306.139 2729.82 304.347 Q2730.56 302.503 2731.93 299.763 Q2733.35 296.969 2734.88 294.756 Q2738.94 288.959 2744.63 284.637 Q2751.79 279.104 2761.44 279.104 Q2767.24 279.104 2769.34 281.897 Q2771.14 284.005 2770.29 287.536 Z" fill="#ffffff" fill-rule="evenodd" fill-opacity="1" /><path clip-path="url(#clip100)" d="M2878.15 282.266 Q2877.68 284.163 2876.68 284.848 L2872.78 286.535 Q2870.83 286.535 2870.62 286.113 Q2869.72 285.006 2869.56 283.847 Q2869.56 283.004 2869.09 282.477 Q2868.67 281.897 2867.93 281.897 Q2866.4 281.897 2865.45 282.688 Q2863.19 284.479 2861.76 288.695 Q2860.55 292.174 2857.13 305.56 L2846.11 350.566 L2840.05 353.781 Q2835.36 335.599 2830.41 321.159 Q2825.45 306.666 2819.02 295.283 L2814.28 312.253 Q2807.96 332.331 2806.75 334.808 Q2803 343.03 2796.78 348.3 Q2790.62 353.464 2784.82 353.464 Q2781.08 353.464 2779.39 351.198 Q2777.87 349.301 2778.45 347.088 Q2778.87 345.032 2781.24 343.135 Q2782.71 342.028 2783.93 342.028 Q2785.82 342.028 2786.56 343.03 Q2786.67 343.135 2786.82 343.504 Q2786.98 343.873 2787.19 344.4 Q2787.4 344.874 2787.51 345.138 Q2788.14 346.666 2790.2 346.666 Q2793.57 346.666 2797.31 343.662 Q2798.73 342.503 2799.95 340.816 Q2801.21 339.077 2801.74 338.023 Q2802.32 336.969 2803.48 334.598 Q2806.27 328.221 2808.91 318.155 L2815.92 290.224 Q2813.39 286.956 2811.07 285.375 Q2808.48 283.636 2806.38 283.636 Q2802.42 283.636 2799.84 285.902 Q2798.47 286.956 2797.21 288.695 Q2795.99 290.435 2795.36 291.647 Q2794.73 292.859 2793.78 295.072 L2791.3 295.599 Q2793.73 285.955 2799.47 281.265 Q2804.48 277.365 2811.07 277.365 Q2817.39 277.365 2822.29 284.163 Q2823.98 286.324 2825.56 289.381 Q2827.19 292.384 2827.93 294.229 Q2828.72 296.021 2830.36 300.026 L2844.69 339.657 L2845.8 338.339 L2854.12 301.238 Q2855.7 294.598 2858.87 287.958 Q2861.29 282.582 2864.14 280.316 Q2868.4 276.838 2873.62 276.838 Q2876.05 276.838 2877.52 278.472 Q2878.68 279.947 2878.15 282.266 Z" fill="#ffffff" fill-rule="evenodd" fill-opacity="1" /><path clip-path="url(#clip100)" d="M2958.98 272.001 L2958.98 279.97 L2949.81 279.97 Q2944.66 279.97 2942.63 282.054 Q2940.65 284.137 2940.65 289.553 L2940.65 294.71 L2956.43 294.71 L2956.43 302.158 L2940.65 302.158 L2940.65 353.043 L2931.01 353.043 L2931.01 302.158 L2921.85 302.158 L2921.85 294.71 L2931.01 294.71 L2931.01 290.647 Q2931.01 280.908 2935.54 276.481 Q2940.07 272.001 2949.92 272.001 L2958.98 272.001 Z" fill="#ffffff" fill-rule="evenodd" fill-opacity="1" /><path clip-path="url(#clip100)" d="M2967 294.71 L2976.59 294.71 L2976.59 353.043 L2967 353.043 L2967 294.71 M2967 272.001 L2976.59 272.001 L2976.59 284.137 L2967 284.137 L2967 272.001 Z" fill="#ffffff" fill-rule="evenodd" fill-opacity="1" /><path clip-path="url(#clip100)" d="M3006.12 278.147 L3006.12 294.71 L3025.86 294.71 L3025.86 302.158 L3006.12 302.158 L3006.12 333.824 Q3006.12 340.959 3008.04 342.991 Q3010.02 345.022 3016.01 345.022 L3025.86 345.022 L3025.86 353.043 L3016.01 353.043 Q3004.92 353.043 3000.7 348.928 Q2996.48 344.762 2996.48 333.824 L2996.48 302.158 L2989.45 302.158 L2989.45 294.71 L2996.48 294.71 L2996.48 278.147 L3006.12 278.147 Z" fill="#ffffff" fill-rule="evenodd" fill-opacity="1" /></svg>
