<?xml version="1.0" encoding="utf-8"?>
<svg xmlns="http://www.w3.org/2000/svg" xmlns:xlink="http://www.w3.org/1999/xlink" width="800" height="600" viewBox="0 0 3200 2400">
<defs>
  <clipPath id="clip180">
    <rect x="0" y="0" width="3200" height="2400"/>
  </clipPath>
</defs>
<path clip-path="url(#clip180)" d="M0 2400 L3200 2400 L3200 0 L0 0  Z" fill="#7711d7" fill-rule="evenodd" fill-opacity="0.0313725"/>
<defs>
  <clipPath id="clip181">
    <rect x="640" y="0" width="2241" height="2241"/>
  </clipPath>
</defs>
<defs>
  <clipPath id="clip182">
    <rect x="282" y="47" width="2872" height="2125"/>
  </clipPath>
</defs>
<path clip-path="url(#clip180)" d="M327.664 2170.9 L3152.76 2170.9 L3152.76 131.032 L327.664 131.032  Z" fill="#7711d7" fill-rule="evenodd" fill-opacity="0.0313725"/>
<defs>
  <clipPath id="clip183">
    <rect x="327" y="131" width="2826" height="2041"/>
  </clipPath>
</defs>
<polyline clip-path="url(#clip183)" style="stroke:#ffffff; stroke-linecap:round; stroke-linejoin:round; stroke-width:2; stroke-opacity:0.1; fill:none" points="407.619,2170.9 407.619,131.032 "/>
<polyline clip-path="url(#clip183)" style="stroke:#ffffff; stroke-linecap:round; stroke-linejoin:round; stroke-width:2; stroke-opacity:0.1; fill:none" points="979.59,2170.9 979.59,131.032 "/>
<polyline clip-path="url(#clip183)" style="stroke:#ffffff; stroke-linecap:round; stroke-linejoin:round; stroke-width:2; stroke-opacity:0.1; fill:none" points="1551.56,2170.9 1551.56,131.032 "/>
<polyline clip-path="url(#clip183)" style="stroke:#ffffff; stroke-linecap:round; stroke-linejoin:round; stroke-width:2; stroke-opacity:0.1; fill:none" points="2123.53,2170.9 2123.53,131.032 "/>
<polyline clip-path="url(#clip183)" style="stroke:#ffffff; stroke-linecap:round; stroke-linejoin:round; stroke-width:2; stroke-opacity:0.1; fill:none" points="2695.5,2170.9 2695.5,131.032 "/>
<polyline clip-path="url(#clip180)" style="stroke:#ffffff; stroke-linecap:round; stroke-linejoin:round; stroke-width:4; stroke-opacity:1; fill:none" points="327.664,2170.9 3152.76,2170.9 "/>
<polyline clip-path="url(#clip180)" style="stroke:#ffffff; stroke-linecap:round; stroke-linejoin:round; stroke-width:4; stroke-opacity:1; fill:none" points="407.619,2170.9 407.619,2152 "/>
<polyline clip-path="url(#clip180)" style="stroke:#ffffff; stroke-linecap:round; stroke-linejoin:round; stroke-width:4; stroke-opacity:1; fill:none" points="979.59,2170.9 979.59,2152 "/>
<polyline clip-path="url(#clip180)" style="stroke:#ffffff; stroke-linecap:round; stroke-linejoin:round; stroke-width:4; stroke-opacity:1; fill:none" points="1551.56,2170.9 1551.56,2152 "/>
<polyline clip-path="url(#clip180)" style="stroke:#ffffff; stroke-linecap:round; stroke-linejoin:round; stroke-width:4; stroke-opacity:1; fill:none" points="2123.53,2170.9 2123.53,2152 "/>
<polyline clip-path="url(#clip180)" style="stroke:#ffffff; stroke-linecap:round; stroke-linejoin:round; stroke-width:4; stroke-opacity:1; fill:none" points="2695.5,2170.9 2695.5,2152 "/>
<path clip-path="url(#clip180)" d="M407.619 2208.22 Q404.008 2208.22 402.18 2211.78 Q400.374 2215.32 400.374 2222.45 Q400.374 2229.56 402.18 2233.13 Q404.008 2236.67 407.619 2236.67 Q411.254 2236.67 413.059 2233.13 Q414.888 2229.56 414.888 2222.45 Q414.888 2215.32 413.059 2211.78 Q411.254 2208.22 407.619 2208.22 M407.619 2204.51 Q413.429 2204.51 416.485 2209.12 Q419.564 2213.7 419.564 2222.45 Q419.564 2231.18 416.485 2235.79 Q413.429 2240.37 407.619 2240.37 Q401.809 2240.37 398.731 2235.79 Q395.675 2231.18 395.675 2222.45 Q395.675 2213.7 398.731 2209.12 Q401.809 2204.51 407.619 2204.51 Z" fill="#ffffff" fill-rule="evenodd" fill-opacity="1" /><path clip-path="url(#clip180)" d="M958.861 2235.76 L975.18 2235.76 L975.18 2239.7 L953.236 2239.7 L953.236 2235.76 Q955.898 2233.01 960.481 2228.38 Q965.087 2223.73 966.268 2222.39 Q968.513 2219.86 969.393 2218.13 Q970.296 2216.37 970.296 2214.68 Q970.296 2211.92 968.351 2210.19 Q966.43 2208.45 963.328 2208.45 Q961.129 2208.45 958.675 2209.21 Q956.245 2209.98 953.467 2211.53 L953.467 2206.81 Q956.291 2205.67 958.745 2205.09 Q961.198 2204.51 963.236 2204.51 Q968.606 2204.51 971.8 2207.2 Q974.995 2209.89 974.995 2214.38 Q974.995 2216.51 974.185 2218.43 Q973.397 2220.32 971.291 2222.92 Q970.712 2223.59 967.61 2226.81 Q964.509 2230 958.861 2235.76 Z" fill="#ffffff" fill-rule="evenodd" fill-opacity="1" /><path clip-path="url(#clip180)" d="M985.041 2205.14 L1003.4 2205.14 L1003.4 2209.08 L989.323 2209.08 L989.323 2217.55 Q990.342 2217.2 991.36 2217.04 Q992.379 2216.85 993.397 2216.85 Q999.184 2216.85 1002.56 2220.02 Q1005.94 2223.2 1005.94 2228.61 Q1005.94 2234.19 1002.47 2237.29 Q998.999 2240.37 992.68 2240.37 Q990.504 2240.37 988.235 2240 Q985.99 2239.63 983.583 2238.89 L983.583 2234.19 Q985.666 2235.32 987.888 2235.88 Q990.11 2236.44 992.587 2236.44 Q996.592 2236.44 998.93 2234.33 Q1001.27 2232.22 1001.27 2228.61 Q1001.27 2225 998.93 2222.89 Q996.592 2220.79 992.587 2220.79 Q990.712 2220.79 988.837 2221.2 Q986.985 2221.62 985.041 2222.5 L985.041 2205.14 Z" fill="#ffffff" fill-rule="evenodd" fill-opacity="1" /><path clip-path="url(#clip180)" d="M1526.26 2205.14 L1544.62 2205.14 L1544.62 2209.08 L1530.54 2209.08 L1530.54 2217.55 Q1531.56 2217.2 1532.58 2217.04 Q1533.6 2216.85 1534.62 2216.85 Q1540.4 2216.85 1543.78 2220.02 Q1547.16 2223.2 1547.16 2228.61 Q1547.16 2234.19 1543.69 2237.29 Q1540.22 2240.37 1533.9 2240.37 Q1531.72 2240.37 1529.45 2240 Q1527.21 2239.63 1524.8 2238.89 L1524.8 2234.19 Q1526.88 2235.32 1529.11 2235.88 Q1531.33 2236.44 1533.81 2236.44 Q1537.81 2236.44 1540.15 2234.33 Q1542.49 2232.22 1542.49 2228.61 Q1542.49 2225 1540.15 2222.89 Q1537.81 2220.79 1533.81 2220.79 Q1531.93 2220.79 1530.06 2221.2 Q1528.2 2221.62 1526.26 2222.5 L1526.26 2205.14 Z" fill="#ffffff" fill-rule="evenodd" fill-opacity="1" /><path clip-path="url(#clip180)" d="M1566.37 2208.22 Q1562.76 2208.22 1560.93 2211.78 Q1559.13 2215.32 1559.13 2222.45 Q1559.13 2229.56 1560.93 2233.13 Q1562.76 2236.67 1566.37 2236.67 Q1570.01 2236.67 1571.81 2233.13 Q1573.64 2229.56 1573.64 2222.45 Q1573.64 2215.32 1571.81 2211.78 Q1570.01 2208.22 1566.37 2208.22 M1566.37 2204.51 Q1572.18 2204.51 1575.24 2209.12 Q1578.32 2213.7 1578.32 2222.45 Q1578.32 2231.18 1575.24 2235.79 Q1572.18 2240.37 1566.37 2240.37 Q1560.56 2240.37 1557.49 2235.79 Q1554.43 2231.18 1554.43 2222.45 Q1554.43 2213.7 1557.49 2209.12 Q1560.56 2204.51 1566.37 2204.51 Z" fill="#ffffff" fill-rule="evenodd" fill-opacity="1" /><path clip-path="url(#clip180)" d="M2097.38 2205.14 L2119.61 2205.14 L2119.61 2207.13 L2107.06 2239.7 L2102.18 2239.7 L2113.98 2209.08 L2097.38 2209.08 L2097.38 2205.14 Z" fill="#ffffff" fill-rule="evenodd" fill-opacity="1" /><path clip-path="url(#clip180)" d="M2128.77 2205.14 L2147.13 2205.14 L2147.13 2209.08 L2133.06 2209.08 L2133.06 2217.55 Q2134.07 2217.2 2135.09 2217.04 Q2136.11 2216.85 2137.13 2216.85 Q2142.92 2216.85 2146.3 2220.02 Q2149.68 2223.2 2149.68 2228.61 Q2149.68 2234.19 2146.2 2237.29 Q2142.73 2240.37 2136.41 2240.37 Q2134.24 2240.37 2131.97 2240 Q2129.72 2239.63 2127.31 2238.89 L2127.31 2234.19 Q2129.4 2235.32 2131.62 2235.88 Q2133.84 2236.44 2136.32 2236.44 Q2140.32 2236.44 2142.66 2234.33 Q2145 2232.22 2145 2228.61 Q2145 2225 2142.66 2222.89 Q2140.32 2220.79 2136.32 2220.79 Q2134.44 2220.79 2132.57 2221.2 Q2130.72 2221.62 2128.77 2222.5 L2128.77 2205.14 Z" fill="#ffffff" fill-rule="evenodd" fill-opacity="1" /><path clip-path="url(#clip180)" d="M2655.11 2235.76 L2662.75 2235.76 L2662.75 2209.4 L2654.44 2211.07 L2654.44 2206.81 L2662.7 2205.14 L2667.38 2205.14 L2667.38 2235.76 L2675.01 2235.76 L2675.01 2239.7 L2655.11 2239.7 L2655.11 2235.76 Z" fill="#ffffff" fill-rule="evenodd" fill-opacity="1" /><path clip-path="url(#clip180)" d="M2694.46 2208.22 Q2690.85 2208.22 2689.02 2211.78 Q2687.21 2215.32 2687.21 2222.45 Q2687.21 2229.56 2689.02 2233.13 Q2690.85 2236.67 2694.46 2236.67 Q2698.09 2236.67 2699.9 2233.13 Q2701.73 2229.56 2701.73 2222.45 Q2701.73 2215.32 2699.9 2211.78 Q2698.09 2208.22 2694.46 2208.22 M2694.46 2204.51 Q2700.27 2204.51 2703.32 2209.12 Q2706.4 2213.7 2706.4 2222.45 Q2706.4 2231.18 2703.32 2235.79 Q2700.27 2240.37 2694.46 2240.37 Q2688.65 2240.37 2685.57 2235.79 Q2682.51 2231.18 2682.51 2222.45 Q2682.51 2213.7 2685.57 2209.12 Q2688.65 2204.51 2694.46 2204.51 Z" fill="#ffffff" fill-rule="evenodd" fill-opacity="1" /><path clip-path="url(#clip180)" d="M2724.62 2208.22 Q2721.01 2208.22 2719.18 2211.78 Q2717.38 2215.32 2717.38 2222.45 Q2717.38 2229.56 2719.18 2233.13 Q2721.01 2236.67 2724.62 2236.67 Q2728.25 2236.67 2730.06 2233.13 Q2731.89 2229.56 2731.89 2222.45 Q2731.89 2215.32 2730.06 2211.78 Q2728.25 2208.22 2724.62 2208.22 M2724.62 2204.51 Q2730.43 2204.51 2733.49 2209.12 Q2736.56 2213.7 2736.56 2222.45 Q2736.56 2231.18 2733.49 2235.79 Q2730.43 2240.37 2724.62 2240.37 Q2718.81 2240.37 2715.73 2235.79 Q2712.68 2231.18 2712.68 2222.45 Q2712.68 2213.7 2715.73 2209.12 Q2718.81 2204.51 2724.62 2204.51 Z" fill="#ffffff" fill-rule="evenodd" fill-opacity="1" /><path clip-path="url(#clip180)" d="M1292.82 2298.49 Q1296.21 2299.64 1299.38 2303.39 Q1302.61 2307.14 1305.84 2313.7 L1316.52 2334.95 L1305.22 2334.95 L1295.27 2315 Q1291.42 2307.19 1287.77 2304.64 Q1284.18 2302.09 1277.93 2302.09 L1266.47 2302.09 L1266.47 2334.95 L1255.95 2334.95 L1255.95 2257.19 L1279.7 2257.19 Q1293.03 2257.19 1299.59 2262.76 Q1306.16 2268.34 1306.16 2279.59 Q1306.16 2286.93 1302.72 2291.77 Q1299.33 2296.62 1292.82 2298.49 M1266.47 2265.84 L1266.47 2293.44 L1279.7 2293.44 Q1287.3 2293.44 1291.16 2289.95 Q1295.06 2286.41 1295.06 2279.59 Q1295.06 2272.76 1291.16 2269.33 Q1287.3 2265.84 1279.7 2265.84 L1266.47 2265.84 Z" fill="#ffffff" fill-rule="evenodd" fill-opacity="1" /><path clip-path="url(#clip180)" d="M1374.75 2303.39 L1374.75 2308.08 L1330.69 2308.08 Q1331.31 2317.97 1336.62 2323.18 Q1341.99 2328.34 1351.52 2328.34 Q1357.04 2328.34 1362.2 2326.98 Q1367.41 2325.63 1372.51 2322.92 L1372.51 2331.98 Q1367.35 2334.17 1361.94 2335.32 Q1356.52 2336.46 1350.95 2336.46 Q1336.99 2336.46 1328.81 2328.34 Q1320.69 2320.21 1320.69 2306.36 Q1320.69 2292.04 1328.39 2283.65 Q1336.16 2275.21 1349.28 2275.21 Q1361.05 2275.21 1367.87 2282.82 Q1374.75 2290.37 1374.75 2303.39 M1365.17 2300.58 Q1365.06 2292.71 1360.74 2288.02 Q1356.47 2283.34 1349.38 2283.34 Q1341.36 2283.34 1336.52 2287.87 Q1331.73 2292.4 1331 2300.63 L1365.17 2300.58 Z" fill="#ffffff" fill-rule="evenodd" fill-opacity="1" /><path clip-path="url(#clip180)" d="M1390.48 2253.91 L1400.06 2253.91 L1400.06 2334.95 L1390.48 2334.95 L1390.48 2253.91 Z" fill="#ffffff" fill-rule="evenodd" fill-opacity="1" /><path clip-path="url(#clip180)" d="M1446.62 2305.63 Q1435.01 2305.63 1430.53 2308.29 Q1426.05 2310.94 1426.05 2317.35 Q1426.05 2322.45 1429.38 2325.47 Q1432.77 2328.44 1438.55 2328.44 Q1446.52 2328.44 1451.31 2322.82 Q1456.15 2317.14 1456.15 2307.76 L1456.15 2305.63 L1446.62 2305.63 M1465.74 2301.67 L1465.74 2334.95 L1456.15 2334.95 L1456.15 2326.1 Q1452.87 2331.41 1447.98 2333.96 Q1443.08 2336.46 1436 2336.46 Q1427.04 2336.46 1421.73 2331.46 Q1416.47 2326.41 1416.47 2317.97 Q1416.47 2308.13 1423.03 2303.13 Q1429.64 2298.13 1442.72 2298.13 L1456.15 2298.13 L1456.15 2297.19 Q1456.15 2290.58 1451.78 2286.98 Q1447.46 2283.34 1439.59 2283.34 Q1434.59 2283.34 1429.85 2284.54 Q1425.11 2285.73 1420.74 2288.13 L1420.74 2279.27 Q1426 2277.24 1430.95 2276.25 Q1435.89 2275.21 1440.58 2275.21 Q1453.24 2275.21 1459.49 2281.77 Q1465.74 2288.34 1465.74 2301.67 Z" fill="#ffffff" fill-rule="evenodd" fill-opacity="1" /><path clip-path="url(#clip180)" d="M1494.96 2260.06 L1494.96 2276.62 L1514.7 2276.62 L1514.7 2284.07 L1494.96 2284.07 L1494.96 2315.73 Q1494.96 2322.87 1496.88 2324.9 Q1498.86 2326.93 1504.85 2326.93 L1514.7 2326.93 L1514.7 2334.95 L1504.85 2334.95 Q1493.76 2334.95 1489.54 2330.84 Q1485.32 2326.67 1485.32 2315.73 L1485.32 2284.07 L1478.29 2284.07 L1478.29 2276.62 L1485.32 2276.62 L1485.32 2260.06 L1494.96 2260.06 Z" fill="#ffffff" fill-rule="evenodd" fill-opacity="1" /><path clip-path="url(#clip180)" d="M1527.3 2276.62 L1536.88 2276.62 L1536.88 2334.95 L1527.3 2334.95 L1527.3 2276.62 M1527.3 2253.91 L1536.88 2253.91 L1536.88 2266.05 L1527.3 2266.05 L1527.3 2253.91 Z" fill="#ffffff" fill-rule="evenodd" fill-opacity="1" /><path clip-path="url(#clip180)" d="M1550.06 2276.62 L1560.22 2276.62 L1578.45 2325.58 L1596.67 2276.62 L1606.83 2276.62 L1584.96 2334.95 L1571.94 2334.95 L1550.06 2276.62 Z" fill="#ffffff" fill-rule="evenodd" fill-opacity="1" /><path clip-path="url(#clip180)" d="M1669.96 2303.39 L1669.96 2308.08 L1625.89 2308.08 Q1626.52 2317.97 1631.83 2323.18 Q1637.2 2328.34 1646.73 2328.34 Q1652.25 2328.34 1657.4 2326.98 Q1662.61 2325.63 1667.72 2322.92 L1667.72 2331.98 Q1662.56 2334.17 1657.14 2335.32 Q1651.73 2336.46 1646.15 2336.46 Q1632.2 2336.46 1624.02 2328.34 Q1615.89 2320.21 1615.89 2306.36 Q1615.89 2292.04 1623.6 2283.65 Q1631.36 2275.21 1644.49 2275.21 Q1656.26 2275.21 1663.08 2282.82 Q1669.96 2290.37 1669.96 2303.39 M1660.37 2300.58 Q1660.27 2292.71 1655.95 2288.02 Q1651.67 2283.34 1644.59 2283.34 Q1636.57 2283.34 1631.73 2287.87 Q1626.94 2292.4 1626.21 2300.63 L1660.37 2300.58 Z" fill="#ffffff" fill-rule="evenodd" fill-opacity="1" /><path clip-path="url(#clip180)" d="M1719.59 2276.62 L1729.17 2276.62 L1729.17 2334.95 L1719.59 2334.95 L1719.59 2276.62 M1719.59 2253.91 L1729.17 2253.91 L1729.17 2266.05 L1719.59 2266.05 L1719.59 2253.91 Z" fill="#ffffff" fill-rule="evenodd" fill-opacity="1" /><path clip-path="url(#clip180)" d="M1797.72 2299.74 L1797.72 2334.95 L1788.13 2334.95 L1788.13 2300.06 Q1788.13 2291.77 1784.9 2287.66 Q1781.67 2283.55 1775.22 2283.55 Q1767.46 2283.55 1762.98 2288.49 Q1758.5 2293.44 1758.5 2301.98 L1758.5 2334.95 L1748.86 2334.95 L1748.86 2276.62 L1758.5 2276.62 L1758.5 2285.68 Q1761.93 2280.42 1766.57 2277.82 Q1771.26 2275.21 1777.35 2275.21 Q1787.4 2275.21 1792.56 2281.46 Q1797.72 2287.66 1797.72 2299.74 Z" fill="#ffffff" fill-rule="evenodd" fill-opacity="1" /><path clip-path="url(#clip180)" d="M1858.81 2278.86 L1858.81 2287.82 Q1854.75 2285.58 1850.63 2284.48 Q1846.57 2283.34 1842.4 2283.34 Q1833.08 2283.34 1827.92 2289.27 Q1822.77 2295.16 1822.77 2305.84 Q1822.77 2316.51 1827.92 2322.45 Q1833.08 2328.34 1842.4 2328.34 Q1846.57 2328.34 1850.63 2327.24 Q1854.75 2326.1 1858.81 2323.86 L1858.81 2332.71 Q1854.8 2334.59 1850.48 2335.52 Q1846.2 2336.46 1841.36 2336.46 Q1828.18 2336.46 1820.42 2328.18 Q1812.66 2319.9 1812.66 2305.84 Q1812.66 2291.57 1820.48 2283.39 Q1828.34 2275.21 1841.99 2275.21 Q1846.41 2275.21 1850.63 2276.15 Q1854.85 2277.04 1858.81 2278.86 Z" fill="#ffffff" fill-rule="evenodd" fill-opacity="1" /><path clip-path="url(#clip180)" d="M1898.08 2283.34 Q1890.37 2283.34 1885.89 2289.38 Q1881.41 2295.37 1881.41 2305.84 Q1881.41 2316.31 1885.84 2322.35 Q1890.32 2328.34 1898.08 2328.34 Q1905.74 2328.34 1910.21 2322.3 Q1914.69 2316.25 1914.69 2305.84 Q1914.69 2295.47 1910.21 2289.43 Q1905.74 2283.34 1898.08 2283.34 M1898.08 2275.21 Q1910.58 2275.21 1917.71 2283.34 Q1924.85 2291.46 1924.85 2305.84 Q1924.85 2320.16 1917.71 2328.34 Q1910.58 2336.46 1898.08 2336.46 Q1885.53 2336.46 1878.39 2328.34 Q1871.31 2320.16 1871.31 2305.84 Q1871.31 2291.46 1878.39 2283.34 Q1885.53 2275.21 1898.08 2275.21 Z" fill="#ffffff" fill-rule="evenodd" fill-opacity="1" /><path clip-path="url(#clip180)" d="M1986.15 2287.82 Q1989.75 2281.36 1994.75 2278.29 Q1999.75 2275.21 2006.52 2275.21 Q2015.63 2275.21 2020.58 2281.62 Q2025.53 2287.97 2025.53 2299.74 L2025.53 2334.95 L2015.89 2334.95 L2015.89 2300.06 Q2015.89 2291.67 2012.92 2287.61 Q2009.95 2283.55 2003.86 2283.55 Q1996.41 2283.55 1992.09 2288.49 Q1987.77 2293.44 1987.77 2301.98 L1987.77 2334.95 L1978.13 2334.95 L1978.13 2300.06 Q1978.13 2291.62 1975.16 2287.61 Q1972.19 2283.55 1966 2283.55 Q1958.65 2283.55 1954.33 2288.55 Q1950.01 2293.49 1950.01 2301.98 L1950.01 2334.95 L1940.37 2334.95 L1940.37 2276.62 L1950.01 2276.62 L1950.01 2285.68 Q1953.29 2280.32 1957.87 2277.76 Q1962.45 2275.21 1968.76 2275.21 Q1975.11 2275.21 1979.54 2278.44 Q1984.02 2281.67 1986.15 2287.82 Z" fill="#ffffff" fill-rule="evenodd" fill-opacity="1" /><path clip-path="url(#clip180)" d="M2094.54 2303.39 L2094.54 2308.08 L2050.47 2308.08 Q2051.1 2317.97 2056.41 2323.18 Q2061.78 2328.34 2071.31 2328.34 Q2076.83 2328.34 2081.98 2326.98 Q2087.19 2325.63 2092.3 2322.92 L2092.3 2331.98 Q2087.14 2334.17 2081.72 2335.32 Q2076.31 2336.46 2070.73 2336.46 Q2056.78 2336.46 2048.6 2328.34 Q2040.47 2320.21 2040.47 2306.36 Q2040.47 2292.04 2048.18 2283.65 Q2055.94 2275.21 2069.07 2275.21 Q2080.84 2275.21 2087.66 2282.82 Q2094.54 2290.37 2094.54 2303.39 M2084.95 2300.58 Q2084.85 2292.71 2080.53 2288.02 Q2076.26 2283.34 2069.17 2283.34 Q2061.15 2283.34 2056.31 2287.87 Q2051.52 2292.4 2050.79 2300.63 L2084.95 2300.58 Z" fill="#ffffff" fill-rule="evenodd" fill-opacity="1" /><path clip-path="url(#clip180)" d="M2161.68 2267.5 Q2161.68 2269.81 2159.78 2271.55 Q2157.94 2273.24 2155.94 2273.24 Q2154.09 2273.24 2152.93 2272.13 Q2151.83 2270.97 2151.83 2269.34 Q2151.83 2267.18 2153.67 2265.39 Q2155.52 2263.6 2157.68 2263.6 Q2159.47 2263.6 2160.58 2264.7 Q2161.68 2265.81 2161.68 2267.5 M2162.63 2319.51 Q2162.63 2319.93 2162.16 2321.62 Q2161.68 2323.25 2160.52 2325.78 Q2159.42 2328.26 2157.89 2330.58 Q2156.36 2332.9 2153.83 2334.53 Q2151.35 2336.16 2148.51 2336.16 Q2144.66 2336.16 2142.13 2333.63 Q2139.65 2331.1 2139.65 2327.31 Q2139.65 2325.25 2142.13 2318.67 Q2149.3 2299.48 2149.56 2298.69 Q2150.77 2295.69 2150.77 2293.05 Q2150.77 2291.84 2150.51 2291.1 Q2150.25 2290.31 2149.72 2290.05 Q2149.19 2289.73 2148.88 2289.68 Q2148.61 2289.63 2148.09 2289.63 Q2144.98 2289.63 2142.08 2292.79 Q2139.18 2295.95 2137.18 2303.02 Q2136.75 2304.33 2136.49 2304.65 Q2136.23 2304.97 2135.44 2304.97 Q2134.12 2304.91 2134.12 2303.86 Q2134.12 2303.54 2134.49 2302.33 Q2134.86 2301.07 2135.54 2299.17 Q2136.23 2297.22 2137.44 2295.22 Q2138.65 2293.16 2140.13 2291.37 Q2141.66 2289.58 2143.82 2288.42 Q2145.98 2287.26 2148.4 2287.26 Q2152.35 2287.26 2154.78 2289.84 Q2157.26 2292.37 2157.26 2296.11 Q2157.26 2298.17 2155.83 2301.8 Q2154.09 2306.55 2153.46 2308.07 L2149.24 2319.41 Q2147.72 2323.52 2147.24 2324.78 Q2146.82 2325.99 2146.45 2327.47 Q2146.14 2328.89 2146.14 2330.21 Q2146.14 2332.05 2146.72 2332.9 Q2147.35 2333.74 2148.72 2333.74 Q2152.51 2333.74 2155.31 2330 Q2158.1 2326.2 2159.73 2320.41 Q2159.78 2320.25 2159.84 2319.98 Q2160.26 2318.67 2160.68 2318.51 Q2160.89 2318.46 2161.31 2318.46 Q2162.63 2318.46 2162.63 2319.51 Z" fill="#ffffff" fill-rule="evenodd" fill-opacity="1" /><path clip-path="url(#clip180)" d="M2213.34 2334.67 Q2213.34 2340.06 2210.61 2345.26 Q2207.92 2350.46 2203.68 2353.67 Q2199.43 2356.84 2195.12 2356.84 Q2192.54 2356.84 2190.8 2355.44 Q2189.1 2354 2188.18 2351.98 Q2187.48 2354.48 2185.97 2360.5 Q2184.46 2366.51 2184.46 2367.1 Q2184.46 2367.43 2184.53 2367.58 Q2184.6 2367.73 2184.94 2367.91 Q2185.27 2368.13 2186.08 2368.21 Q2186.89 2368.32 2188.26 2368.32 Q2188.96 2368.32 2189.22 2368.32 Q2189.51 2368.35 2189.77 2368.54 Q2190.06 2368.72 2190.06 2369.13 Q2190.06 2370.64 2188.7 2370.64 Q2187.48 2370.64 2184.97 2370.53 Q2182.46 2370.42 2181.21 2370.42 Q2180.14 2370.42 2178 2370.53 Q2175.86 2370.64 2174.87 2370.64 Q2173.87 2370.64 2173.87 2369.76 Q2173.87 2369.24 2174.02 2368.91 Q2174.13 2368.61 2174.42 2368.47 Q2174.72 2368.35 2174.98 2368.32 Q2175.2 2368.32 2175.64 2368.32 Q2177.34 2368.32 2178.07 2368.02 Q2178.81 2367.76 2179.07 2367.21 Q2179.37 2366.69 2179.7 2365.22 L2188.18 2331.57 Q2188.7 2329.32 2188.7 2327.74 Q2188.7 2325.75 2188.07 2325.01 Q2187.44 2324.27 2186.34 2324.27 Q2184.42 2324.27 2183.17 2326.56 Q2181.91 2328.84 2180.84 2333.27 Q2180.51 2334.49 2180.29 2334.75 Q2180.1 2335.01 2179.55 2335.01 Q2178.63 2334.97 2178.63 2334.23 Q2178.63 2334.05 2178.92 2332.87 Q2179.22 2331.65 2179.77 2329.88 Q2180.36 2328.07 2180.99 2326.93 Q2181.36 2326.15 2181.69 2325.64 Q2182.02 2325.12 2182.69 2324.31 Q2183.39 2323.5 2184.38 2323.05 Q2185.38 2322.61 2186.6 2322.61 Q2188.96 2322.61 2190.91 2324.01 Q2192.87 2325.41 2193.38 2328.25 Q2195.49 2325.78 2198.07 2324.2 Q2200.65 2322.61 2203.27 2322.61 Q2207.62 2322.61 2210.46 2326 Q2213.34 2329.36 2213.34 2334.67 M2207.88 2331.35 Q2207.88 2328 2206.59 2326.15 Q2205.34 2324.27 2203.05 2324.27 Q2200.21 2324.27 2196.93 2327.15 Q2193.68 2329.88 2193.02 2332.42 L2189.29 2347.22 L2189.07 2348.43 Q2189.07 2348.66 2189.18 2349.32 Q2189.33 2349.95 2189.73 2350.98 Q2190.17 2352.01 2190.76 2352.93 Q2191.39 2353.82 2192.5 2354.48 Q2193.64 2355.15 2195.04 2355.15 Q2197.29 2355.15 2199.73 2353.16 Q2202.2 2351.16 2204.05 2347.4 Q2205.19 2344.97 2206.52 2339.73 Q2207.88 2334.45 2207.88 2331.35 Z" fill="#ffffff" fill-rule="evenodd" fill-opacity="1" /><polyline clip-path="url(#clip183)" style="stroke:#ffffff; stroke-linecap:round; stroke-linejoin:round; stroke-width:2; stroke-opacity:0.1; fill:none" points="327.664,2170.9 3152.76,2170.9 "/>
<polyline clip-path="url(#clip183)" style="stroke:#ffffff; stroke-linecap:round; stroke-linejoin:round; stroke-width:2; stroke-opacity:0.1; fill:none" points="327.664,1814.04 3152.76,1814.04 "/>
<polyline clip-path="url(#clip183)" style="stroke:#ffffff; stroke-linecap:round; stroke-linejoin:round; stroke-width:2; stroke-opacity:0.1; fill:none" points="327.664,1457.18 3152.76,1457.18 "/>
<polyline clip-path="url(#clip183)" style="stroke:#ffffff; stroke-linecap:round; stroke-linejoin:round; stroke-width:2; stroke-opacity:0.1; fill:none" points="327.664,1100.31 3152.76,1100.31 "/>
<polyline clip-path="url(#clip183)" style="stroke:#ffffff; stroke-linecap:round; stroke-linejoin:round; stroke-width:2; stroke-opacity:0.1; fill:none" points="327.664,743.451 3152.76,743.451 "/>
<polyline clip-path="url(#clip183)" style="stroke:#ffffff; stroke-linecap:round; stroke-linejoin:round; stroke-width:2; stroke-opacity:0.1; fill:none" points="327.664,386.588 3152.76,386.588 "/>
<polyline clip-path="url(#clip180)" style="stroke:#ffffff; stroke-linecap:round; stroke-linejoin:round; stroke-width:4; stroke-opacity:1; fill:none" points="327.664,2170.9 327.664,131.032 "/>
<polyline clip-path="url(#clip180)" style="stroke:#ffffff; stroke-linecap:round; stroke-linejoin:round; stroke-width:4; stroke-opacity:1; fill:none" points="327.664,2170.9 346.562,2170.9 "/>
<polyline clip-path="url(#clip180)" style="stroke:#ffffff; stroke-linecap:round; stroke-linejoin:round; stroke-width:4; stroke-opacity:1; fill:none" points="327.664,1814.04 346.562,1814.04 "/>
<polyline clip-path="url(#clip180)" style="stroke:#ffffff; stroke-linecap:round; stroke-linejoin:round; stroke-width:4; stroke-opacity:1; fill:none" points="327.664,1457.18 346.562,1457.18 "/>
<polyline clip-path="url(#clip180)" style="stroke:#ffffff; stroke-linecap:round; stroke-linejoin:round; stroke-width:4; stroke-opacity:1; fill:none" points="327.664,1100.31 346.562,1100.31 "/>
<polyline clip-path="url(#clip180)" style="stroke:#ffffff; stroke-linecap:round; stroke-linejoin:round; stroke-width:4; stroke-opacity:1; fill:none" points="327.664,743.451 346.562,743.451 "/>
<polyline clip-path="url(#clip180)" style="stroke:#ffffff; stroke-linecap:round; stroke-linejoin:round; stroke-width:4; stroke-opacity:1; fill:none" points="327.664,386.588 346.562,386.588 "/>
<path clip-path="url(#clip180)" d="M162.165 2156.7 Q158.553 2156.7 156.725 2160.26 Q154.919 2163.8 154.919 2170.93 Q154.919 2178.04 156.725 2181.61 Q158.553 2185.15 162.165 2185.15 Q165.799 2185.15 167.604 2181.61 Q169.433 2178.04 169.433 2170.93 Q169.433 2163.8 167.604 2160.26 Q165.799 2156.7 162.165 2156.7 M162.165 2152.99 Q167.975 2152.99 171.03 2157.6 Q174.109 2162.18 174.109 2170.93 Q174.109 2179.66 171.03 2184.27 Q167.975 2188.85 162.165 2188.85 Q156.354 2188.85 153.276 2184.27 Q150.22 2179.66 150.22 2170.93 Q150.22 2162.18 153.276 2157.6 Q156.354 2152.99 162.165 2152.99 Z" fill="#ffffff" fill-rule="evenodd" fill-opacity="1" /><path clip-path="url(#clip180)" d="M182.326 2182.3 L187.211 2182.3 L187.211 2188.18 L182.326 2188.18 L182.326 2182.3 Z" fill="#ffffff" fill-rule="evenodd" fill-opacity="1" /><path clip-path="url(#clip180)" d="M207.396 2156.7 Q203.785 2156.7 201.956 2160.26 Q200.15 2163.8 200.15 2170.93 Q200.15 2178.04 201.956 2181.61 Q203.785 2185.15 207.396 2185.15 Q211.03 2185.15 212.836 2181.61 Q214.664 2178.04 214.664 2170.93 Q214.664 2163.8 212.836 2160.26 Q211.03 2156.7 207.396 2156.7 M207.396 2152.99 Q213.206 2152.99 216.261 2157.6 Q219.34 2162.18 219.34 2170.93 Q219.34 2179.66 216.261 2184.27 Q213.206 2188.85 207.396 2188.85 Q201.586 2188.85 198.507 2184.27 Q195.451 2179.66 195.451 2170.93 Q195.451 2162.18 198.507 2157.6 Q201.586 2152.99 207.396 2152.99 Z" fill="#ffffff" fill-rule="evenodd" fill-opacity="1" /><path clip-path="url(#clip180)" d="M237.558 2156.7 Q233.947 2156.7 232.118 2160.26 Q230.312 2163.8 230.312 2170.93 Q230.312 2178.04 232.118 2181.61 Q233.947 2185.15 237.558 2185.15 Q241.192 2185.15 242.997 2181.61 Q244.826 2178.04 244.826 2170.93 Q244.826 2163.8 242.997 2160.26 Q241.192 2156.7 237.558 2156.7 M237.558 2152.99 Q243.368 2152.99 246.423 2157.6 Q249.502 2162.18 249.502 2170.93 Q249.502 2179.66 246.423 2184.27 Q243.368 2188.85 237.558 2188.85 Q231.747 2188.85 228.669 2184.27 Q225.613 2179.66 225.613 2170.93 Q225.613 2162.18 228.669 2157.6 Q231.747 2152.99 237.558 2152.99 Z" fill="#ffffff" fill-rule="evenodd" fill-opacity="1" /><path clip-path="url(#clip180)" d="M267.72 2156.7 Q264.108 2156.7 262.28 2160.26 Q260.474 2163.8 260.474 2170.93 Q260.474 2178.04 262.28 2181.61 Q264.108 2185.15 267.72 2185.15 Q271.354 2185.15 273.159 2181.61 Q274.988 2178.04 274.988 2170.93 Q274.988 2163.8 273.159 2160.26 Q271.354 2156.7 267.72 2156.7 M267.72 2152.99 Q273.53 2152.99 276.585 2157.6 Q279.664 2162.18 279.664 2170.93 Q279.664 2179.66 276.585 2184.27 Q273.53 2188.85 267.72 2188.85 Q261.909 2188.85 258.831 2184.27 Q255.775 2179.66 255.775 2170.93 Q255.775 2162.18 258.831 2157.6 Q261.909 2152.99 267.72 2152.99 Z" fill="#ffffff" fill-rule="evenodd" fill-opacity="1" /><path clip-path="url(#clip180)" d="M163.16 1799.84 Q159.549 1799.84 157.72 1803.4 Q155.915 1806.94 155.915 1814.07 Q155.915 1821.18 157.72 1824.74 Q159.549 1828.29 163.16 1828.29 Q166.794 1828.29 168.6 1824.74 Q170.428 1821.18 170.428 1814.07 Q170.428 1806.94 168.6 1803.4 Q166.794 1799.84 163.16 1799.84 M163.16 1796.13 Q168.97 1796.13 172.026 1800.74 Q175.104 1805.32 175.104 1814.07 Q175.104 1822.8 172.026 1827.41 Q168.97 1831.99 163.16 1831.99 Q157.35 1831.99 154.271 1827.41 Q151.216 1822.8 151.216 1814.07 Q151.216 1805.32 154.271 1800.74 Q157.35 1796.13 163.16 1796.13 Z" fill="#ffffff" fill-rule="evenodd" fill-opacity="1" /><path clip-path="url(#clip180)" d="M183.322 1825.44 L188.206 1825.44 L188.206 1831.32 L183.322 1831.32 L183.322 1825.44 Z" fill="#ffffff" fill-rule="evenodd" fill-opacity="1" /><path clip-path="url(#clip180)" d="M208.391 1799.84 Q204.78 1799.84 202.951 1803.4 Q201.146 1806.94 201.146 1814.07 Q201.146 1821.18 202.951 1824.74 Q204.78 1828.29 208.391 1828.29 Q212.025 1828.29 213.831 1824.74 Q215.66 1821.18 215.66 1814.07 Q215.66 1806.94 213.831 1803.4 Q212.025 1799.84 208.391 1799.84 M208.391 1796.13 Q214.201 1796.13 217.257 1800.74 Q220.336 1805.32 220.336 1814.07 Q220.336 1822.8 217.257 1827.41 Q214.201 1831.99 208.391 1831.99 Q202.581 1831.99 199.502 1827.41 Q196.447 1822.8 196.447 1814.07 Q196.447 1805.32 199.502 1800.74 Q202.581 1796.13 208.391 1796.13 Z" fill="#ffffff" fill-rule="evenodd" fill-opacity="1" /><path clip-path="url(#clip180)" d="M238.553 1799.84 Q234.942 1799.84 233.113 1803.4 Q231.308 1806.94 231.308 1814.07 Q231.308 1821.18 233.113 1824.74 Q234.942 1828.29 238.553 1828.29 Q242.187 1828.29 243.993 1824.74 Q245.821 1821.18 245.821 1814.07 Q245.821 1806.94 243.993 1803.4 Q242.187 1799.84 238.553 1799.84 M238.553 1796.13 Q244.363 1796.13 247.419 1800.74 Q250.497 1805.32 250.497 1814.07 Q250.497 1822.8 247.419 1827.41 Q244.363 1831.99 238.553 1831.99 Q232.743 1831.99 229.664 1827.41 Q226.609 1822.8 226.609 1814.07 Q226.609 1805.32 229.664 1800.74 Q232.743 1796.13 238.553 1796.13 Z" fill="#ffffff" fill-rule="evenodd" fill-opacity="1" /><path clip-path="url(#clip180)" d="M258.761 1796.76 L277.118 1796.76 L277.118 1800.69 L263.044 1800.69 L263.044 1809.16 Q264.062 1808.82 265.081 1808.66 Q266.099 1808.47 267.118 1808.47 Q272.905 1808.47 276.284 1811.64 Q279.664 1814.81 279.664 1820.23 Q279.664 1825.81 276.192 1828.91 Q272.72 1831.99 266.4 1831.99 Q264.224 1831.99 261.956 1831.62 Q259.71 1831.25 257.303 1830.51 L257.303 1825.81 Q259.386 1826.94 261.608 1827.5 Q263.831 1828.05 266.307 1828.05 Q270.312 1828.05 272.65 1825.95 Q274.988 1823.84 274.988 1820.23 Q274.988 1816.62 272.65 1814.51 Q270.312 1812.41 266.307 1812.41 Q264.433 1812.41 262.558 1812.82 Q260.706 1813.24 258.761 1814.12 L258.761 1796.76 Z" fill="#ffffff" fill-rule="evenodd" fill-opacity="1" /><path clip-path="url(#clip180)" d="M162.165 1442.97 Q158.553 1442.97 156.725 1446.54 Q154.919 1450.08 154.919 1457.21 Q154.919 1464.32 156.725 1467.88 Q158.553 1471.42 162.165 1471.42 Q165.799 1471.42 167.604 1467.88 Q169.433 1464.32 169.433 1457.21 Q169.433 1450.08 167.604 1446.54 Q165.799 1442.97 162.165 1442.97 M162.165 1439.27 Q167.975 1439.27 171.03 1443.88 Q174.109 1448.46 174.109 1457.21 Q174.109 1465.94 171.03 1470.54 Q167.975 1475.13 162.165 1475.13 Q156.354 1475.13 153.276 1470.54 Q150.22 1465.94 150.22 1457.21 Q150.22 1448.46 153.276 1443.88 Q156.354 1439.27 162.165 1439.27 Z" fill="#ffffff" fill-rule="evenodd" fill-opacity="1" /><path clip-path="url(#clip180)" d="M182.326 1468.58 L187.211 1468.58 L187.211 1474.46 L182.326 1474.46 L182.326 1468.58 Z" fill="#ffffff" fill-rule="evenodd" fill-opacity="1" /><path clip-path="url(#clip180)" d="M207.396 1442.97 Q203.785 1442.97 201.956 1446.54 Q200.15 1450.08 200.15 1457.21 Q200.15 1464.32 201.956 1467.88 Q203.785 1471.42 207.396 1471.42 Q211.03 1471.42 212.836 1467.88 Q214.664 1464.32 214.664 1457.21 Q214.664 1450.08 212.836 1446.54 Q211.03 1442.97 207.396 1442.97 M207.396 1439.27 Q213.206 1439.27 216.261 1443.88 Q219.34 1448.46 219.34 1457.21 Q219.34 1465.94 216.261 1470.54 Q213.206 1475.13 207.396 1475.13 Q201.586 1475.13 198.507 1470.54 Q195.451 1465.94 195.451 1457.21 Q195.451 1448.46 198.507 1443.88 Q201.586 1439.27 207.396 1439.27 Z" fill="#ffffff" fill-rule="evenodd" fill-opacity="1" /><path clip-path="url(#clip180)" d="M228.368 1470.52 L236.007 1470.52 L236.007 1444.15 L227.697 1445.82 L227.697 1441.56 L235.96 1439.9 L240.636 1439.9 L240.636 1470.52 L248.275 1470.52 L248.275 1474.46 L228.368 1474.46 L228.368 1470.52 Z" fill="#ffffff" fill-rule="evenodd" fill-opacity="1" /><path clip-path="url(#clip180)" d="M267.72 1442.97 Q264.108 1442.97 262.28 1446.54 Q260.474 1450.08 260.474 1457.21 Q260.474 1464.32 262.28 1467.88 Q264.108 1471.42 267.72 1471.42 Q271.354 1471.42 273.159 1467.88 Q274.988 1464.32 274.988 1457.21 Q274.988 1450.08 273.159 1446.54 Q271.354 1442.97 267.72 1442.97 M267.72 1439.27 Q273.53 1439.27 276.585 1443.88 Q279.664 1448.46 279.664 1457.21 Q279.664 1465.94 276.585 1470.54 Q273.53 1475.13 267.72 1475.13 Q261.909 1475.13 258.831 1470.54 Q255.775 1465.94 255.775 1457.21 Q255.775 1448.46 258.831 1443.88 Q261.909 1439.27 267.72 1439.27 Z" fill="#ffffff" fill-rule="evenodd" fill-opacity="1" /><path clip-path="url(#clip180)" d="M163.16 1086.11 Q159.549 1086.11 157.72 1089.68 Q155.915 1093.22 155.915 1100.35 Q155.915 1107.45 157.72 1111.02 Q159.549 1114.56 163.16 1114.56 Q166.794 1114.56 168.6 1111.02 Q170.428 1107.45 170.428 1100.35 Q170.428 1093.22 168.6 1089.68 Q166.794 1086.11 163.16 1086.11 M163.16 1082.41 Q168.97 1082.41 172.026 1087.01 Q175.104 1091.6 175.104 1100.35 Q175.104 1109.07 172.026 1113.68 Q168.97 1118.26 163.16 1118.26 Q157.35 1118.26 154.271 1113.68 Q151.216 1109.07 151.216 1100.35 Q151.216 1091.6 154.271 1087.01 Q157.35 1082.41 163.16 1082.41 Z" fill="#ffffff" fill-rule="evenodd" fill-opacity="1" /><path clip-path="url(#clip180)" d="M183.322 1111.71 L188.206 1111.71 L188.206 1117.59 L183.322 1117.59 L183.322 1111.71 Z" fill="#ffffff" fill-rule="evenodd" fill-opacity="1" /><path clip-path="url(#clip180)" d="M208.391 1086.11 Q204.78 1086.11 202.951 1089.68 Q201.146 1093.22 201.146 1100.35 Q201.146 1107.45 202.951 1111.02 Q204.78 1114.56 208.391 1114.56 Q212.025 1114.56 213.831 1111.02 Q215.66 1107.45 215.66 1100.35 Q215.66 1093.22 213.831 1089.68 Q212.025 1086.11 208.391 1086.11 M208.391 1082.41 Q214.201 1082.41 217.257 1087.01 Q220.336 1091.6 220.336 1100.35 Q220.336 1109.07 217.257 1113.68 Q214.201 1118.26 208.391 1118.26 Q202.581 1118.26 199.502 1113.68 Q196.447 1109.07 196.447 1100.35 Q196.447 1091.6 199.502 1087.01 Q202.581 1082.41 208.391 1082.41 Z" fill="#ffffff" fill-rule="evenodd" fill-opacity="1" /><path clip-path="url(#clip180)" d="M229.363 1113.66 L237.002 1113.66 L237.002 1087.29 L228.692 1088.96 L228.692 1084.7 L236.956 1083.03 L241.632 1083.03 L241.632 1113.66 L249.271 1113.66 L249.271 1117.59 L229.363 1117.59 L229.363 1113.66 Z" fill="#ffffff" fill-rule="evenodd" fill-opacity="1" /><path clip-path="url(#clip180)" d="M258.761 1083.03 L277.118 1083.03 L277.118 1086.97 L263.044 1086.97 L263.044 1095.44 Q264.062 1095.09 265.081 1094.93 Q266.099 1094.75 267.118 1094.75 Q272.905 1094.75 276.284 1097.92 Q279.664 1101.09 279.664 1106.51 Q279.664 1112.08 276.192 1115.19 Q272.72 1118.26 266.4 1118.26 Q264.224 1118.26 261.956 1117.89 Q259.71 1117.52 257.303 1116.78 L257.303 1112.08 Q259.386 1113.22 261.608 1113.77 Q263.831 1114.33 266.307 1114.33 Q270.312 1114.33 272.65 1112.22 Q274.988 1110.12 274.988 1106.51 Q274.988 1102.89 272.65 1100.79 Q270.312 1098.68 266.307 1098.68 Q264.433 1098.68 262.558 1099.1 Q260.706 1099.51 258.761 1100.39 L258.761 1083.03 Z" fill="#ffffff" fill-rule="evenodd" fill-opacity="1" /><path clip-path="url(#clip180)" d="M162.165 729.249 Q158.553 729.249 156.725 732.814 Q154.919 736.356 154.919 743.485 Q154.919 750.592 156.725 754.157 Q158.553 757.698 162.165 757.698 Q165.799 757.698 167.604 754.157 Q169.433 750.592 169.433 743.485 Q169.433 736.356 167.604 732.814 Q165.799 729.249 162.165 729.249 M162.165 725.546 Q167.975 725.546 171.03 730.152 Q174.109 734.735 174.109 743.485 Q174.109 752.212 171.03 756.819 Q167.975 761.402 162.165 761.402 Q156.354 761.402 153.276 756.819 Q150.22 752.212 150.22 743.485 Q150.22 734.735 153.276 730.152 Q156.354 725.546 162.165 725.546 Z" fill="#ffffff" fill-rule="evenodd" fill-opacity="1" /><path clip-path="url(#clip180)" d="M182.326 754.851 L187.211 754.851 L187.211 760.731 L182.326 760.731 L182.326 754.851 Z" fill="#ffffff" fill-rule="evenodd" fill-opacity="1" /><path clip-path="url(#clip180)" d="M207.396 729.249 Q203.785 729.249 201.956 732.814 Q200.15 736.356 200.15 743.485 Q200.15 750.592 201.956 754.157 Q203.785 757.698 207.396 757.698 Q211.03 757.698 212.836 754.157 Q214.664 750.592 214.664 743.485 Q214.664 736.356 212.836 732.814 Q211.03 729.249 207.396 729.249 M207.396 725.546 Q213.206 725.546 216.261 730.152 Q219.34 734.735 219.34 743.485 Q219.34 752.212 216.261 756.819 Q213.206 761.402 207.396 761.402 Q201.586 761.402 198.507 756.819 Q195.451 752.212 195.451 743.485 Q195.451 734.735 198.507 730.152 Q201.586 725.546 207.396 725.546 Z" fill="#ffffff" fill-rule="evenodd" fill-opacity="1" /><path clip-path="url(#clip180)" d="M231.585 756.795 L247.905 756.795 L247.905 760.731 L225.96 760.731 L225.96 756.795 Q228.623 754.041 233.206 749.411 Q237.812 744.758 238.993 743.416 Q241.238 740.893 242.118 739.157 Q243.021 737.397 243.021 735.708 Q243.021 732.953 241.076 731.217 Q239.155 729.481 236.053 729.481 Q233.854 729.481 231.4 730.245 Q228.97 731.009 226.192 732.559 L226.192 727.837 Q229.016 726.703 231.47 726.124 Q233.923 725.546 235.96 725.546 Q241.331 725.546 244.525 728.231 Q247.72 730.916 247.72 735.407 Q247.72 737.536 246.909 739.458 Q246.122 741.356 244.016 743.948 Q243.437 744.62 240.335 747.837 Q237.234 751.032 231.585 756.795 Z" fill="#ffffff" fill-rule="evenodd" fill-opacity="1" /><path clip-path="url(#clip180)" d="M267.72 729.249 Q264.108 729.249 262.28 732.814 Q260.474 736.356 260.474 743.485 Q260.474 750.592 262.28 754.157 Q264.108 757.698 267.72 757.698 Q271.354 757.698 273.159 754.157 Q274.988 750.592 274.988 743.485 Q274.988 736.356 273.159 732.814 Q271.354 729.249 267.72 729.249 M267.72 725.546 Q273.53 725.546 276.585 730.152 Q279.664 734.735 279.664 743.485 Q279.664 752.212 276.585 756.819 Q273.53 761.402 267.72 761.402 Q261.909 761.402 258.831 756.819 Q255.775 752.212 255.775 743.485 Q255.775 734.735 258.831 730.152 Q261.909 725.546 267.72 725.546 Z" fill="#ffffff" fill-rule="evenodd" fill-opacity="1" /><path clip-path="url(#clip180)" d="M163.16 372.387 Q159.549 372.387 157.72 375.952 Q155.915 379.493 155.915 386.623 Q155.915 393.729 157.72 397.294 Q159.549 400.836 163.16 400.836 Q166.794 400.836 168.6 397.294 Q170.428 393.729 170.428 386.623 Q170.428 379.493 168.6 375.952 Q166.794 372.387 163.16 372.387 M163.16 368.683 Q168.97 368.683 172.026 373.29 Q175.104 377.873 175.104 386.623 Q175.104 395.35 172.026 399.956 Q168.97 404.54 163.16 404.54 Q157.35 404.54 154.271 399.956 Q151.216 395.35 151.216 386.623 Q151.216 377.873 154.271 373.29 Q157.35 368.683 163.16 368.683 Z" fill="#ffffff" fill-rule="evenodd" fill-opacity="1" /><path clip-path="url(#clip180)" d="M183.322 397.989 L188.206 397.989 L188.206 403.868 L183.322 403.868 L183.322 397.989 Z" fill="#ffffff" fill-rule="evenodd" fill-opacity="1" /><path clip-path="url(#clip180)" d="M208.391 372.387 Q204.78 372.387 202.951 375.952 Q201.146 379.493 201.146 386.623 Q201.146 393.729 202.951 397.294 Q204.78 400.836 208.391 400.836 Q212.025 400.836 213.831 397.294 Q215.66 393.729 215.66 386.623 Q215.66 379.493 213.831 375.952 Q212.025 372.387 208.391 372.387 M208.391 368.683 Q214.201 368.683 217.257 373.29 Q220.336 377.873 220.336 386.623 Q220.336 395.35 217.257 399.956 Q214.201 404.54 208.391 404.54 Q202.581 404.54 199.502 399.956 Q196.447 395.35 196.447 386.623 Q196.447 377.873 199.502 373.29 Q202.581 368.683 208.391 368.683 Z" fill="#ffffff" fill-rule="evenodd" fill-opacity="1" /><path clip-path="url(#clip180)" d="M232.581 399.933 L248.9 399.933 L248.9 403.868 L226.956 403.868 L226.956 399.933 Q229.618 397.179 234.201 392.549 Q238.808 387.896 239.988 386.554 Q242.234 384.03 243.113 382.294 Q244.016 380.535 244.016 378.845 Q244.016 376.091 242.072 374.355 Q240.15 372.618 237.048 372.618 Q234.849 372.618 232.396 373.382 Q229.965 374.146 227.187 375.697 L227.187 370.975 Q230.011 369.841 232.465 369.262 Q234.919 368.683 236.956 368.683 Q242.326 368.683 245.521 371.368 Q248.715 374.054 248.715 378.544 Q248.715 380.674 247.905 382.595 Q247.118 384.493 245.011 387.086 Q244.433 387.757 241.331 390.975 Q238.229 394.169 232.581 399.933 Z" fill="#ffffff" fill-rule="evenodd" fill-opacity="1" /><path clip-path="url(#clip180)" d="M258.761 369.308 L277.118 369.308 L277.118 373.243 L263.044 373.243 L263.044 381.716 Q264.062 381.368 265.081 381.206 Q266.099 381.021 267.118 381.021 Q272.905 381.021 276.284 384.192 Q279.664 387.364 279.664 392.78 Q279.664 398.359 276.192 401.461 Q272.72 404.54 266.4 404.54 Q264.224 404.54 261.956 404.169 Q259.71 403.799 257.303 403.058 L257.303 398.359 Q259.386 399.493 261.608 400.049 Q263.831 400.604 266.307 400.604 Q270.312 400.604 272.65 398.498 Q274.988 396.391 274.988 392.78 Q274.988 389.169 272.65 387.063 Q270.312 384.956 266.307 384.956 Q264.433 384.956 262.558 385.373 Q260.706 385.79 258.761 386.669 L258.761 369.308 Z" fill="#ffffff" fill-rule="evenodd" fill-opacity="1" /><path clip-path="url(#clip180)" d="M8.75578 1767.38 L37.9744 1767.38 L37.9744 1754.15 Q37.9744 1746.8 34.1723 1742.79 Q30.3702 1738.78 23.339 1738.78 Q16.3599 1738.78 12.5578 1742.79 Q8.75578 1746.8 8.75578 1754.15 L8.75578 1767.38 M0.109991 1777.9 L0.109991 1754.15 Q0.109991 1741.07 6.04746 1734.41 Q11.9328 1727.69 23.339 1727.69 Q34.8494 1727.69 40.7348 1734.41 Q46.6202 1741.07 46.6202 1754.15 L46.6202 1767.38 L77.87 1767.38 L77.87 1777.9 L0.109991 1777.9 Z" fill="#ffffff" fill-rule="evenodd" fill-opacity="1" /><path clip-path="url(#clip180)" d="M28.4953 1682.06 Q27.5578 1683.68 27.1411 1685.61 Q26.6723 1687.48 26.6723 1689.77 Q26.6723 1697.9 31.9848 1702.27 Q37.2452 1706.59 47.141 1706.59 L77.87 1706.59 L77.87 1716.23 L19.537 1716.23 L19.537 1706.59 L28.5994 1706.59 Q23.2869 1703.57 20.7349 1698.73 Q18.1307 1693.89 18.1307 1686.96 Q18.1307 1685.97 18.287 1684.77 Q18.3911 1683.57 18.6516 1682.12 L28.4953 1682.06 Z" fill="#ffffff" fill-rule="evenodd" fill-opacity="1" /><path clip-path="url(#clip180)" d="M26.2557 1651.75 Q26.2557 1659.46 32.2973 1663.94 Q38.2869 1668.42 48.7556 1668.42 Q59.2243 1668.42 65.2659 1663.99 Q71.2554 1659.51 71.2554 1651.75 Q71.2554 1644.09 65.2138 1639.62 Q59.1722 1635.14 48.7556 1635.14 Q38.391 1635.14 32.3494 1639.62 Q26.2557 1644.09 26.2557 1651.75 M18.1307 1651.75 Q18.1307 1639.25 26.2557 1632.12 Q34.3806 1624.98 48.7556 1624.98 Q63.0784 1624.98 71.2554 1632.12 Q79.3804 1639.25 79.3804 1651.75 Q79.3804 1664.3 71.2554 1671.44 Q63.0784 1678.52 48.7556 1678.52 Q34.3806 1678.52 26.2557 1671.44 Q18.1307 1664.3 18.1307 1651.75 Z" fill="#ffffff" fill-rule="evenodd" fill-opacity="1" /><path clip-path="url(#clip180)" d="M48.7556 1567.22 Q38.1827 1567.22 32.1932 1571.6 Q26.1515 1575.92 26.1515 1583.52 Q26.1515 1591.13 32.1932 1595.5 Q38.1827 1599.82 48.7556 1599.82 Q59.3284 1599.82 65.3701 1595.5 Q71.3596 1591.13 71.3596 1583.52 Q71.3596 1575.92 65.3701 1571.6 Q59.3284 1567.22 48.7556 1567.22 M28.3911 1599.82 Q23.1828 1596.8 20.6828 1592.22 Q18.1307 1587.58 18.1307 1581.18 Q18.1307 1570.55 26.5682 1563.94 Q35.0056 1557.27 48.7556 1557.27 Q62.5055 1557.27 70.9429 1563.94 Q79.3804 1570.55 79.3804 1581.18 Q79.3804 1587.58 76.8804 1592.22 Q74.3283 1596.8 69.12 1599.82 L77.87 1599.82 L77.87 1609.46 L-3.17124 1609.46 L-3.17124 1599.82 L28.3911 1599.82 Z" fill="#ffffff" fill-rule="evenodd" fill-opacity="1" /><path clip-path="url(#clip180)" d="M48.5472 1514.88 Q48.5472 1526.49 51.2035 1530.97 Q53.8597 1535.45 60.2659 1535.45 Q65.3701 1535.45 68.3909 1532.12 Q71.3596 1528.73 71.3596 1522.95 Q71.3596 1514.98 65.7346 1510.19 Q60.0576 1505.35 50.6826 1505.35 L48.5472 1505.35 L48.5472 1514.88 M44.5889 1495.76 L77.87 1495.76 L77.87 1505.35 L69.0159 1505.35 Q74.3283 1508.63 76.8804 1513.52 Q79.3804 1518.42 79.3804 1525.5 Q79.3804 1534.46 74.3804 1539.77 Q69.3284 1545.03 60.8909 1545.03 Q51.0472 1545.03 46.0472 1538.47 Q41.0473 1531.86 41.0473 1518.78 L41.0473 1505.35 L40.1098 1505.35 Q33.4952 1505.35 29.9015 1509.72 Q26.2557 1514.04 26.2557 1521.91 Q26.2557 1526.91 27.4536 1531.65 Q28.6515 1536.39 31.0473 1540.76 L22.1932 1540.76 Q20.162 1535.5 19.1724 1530.55 Q18.1307 1525.61 18.1307 1520.92 Q18.1307 1508.26 24.6932 1502.01 Q31.2557 1495.76 44.5889 1495.76 Z" fill="#ffffff" fill-rule="evenodd" fill-opacity="1" /><path clip-path="url(#clip180)" d="M48.7556 1434.15 Q38.1827 1434.15 32.1932 1438.52 Q26.1515 1442.85 26.1515 1450.45 Q26.1515 1458.05 32.1932 1462.43 Q38.1827 1466.75 48.7556 1466.75 Q59.3284 1466.75 65.3701 1462.43 Q71.3596 1458.05 71.3596 1450.45 Q71.3596 1442.85 65.3701 1438.52 Q59.3284 1434.15 48.7556 1434.15 M28.3911 1466.75 Q23.1828 1463.73 20.6828 1459.15 Q18.1307 1454.51 18.1307 1448.11 Q18.1307 1437.48 26.5682 1430.87 Q35.0056 1424.2 48.7556 1424.2 Q62.5055 1424.2 70.9429 1430.87 Q79.3804 1437.48 79.3804 1448.11 Q79.3804 1454.51 76.8804 1459.15 Q74.3283 1463.73 69.12 1466.75 L77.87 1466.75 L77.87 1476.39 L-3.17124 1476.39 L-3.17124 1466.75 L28.3911 1466.75 Z" fill="#ffffff" fill-rule="evenodd" fill-opacity="1" /><path clip-path="url(#clip180)" d="M19.537 1408.31 L19.537 1398.73 L77.87 1398.73 L77.87 1408.31 L19.537 1408.31 M-3.17124 1408.31 L-3.17124 1398.73 L8.96411 1398.73 L8.96411 1408.31 L-3.17124 1408.31 Z" fill="#ffffff" fill-rule="evenodd" fill-opacity="1" /><path clip-path="url(#clip180)" d="M-3.17124 1378.68 L-3.17124 1369.1 L77.87 1369.1 L77.87 1378.68 L-3.17124 1378.68 Z" fill="#ffffff" fill-rule="evenodd" fill-opacity="1" /><path clip-path="url(#clip180)" d="M19.537 1349.04 L19.537 1339.46 L77.87 1339.46 L77.87 1349.04 L19.537 1349.04 M-3.17124 1349.04 L-3.17124 1339.46 L8.96411 1339.46 L8.96411 1349.04 L-3.17124 1349.04 Z" fill="#ffffff" fill-rule="evenodd" fill-opacity="1" /><path clip-path="url(#clip180)" d="M2.97456 1309.93 L19.537 1309.93 L19.537 1290.19 L26.9848 1290.19 L26.9848 1309.93 L58.6513 1309.93 Q65.7867 1309.93 67.818 1308 Q69.8492 1306.02 69.8492 1300.03 L69.8492 1290.19 L77.87 1290.19 L77.87 1300.03 Q77.87 1311.13 73.7554 1315.35 Q69.5888 1319.57 58.6513 1319.57 L26.9848 1319.57 L26.9848 1326.6 L19.537 1326.6 L19.537 1319.57 L2.97456 1319.57 L2.97456 1309.93 Z" fill="#ffffff" fill-rule="evenodd" fill-opacity="1" /><path clip-path="url(#clip180)" d="M83.2866 1253.32 Q93.7032 1257.38 96.8803 1261.23 Q100.057 1265.09 100.057 1271.54 L100.057 1279.2 L92.0366 1279.2 L92.0366 1273.58 Q92.0366 1269.62 90.1616 1267.43 Q88.2866 1265.24 81.3075 1262.59 L76.9325 1260.87 L19.537 1284.46 L19.537 1274.31 L65.1617 1256.08 L19.537 1237.85 L19.537 1227.69 L83.2866 1253.32 Z" fill="#ffffff" fill-rule="evenodd" fill-opacity="1" /><path clip-path="url(#clip180)" d="M28.3911 1142.17 L-3.17124 1142.17 L-3.17124 1132.59 L77.87 1132.59 L77.87 1142.17 L69.12 1142.17 Q74.3283 1145.19 76.8804 1149.83 Q79.3804 1154.41 79.3804 1160.87 Q79.3804 1171.44 70.9429 1178.11 Q62.5055 1184.72 48.7556 1184.72 Q35.0056 1184.72 26.5682 1178.11 Q18.1307 1171.44 18.1307 1160.87 Q18.1307 1154.41 20.6828 1149.83 Q23.1828 1145.19 28.3911 1142.17 M48.7556 1174.83 Q59.3284 1174.83 65.3701 1170.5 Q71.3596 1166.13 71.3596 1158.52 Q71.3596 1150.92 65.3701 1146.55 Q59.3284 1142.17 48.7556 1142.17 Q38.1827 1142.17 32.1932 1146.55 Q26.1515 1150.92 26.1515 1158.52 Q26.1515 1166.13 32.1932 1170.5 Q38.1827 1174.83 48.7556 1174.83 Z" fill="#ffffff" fill-rule="evenodd" fill-opacity="1" /><path clip-path="url(#clip180)" d="M46.3077 1062.95 L50.9951 1062.95 L50.9951 1107.01 Q60.8909 1106.39 66.0992 1101.08 Q71.2554 1095.71 71.2554 1086.18 Q71.2554 1080.66 69.9013 1075.5 Q68.5471 1070.3 65.8388 1065.19 L74.9013 1065.19 Q77.0887 1070.35 78.2346 1075.76 Q79.3804 1081.18 79.3804 1086.75 Q79.3804 1100.71 71.2554 1108.89 Q63.1305 1117.01 49.2764 1117.01 Q34.9536 1117.01 26.5682 1109.31 Q18.1307 1101.55 18.1307 1088.42 Q18.1307 1076.65 25.7349 1069.83 Q33.2869 1062.95 46.3077 1062.95 M43.4952 1072.54 Q35.6306 1072.64 30.9432 1076.96 Q26.2557 1081.23 26.2557 1088.32 Q26.2557 1096.34 30.7869 1101.18 Q35.3181 1105.97 43.5473 1106.7 L43.4952 1072.54 Z" fill="#ffffff" fill-rule="evenodd" fill-opacity="1" /><path clip-path="url(#clip180)" d="M42.6618 998.734 L77.87 998.734 L77.87 1008.32 L42.9743 1008.32 Q34.6931 1008.32 30.5786 1011.55 Q26.464 1014.78 26.464 1021.23 Q26.464 1028.99 31.4119 1033.47 Q36.3598 1037.95 44.9014 1037.95 L77.87 1037.95 L77.87 1047.59 L19.537 1047.59 L19.537 1037.95 L28.5994 1037.95 Q23.339 1034.51 20.7349 1029.88 Q18.1307 1025.19 18.1307 1019.1 Q18.1307 1009.05 24.3807 1003.89 Q30.5786 998.734 42.6618 998.734 Z" fill="#ffffff" fill-rule="evenodd" fill-opacity="1" /><path clip-path="url(#clip180)" d="M21.2557 942.432 L30.3182 942.432 Q28.2348 946.494 27.1932 950.869 Q26.1515 955.244 26.1515 959.932 Q26.1515 967.067 28.339 970.661 Q30.5265 974.203 34.9015 974.203 Q38.2348 974.203 40.1619 971.651 Q42.0368 969.099 43.7556 961.39 L44.4848 958.109 Q46.6722 947.901 50.6826 943.63 Q54.6409 939.307 61.7763 939.307 Q69.9013 939.307 74.6408 945.765 Q79.3804 952.172 79.3804 963.421 Q79.3804 968.109 78.4429 973.213 Q77.5575 978.265 75.7346 983.89 L65.8388 983.89 Q68.5992 978.578 70.0054 973.421 Q71.3596 968.265 71.3596 963.213 Q71.3596 956.442 69.068 952.797 Q66.7242 949.151 62.5055 949.151 Q58.5993 949.151 56.5159 951.807 Q54.4326 954.411 52.5055 963.317 L51.7243 966.651 Q49.8493 975.557 45.9952 979.515 Q42.0889 983.473 35.3181 983.473 Q27.089 983.473 22.6099 977.64 Q18.1307 971.807 18.1307 961.078 Q18.1307 955.765 18.912 951.078 Q19.6932 946.39 21.2557 942.432 Z" fill="#ffffff" fill-rule="evenodd" fill-opacity="1" /><path clip-path="url(#clip180)" d="M19.537 924.047 L19.537 914.463 L77.87 914.463 L77.87 924.047 L19.537 924.047 M-3.17124 924.047 L-3.17124 914.463 L8.96411 914.463 L8.96411 924.047 L-3.17124 924.047 Z" fill="#ffffff" fill-rule="evenodd" fill-opacity="1" /><path clip-path="url(#clip180)" d="M2.97456 884.932 L19.537 884.932 L19.537 865.193 L26.9848 865.193 L26.9848 884.932 L58.6513 884.932 Q65.7867 884.932 67.818 883.005 Q69.8492 881.026 69.8492 875.037 L69.8492 865.193 L77.87 865.193 L77.87 875.037 Q77.87 886.13 73.7554 890.349 Q69.5888 894.568 58.6513 894.568 L26.9848 894.568 L26.9848 901.599 L19.537 901.599 L19.537 894.568 L2.97456 894.568 L2.97456 884.932 Z" fill="#ffffff" fill-rule="evenodd" fill-opacity="1" /><path clip-path="url(#clip180)" d="M83.2866 828.318 Q93.7032 832.381 96.8803 836.235 Q100.057 840.089 100.057 846.547 L100.057 854.203 L92.0366 854.203 L92.0366 848.578 Q92.0366 844.62 90.1616 842.433 Q88.2866 840.245 81.3075 837.589 L76.9325 835.87 L19.537 859.464 L19.537 849.307 L65.1617 831.078 L19.537 812.849 L19.537 802.693 L83.2866 828.318 Z" fill="#ffffff" fill-rule="evenodd" fill-opacity="1" /><path clip-path="url(#clip180)" d="M9.20124 711.803 Q12.0998 711.803 13.8916 713.647 Q15.6834 715.439 15.6834 717.705 Q15.6834 719.339 14.6821 720.551 Q13.6808 721.711 11.9417 721.711 Q10.1498 721.711 8.25263 720.34 Q6.35541 718.97 6.09191 715.861 Q4.14199 717.916 4.14199 721.184 Q4.14199 722.817 5.196 724.187 Q6.19731 725.505 7.83103 726.243 Q9.51744 727.033 19.0562 728.825 Q22.1656 729.405 25.1695 729.932 Q28.1734 730.459 31.3354 731.091 L31.3354 722.132 Q31.3354 720.973 31.3881 720.498 Q31.4408 720.024 31.7044 719.655 Q31.9679 719.234 32.5476 719.234 Q34.0232 719.234 34.3921 719.919 Q34.7083 720.551 34.7083 722.448 L34.7083 731.724 L68.9109 738.206 Q69.9122 738.364 73.0742 739.049 Q76.1836 739.681 81.2955 741.21 Q86.4602 742.738 89.5168 744.266 Q91.2559 745.11 92.8896 746.216 Q94.576 747.27 96.2625 748.799 Q97.9489 750.327 98.9502 752.33 Q100.004 754.332 100.004 756.44 Q100.004 760.024 98.0016 762.817 Q95.999 765.61 92.5734 765.61 Q89.6749 765.61 87.8831 763.818 Q86.0913 761.974 86.0913 759.708 Q86.0913 758.074 87.0926 756.914 Q88.0939 755.702 89.833 755.702 Q90.5708 755.702 91.414 755.966 Q92.2572 756.229 93.2058 756.809 Q94.2071 757.389 94.8923 758.654 Q95.5774 759.918 95.6828 761.657 Q97.6327 759.602 97.6327 756.44 Q97.6327 755.439 97.2111 754.543 Q96.8422 753.647 95.8936 752.909 Q94.945 752.119 93.9963 751.539 Q93.1004 750.959 91.3613 750.38 Q89.6749 749.8 88.4101 749.431 Q87.1453 749.062 84.8792 748.588 Q82.613 748.061 81.2428 747.797 Q79.9253 747.534 77.343 747.059 L34.7083 738.996 L34.7083 746.111 Q34.7083 747.376 34.6556 747.903 Q34.6029 748.377 34.3394 748.746 Q34.0232 749.115 33.3908 749.115 Q32.3895 749.115 31.9679 748.693 Q31.4936 748.219 31.4408 747.692 Q31.3354 747.165 31.3354 745.9 L31.3354 738.417 Q18.0022 735.887 14.4186 734.886 Q10.6242 733.726 7.98913 731.934 Q5.3014 730.143 4.03659 728.14 Q2.77178 726.137 2.29747 724.504 Q1.77047 722.817 1.77047 721.184 Q1.77047 717.494 3.77309 714.649 Q5.72301 711.803 9.20124 711.803 Z" fill="#ffffff" fill-rule="evenodd" fill-opacity="1" /><path clip-path="url(#clip180)" d="M50.8873 697.274 Q32.653 697.274 17.9495 690.476 Q11.7836 687.577 6.61891 683.519 Q1.45427 679.461 -0.811856 676.774 Q-3.07798 674.086 -3.07798 673.348 Q-3.07798 672.294 -2.02397 672.241 Q-1.49696 672.241 -0.17945 673.664 Q17.5279 691.056 50.8873 691.003 Q84.3522 691.003 101.374 674.086 Q103.219 672.241 103.799 672.241 Q104.853 672.241 104.853 673.348 Q104.853 674.086 102.692 676.668 Q100.531 679.251 95.5774 683.256 Q90.6235 687.261 84.563 690.16 Q69.8595 697.274 50.8873 697.274 Z" fill="#ffffff" fill-rule="evenodd" fill-opacity="1" /><path clip-path="url(#clip180)" d="M10.4134 628.269 Q12.7322 628.269 14.4713 630.166 Q16.1577 632.011 16.1577 634.013 Q16.1577 635.858 15.051 637.017 Q13.8916 638.124 12.2579 638.124 Q10.0971 638.124 8.30533 636.279 Q6.51351 634.435 6.51351 632.274 Q6.51351 630.482 7.62022 629.376 Q8.72693 628.269 10.4134 628.269 M62.4287 627.32 Q62.8503 627.32 64.5368 627.795 Q66.1705 628.269 68.7001 629.428 Q71.177 630.535 73.4958 632.063 Q75.8147 633.592 77.4484 636.121 Q79.0821 638.598 79.0821 641.444 Q79.0821 645.291 76.5525 647.821 Q74.0229 650.298 70.2284 650.298 Q68.1731 650.298 61.5855 647.821 Q42.4026 640.653 41.612 640.39 Q38.6081 639.178 35.9731 639.178 Q34.761 639.178 34.0232 639.441 Q33.2327 639.705 32.9692 640.232 Q32.653 640.759 32.6003 641.075 Q32.5476 641.339 32.5476 641.866 Q32.5476 644.975 35.7096 647.873 Q38.8716 650.772 45.9335 652.775 Q47.251 653.196 47.5672 653.46 Q47.8834 653.723 47.8834 654.514 Q47.8307 655.831 46.7767 655.831 Q46.4605 655.831 45.2484 655.462 Q43.9836 655.093 42.0864 654.408 Q40.1364 653.723 38.1338 652.511 Q36.0785 651.299 34.2867 649.823 Q32.4949 648.295 31.3354 646.134 Q30.176 643.974 30.176 641.549 Q30.176 637.597 32.7584 635.173 Q35.288 632.696 39.0297 632.696 Q41.085 632.696 44.7214 634.119 Q49.4644 635.858 50.9927 636.49 L62.3233 640.706 Q66.434 642.234 67.6988 642.709 Q68.9109 643.13 70.3865 643.499 Q71.8094 643.815 73.1269 643.815 Q74.9715 643.815 75.8147 643.236 Q76.6579 642.603 76.6579 641.233 Q76.6579 637.439 72.9161 634.646 Q69.1217 631.852 63.3247 630.219 Q63.1666 630.166 62.903 630.113 Q61.5855 629.692 61.4274 629.27 Q61.3747 629.059 61.3747 628.638 Q61.3747 627.32 62.4287 627.32 Z" fill="#ffffff" fill-rule="evenodd" fill-opacity="1" /><path clip-path="url(#clip180)" d="M77.592 576.609 Q82.9779 576.609 88.1795 579.339 Q93.381 582.032 96.5905 586.275 Q99.7631 590.517 99.7631 594.833 Q99.7631 597.416 98.3612 599.149 Q96.9225 600.846 94.8935 601.769 Q97.4021 602.47 103.415 603.982 Q109.428 605.495 110.019 605.495 Q110.351 605.495 110.498 605.421 Q110.646 605.347 110.83 605.015 Q111.051 604.683 111.125 603.871 Q111.236 603.06 111.236 601.695 Q111.236 600.994 111.236 600.736 Q111.273 600.441 111.457 600.182 Q111.642 599.887 112.048 599.887 Q113.56 599.887 113.56 601.252 Q113.56 602.47 113.449 604.978 Q113.339 607.487 113.339 608.741 Q113.339 609.811 113.449 611.95 Q113.56 614.09 113.56 615.086 Q113.56 616.082 112.675 616.082 Q112.158 616.082 111.826 615.934 Q111.531 615.824 111.384 615.529 Q111.273 615.234 111.236 614.975 Q111.236 614.754 111.236 614.311 Q111.236 612.614 110.941 611.877 Q110.683 611.139 110.129 610.881 Q109.613 610.585 108.137 610.253 L74.4932 601.769 Q72.2429 601.252 70.6566 601.252 Q68.6645 601.252 67.9267 601.879 Q67.1889 602.506 67.1889 603.613 Q67.1889 605.531 69.4761 606.786 Q71.7633 608.04 76.1901 609.11 Q77.4075 609.442 77.6657 609.663 Q77.924 609.848 77.924 610.401 Q77.8871 611.323 77.1493 611.323 Q76.9648 611.323 75.7843 611.028 Q74.5669 610.733 72.7962 610.18 Q70.9886 609.589 69.845 608.962 Q69.0703 608.593 68.5538 608.261 Q68.0374 607.929 67.2258 607.265 Q66.4142 606.564 65.9715 605.568 Q65.5288 604.572 65.5288 603.355 Q65.5288 600.994 66.9306 599.039 Q68.3325 597.084 71.173 596.567 Q68.7014 594.464 67.1151 591.882 Q65.5288 589.3 65.5288 586.68 Q65.5288 582.327 68.9227 579.487 Q72.2797 576.609 77.592 576.609 M74.2718 582.069 Q70.9148 582.069 69.0703 583.36 Q67.1889 584.615 67.1889 586.902 Q67.1889 589.742 70.0663 593.026 Q72.7962 596.272 75.3416 596.936 L90.1347 600.662 L91.3521 600.883 Q91.5734 600.883 92.2374 600.773 Q92.8646 600.625 93.8975 600.219 Q94.9304 599.777 95.8527 599.186 Q96.738 598.559 97.4021 597.452 Q98.0661 596.309 98.0661 594.907 Q98.0661 592.657 96.074 590.222 Q94.0819 587.75 90.3191 585.906 Q87.8844 584.762 82.6459 583.434 Q77.3706 582.069 74.2718 582.069 Z" fill="#ffffff" fill-rule="evenodd" fill-opacity="1" /><path clip-path="url(#clip180)" d="M103.799 565.479 Q103.272 565.479 101.954 564.108 Q84.2468 546.717 50.8873 546.717 Q17.4225 546.717 0.505656 563.423 Q-1.44426 565.479 -2.02397 565.479 Q-3.07798 565.479 -3.07798 564.425 Q-3.07798 563.687 -0.917257 561.105 Q1.24346 558.47 6.19731 554.517 Q11.1512 550.512 17.2117 547.561 Q31.9152 540.446 50.8873 540.446 Q69.1217 540.446 83.8251 547.244 Q89.9911 550.143 95.1558 554.201 Q100.32 558.259 102.587 560.946 Q104.853 563.634 104.853 564.425 Q104.853 565.479 103.799 565.479 Z" fill="#ffffff" fill-rule="evenodd" fill-opacity="1" /><path clip-path="url(#clip180)" d="M942.83 15.2437 L951.094 15.2437 L963.814 66.3661 L976.493 15.2437 L985.689 15.2437 L998.409 66.3661 L1011.09 15.2437 L1019.39 15.2437 L1004.2 75.7237 L993.912 75.7237 L981.152 23.2239 L968.27 75.7237 L957.981 75.7237 L942.83 15.2437 Z" fill="#ffffff" fill-rule="evenodd" fill-opacity="1" /><path clip-path="url(#clip180)" d="M1063.87 51.1752 L1063.87 54.821 L1029.6 54.821 Q1030.09 62.5177 1034.22 66.5686 Q1038.39 70.579 1045.8 70.579 Q1050.1 70.579 1054.11 69.5258 Q1058.16 68.4725 1062.13 66.3661 L1062.13 73.4147 Q1058.12 75.116 1053.91 76.0072 Q1049.69 76.8984 1045.36 76.8984 Q1034.5 76.8984 1028.14 70.579 Q1021.82 64.2596 1021.82 53.4842 Q1021.82 42.3442 1027.82 35.8223 Q1033.85 29.2598 1044.06 29.2598 Q1053.22 29.2598 1058.52 35.1741 Q1063.87 41.0479 1063.87 51.1752 M1056.42 48.9877 Q1056.34 42.8708 1052.97 39.225 Q1049.65 35.5792 1044.14 35.5792 Q1037.91 35.5792 1034.14 39.1035 Q1030.41 42.6278 1029.84 49.0282 L1056.42 48.9877 Z" fill="#ffffff" fill-rule="evenodd" fill-opacity="1" /><path clip-path="url(#clip180)" d="M1076.11 30.3535 L1083.56 30.3535 L1083.56 75.7237 L1076.11 75.7237 L1076.11 30.3535 M1076.11 12.6916 L1083.56 12.6916 L1083.56 22.1302 L1076.11 22.1302 L1076.11 12.6916 Z" fill="#ffffff" fill-rule="evenodd" fill-opacity="1" /><path clip-path="url(#clip180)" d="M1131.72 53.0791 Q1131.72 44.8558 1128.32 40.1972 Q1124.96 35.4982 1119.04 35.4982 Q1113.13 35.4982 1109.73 40.1972 Q1106.37 44.8558 1106.37 53.0791 Q1106.37 61.3024 1109.73 66.0015 Q1113.13 70.66 1119.04 70.66 Q1124.96 70.66 1128.32 66.0015 Q1131.72 61.3024 1131.72 53.0791 M1106.37 37.2401 Q1108.71 33.1892 1112.28 31.2447 Q1115.89 29.2598 1120.87 29.2598 Q1129.13 29.2598 1134.28 35.8223 Q1139.46 42.3847 1139.46 53.0791 Q1139.46 63.7735 1134.28 70.336 Q1129.13 76.8984 1120.87 76.8984 Q1115.89 76.8984 1112.28 74.954 Q1108.71 72.9691 1106.37 68.9181 L1106.37 75.7237 L1098.87 75.7237 L1098.87 12.6916 L1106.37 12.6916 L1106.37 37.2401 Z" fill="#ffffff" fill-rule="evenodd" fill-opacity="1" /><path clip-path="url(#clip180)" d="M1151.05 57.8187 L1151.05 30.3535 L1158.5 30.3535 L1158.5 57.5351 Q1158.5 63.976 1161.01 67.2168 Q1163.52 70.417 1168.55 70.417 Q1174.58 70.417 1178.07 66.5686 Q1181.59 62.7203 1181.59 56.0768 L1181.59 30.3535 L1189.04 30.3535 L1189.04 75.7237 L1181.59 75.7237 L1181.59 68.7561 Q1178.88 72.888 1175.27 74.9135 Q1171.71 76.8984 1166.97 76.8984 Q1159.15 76.8984 1155.1 72.0373 Q1151.05 67.1763 1151.05 57.8187 M1169.8 29.2598 L1169.8 29.2598 Z" fill="#ffffff" fill-rule="evenodd" fill-opacity="1" /><path clip-path="url(#clip180)" d="M1204.4 12.6916 L1211.85 12.6916 L1211.85 75.7237 L1204.4 75.7237 L1204.4 12.6916 Z" fill="#ffffff" fill-rule="evenodd" fill-opacity="1" /><path clip-path="url(#clip180)" d="M1227.45 12.6916 L1234.9 12.6916 L1234.9 75.7237 L1227.45 75.7237 L1227.45 12.6916 Z" fill="#ffffff" fill-rule="evenodd" fill-opacity="1" /><path clip-path="url(#clip180)" d="M1299.84 12.6916 L1299.84 18.8895 L1292.71 18.8895 Q1288.7 18.8895 1287.12 20.5098 Q1285.58 22.1302 1285.58 26.3431 L1285.58 30.3535 L1297.85 30.3535 L1297.85 36.1463 L1285.58 36.1463 L1285.58 75.7237 L1278.08 75.7237 L1278.08 36.1463 L1270.95 36.1463 L1270.95 30.3535 L1278.08 30.3535 L1278.08 27.1938 Q1278.08 19.6186 1281.61 16.1754 Q1285.13 12.6916 1292.79 12.6916 L1299.84 12.6916 Z" fill="#ffffff" fill-rule="evenodd" fill-opacity="1" /><path clip-path="url(#clip180)" d="M1306.07 30.3535 L1313.53 30.3535 L1313.53 75.7237 L1306.07 75.7237 L1306.07 30.3535 M1306.07 12.6916 L1313.53 12.6916 L1313.53 22.1302 L1306.07 22.1302 L1306.07 12.6916 Z" fill="#ffffff" fill-rule="evenodd" fill-opacity="1" /><path clip-path="url(#clip180)" d="M1336.5 17.4717 L1336.5 30.3535 L1351.85 30.3535 L1351.85 36.1463 L1336.5 36.1463 L1336.5 60.7758 Q1336.5 66.3256 1338 67.9054 Q1339.54 69.4853 1344.19 69.4853 L1351.85 69.4853 L1351.85 75.7237 L1344.19 75.7237 Q1335.57 75.7237 1332.28 72.5235 Q1329 69.2827 1329 60.7758 L1329 36.1463 L1323.53 36.1463 L1323.53 30.3535 L1329 30.3535 L1329 17.4717 L1336.5 17.4717 Z" fill="#ffffff" fill-rule="evenodd" fill-opacity="1" /><path clip-path="url(#clip180)" d="M1395.4 17.4717 L1395.4 30.3535 L1410.75 30.3535 L1410.75 36.1463 L1395.4 36.1463 L1395.4 60.7758 Q1395.4 66.3256 1396.9 67.9054 Q1398.44 69.4853 1403.09 69.4853 L1410.75 69.4853 L1410.75 75.7237 L1403.09 75.7237 Q1394.47 75.7237 1391.18 72.5235 Q1387.9 69.2827 1387.9 60.7758 L1387.9 36.1463 L1382.43 36.1463 L1382.43 30.3535 L1387.9 30.3535 L1387.9 17.4717 L1395.4 17.4717 Z" fill="#ffffff" fill-rule="evenodd" fill-opacity="1" /><path clip-path="url(#clip180)" d="M1438.13 35.5792 Q1432.14 35.5792 1428.66 40.2783 Q1425.17 44.9368 1425.17 53.0791 Q1425.17 61.2214 1428.61 65.9205 Q1432.1 70.579 1438.13 70.579 Q1444.09 70.579 1447.57 65.88 Q1451.06 61.1809 1451.06 53.0791 Q1451.06 45.0178 1447.57 40.3188 Q1444.09 35.5792 1438.13 35.5792 M1438.13 29.2598 Q1447.86 29.2598 1453.41 35.5792 Q1458.96 41.8986 1458.96 53.0791 Q1458.96 64.2191 1453.41 70.579 Q1447.86 76.8984 1438.13 76.8984 Q1428.37 76.8984 1422.82 70.579 Q1417.31 64.2191 1417.31 53.0791 Q1417.31 41.8986 1422.82 35.5792 Q1428.37 29.2598 1438.13 29.2598 Z" fill="#ffffff" fill-rule="evenodd" fill-opacity="1" /><path clip-path="url(#clip180)" d="M1505.06 17.4717 L1505.06 30.3535 L1520.41 30.3535 L1520.41 36.1463 L1505.06 36.1463 L1505.06 60.7758 Q1505.06 66.3256 1506.55 67.9054 Q1508.09 69.4853 1512.75 69.4853 L1520.41 69.4853 L1520.41 75.7237 L1512.75 75.7237 Q1504.12 75.7237 1500.84 72.5235 Q1497.56 69.2827 1497.56 60.7758 L1497.56 36.1463 L1492.09 36.1463 L1492.09 30.3535 L1497.56 30.3535 L1497.56 17.4717 L1505.06 17.4717 Z" fill="#ffffff" fill-rule="evenodd" fill-opacity="1" /><path clip-path="url(#clip180)" d="M1567.93 48.3396 L1567.93 75.7237 L1560.47 75.7237 L1560.47 48.5826 Q1560.47 42.1417 1557.96 38.9415 Q1555.45 35.7412 1550.43 35.7412 Q1544.39 35.7412 1540.91 39.5896 Q1537.42 43.438 1537.42 50.0814 L1537.42 75.7237 L1529.93 75.7237 L1529.93 12.6916 L1537.42 12.6916 L1537.42 37.4021 Q1540.1 33.3107 1543.7 31.2852 Q1547.35 29.2598 1552.09 29.2598 Q1559.9 29.2598 1563.92 34.1209 Q1567.93 38.9415 1567.93 48.3396 Z" fill="#ffffff" fill-rule="evenodd" fill-opacity="1" /><path clip-path="url(#clip180)" d="M1621.6 51.1752 L1621.6 54.821 L1587.33 54.821 Q1587.82 62.5177 1591.95 66.5686 Q1596.12 70.579 1603.53 70.579 Q1607.83 70.579 1611.84 69.5258 Q1615.89 68.4725 1619.86 66.3661 L1619.86 73.4147 Q1615.85 75.116 1611.63 76.0072 Q1607.42 76.8984 1603.09 76.8984 Q1592.23 76.8984 1585.87 70.579 Q1579.55 64.2596 1579.55 53.4842 Q1579.55 42.3442 1585.55 35.8223 Q1591.58 29.2598 1601.79 29.2598 Q1610.95 29.2598 1616.25 35.1741 Q1621.6 41.0479 1621.6 51.1752 M1614.15 48.9877 Q1614.07 42.8708 1610.7 39.225 Q1607.38 35.5792 1601.87 35.5792 Q1595.63 35.5792 1591.87 39.1035 Q1588.14 42.6278 1587.57 49.0282 L1614.15 48.9877 Z" fill="#ffffff" fill-rule="evenodd" fill-opacity="1" /><path clip-path="url(#clip180)" d="M1690.06 37.2401 L1690.06 12.6916 L1697.51 12.6916 L1697.51 75.7237 L1690.06 75.7237 L1690.06 68.9181 Q1687.71 72.9691 1684.11 74.954 Q1680.54 76.8984 1675.52 76.8984 Q1667.29 76.8984 1662.11 70.336 Q1656.96 63.7735 1656.96 53.0791 Q1656.96 42.3847 1662.11 35.8223 Q1667.29 29.2598 1675.52 29.2598 Q1680.54 29.2598 1684.11 31.2447 Q1687.71 33.1892 1690.06 37.2401 M1664.66 53.0791 Q1664.66 61.3024 1668.02 66.0015 Q1671.43 70.66 1677.34 70.66 Q1683.25 70.66 1686.66 66.0015 Q1690.06 61.3024 1690.06 53.0791 Q1690.06 44.8558 1686.66 40.1972 Q1683.25 35.4982 1677.34 35.4982 Q1671.43 35.4982 1668.02 40.1972 Q1664.66 44.8558 1664.66 53.0791 Z" fill="#ffffff" fill-rule="evenodd" fill-opacity="1" /><path clip-path="url(#clip180)" d="M1733.49 52.9171 Q1724.45 52.9171 1720.97 54.983 Q1717.48 57.049 1717.48 62.0316 Q1717.48 66.0015 1720.08 68.351 Q1722.71 70.66 1727.21 70.66 Q1733.4 70.66 1737.13 66.2851 Q1740.9 61.8696 1740.9 54.5779 L1740.9 52.9171 L1733.49 52.9171 M1748.35 49.8384 L1748.35 75.7237 L1740.9 75.7237 L1740.9 68.8371 Q1738.35 72.9691 1734.54 74.954 Q1730.73 76.8984 1725.22 76.8984 Q1718.25 76.8984 1714.12 73.0096 Q1710.03 69.0802 1710.03 62.5177 Q1710.03 54.8615 1715.14 50.9726 Q1720.28 47.0838 1730.45 47.0838 L1740.9 47.0838 L1740.9 46.3546 Q1740.9 41.21 1737.5 38.4148 Q1734.13 35.5792 1728.02 35.5792 Q1724.13 35.5792 1720.44 36.5109 Q1716.76 37.4426 1713.35 39.306 L1713.35 32.4195 Q1717.44 30.8396 1721.29 30.07 Q1725.14 29.2598 1728.79 29.2598 Q1738.63 29.2598 1743.49 34.3639 Q1748.35 39.4681 1748.35 49.8384 Z" fill="#ffffff" fill-rule="evenodd" fill-opacity="1" /><path clip-path="url(#clip180)" d="M1771.08 17.4717 L1771.08 30.3535 L1786.43 30.3535 L1786.43 36.1463 L1771.08 36.1463 L1771.08 60.7758 Q1771.08 66.3256 1772.58 67.9054 Q1774.12 69.4853 1778.78 69.4853 L1786.43 69.4853 L1786.43 75.7237 L1778.78 75.7237 Q1770.15 75.7237 1766.87 72.5235 Q1763.58 69.2827 1763.58 60.7758 L1763.58 36.1463 L1758.12 36.1463 L1758.12 30.3535 L1763.58 30.3535 L1763.58 17.4717 L1771.08 17.4717 Z" fill="#ffffff" fill-rule="evenodd" fill-opacity="1" /><path clip-path="url(#clip180)" d="M1816.85 52.9171 Q1807.82 52.9171 1804.34 54.983 Q1800.85 57.049 1800.85 62.0316 Q1800.85 66.0015 1803.45 68.351 Q1806.08 70.66 1810.57 70.66 Q1816.77 70.66 1820.5 66.2851 Q1824.27 61.8696 1824.27 54.5779 L1824.27 52.9171 L1816.85 52.9171 M1831.72 49.8384 L1831.72 75.7237 L1824.27 75.7237 L1824.27 68.8371 Q1821.71 72.9691 1817.91 74.954 Q1814.1 76.8984 1808.59 76.8984 Q1801.62 76.8984 1797.49 73.0096 Q1793.4 69.0802 1793.4 62.5177 Q1793.4 54.8615 1798.5 50.9726 Q1803.65 47.0838 1813.82 47.0838 L1824.27 47.0838 L1824.27 46.3546 Q1824.27 41.21 1820.86 38.4148 Q1817.5 35.5792 1811.38 35.5792 Q1807.5 35.5792 1803.81 36.5109 Q1800.12 37.4426 1796.72 39.306 L1796.72 32.4195 Q1800.81 30.8396 1804.66 30.07 Q1808.51 29.2598 1812.15 29.2598 Q1822 29.2598 1826.86 34.3639 Q1831.72 39.4681 1831.72 49.8384 Z" fill="#ffffff" fill-rule="evenodd" fill-opacity="1" /><path clip-path="url(#clip180)" d="M1848.98 65.4344 L1857.52 65.4344 L1857.52 72.4019 L1850.88 85.3648 L1845.66 85.3648 L1848.98 72.4019 L1848.98 65.4344 Z" fill="#ffffff" fill-rule="evenodd" fill-opacity="1" /><path clip-path="url(#clip180)" d="M1939.09 43.5881 Q1939.01 43.998 1938.85 44.7358 Q1938.68 45.4326 1937.95 47.646 Q1937.21 49.8594 1936.23 52.1138 Q1935.28 54.3273 1933.44 57.4424 Q1931.63 60.5166 1929.42 63.3039 Q1928.81 64.0417 1928.68 64.4926 Q1928.6 64.9025 1928.6 66.2551 Q1928.6 74.7809 1931.18 74.7809 Q1931.31 74.7809 1931.51 74.7809 Q1931.76 74.7399 1932.37 74.535 Q1933.03 74.289 1933.6 73.9201 Q1934.18 73.5102 1934.83 72.6905 Q1935.49 71.8297 1935.9 70.682 Q1936.27 69.8622 1937 69.8622 Q1937.99 69.8622 1937.99 70.682 Q1937.99 72.1576 1935.94 74.412 Q1933.89 76.6664 1930.94 76.6664 Q1928.11 76.6664 1926.1 74.8219 Q1924.13 72.9364 1923.31 69.5753 Q1914.46 76.6664 1905.61 76.6664 Q1899.38 76.6664 1895.69 72.6085 Q1892 68.5096 1892 62.4431 Q1892 56.6227 1895.19 51.0891 Q1898.43 45.5556 1903.68 42.1125 Q1908.97 38.6284 1914.58 38.6284 Q1916.55 38.6284 1918.44 39.1612 Q1920.32 39.6531 1922.21 40.9238 Q1924.09 42.1944 1925.49 44.1209 Q1926.88 46.0474 1927.74 49.0806 Q1928.6 52.1138 1928.6 55.9258 L1928.6 61.1315 Q1934.01 54.2863 1936.84 44.4898 Q1937.25 43.0142 1937.5 42.8503 Q1937.66 42.7273 1938.07 42.7273 Q1938.48 42.7273 1938.73 42.9732 Q1939.01 43.1782 1939.05 43.3831 L1939.09 43.5881 M1922.99 67.4028 Q1922.82 65.9682 1922.82 58.0163 Q1922.82 56.4997 1922.82 55.6799 Q1922.82 54.8191 1922.74 53.1796 Q1922.66 51.54 1922.49 50.5153 Q1922.37 49.4905 1922.08 48.0149 Q1921.8 46.5393 1921.39 45.5965 Q1920.98 44.6538 1920.32 43.5881 Q1919.71 42.5224 1918.89 41.9075 Q1918.11 41.2927 1916.96 40.8828 Q1915.85 40.4729 1914.5 40.4729 Q1912.82 40.4729 1911.06 41.0877 Q1909.34 41.6616 1907.12 43.5061 Q1904.91 45.3096 1903.06 48.1789 Q1901.14 51.2121 1899.66 56.7866 Q1898.23 62.3202 1898.23 65.6403 Q1898.23 69.8212 1900.15 72.3216 Q1902.08 74.7809 1905.77 74.7809 Q1914.58 74.7809 1922.99 67.4028 Z" fill="#ffffff" fill-rule="evenodd" fill-opacity="1" /><path clip-path="url(#clip180)" d="M1968.48 62.976 Q1968.56 61.9513 1970.16 61.9513 L2021.6 61.9513 Q2024.02 61.9513 2024.06 62.894 Q2024.06 63.9188 2021.76 63.8778 L1970.73 63.8778 Q1968.48 63.9188 1968.48 62.976 M1968.48 46.5803 Q1968.48 45.5556 1970.24 45.5965 L2021.52 45.5965 Q2024.02 45.5965 2024.06 46.5803 Q2024.06 47.523 2021.93 47.523 L1970.16 47.523 Q1968.48 47.523 1968.48 46.5803 Z" fill="#ffffff" fill-rule="evenodd" fill-opacity="1" /><path clip-path="url(#clip180)" d="M2056.44 27.8072 L2056.44 25.1839 Q2066.53 25.1839 2071.73 19.8143 Q2073.17 19.8143 2073.41 20.1422 Q2073.66 20.4701 2073.66 21.9867 L2073.66 69.0834 Q2073.66 71.5837 2074.89 72.3625 Q2076.12 73.1413 2081.49 73.1413 L2084.15 73.1413 L2084.15 75.7237 Q2081.2 75.4777 2070.54 75.4777 Q2059.89 75.4777 2056.98 75.7237 L2056.98 73.1413 L2059.64 73.1413 Q2064.93 73.1413 2066.2 72.4035 Q2067.47 71.6247 2067.47 69.0834 L2067.47 25.5938 Q2063.08 27.8072 2056.44 27.8072 Z" fill="#ffffff" fill-rule="evenodd" fill-opacity="1" /><path clip-path="url(#clip180)" d="M2090.79 74.371 Q2089.52 73.0184 2089.52 71.2558 Q2089.52 69.4933 2090.79 68.2226 Q2092.06 66.911 2093.98 66.911 Q2095.83 66.911 2097.06 68.1407 Q2098.33 69.3293 2098.33 71.2968 Q2098.33 73.2233 2096.98 74.494 Q2095.66 75.7237 2093.98 75.7237 Q2092.06 75.7237 2090.79 74.371 Z" fill="#ffffff" fill-rule="evenodd" fill-opacity="1" /><path clip-path="url(#clip180)" d="M2112.62 49.2036 Q2112.62 36.0051 2119.34 27.9302 Q2126.06 19.8143 2134.71 19.8143 Q2139.75 19.8143 2142.54 22.3966 Q2145.37 24.938 2145.37 28.8729 Q2145.37 31.0454 2144.1 31.9881 Q2142.83 32.9309 2141.51 32.9309 Q2140 32.9309 2138.81 31.9061 Q2137.62 30.8814 2137.62 29.0369 Q2137.62 25.2659 2142.25 25.2659 Q2140.08 21.9047 2134.87 21.9047 Q2133.28 21.9047 2131.64 22.3966 Q2130 22.8475 2127.86 24.4051 Q2125.73 25.9627 2124.09 28.422 Q2122.45 30.8814 2121.31 35.5132 Q2120.16 40.145 2120.16 46.1704 L2120.16 48.1789 Q2123.6 39.858 2130.65 39.899 Q2137.7 39.899 2142.58 45.2686 Q2147.46 50.6382 2147.46 58.5901 Q2147.46 66.747 2142.37 72.1576 Q2137.29 77.5682 2130.16 77.5682 Q2126.96 77.5682 2124.05 76.2155 Q2121.18 74.9039 2118.48 71.8707 Q2115.81 68.8375 2114.22 63.017 Q2112.62 57.1965 2112.62 49.2036 M2120.32 56.7456 Q2120.32 64.9845 2121.84 68.9194 Q2122.09 69.5753 2122.62 70.477 Q2123.19 71.3788 2124.13 72.5675 Q2125.12 73.7152 2126.72 74.494 Q2128.32 75.2318 2130.16 75.2318 Q2135.78 75.2318 2138.48 69.7802 Q2139.92 66.747 2139.92 58.5082 Q2139.92 50.1054 2138.4 47.0312 Q2135.82 41.8255 2130.57 41.8255 Q2127.04 41.8255 2124.59 44.2439 Q2122.17 46.6623 2121.22 49.9004 Q2120.32 53.1386 2120.32 56.7456 Z" fill="#ffffff" fill-rule="evenodd" fill-opacity="1" /><path clip-path="url(#clip180)" d="M2153.22 27.8072 L2153.22 25.1839 Q2163.3 25.1839 2168.51 19.8143 Q2169.94 19.8143 2170.19 20.1422 Q2170.43 20.4701 2170.43 21.9867 L2170.43 69.0834 Q2170.43 71.5837 2171.66 72.3625 Q2172.89 73.1413 2178.26 73.1413 L2180.92 73.1413 L2180.92 75.7237 Q2177.97 75.4777 2167.32 75.4777 Q2156.66 75.4777 2153.75 75.7237 L2153.75 73.1413 L2156.41 73.1413 Q2161.7 73.1413 2162.97 72.4035 Q2164.24 71.6247 2164.24 69.0834 L2164.24 25.5938 Q2159.86 27.8072 2153.22 27.8072 Z" fill="#ffffff" fill-rule="evenodd" fill-opacity="1" /><path clip-path="url(#clip180)" d="M2195.98 74.371 Q2194.79 73.0184 2194.79 71.2558 Q2194.79 69.4933 2195.94 68.1816 Q2197.13 66.829 2199.26 66.829 Q2201.76 66.829 2203.19 69.2474 Q2204.63 71.6247 2204.63 75.6417 Q2204.63 79.9866 2202.86 84.0035 Q2201.1 88.0614 2199.38 89.9879 Q2197.66 91.9144 2196.96 91.9144 Q2196.14 91.9144 2196.14 91.0127 Q2196.14 90.6848 2196.72 90.0699 Q2202.74 83.5936 2202.78 75.6417 Q2202.78 74.371 2202.62 74.371 L2202.41 74.535 Q2200.98 75.7237 2199.26 75.7237 Q2197.17 75.7237 2195.98 74.371 Z" fill="#ffffff" fill-rule="evenodd" fill-opacity="1" /><path clip-path="url(#clip180)" d="M2276.82 27.5203 Q2276.82 28.586 2276.37 30.6355 Q2274.94 36.4149 2269.57 40.3909 Q2268.67 41.1287 2267.07 42.0715 Q2268.99 43.3421 2270.67 45.6785 Q2273.17 49.5315 2273.17 54.7372 Q2273.17 57.1555 2272.52 60.1068 Q2270.67 66.952 2264.2 71.8707 Q2257.68 76.6664 2249.93 76.6664 Q2245.75 76.6664 2242.88 74.453 Q2240.05 72.1986 2238.95 68.4276 L2233.25 91.4226 Q2233.13 91.9964 2232.39 91.9964 L2231.98 91.9964 Q2231.12 91.9964 2231.12 91.0127 L2244.07 39.3662 Q2244.93 35.8821 2246.33 32.6029 Q2247.72 29.3238 2249.65 26.3726 Q2251.61 23.4213 2253.87 21.2489 Q2256.12 19.0355 2258.91 17.7648 Q2261.7 16.4532 2264.65 16.4532 Q2270.84 16.4532 2274.36 20.6751 Q2276.82 23.6673 2276.82 27.5203 M2272.11 26.0447 Q2272.11 23.5033 2271.08 21.7408 Q2268.99 18.3797 2264.57 18.3797 Q2261.9 18.3797 2259.36 19.6093 Q2256.86 20.798 2254.85 22.8475 Q2252.84 24.897 2251.12 27.6842 Q2249.4 30.4715 2248.13 33.5047 Q2246.9 36.4969 2246.08 39.7761 L2241.04 60.1068 Q2240.55 62.2792 2240.55 64.2057 Q2240.55 68.7965 2243.09 71.7887 Q2245.63 74.7809 2250.02 74.7809 Q2255.84 74.7809 2260.84 70.436 Q2265.18 66.5421 2266.98 59.6969 Q2268.01 55.393 2268.01 52.4008 Q2268.01 49.1216 2266.82 46.5803 Q2265.96 44.5308 2264.28 43.3011 Q2261.16 44.4079 2258.01 44.4079 Q2256.49 44.4079 2255.67 44.3669 Q2254.89 44.3259 2253.75 44.1619 Q2252.64 43.998 2252.11 43.5471 Q2251.61 43.0962 2251.61 42.3994 Q2251.61 41.9895 2251.7 41.8255 Q2251.86 41.1697 2252.39 40.7188 Q2252.93 40.2679 2253.54 40.063 Q2254.16 39.8171 2255.18 39.6941 Q2256.25 39.5711 2256.94 39.5711 Q2257.64 39.5301 2258.83 39.5301 Q2261.62 39.5301 2264.44 40.6368 Q2265.51 40.063 2266.66 39.0383 Q2270.3 35.6362 2271.53 30.2256 Q2272.11 28.2171 2272.11 26.0447 M2261.78 41.9075 Q2260.06 41.4566 2258.75 41.4566 Q2253.95 41.4566 2253.7 42.2354 Q2253.7 42.3174 2253.87 42.3994 Q2254.03 42.4404 2254.4 42.4814 Q2254.81 42.4814 2255.14 42.5224 Q2255.51 42.5633 2256.12 42.5633 Q2256.74 42.5633 2257.07 42.5633 Q2257.43 42.5633 2258.09 42.5633 Q2259.73 42.5633 2261.78 41.9075 Z" fill="#ffffff" fill-rule="evenodd" fill-opacity="1" /><path clip-path="url(#clip180)" d="M2301.47 62.976 Q2301.55 61.9513 2303.15 61.9513 L2354.59 61.9513 Q2357.01 61.9513 2357.05 62.894 Q2357.05 63.9188 2354.75 63.8778 L2303.72 63.8778 Q2301.47 63.9188 2301.47 62.976 M2301.47 46.5803 Q2301.47 45.5556 2303.23 45.5965 L2354.51 45.5965 Q2357.01 45.5965 2357.05 46.5803 Q2357.05 47.523 2354.92 47.523 L2303.15 47.523 Q2301.47 47.523 2301.47 46.5803 Z" fill="#ffffff" fill-rule="evenodd" fill-opacity="1" /><path clip-path="url(#clip180)" d="M2389.43 75.7237 Q2389.43 74.2071 2389.56 73.7562 Q2389.72 73.3053 2390.38 72.6085 L2406.49 54.6552 Q2415.3 44.7358 2415.3 36.087 Q2415.3 30.4715 2412.35 26.4546 Q2409.44 22.4376 2404.07 22.4376 Q2400.38 22.4376 2397.26 24.692 Q2394.15 26.9464 2392.71 30.9634 Q2392.96 30.8814 2393.82 30.8814 Q2395.91 30.8814 2397.06 32.1931 Q2398.25 33.5047 2398.25 35.2672 Q2398.25 37.5217 2396.77 38.6284 Q2395.34 39.6941 2393.9 39.6941 Q2393.33 39.6941 2392.55 39.5711 Q2391.81 39.4482 2390.62 38.3005 Q2389.43 37.1118 2389.43 35.0213 Q2389.43 29.1598 2393.86 24.4871 Q2398.33 19.8143 2405.13 19.8143 Q2412.84 19.8143 2417.88 24.4051 Q2422.96 28.9549 2422.96 36.087 Q2422.96 38.5874 2422.18 40.8828 Q2421.45 43.1372 2420.42 44.8997 Q2419.44 46.6623 2416.73 49.4905 Q2414.03 52.3188 2411.86 54.3273 Q2409.68 56.3357 2404.81 60.5986 L2395.91 69.2474 L2411.04 69.2474 Q2418.41 69.2474 2418.99 68.5915 Q2419.81 67.4028 2420.83 61.1315 L2422.96 61.1315 L2420.59 75.7237 L2389.43 75.7237 Z" fill="#ffffff" fill-rule="evenodd" fill-opacity="1" /><path clip-path="url(#clip180)" d="M2431.34 38.7103 Q2431.34 34.2425 2432.65 31.2093 Q2433.97 28.1351 2436.71 25.1019 Q2441.75 19.8143 2449.05 19.8143 Q2452.17 19.8143 2454.91 21.1259 Q2457.7 22.4376 2460.32 25.4298 Q2462.99 28.3811 2464.59 34.2425 Q2466.18 40.063 2466.18 48.0969 Q2466.18 61.0905 2459.87 69.3293 Q2453.6 77.5682 2445.12 77.5682 Q2439.75 77.5682 2436.59 75.1498 Q2433.43 72.6905 2433.43 68.5096 Q2433.43 66.3371 2434.66 65.4354 Q2435.89 64.4926 2437.29 64.4926 Q2438.8 64.4926 2439.99 65.5173 Q2441.18 66.5011 2441.18 68.3456 Q2441.18 69.8622 2440.2 71.0509 Q2439.25 72.1986 2436.79 72.1986 Q2439.21 75.2318 2445.03 75.2318 Q2447.12 75.2318 2449.21 74.289 Q2451.3 73.3053 2453.56 70.9689 Q2455.85 68.5915 2457.25 63.6318 Q2458.64 58.6721 2458.64 51.7039 L2458.64 49.0396 Q2455.28 57.4424 2448.15 57.4424 Q2441.1 57.4424 2436.22 52.0319 Q2431.34 46.6213 2431.34 38.7103 M2438.89 38.7923 Q2438.89 47.1132 2440.4 50.1873 Q2442.98 55.475 2448.23 55.475 Q2453.35 55.475 2455.9 50.9252 Q2458.48 46.3344 2458.48 40.3909 Q2458.48 32.1521 2457.13 28.545 Q2454.62 21.9047 2449.05 21.9047 Q2443.52 21.9047 2440.65 27.1924 Q2438.89 30.3075 2438.89 38.7923 Z" fill="#ffffff" fill-rule="evenodd" fill-opacity="1" /><path clip-path="url(#clip180)" d="M2474.19 74.371 Q2472.92 73.0184 2472.92 71.2558 Q2472.92 69.4933 2474.19 68.2226 Q2475.46 66.911 2477.38 66.911 Q2479.23 66.911 2480.46 68.1407 Q2481.73 69.3293 2481.73 71.2968 Q2481.73 73.2233 2480.38 74.494 Q2479.06 75.7237 2477.38 75.7237 Q2475.46 75.7237 2474.19 74.371 Z" fill="#ffffff" fill-rule="evenodd" fill-opacity="1" /><path clip-path="url(#clip180)" d="M2496.02 61.8693 L2496.02 59.287 L2521.8 19.8963 Q2522.45 18.8715 2523.48 18.9125 Q2524.42 18.9125 2524.63 19.2814 Q2524.83 19.6503 2524.83 21.085 L2524.83 59.287 L2533.23 59.287 L2533.23 61.8693 L2524.83 61.8693 L2524.83 69.1654 Q2524.83 71.5837 2525.82 72.3625 Q2526.84 73.1413 2531.19 73.1413 L2532.95 73.1413 L2532.95 75.7237 Q2529.5 75.4777 2521.55 75.4777 Q2513.64 75.4777 2510.2 75.7237 L2510.2 73.1413 L2511.96 73.1413 Q2516.31 73.1413 2517.33 72.4035 Q2518.36 71.6247 2518.36 69.1654 L2518.36 61.8693 L2496.02 61.8693 M2498.39 59.287 L2518.85 59.287 L2518.85 27.9712 L2498.39 59.287 Z" fill="#ffffff" fill-rule="evenodd" fill-opacity="1" /><path clip-path="url(#clip183)" d="M407.619 2170.9 L408.704 2094.38 L409.788 2053.96 L410.873 2021.03 L411.957 1992.2 L413.042 1966.08 L414.126 1941.93 L415.211 1919.32 L416.295 1897.94 L418.464 1858.12 L420.633 1821.35 L421.718 1803.88 L422.802 1786.95 L423.887 1770.49 L424.971 1754.47 L427.478 1718.92 L429.985 1685.16 L432.492 1652.93 L434.999 1622.02 L440.013 1563.61 L445.026 1509 L450.04 1457.56 L455.054 1408.83 L460.068 1362.47 L465.082 1318.23 L470.096 1275.89 L475.109 1235.29 L480.123 1196.28 L485.137 1158.75 L490.151 1122.6 L495.165 1087.75 L500.178 1054.12 L505.192 1021.66 L515.22 959.993 L525.248 902.382 L535.275 848.52 L545.303 798.158 L555.33 751.086 L565.358 707.124 L575.386 666.116 L585.413 627.925 L597.466 585.577 L609.518 546.929 L621.571 511.809 L633.623 480.06 L645.675 451.536 L657.728 426.104 L669.78 403.636 L681.833 384.012 L692.023 369.553 L702.213 356.979 L712.403 346.225 L722.593 337.229 L732.783 329.929 L742.973 324.266 L753.164 320.182 L763.354 317.62 L774.423 316.498 L785.492 317.036 L796.562 319.168 L807.631 322.826 L818.7 327.944 L829.77 334.458 L840.839 342.306 L851.909 351.424 L872.318 371.368 L892.728 395.06 L913.138 422.146 L933.548 452.283 L955.43 487.612 L977.311 525.689 L999.193 566.145 L1021.07 608.636 L1071.78 713.125 L1122.48 823.107 L1167.54 922.891 L1212.6 1022.64 L1252.12 1108.84 L1291.63 1192.95 L1313.17 1237.65 L1334.71 1281.43 L1356.25 1324.18 L1377.79 1365.85 L1421.12 1446.16 L1464.46 1521.46 L1488.42 1560.85 L1512.37 1598.63 L1536.33 1634.77 L1560.29 1669.28 L1583.08 1700.61 L1605.88 1730.49 L1628.67 1758.94 L1651.47 1785.97 L1675.17 1812.62 L1698.87 1837.82 L1722.57 1861.6 L1746.27 1884.02 L1786.17 1918.78 L1826.07 1950.03 L1874.79 1983.77 L1923.5 2013.06 L1968.13 2036.38 L2012.76 2056.66 L2053.97 2072.98 L2095.19 2087.22 L2136.94 2099.75 L2178.69 2110.59 L2272.27 2129.69 L2357.07 2142.08 L2454.17 2152.04 L2544.06 2158.32 L2632.69 2162.57 L2718.74 2165.38 L2806.95 2167.32 L2903.6 2168.7 L3044 2169.84 L3072.8 2169.99 L3072.8 2170.9 L3044 2170.9 L2903.6 2170.9 L2806.95 2170.9 L2718.74 2170.9 L2632.69 2170.9 L2544.06 2170.9 L2454.17 2170.9 L2357.07 2170.9 L2272.27 2170.9 L2178.69 2170.9 L2136.94 2170.9 L2095.19 2170.9 L2053.97 2170.9 L2012.76 2170.9 L1968.13 2170.9 L1923.5 2170.9 L1874.79 2170.9 L1826.07 2170.9 L1786.17 2170.9 L1746.27 2170.9 L1722.57 2170.9 L1698.87 2170.9 L1675.17 2170.9 L1651.47 2170.9 L1628.67 2170.9 L1605.88 2170.9 L1583.08 2170.9 L1560.29 2170.9 L1536.33 2170.9 L1512.37 2170.9 L1488.42 2170.9 L1464.46 2170.9 L1421.12 2170.9 L1377.79 2170.9 L1356.25 2170.9 L1334.71 2170.9 L1313.17 2170.9 L1291.63 2170.9 L1252.12 2170.9 L1212.6 2170.9 L1167.54 2170.9 L1122.48 2170.9 L1071.78 2170.9 L1021.07 2170.9 L999.193 2170.9 L977.311 2170.9 L955.43 2170.9 L933.548 2170.9 L913.138 2170.9 L892.728 2170.9 L872.318 2170.9 L851.909 2170.9 L840.839 2170.9 L829.77 2170.9 L818.7 2170.9 L807.631 2170.9 L796.562 2170.9 L785.492 2170.9 L774.423 2170.9 L763.354 2170.9 L753.164 2170.9 L742.973 2170.9 L732.783 2170.9 L722.593 2170.9 L712.403 2170.9 L702.213 2170.9 L692.023 2170.9 L681.833 2170.9 L669.78 2170.9 L657.728 2170.9 L645.675 2170.9 L633.623 2170.9 L621.571 2170.9 L609.518 2170.9 L597.466 2170.9 L585.413 2170.9 L575.386 2170.9 L565.358 2170.9 L555.33 2170.9 L545.303 2170.9 L535.275 2170.9 L525.248 2170.9 L515.22 2170.9 L505.192 2170.9 L500.178 2170.9 L495.165 2170.9 L490.151 2170.9 L485.137 2170.9 L480.123 2170.9 L475.109 2170.9 L470.096 2170.9 L465.082 2170.9 L460.068 2170.9 L455.054 2170.9 L450.04 2170.9 L445.026 2170.9 L440.013 2170.9 L434.999 2170.9 L432.492 2170.9 L429.985 2170.9 L427.478 2170.9 L424.971 2170.9 L423.887 2170.9 L422.802 2170.9 L421.718 2170.9 L420.633 2170.9 L418.464 2170.9 L416.295 2170.9 L415.211 2170.9 L414.126 2170.9 L413.042 2170.9 L411.957 2170.9 L410.873 2170.9 L409.788 2170.9 L408.704 2170.9 L407.619 2170.9  Z" fill="#ffc0cb" fill-rule="evenodd" fill-opacity="0.2"/>
<polyline clip-path="url(#clip183)" style="stroke:#ffc0cb; stroke-linecap:round; stroke-linejoin:round; stroke-width:4; stroke-opacity:1; fill:none" points="407.619,2170.9 408.704,2094.38 409.788,2053.96 410.873,2021.03 411.957,1992.2 413.042,1966.08 414.126,1941.93 415.211,1919.32 416.295,1897.94 418.464,1858.12 420.633,1821.35 421.718,1803.88 422.802,1786.95 423.887,1770.49 424.971,1754.47 427.478,1718.92 429.985,1685.16 432.492,1652.93 434.999,1622.02 440.013,1563.61 445.026,1509 450.04,1457.56 455.054,1408.83 460.068,1362.47 465.082,1318.23 470.096,1275.89 475.109,1235.29 480.123,1196.28 485.137,1158.75 490.151,1122.6 495.165,1087.75 500.178,1054.12 505.192,1021.66 515.22,959.993 525.248,902.382 535.275,848.52 545.303,798.158 555.33,751.086 565.358,707.124 575.386,666.116 585.413,627.925 597.466,585.577 609.518,546.929 621.571,511.809 633.623,480.06 645.675,451.536 657.728,426.104 669.78,403.636 681.833,384.012 692.023,369.553 702.213,356.979 712.403,346.225 722.593,337.229 732.783,329.929 742.973,324.266 753.164,320.182 763.354,317.62 774.423,316.498 785.492,317.036 796.562,319.168 807.631,322.826 818.7,327.944 829.77,334.458 840.839,342.306 851.909,351.424 872.318,371.368 892.728,395.06 913.138,422.146 933.548,452.283 955.43,487.612 977.311,525.689 999.193,566.145 1021.07,608.636 1071.78,713.125 1122.48,823.107 1167.54,922.891 1212.6,1022.64 1252.12,1108.84 1291.63,1192.95 1313.17,1237.65 1334.71,1281.43 1356.25,1324.18 1377.79,1365.85 1421.12,1446.16 1464.46,1521.46 1488.42,1560.85 1512.37,1598.63 1536.33,1634.77 1560.29,1669.28 1583.08,1700.61 1605.88,1730.49 1628.67,1758.94 1651.47,1785.97 1675.17,1812.62 1698.87,1837.82 1722.57,1861.6 1746.27,1884.02 1786.17,1918.78 1826.07,1950.03 1874.79,1983.77 1923.5,2013.06 1968.13,2036.38 2012.76,2056.66 2053.97,2072.98 2095.19,2087.22 2136.94,2099.75 2178.69,2110.59 2272.27,2129.69 2357.07,2142.08 2454.17,2152.04 2544.06,2158.32 2632.69,2162.57 2718.74,2165.38 2806.95,2167.32 2903.6,2168.7 3044,2169.84 3072.8,2169.99 "/>
<path clip-path="url(#clip180)" d="M2106.42 432.308 L3058.59 432.308 L3058.59 199.028 L2106.42 199.028  Z" fill="#7711d7" fill-rule="evenodd" fill-opacity="0.0313725"/>
<polyline clip-path="url(#clip180)" style="stroke:#ffffff; stroke-linecap:round; stroke-linejoin:round; stroke-width:4; stroke-opacity:1; fill:none" points="2106.42,432.308 3058.59,432.308 3058.59,199.028 2106.42,199.028 2106.42,432.308 "/>
<path clip-path="url(#clip180)" d="M2137.81 362.324 L2326.15 362.324 L2326.15 269.012 L2137.81 269.012 L2137.81 362.324  Z" fill="#ffc0cb" fill-rule="evenodd" fill-opacity="0.2"/>
<polyline clip-path="url(#clip180)" style="stroke:#ffc0cb; stroke-linecap:round; stroke-linejoin:round; stroke-width:9; stroke-opacity:1; fill:none" points="2137.81,269.012 2326.15,269.012 "/>
<path clip-path="url(#clip180)" d="M2357.54 275.179 L2368.16 275.179 L2384.52 340.907 L2400.82 275.179 L2412.64 275.179 L2428.99 340.907 L2445.3 275.179 L2455.97 275.179 L2436.44 352.939 L2423.21 352.939 L2406.81 285.439 L2390.24 352.939 L2377.02 352.939 L2357.54 275.179 Z" fill="#ffffff" fill-rule="evenodd" fill-opacity="1" /><path clip-path="url(#clip180)" d="M2513.16 321.376 L2513.16 326.064 L2469.1 326.064 Q2469.72 335.959 2475.04 341.168 Q2480.4 346.324 2489.93 346.324 Q2495.45 346.324 2500.61 344.97 Q2505.82 343.616 2510.92 340.907 L2510.92 349.97 Q2505.77 352.157 2500.35 353.303 Q2494.93 354.449 2489.36 354.449 Q2475.4 354.449 2467.22 346.324 Q2459.1 338.199 2459.1 324.345 Q2459.1 310.022 2466.81 301.637 Q2474.57 293.199 2487.69 293.199 Q2499.46 293.199 2506.29 300.803 Q2513.16 308.355 2513.16 321.376 M2503.58 318.564 Q2503.47 310.699 2499.15 306.012 Q2494.88 301.324 2487.8 301.324 Q2479.78 301.324 2474.93 305.855 Q2470.14 310.387 2469.41 318.616 L2503.58 318.564 Z" fill="#ffffff" fill-rule="evenodd" fill-opacity="1" /><path clip-path="url(#clip180)" d="M2528.89 294.606 L2538.47 294.606 L2538.47 352.939 L2528.89 352.939 L2528.89 294.606 M2528.89 271.897 L2538.47 271.897 L2538.47 284.033 L2528.89 284.033 L2528.89 271.897 Z" fill="#ffffff" fill-rule="evenodd" fill-opacity="1" /><path clip-path="url(#clip180)" d="M2600.4 323.824 Q2600.4 313.251 2596.02 307.262 Q2591.7 301.22 2584.1 301.22 Q2576.49 301.22 2572.12 307.262 Q2567.8 313.251 2567.8 323.824 Q2567.8 334.397 2572.12 340.439 Q2576.49 346.428 2584.1 346.428 Q2591.7 346.428 2596.02 340.439 Q2600.4 334.397 2600.4 323.824 M2567.8 303.46 Q2570.82 298.251 2575.4 295.751 Q2580.04 293.199 2586.44 293.199 Q2597.07 293.199 2603.68 301.637 Q2610.35 310.074 2610.35 323.824 Q2610.35 337.574 2603.68 346.012 Q2597.07 354.449 2586.44 354.449 Q2580.04 354.449 2575.4 351.949 Q2570.82 349.397 2567.8 344.189 L2567.8 352.939 L2558.16 352.939 L2558.16 271.897 L2567.8 271.897 L2567.8 303.46 Z" fill="#ffffff" fill-rule="evenodd" fill-opacity="1" /><path clip-path="url(#clip180)" d="M2625.24 329.918 L2625.24 294.606 L2634.83 294.606 L2634.83 329.553 Q2634.83 337.834 2638.06 342.001 Q2641.29 346.116 2647.74 346.116 Q2655.5 346.116 2659.98 341.168 Q2664.51 336.22 2664.51 327.678 L2664.51 294.606 L2674.1 294.606 L2674.1 352.939 L2664.51 352.939 L2664.51 343.98 Q2661.02 349.293 2656.39 351.897 Q2651.81 354.449 2645.71 354.449 Q2635.66 354.449 2630.45 348.199 Q2625.24 341.949 2625.24 329.918 M2649.36 293.199 L2649.36 293.199 Z" fill="#ffffff" fill-rule="evenodd" fill-opacity="1" /><path clip-path="url(#clip180)" d="M2693.84 271.897 L2703.42 271.897 L2703.42 352.939 L2693.84 352.939 L2693.84 271.897 Z" fill="#ffffff" fill-rule="evenodd" fill-opacity="1" /><path clip-path="url(#clip180)" d="M2723.47 271.897 L2733.06 271.897 L2733.06 352.939 L2723.47 352.939 L2723.47 271.897 Z" fill="#ffffff" fill-rule="evenodd" fill-opacity="1" /><path clip-path="url(#clip180)" d="M2878.62 291.068 Q2877.51 295.548 2872.45 303.611 Q2866.97 312.306 2858.54 323.163 Q2846.95 338.13 2839.04 350.251 L2833.51 352.728 L2832.67 352.201 Q2835.2 338.393 2831.77 322.267 Q2829.66 310.884 2829.19 299.816 Q2819.91 312.148 2812.27 324.006 Q2809.64 328.169 2803.63 336.865 Q2797.62 345.56 2794.88 350.04 Q2794.72 350.304 2793.04 351.41 Q2792.19 351.779 2790.45 352.464 Q2788.77 353.097 2787.87 353.466 L2786.76 352.622 Q2793.35 326.061 2794.77 308.565 Q2795.46 300.87 2794.77 294.968 Q2793.98 289.487 2792.09 286.694 Q2791.4 285.904 2791.03 285.587 Q2790.72 285.271 2789.93 284.85 Q2789.19 284.428 2788.4 284.428 Q2786.18 284.428 2784.81 285.798 Q2782.86 287.537 2781.44 290.278 Q2780.02 293.018 2779.54 295.179 L2776.96 294.968 Q2779.54 285.06 2786.24 279.632 Q2789.14 277.261 2794.14 277.261 Q2797.51 277.261 2800.04 280.739 Q2802.21 283.585 2802.73 288.275 Q2803.26 294.494 2802.73 301.239 Q2801.73 316.681 2796.3 339.236 L2797.25 339.236 L2810.43 321.634 Q2820.86 307.353 2826.08 298.235 Q2831.88 287.748 2833.72 280.317 L2840.83 277.155 L2841.94 278.051 Q2839.31 283.374 2838.46 287.01 Q2835.2 300.08 2838.78 316.364 Q2841.36 328.327 2841.52 339.869 Q2842.31 338.868 2844.89 335.705 Q2847.47 332.491 2848.53 331.173 Q2849.64 329.856 2851.8 327.063 Q2854.01 324.269 2855.33 322.478 Q2856.64 320.686 2858.33 318.262 Q2860.07 315.837 2861.49 313.677 Q2867.82 303.822 2869.77 295.969 Q2870.77 291.648 2870.77 289.382 Q2870.77 286.799 2869.77 285.377 Q2867.76 282.9 2864.5 282.9 Q2860.76 282.9 2856.49 286.799 L2854.8 285.587 Q2856.75 283.637 2858.33 282.373 Q2864.87 277.155 2870.98 277.155 Q2875.51 277.155 2877.46 280.001 Q2880.41 284.006 2878.62 291.068 Z" fill="#ffffff" fill-rule="evenodd" fill-opacity="1" /><path clip-path="url(#clip180)" d="M2960.32 271.897 L2960.32 279.866 L2951.16 279.866 Q2946 279.866 2943.97 281.949 Q2941.99 284.033 2941.99 289.449 L2941.99 294.606 L2957.77 294.606 L2957.77 302.053 L2941.99 302.053 L2941.99 352.939 L2932.35 352.939 L2932.35 302.053 L2923.19 302.053 L2923.19 294.606 L2932.35 294.606 L2932.35 290.543 Q2932.35 280.804 2936.88 276.376 Q2941.42 271.897 2951.26 271.897 L2960.32 271.897 Z" fill="#ffffff" fill-rule="evenodd" fill-opacity="1" /><path clip-path="url(#clip180)" d="M2968.34 294.606 L2977.93 294.606 L2977.93 352.939 L2968.34 352.939 L2968.34 294.606 M2968.34 271.897 L2977.93 271.897 L2977.93 284.033 L2968.34 284.033 L2968.34 271.897 Z" fill="#ffffff" fill-rule="evenodd" fill-opacity="1" /><path clip-path="url(#clip180)" d="M3007.46 278.043 L3007.46 294.606 L3027.2 294.606 L3027.2 302.053 L3007.46 302.053 L3007.46 333.72 Q3007.46 340.855 3009.38 342.887 Q3011.36 344.918 3017.35 344.918 L3027.2 344.918 L3027.2 352.939 L3017.35 352.939 Q3006.26 352.939 3002.04 348.824 Q2997.82 344.657 2997.82 333.72 L2997.82 302.053 L2990.79 302.053 L2990.79 294.606 L2997.82 294.606 L2997.82 278.043 L3007.46 278.043 Z" fill="#ffffff" fill-rule="evenodd" fill-opacity="1" /></svg>
