<?xml version="1.0" encoding="utf-8"?>
<svg xmlns="http://www.w3.org/2000/svg" xmlns:xlink="http://www.w3.org/1999/xlink" width="800" height="600" viewBox="0 0 3200 2400">
<defs>
  <clipPath id="clip020">
    <rect x="0" y="0" width="3200" height="2400"/>
  </clipPath>
</defs>
<path clip-path="url(#clip020)" d="M0 2400 L3200 2400 L3200 0 L0 0  Z" fill="#7711d7" fill-rule="evenodd" fill-opacity="0.0313725"/>
<defs>
  <clipPath id="clip021">
    <rect x="640" y="0" width="2241" height="2241"/>
  </clipPath>
</defs>
<defs>
  <clipPath id="clip022">
    <rect x="253" y="47" width="2901" height="2125"/>
  </clipPath>
</defs>
<path clip-path="url(#clip020)" d="M297.502 2170.9 L3152.76 2170.9 L3152.76 131.032 L297.502 131.032  Z" fill="#7711d7" fill-rule="evenodd" fill-opacity="0.0313725"/>
<defs>
  <clipPath id="clip023">
    <rect x="297" y="131" width="2856" height="2041"/>
  </clipPath>
</defs>
<polyline clip-path="url(#clip023)" style="stroke:#ffffff; stroke-linecap:round; stroke-linejoin:round; stroke-width:2; stroke-opacity:0.1; fill:none" points="378.311,2170.9 378.311,131.032 "/>
<polyline clip-path="url(#clip023)" style="stroke:#ffffff; stroke-linecap:round; stroke-linejoin:round; stroke-width:2; stroke-opacity:0.1; fill:none" points="1194.34,2170.9 1194.34,131.032 "/>
<polyline clip-path="url(#clip023)" style="stroke:#ffffff; stroke-linecap:round; stroke-linejoin:round; stroke-width:2; stroke-opacity:0.1; fill:none" points="2010.37,2170.9 2010.37,131.032 "/>
<polyline clip-path="url(#clip023)" style="stroke:#ffffff; stroke-linecap:round; stroke-linejoin:round; stroke-width:2; stroke-opacity:0.1; fill:none" points="2826.41,2170.9 2826.41,131.032 "/>
<polyline clip-path="url(#clip020)" style="stroke:#ffffff; stroke-linecap:round; stroke-linejoin:round; stroke-width:4; stroke-opacity:1; fill:none" points="297.502,2170.9 3152.76,2170.9 "/>
<polyline clip-path="url(#clip020)" style="stroke:#ffffff; stroke-linecap:round; stroke-linejoin:round; stroke-width:4; stroke-opacity:1; fill:none" points="378.311,2170.9 378.311,2152 "/>
<polyline clip-path="url(#clip020)" style="stroke:#ffffff; stroke-linecap:round; stroke-linejoin:round; stroke-width:4; stroke-opacity:1; fill:none" points="1194.34,2170.9 1194.34,2152 "/>
<polyline clip-path="url(#clip020)" style="stroke:#ffffff; stroke-linecap:round; stroke-linejoin:round; stroke-width:4; stroke-opacity:1; fill:none" points="2010.37,2170.9 2010.37,2152 "/>
<polyline clip-path="url(#clip020)" style="stroke:#ffffff; stroke-linecap:round; stroke-linejoin:round; stroke-width:4; stroke-opacity:1; fill:none" points="2826.41,2170.9 2826.41,2152 "/>
<path clip-path="url(#clip020)" d="M378.311 2208.22 Q374.7 2208.22 372.871 2211.78 Q371.066 2215.32 371.066 2222.45 Q371.066 2229.56 372.871 2233.13 Q374.7 2236.67 378.311 2236.67 Q381.945 2236.67 383.751 2233.13 Q385.58 2229.56 385.58 2222.45 Q385.58 2215.32 383.751 2211.78 Q381.945 2208.22 378.311 2208.22 M378.311 2204.51 Q384.121 2204.51 387.177 2209.12 Q390.255 2213.7 390.255 2222.45 Q390.255 2231.18 387.177 2235.79 Q384.121 2240.37 378.311 2240.37 Q372.501 2240.37 369.422 2235.79 Q366.367 2231.18 366.367 2222.45 Q366.367 2213.7 369.422 2209.12 Q372.501 2204.51 378.311 2204.51 Z" fill="#ffffff" fill-rule="evenodd" fill-opacity="1" /><path clip-path="url(#clip020)" d="M1169.04 2205.14 L1187.4 2205.14 L1187.4 2209.08 L1173.32 2209.08 L1173.32 2217.55 Q1174.34 2217.2 1175.36 2217.04 Q1176.38 2216.85 1177.4 2216.85 Q1183.19 2216.85 1186.57 2220.02 Q1189.94 2223.2 1189.94 2228.61 Q1189.94 2234.19 1186.47 2237.29 Q1183 2240.37 1176.68 2240.37 Q1174.51 2240.37 1172.24 2240 Q1169.99 2239.63 1167.58 2238.89 L1167.58 2234.19 Q1169.67 2235.32 1171.89 2235.88 Q1174.11 2236.44 1176.59 2236.44 Q1180.59 2236.44 1182.93 2234.33 Q1185.27 2232.22 1185.27 2228.61 Q1185.27 2225 1182.93 2222.89 Q1180.59 2220.79 1176.59 2220.79 Q1174.71 2220.79 1172.84 2221.2 Q1170.99 2221.62 1169.04 2222.5 L1169.04 2205.14 Z" fill="#ffffff" fill-rule="evenodd" fill-opacity="1" /><path clip-path="url(#clip020)" d="M1209.16 2208.22 Q1205.55 2208.22 1203.72 2211.78 Q1201.91 2215.32 1201.91 2222.45 Q1201.91 2229.56 1203.72 2233.13 Q1205.55 2236.67 1209.16 2236.67 Q1212.79 2236.67 1214.6 2233.13 Q1216.43 2229.56 1216.43 2222.45 Q1216.43 2215.32 1214.6 2211.78 Q1212.79 2208.22 1209.16 2208.22 M1209.16 2204.51 Q1214.97 2204.51 1218.02 2209.12 Q1221.1 2213.7 1221.1 2222.45 Q1221.1 2231.18 1218.02 2235.79 Q1214.97 2240.37 1209.16 2240.37 Q1203.35 2240.37 1200.27 2235.79 Q1197.21 2231.18 1197.21 2222.45 Q1197.21 2213.7 1200.27 2209.12 Q1203.35 2204.51 1209.16 2204.51 Z" fill="#ffffff" fill-rule="evenodd" fill-opacity="1" /><path clip-path="url(#clip020)" d="M1969.98 2235.76 L1977.62 2235.76 L1977.62 2209.4 L1969.31 2211.07 L1969.31 2206.81 L1977.57 2205.14 L1982.25 2205.14 L1982.25 2235.76 L1989.89 2235.76 L1989.89 2239.7 L1969.98 2239.7 L1969.98 2235.76 Z" fill="#ffffff" fill-rule="evenodd" fill-opacity="1" /><path clip-path="url(#clip020)" d="M2009.33 2208.22 Q2005.72 2208.22 2003.89 2211.78 Q2002.09 2215.32 2002.09 2222.45 Q2002.09 2229.56 2003.89 2233.13 Q2005.72 2236.67 2009.33 2236.67 Q2012.97 2236.67 2014.77 2233.13 Q2016.6 2229.56 2016.6 2222.45 Q2016.6 2215.32 2014.77 2211.78 Q2012.97 2208.22 2009.33 2208.22 M2009.33 2204.51 Q2015.14 2204.51 2018.2 2209.12 Q2021.28 2213.7 2021.28 2222.45 Q2021.28 2231.18 2018.2 2235.79 Q2015.14 2240.37 2009.33 2240.37 Q2003.52 2240.37 2000.44 2235.79 Q1997.39 2231.18 1997.39 2222.45 Q1997.39 2213.7 2000.44 2209.12 Q2003.52 2204.51 2009.33 2204.51 Z" fill="#ffffff" fill-rule="evenodd" fill-opacity="1" /><path clip-path="url(#clip020)" d="M2039.49 2208.22 Q2035.88 2208.22 2034.06 2211.78 Q2032.25 2215.32 2032.25 2222.45 Q2032.25 2229.56 2034.06 2233.13 Q2035.88 2236.67 2039.49 2236.67 Q2043.13 2236.67 2044.93 2233.13 Q2046.76 2229.56 2046.76 2222.45 Q2046.76 2215.32 2044.93 2211.78 Q2043.13 2208.22 2039.49 2208.22 M2039.49 2204.51 Q2045.31 2204.51 2048.36 2209.12 Q2051.44 2213.7 2051.44 2222.45 Q2051.44 2231.18 2048.36 2235.79 Q2045.31 2240.37 2039.49 2240.37 Q2033.68 2240.37 2030.61 2235.79 Q2027.55 2231.18 2027.55 2222.45 Q2027.55 2213.7 2030.61 2209.12 Q2033.68 2204.51 2039.49 2204.51 Z" fill="#ffffff" fill-rule="evenodd" fill-opacity="1" /><path clip-path="url(#clip020)" d="M2786.01 2235.76 L2793.65 2235.76 L2793.65 2209.4 L2785.34 2211.07 L2785.34 2206.81 L2793.61 2205.14 L2798.28 2205.14 L2798.28 2235.76 L2805.92 2235.76 L2805.92 2239.7 L2786.01 2239.7 L2786.01 2235.76 Z" fill="#ffffff" fill-rule="evenodd" fill-opacity="1" /><path clip-path="url(#clip020)" d="M2815.41 2205.14 L2833.77 2205.14 L2833.77 2209.08 L2819.69 2209.08 L2819.69 2217.55 Q2820.71 2217.2 2821.73 2217.04 Q2822.75 2216.85 2823.77 2216.85 Q2829.55 2216.85 2832.93 2220.02 Q2836.31 2223.2 2836.31 2228.61 Q2836.31 2234.19 2832.84 2237.29 Q2829.37 2240.37 2823.05 2240.37 Q2820.87 2240.37 2818.61 2240 Q2816.36 2239.63 2813.95 2238.89 L2813.95 2234.19 Q2816.04 2235.32 2818.26 2235.88 Q2820.48 2236.44 2822.96 2236.44 Q2826.96 2236.44 2829.3 2234.33 Q2831.64 2232.22 2831.64 2228.61 Q2831.64 2225 2829.3 2222.89 Q2826.96 2220.79 2822.96 2220.79 Q2821.08 2220.79 2819.21 2221.2 Q2817.36 2221.62 2815.41 2222.5 L2815.41 2205.14 Z" fill="#ffffff" fill-rule="evenodd" fill-opacity="1" /><path clip-path="url(#clip020)" d="M2855.53 2208.22 Q2851.92 2208.22 2850.09 2211.78 Q2848.28 2215.32 2848.28 2222.45 Q2848.28 2229.56 2850.09 2233.13 Q2851.92 2236.67 2855.53 2236.67 Q2859.16 2236.67 2860.97 2233.13 Q2862.8 2229.56 2862.8 2222.45 Q2862.8 2215.32 2860.97 2211.78 Q2859.16 2208.22 2855.53 2208.22 M2855.53 2204.51 Q2861.34 2204.51 2864.39 2209.12 Q2867.47 2213.7 2867.47 2222.45 Q2867.47 2231.18 2864.39 2235.79 Q2861.34 2240.37 2855.53 2240.37 Q2849.72 2240.37 2846.64 2235.79 Q2843.58 2231.18 2843.58 2222.45 Q2843.58 2213.7 2846.64 2209.12 Q2849.72 2204.51 2855.53 2204.51 Z" fill="#ffffff" fill-rule="evenodd" fill-opacity="1" /><path clip-path="url(#clip020)" d="M1277.74 2298.49 Q1281.13 2299.64 1284.3 2303.39 Q1287.53 2307.14 1290.76 2313.7 L1301.44 2334.95 L1290.14 2334.95 L1280.19 2315 Q1276.34 2307.19 1272.69 2304.64 Q1269.1 2302.09 1262.85 2302.09 L1251.39 2302.09 L1251.39 2334.95 L1240.87 2334.95 L1240.87 2257.19 L1264.62 2257.19 Q1277.95 2257.19 1284.51 2262.76 Q1291.07 2268.34 1291.07 2279.59 Q1291.07 2286.93 1287.64 2291.77 Q1284.25 2296.62 1277.74 2298.49 M1251.39 2265.84 L1251.39 2293.44 L1264.62 2293.44 Q1272.22 2293.44 1276.07 2289.95 Q1279.98 2286.41 1279.98 2279.59 Q1279.98 2272.76 1276.07 2269.33 Q1272.22 2265.84 1264.62 2265.84 L1251.39 2265.84 Z" fill="#ffffff" fill-rule="evenodd" fill-opacity="1" /><path clip-path="url(#clip020)" d="M1359.67 2303.39 L1359.67 2308.08 L1315.61 2308.08 Q1316.23 2317.97 1321.54 2323.18 Q1326.91 2328.34 1336.44 2328.34 Q1341.96 2328.34 1347.12 2326.98 Q1352.32 2325.63 1357.43 2322.92 L1357.43 2331.98 Q1352.27 2334.17 1346.86 2335.32 Q1341.44 2336.46 1335.87 2336.46 Q1321.91 2336.46 1313.73 2328.34 Q1305.61 2320.21 1305.61 2306.36 Q1305.61 2292.04 1313.31 2283.65 Q1321.07 2275.21 1334.2 2275.21 Q1345.97 2275.21 1352.79 2282.82 Q1359.67 2290.37 1359.67 2303.39 M1350.08 2300.58 Q1349.98 2292.71 1345.66 2288.02 Q1341.39 2283.34 1334.3 2283.34 Q1326.28 2283.34 1321.44 2287.87 Q1316.65 2292.4 1315.92 2300.63 L1350.08 2300.58 Z" fill="#ffffff" fill-rule="evenodd" fill-opacity="1" /><path clip-path="url(#clip020)" d="M1375.4 2253.91 L1384.98 2253.91 L1384.98 2334.95 L1375.4 2334.95 L1375.4 2253.91 Z" fill="#ffffff" fill-rule="evenodd" fill-opacity="1" /><path clip-path="url(#clip020)" d="M1431.54 2305.63 Q1419.93 2305.63 1415.45 2308.29 Q1410.97 2310.94 1410.97 2317.35 Q1410.97 2322.45 1414.3 2325.47 Q1417.69 2328.44 1423.47 2328.44 Q1431.44 2328.44 1436.23 2322.82 Q1441.07 2317.14 1441.07 2307.76 L1441.07 2305.63 L1431.54 2305.63 M1450.66 2301.67 L1450.66 2334.95 L1441.07 2334.95 L1441.07 2326.1 Q1437.79 2331.41 1432.9 2333.96 Q1428 2336.46 1420.92 2336.46 Q1411.96 2336.46 1406.65 2331.46 Q1401.39 2326.41 1401.39 2317.97 Q1401.39 2308.13 1407.95 2303.13 Q1414.56 2298.13 1427.64 2298.13 L1441.07 2298.13 L1441.07 2297.19 Q1441.07 2290.58 1436.7 2286.98 Q1432.38 2283.34 1424.51 2283.34 Q1419.51 2283.34 1414.77 2284.54 Q1410.03 2285.73 1405.66 2288.13 L1405.66 2279.27 Q1410.92 2277.24 1415.87 2276.25 Q1420.81 2275.21 1425.5 2275.21 Q1438.16 2275.21 1444.41 2281.77 Q1450.66 2288.34 1450.66 2301.67 Z" fill="#ffffff" fill-rule="evenodd" fill-opacity="1" /><path clip-path="url(#clip020)" d="M1479.88 2260.06 L1479.88 2276.62 L1499.62 2276.62 L1499.62 2284.07 L1479.88 2284.07 L1479.88 2315.73 Q1479.88 2322.87 1481.8 2324.9 Q1483.78 2326.93 1489.77 2326.93 L1499.62 2326.93 L1499.62 2334.95 L1489.77 2334.95 Q1478.68 2334.95 1474.46 2330.84 Q1470.24 2326.67 1470.24 2315.73 L1470.24 2284.07 L1463.21 2284.07 L1463.21 2276.62 L1470.24 2276.62 L1470.24 2260.06 L1479.88 2260.06 Z" fill="#ffffff" fill-rule="evenodd" fill-opacity="1" /><path clip-path="url(#clip020)" d="M1512.22 2276.62 L1521.8 2276.62 L1521.8 2334.95 L1512.22 2334.95 L1512.22 2276.62 M1512.22 2253.91 L1521.8 2253.91 L1521.8 2266.05 L1512.22 2266.05 L1512.22 2253.91 Z" fill="#ffffff" fill-rule="evenodd" fill-opacity="1" /><path clip-path="url(#clip020)" d="M1534.98 2276.62 L1545.14 2276.62 L1563.36 2325.58 L1581.59 2276.62 L1591.75 2276.62 L1569.88 2334.95 L1556.85 2334.95 L1534.98 2276.62 Z" fill="#ffffff" fill-rule="evenodd" fill-opacity="1" /><path clip-path="url(#clip020)" d="M1654.87 2303.39 L1654.87 2308.08 L1610.81 2308.08 Q1611.44 2317.97 1616.75 2323.18 Q1622.11 2328.34 1631.65 2328.34 Q1637.17 2328.34 1642.32 2326.98 Q1647.53 2325.63 1652.64 2322.92 L1652.64 2331.98 Q1647.48 2334.17 1642.06 2335.32 Q1636.65 2336.46 1631.07 2336.46 Q1617.11 2336.46 1608.94 2328.34 Q1600.81 2320.21 1600.81 2306.36 Q1600.81 2292.04 1608.52 2283.65 Q1616.28 2275.21 1629.41 2275.21 Q1641.18 2275.21 1648 2282.82 Q1654.87 2290.37 1654.87 2303.39 M1645.29 2300.58 Q1645.19 2292.71 1640.86 2288.02 Q1636.59 2283.34 1629.51 2283.34 Q1621.49 2283.34 1616.65 2287.87 Q1611.85 2292.4 1611.12 2300.63 L1645.29 2300.58 Z" fill="#ffffff" fill-rule="evenodd" fill-opacity="1" /><path clip-path="url(#clip020)" d="M1704.51 2276.62 L1714.09 2276.62 L1714.09 2334.95 L1704.51 2334.95 L1704.51 2276.62 M1704.51 2253.91 L1714.09 2253.91 L1714.09 2266.05 L1704.51 2266.05 L1704.51 2253.91 Z" fill="#ffffff" fill-rule="evenodd" fill-opacity="1" /><path clip-path="url(#clip020)" d="M1782.63 2299.74 L1782.63 2334.95 L1773.05 2334.95 L1773.05 2300.06 Q1773.05 2291.77 1769.82 2287.66 Q1766.59 2283.55 1760.13 2283.55 Q1752.37 2283.55 1747.9 2288.49 Q1743.42 2293.44 1743.42 2301.98 L1743.42 2334.95 L1733.78 2334.95 L1733.78 2276.62 L1743.42 2276.62 L1743.42 2285.68 Q1746.85 2280.42 1751.49 2277.82 Q1756.18 2275.21 1762.27 2275.21 Q1772.32 2275.21 1777.48 2281.46 Q1782.63 2287.66 1782.63 2299.74 Z" fill="#ffffff" fill-rule="evenodd" fill-opacity="1" /><path clip-path="url(#clip020)" d="M1843.73 2278.86 L1843.73 2287.82 Q1839.67 2285.58 1835.55 2284.48 Q1831.49 2283.34 1827.32 2283.34 Q1818 2283.34 1812.84 2289.27 Q1807.69 2295.16 1807.69 2305.84 Q1807.69 2316.51 1812.84 2322.45 Q1818 2328.34 1827.32 2328.34 Q1831.49 2328.34 1835.55 2327.24 Q1839.67 2326.1 1843.73 2323.86 L1843.73 2332.71 Q1839.72 2334.59 1835.39 2335.52 Q1831.12 2336.46 1826.28 2336.46 Q1813.1 2336.46 1805.34 2328.18 Q1797.58 2319.9 1797.58 2305.84 Q1797.58 2291.57 1805.39 2283.39 Q1813.26 2275.21 1826.91 2275.21 Q1831.33 2275.21 1835.55 2276.15 Q1839.77 2277.04 1843.73 2278.86 Z" fill="#ffffff" fill-rule="evenodd" fill-opacity="1" /><path clip-path="url(#clip020)" d="M1883 2283.34 Q1875.29 2283.34 1870.81 2289.38 Q1866.33 2295.37 1866.33 2305.84 Q1866.33 2316.31 1870.76 2322.35 Q1875.24 2328.34 1883 2328.34 Q1890.65 2328.34 1895.13 2322.3 Q1899.61 2316.25 1899.61 2305.84 Q1899.61 2295.47 1895.13 2289.43 Q1890.65 2283.34 1883 2283.34 M1883 2275.21 Q1895.5 2275.21 1902.63 2283.34 Q1909.77 2291.46 1909.77 2305.84 Q1909.77 2320.16 1902.63 2328.34 Q1895.5 2336.46 1883 2336.46 Q1870.45 2336.46 1863.31 2328.34 Q1856.23 2320.16 1856.23 2305.84 Q1856.23 2291.46 1863.31 2283.34 Q1870.45 2275.21 1883 2275.21 Z" fill="#ffffff" fill-rule="evenodd" fill-opacity="1" /><path clip-path="url(#clip020)" d="M1971.07 2287.82 Q1974.66 2281.36 1979.66 2278.29 Q1984.66 2275.21 1991.44 2275.21 Q2000.55 2275.21 2005.5 2281.62 Q2010.45 2287.97 2010.45 2299.74 L2010.45 2334.95 L2000.81 2334.95 L2000.81 2300.06 Q2000.81 2291.67 1997.84 2287.61 Q1994.87 2283.55 1988.78 2283.55 Q1981.33 2283.55 1977.01 2288.49 Q1972.69 2293.44 1972.69 2301.98 L1972.69 2334.95 L1963.05 2334.95 L1963.05 2300.06 Q1963.05 2291.62 1960.08 2287.61 Q1957.11 2283.55 1950.91 2283.55 Q1943.57 2283.55 1939.25 2288.55 Q1934.93 2293.49 1934.93 2301.98 L1934.93 2334.95 L1925.29 2334.95 L1925.29 2276.62 L1934.93 2276.62 L1934.93 2285.68 Q1938.21 2280.32 1942.79 2277.76 Q1947.37 2275.21 1953.68 2275.21 Q1960.03 2275.21 1964.46 2278.44 Q1968.94 2281.67 1971.07 2287.82 Z" fill="#ffffff" fill-rule="evenodd" fill-opacity="1" /><path clip-path="url(#clip020)" d="M2079.46 2303.39 L2079.46 2308.08 L2035.39 2308.08 Q2036.02 2317.97 2041.33 2323.18 Q2046.7 2328.34 2056.23 2328.34 Q2061.75 2328.34 2066.9 2326.98 Q2072.11 2325.63 2077.22 2322.92 L2077.22 2331.98 Q2072.06 2334.17 2066.64 2335.32 Q2061.23 2336.46 2055.65 2336.46 Q2041.7 2336.46 2033.52 2328.34 Q2025.39 2320.21 2025.39 2306.36 Q2025.39 2292.04 2033.1 2283.65 Q2040.86 2275.21 2053.99 2275.21 Q2065.76 2275.21 2072.58 2282.82 Q2079.46 2290.37 2079.46 2303.39 M2069.87 2300.58 Q2069.77 2292.71 2065.45 2288.02 Q2061.17 2283.34 2054.09 2283.34 Q2046.07 2283.34 2041.23 2287.87 Q2036.44 2292.4 2035.71 2300.63 L2069.87 2300.58 Z" fill="#ffffff" fill-rule="evenodd" fill-opacity="1" /><path clip-path="url(#clip020)" d="M2146.6 2267.5 Q2146.6 2269.81 2144.7 2271.55 Q2142.86 2273.24 2140.86 2273.24 Q2139.01 2273.24 2137.85 2272.13 Q2136.75 2270.97 2136.75 2269.34 Q2136.75 2267.18 2138.59 2265.39 Q2140.44 2263.6 2142.6 2263.6 Q2144.39 2263.6 2145.49 2264.7 Q2146.6 2265.81 2146.6 2267.5 M2147.55 2319.51 Q2147.55 2319.93 2147.08 2321.62 Q2146.6 2323.25 2145.44 2325.78 Q2144.34 2328.26 2142.81 2330.58 Q2141.28 2332.9 2138.75 2334.53 Q2136.27 2336.16 2133.43 2336.16 Q2129.58 2336.16 2127.05 2333.63 Q2124.57 2331.1 2124.57 2327.31 Q2124.57 2325.25 2127.05 2318.67 Q2134.22 2299.48 2134.48 2298.69 Q2135.69 2295.69 2135.69 2293.05 Q2135.69 2291.84 2135.43 2291.1 Q2135.17 2290.31 2134.64 2290.05 Q2134.11 2289.73 2133.8 2289.68 Q2133.53 2289.63 2133 2289.63 Q2129.9 2289.63 2127 2292.79 Q2124.1 2295.95 2122.1 2303.02 Q2121.67 2304.33 2121.41 2304.65 Q2121.15 2304.97 2120.36 2304.97 Q2119.04 2304.91 2119.04 2303.86 Q2119.04 2303.54 2119.41 2302.33 Q2119.78 2301.07 2120.46 2299.17 Q2121.15 2297.22 2122.36 2295.22 Q2123.57 2293.16 2125.05 2291.37 Q2126.58 2289.58 2128.74 2288.42 Q2130.9 2287.26 2133.32 2287.26 Q2137.27 2287.26 2139.7 2289.84 Q2142.17 2292.37 2142.17 2296.11 Q2142.17 2298.17 2140.75 2301.8 Q2139.01 2306.55 2138.38 2308.07 L2134.16 2319.41 Q2132.64 2323.52 2132.16 2324.78 Q2131.74 2325.99 2131.37 2327.47 Q2131.05 2328.89 2131.05 2330.21 Q2131.05 2332.05 2131.63 2332.9 Q2132.27 2333.74 2133.64 2333.74 Q2137.43 2333.74 2140.22 2330 Q2143.02 2326.2 2144.65 2320.41 Q2144.7 2320.25 2144.76 2319.98 Q2145.18 2318.67 2145.6 2318.51 Q2145.81 2318.46 2146.23 2318.46 Q2147.55 2318.46 2147.55 2319.51 Z" fill="#ffffff" fill-rule="evenodd" fill-opacity="1" /><path clip-path="url(#clip020)" d="M2198.26 2334.67 Q2198.26 2340.06 2195.53 2345.26 Q2192.84 2350.46 2188.6 2353.67 Q2184.35 2356.84 2180.04 2356.84 Q2177.45 2356.84 2175.72 2355.44 Q2174.02 2354 2173.1 2351.98 Q2172.4 2354.48 2170.89 2360.5 Q2169.38 2366.51 2169.38 2367.1 Q2169.38 2367.43 2169.45 2367.58 Q2169.52 2367.73 2169.86 2367.91 Q2170.19 2368.13 2171 2368.21 Q2171.81 2368.32 2173.18 2368.32 Q2173.88 2368.32 2174.13 2368.32 Q2174.43 2368.35 2174.69 2368.54 Q2174.98 2368.72 2174.98 2369.13 Q2174.98 2370.64 2173.62 2370.64 Q2172.4 2370.64 2169.89 2370.53 Q2167.38 2370.42 2166.13 2370.42 Q2165.06 2370.42 2162.92 2370.53 Q2160.78 2370.64 2159.78 2370.64 Q2158.79 2370.64 2158.79 2369.76 Q2158.79 2369.24 2158.94 2368.91 Q2159.05 2368.61 2159.34 2368.47 Q2159.64 2368.35 2159.89 2368.32 Q2160.12 2368.32 2160.56 2368.32 Q2162.26 2368.32 2162.99 2368.02 Q2163.73 2367.76 2163.99 2367.21 Q2164.28 2366.69 2164.62 2365.22 L2173.1 2331.57 Q2173.62 2329.32 2173.62 2327.74 Q2173.62 2325.75 2172.99 2325.01 Q2172.36 2324.27 2171.26 2324.27 Q2169.34 2324.27 2168.08 2326.56 Q2166.83 2328.84 2165.76 2333.27 Q2165.43 2334.49 2165.21 2334.75 Q2165.02 2335.01 2164.47 2335.01 Q2163.55 2334.97 2163.55 2334.23 Q2163.55 2334.05 2163.84 2332.87 Q2164.14 2331.65 2164.69 2329.88 Q2165.28 2328.07 2165.91 2326.93 Q2166.28 2326.15 2166.61 2325.64 Q2166.94 2325.12 2167.6 2324.31 Q2168.31 2323.5 2169.3 2323.05 Q2170.3 2322.61 2171.52 2322.61 Q2173.88 2322.61 2175.83 2324.01 Q2177.79 2325.41 2178.3 2328.25 Q2180.41 2325.78 2182.99 2324.2 Q2185.57 2322.61 2188.19 2322.61 Q2192.54 2322.61 2195.38 2326 Q2198.26 2329.36 2198.26 2334.67 M2192.8 2331.35 Q2192.8 2328 2191.51 2326.15 Q2190.26 2324.27 2187.97 2324.27 Q2185.13 2324.27 2181.84 2327.15 Q2178.6 2329.88 2177.93 2332.42 L2174.21 2347.22 L2173.99 2348.43 Q2173.99 2348.66 2174.1 2349.32 Q2174.25 2349.95 2174.65 2350.98 Q2175.09 2352.01 2175.68 2352.93 Q2176.31 2353.82 2177.42 2354.48 Q2178.56 2355.15 2179.96 2355.15 Q2182.21 2355.15 2184.65 2353.16 Q2187.12 2351.16 2188.96 2347.4 Q2190.11 2344.97 2191.44 2339.73 Q2192.8 2334.45 2192.8 2331.35 Z" fill="#ffffff" fill-rule="evenodd" fill-opacity="1" /><polyline clip-path="url(#clip023)" style="stroke:#ffffff; stroke-linecap:round; stroke-linejoin:round; stroke-width:2; stroke-opacity:0.1; fill:none" points="297.502,2170.9 3152.76,2170.9 "/>
<polyline clip-path="url(#clip023)" style="stroke:#ffffff; stroke-linecap:round; stroke-linejoin:round; stroke-width:2; stroke-opacity:0.1; fill:none" points="297.502,1493.59 3152.76,1493.59 "/>
<polyline clip-path="url(#clip023)" style="stroke:#ffffff; stroke-linecap:round; stroke-linejoin:round; stroke-width:2; stroke-opacity:0.1; fill:none" points="297.502,816.275 3152.76,816.275 "/>
<polyline clip-path="url(#clip023)" style="stroke:#ffffff; stroke-linecap:round; stroke-linejoin:round; stroke-width:2; stroke-opacity:0.1; fill:none" points="297.502,138.963 3152.76,138.963 "/>
<polyline clip-path="url(#clip020)" style="stroke:#ffffff; stroke-linecap:round; stroke-linejoin:round; stroke-width:4; stroke-opacity:1; fill:none" points="297.502,2170.9 297.502,131.032 "/>
<polyline clip-path="url(#clip020)" style="stroke:#ffffff; stroke-linecap:round; stroke-linejoin:round; stroke-width:4; stroke-opacity:1; fill:none" points="297.502,2170.9 316.4,2170.9 "/>
<polyline clip-path="url(#clip020)" style="stroke:#ffffff; stroke-linecap:round; stroke-linejoin:round; stroke-width:4; stroke-opacity:1; fill:none" points="297.502,1493.59 316.4,1493.59 "/>
<polyline clip-path="url(#clip020)" style="stroke:#ffffff; stroke-linecap:round; stroke-linejoin:round; stroke-width:4; stroke-opacity:1; fill:none" points="297.502,816.275 316.4,816.275 "/>
<polyline clip-path="url(#clip020)" style="stroke:#ffffff; stroke-linecap:round; stroke-linejoin:round; stroke-width:4; stroke-opacity:1; fill:none" points="297.502,138.963 316.4,138.963 "/>
<path clip-path="url(#clip020)" d="M162.165 2156.7 Q158.553 2156.7 156.725 2160.26 Q154.919 2163.8 154.919 2170.93 Q154.919 2178.04 156.725 2181.61 Q158.553 2185.15 162.165 2185.15 Q165.799 2185.15 167.604 2181.61 Q169.433 2178.04 169.433 2170.93 Q169.433 2163.8 167.604 2160.26 Q165.799 2156.7 162.165 2156.7 M162.165 2152.99 Q167.975 2152.99 171.03 2157.6 Q174.109 2162.18 174.109 2170.93 Q174.109 2179.66 171.03 2184.27 Q167.975 2188.85 162.165 2188.85 Q156.354 2188.85 153.276 2184.27 Q150.22 2179.66 150.22 2170.93 Q150.22 2162.18 153.276 2157.6 Q156.354 2152.99 162.165 2152.99 Z" fill="#ffffff" fill-rule="evenodd" fill-opacity="1" /><path clip-path="url(#clip020)" d="M182.326 2182.3 L187.211 2182.3 L187.211 2188.18 L182.326 2188.18 L182.326 2182.3 Z" fill="#ffffff" fill-rule="evenodd" fill-opacity="1" /><path clip-path="url(#clip020)" d="M207.396 2156.7 Q203.785 2156.7 201.956 2160.26 Q200.15 2163.8 200.15 2170.93 Q200.15 2178.04 201.956 2181.61 Q203.785 2185.15 207.396 2185.15 Q211.03 2185.15 212.836 2181.61 Q214.664 2178.04 214.664 2170.93 Q214.664 2163.8 212.836 2160.26 Q211.03 2156.7 207.396 2156.7 M207.396 2152.99 Q213.206 2152.99 216.261 2157.6 Q219.34 2162.18 219.34 2170.93 Q219.34 2179.66 216.261 2184.27 Q213.206 2188.85 207.396 2188.85 Q201.586 2188.85 198.507 2184.27 Q195.451 2179.66 195.451 2170.93 Q195.451 2162.18 198.507 2157.6 Q201.586 2152.99 207.396 2152.99 Z" fill="#ffffff" fill-rule="evenodd" fill-opacity="1" /><path clip-path="url(#clip020)" d="M237.558 2156.7 Q233.947 2156.7 232.118 2160.26 Q230.312 2163.8 230.312 2170.93 Q230.312 2178.04 232.118 2181.61 Q233.947 2185.15 237.558 2185.15 Q241.192 2185.15 242.997 2181.61 Q244.826 2178.04 244.826 2170.93 Q244.826 2163.8 242.997 2160.26 Q241.192 2156.7 237.558 2156.7 M237.558 2152.99 Q243.368 2152.99 246.423 2157.6 Q249.502 2162.18 249.502 2170.93 Q249.502 2179.66 246.423 2184.27 Q243.368 2188.85 237.558 2188.85 Q231.747 2188.85 228.669 2184.27 Q225.613 2179.66 225.613 2170.93 Q225.613 2162.18 228.669 2157.6 Q231.747 2152.99 237.558 2152.99 Z" fill="#ffffff" fill-rule="evenodd" fill-opacity="1" /><path clip-path="url(#clip020)" d="M163.391 1479.39 Q159.78 1479.39 157.952 1482.95 Q156.146 1486.49 156.146 1493.62 Q156.146 1500.73 157.952 1504.29 Q159.78 1507.84 163.391 1507.84 Q167.026 1507.84 168.831 1504.29 Q170.66 1500.73 170.66 1493.62 Q170.66 1486.49 168.831 1482.95 Q167.026 1479.39 163.391 1479.39 M163.391 1475.68 Q169.202 1475.68 172.257 1480.29 Q175.336 1484.87 175.336 1493.62 Q175.336 1502.35 172.257 1506.96 Q169.202 1511.54 163.391 1511.54 Q157.581 1511.54 154.503 1506.96 Q151.447 1502.35 151.447 1493.62 Q151.447 1484.87 154.503 1480.29 Q157.581 1475.68 163.391 1475.68 Z" fill="#ffffff" fill-rule="evenodd" fill-opacity="1" /><path clip-path="url(#clip020)" d="M183.553 1504.99 L188.438 1504.99 L188.438 1510.87 L183.553 1510.87 L183.553 1504.99 Z" fill="#ffffff" fill-rule="evenodd" fill-opacity="1" /><path clip-path="url(#clip020)" d="M208.623 1479.39 Q205.012 1479.39 203.183 1482.95 Q201.377 1486.49 201.377 1493.62 Q201.377 1500.73 203.183 1504.29 Q205.012 1507.84 208.623 1507.84 Q212.257 1507.84 214.062 1504.29 Q215.891 1500.73 215.891 1493.62 Q215.891 1486.49 214.062 1482.95 Q212.257 1479.39 208.623 1479.39 M208.623 1475.68 Q214.433 1475.68 217.488 1480.29 Q220.567 1484.87 220.567 1493.62 Q220.567 1502.35 217.488 1506.96 Q214.433 1511.54 208.623 1511.54 Q202.812 1511.54 199.734 1506.96 Q196.678 1502.35 196.678 1493.62 Q196.678 1484.87 199.734 1480.29 Q202.812 1475.68 208.623 1475.68 Z" fill="#ffffff" fill-rule="evenodd" fill-opacity="1" /><path clip-path="url(#clip020)" d="M229.595 1506.93 L237.234 1506.93 L237.234 1480.57 L228.923 1482.23 L228.923 1477.97 L237.187 1476.31 L241.863 1476.31 L241.863 1506.93 L249.502 1506.93 L249.502 1510.87 L229.595 1510.87 L229.595 1506.93 Z" fill="#ffffff" fill-rule="evenodd" fill-opacity="1" /><path clip-path="url(#clip020)" d="M163.762 802.074 Q160.151 802.074 158.322 805.639 Q156.516 809.18 156.516 816.31 Q156.516 823.416 158.322 826.981 Q160.151 830.523 163.762 830.523 Q167.396 830.523 169.202 826.981 Q171.03 823.416 171.03 816.31 Q171.03 809.18 169.202 805.639 Q167.396 802.074 163.762 802.074 M163.762 798.37 Q169.572 798.37 172.627 802.977 Q175.706 807.56 175.706 816.31 Q175.706 825.037 172.627 829.643 Q169.572 834.226 163.762 834.226 Q157.952 834.226 154.873 829.643 Q151.817 825.037 151.817 816.31 Q151.817 807.56 154.873 802.977 Q157.952 798.37 163.762 798.37 Z" fill="#ffffff" fill-rule="evenodd" fill-opacity="1" /><path clip-path="url(#clip020)" d="M183.924 827.676 L188.808 827.676 L188.808 833.555 L183.924 833.555 L183.924 827.676 Z" fill="#ffffff" fill-rule="evenodd" fill-opacity="1" /><path clip-path="url(#clip020)" d="M208.993 802.074 Q205.382 802.074 203.553 805.639 Q201.748 809.18 201.748 816.31 Q201.748 823.416 203.553 826.981 Q205.382 830.523 208.993 830.523 Q212.627 830.523 214.433 826.981 Q216.261 823.416 216.261 816.31 Q216.261 809.18 214.433 805.639 Q212.627 802.074 208.993 802.074 M208.993 798.37 Q214.803 798.37 217.859 802.977 Q220.937 807.56 220.937 816.31 Q220.937 825.037 217.859 829.643 Q214.803 834.226 208.993 834.226 Q203.183 834.226 200.104 829.643 Q197.049 825.037 197.049 816.31 Q197.049 807.56 200.104 802.977 Q203.183 798.37 208.993 798.37 Z" fill="#ffffff" fill-rule="evenodd" fill-opacity="1" /><path clip-path="url(#clip020)" d="M233.183 829.62 L249.502 829.62 L249.502 833.555 L227.558 833.555 L227.558 829.62 Q230.22 826.865 234.803 822.236 Q239.409 817.583 240.59 816.24 Q242.835 813.717 243.715 811.981 Q244.618 810.222 244.618 808.532 Q244.618 805.778 242.673 804.041 Q240.752 802.305 237.65 802.305 Q235.451 802.305 232.997 803.069 Q230.567 803.833 227.789 805.384 L227.789 800.662 Q230.613 799.528 233.067 798.949 Q235.521 798.37 237.558 798.37 Q242.928 798.37 246.122 801.055 Q249.317 803.74 249.317 808.231 Q249.317 810.361 248.507 812.282 Q247.72 814.18 245.613 816.773 Q245.034 817.444 241.933 820.662 Q238.831 823.856 233.183 829.62 Z" fill="#ffffff" fill-rule="evenodd" fill-opacity="1" /><path clip-path="url(#clip020)" d="M162.813 124.761 Q159.202 124.761 157.373 128.326 Q155.567 131.868 155.567 138.998 Q155.567 146.104 157.373 149.669 Q159.202 153.21 162.813 153.21 Q166.447 153.21 168.252 149.669 Q170.081 146.104 170.081 138.998 Q170.081 131.868 168.252 128.326 Q166.447 124.761 162.813 124.761 M162.813 121.058 Q168.623 121.058 171.678 125.664 Q174.757 130.248 174.757 138.998 Q174.757 147.724 171.678 152.331 Q168.623 156.914 162.813 156.914 Q157.003 156.914 153.924 152.331 Q150.868 147.724 150.868 138.998 Q150.868 130.248 153.924 125.664 Q157.003 121.058 162.813 121.058 Z" fill="#ffffff" fill-rule="evenodd" fill-opacity="1" /><path clip-path="url(#clip020)" d="M182.975 150.363 L187.859 150.363 L187.859 156.243 L182.975 156.243 L182.975 150.363 Z" fill="#ffffff" fill-rule="evenodd" fill-opacity="1" /><path clip-path="url(#clip020)" d="M208.044 124.761 Q204.433 124.761 202.604 128.326 Q200.799 131.868 200.799 138.998 Q200.799 146.104 202.604 149.669 Q204.433 153.21 208.044 153.21 Q211.678 153.21 213.484 149.669 Q215.312 146.104 215.312 138.998 Q215.312 131.868 213.484 128.326 Q211.678 124.761 208.044 124.761 M208.044 121.058 Q213.854 121.058 216.91 125.664 Q219.988 130.248 219.988 138.998 Q219.988 147.724 216.91 152.331 Q213.854 156.914 208.044 156.914 Q202.234 156.914 199.155 152.331 Q196.1 147.724 196.1 138.998 Q196.1 130.248 199.155 125.664 Q202.234 121.058 208.044 121.058 Z" fill="#ffffff" fill-rule="evenodd" fill-opacity="1" /><path clip-path="url(#clip020)" d="M242.372 137.609 Q245.729 138.326 247.604 140.595 Q249.502 142.863 249.502 146.197 Q249.502 151.312 245.984 154.113 Q242.465 156.914 235.984 156.914 Q233.808 156.914 231.493 156.474 Q229.201 156.058 226.748 155.201 L226.748 150.687 Q228.692 151.822 231.007 152.4 Q233.322 152.979 235.845 152.979 Q240.243 152.979 242.534 151.243 Q244.849 149.507 244.849 146.197 Q244.849 143.141 242.697 141.428 Q240.567 139.692 236.747 139.692 L232.72 139.692 L232.72 135.849 L236.933 135.849 Q240.382 135.849 242.21 134.484 Q244.039 133.095 244.039 130.502 Q244.039 127.84 242.141 126.428 Q240.266 124.993 236.747 124.993 Q234.826 124.993 232.627 125.41 Q230.428 125.826 227.789 126.706 L227.789 122.539 Q230.451 121.799 232.766 121.428 Q235.104 121.058 237.164 121.058 Q242.488 121.058 245.59 123.488 Q248.692 125.896 248.692 130.016 Q248.692 132.886 247.048 134.877 Q245.405 136.845 242.372 137.609 Z" fill="#ffffff" fill-rule="evenodd" fill-opacity="1" /><path clip-path="url(#clip020)" d="M8.75578 1767.38 L37.9744 1767.38 L37.9744 1754.15 Q37.9744 1746.8 34.1723 1742.79 Q30.3702 1738.78 23.339 1738.78 Q16.3599 1738.78 12.5578 1742.79 Q8.75578 1746.8 8.75578 1754.15 L8.75578 1767.38 M0.109991 1777.9 L0.109991 1754.15 Q0.109991 1741.07 6.04746 1734.41 Q11.9328 1727.69 23.339 1727.69 Q34.8494 1727.69 40.7348 1734.41 Q46.6202 1741.07 46.6202 1754.15 L46.6202 1767.38 L77.87 1767.38 L77.87 1777.9 L0.109991 1777.9 Z" fill="#ffffff" fill-rule="evenodd" fill-opacity="1" /><path clip-path="url(#clip020)" d="M28.4953 1682.06 Q27.5578 1683.68 27.1411 1685.61 Q26.6723 1687.48 26.6723 1689.77 Q26.6723 1697.9 31.9848 1702.27 Q37.2452 1706.59 47.141 1706.59 L77.87 1706.59 L77.87 1716.23 L19.537 1716.23 L19.537 1706.59 L28.5994 1706.59 Q23.2869 1703.57 20.7349 1698.73 Q18.1307 1693.89 18.1307 1686.96 Q18.1307 1685.97 18.287 1684.77 Q18.3911 1683.57 18.6516 1682.12 L28.4953 1682.06 Z" fill="#ffffff" fill-rule="evenodd" fill-opacity="1" /><path clip-path="url(#clip020)" d="M26.2557 1651.75 Q26.2557 1659.46 32.2973 1663.94 Q38.2869 1668.42 48.7556 1668.42 Q59.2243 1668.42 65.2659 1663.99 Q71.2554 1659.51 71.2554 1651.75 Q71.2554 1644.09 65.2138 1639.62 Q59.1722 1635.14 48.7556 1635.14 Q38.391 1635.14 32.3494 1639.62 Q26.2557 1644.09 26.2557 1651.75 M18.1307 1651.75 Q18.1307 1639.25 26.2557 1632.12 Q34.3806 1624.98 48.7556 1624.98 Q63.0784 1624.98 71.2554 1632.12 Q79.3804 1639.25 79.3804 1651.75 Q79.3804 1664.3 71.2554 1671.44 Q63.0784 1678.52 48.7556 1678.52 Q34.3806 1678.52 26.2557 1671.44 Q18.1307 1664.3 18.1307 1651.75 Z" fill="#ffffff" fill-rule="evenodd" fill-opacity="1" /><path clip-path="url(#clip020)" d="M48.7556 1567.22 Q38.1827 1567.22 32.1932 1571.6 Q26.1515 1575.92 26.1515 1583.52 Q26.1515 1591.13 32.1932 1595.5 Q38.1827 1599.82 48.7556 1599.82 Q59.3284 1599.82 65.3701 1595.5 Q71.3596 1591.13 71.3596 1583.52 Q71.3596 1575.92 65.3701 1571.6 Q59.3284 1567.22 48.7556 1567.22 M28.3911 1599.82 Q23.1828 1596.8 20.6828 1592.22 Q18.1307 1587.58 18.1307 1581.18 Q18.1307 1570.55 26.5682 1563.94 Q35.0056 1557.27 48.7556 1557.27 Q62.5055 1557.27 70.9429 1563.94 Q79.3804 1570.55 79.3804 1581.18 Q79.3804 1587.58 76.8804 1592.22 Q74.3283 1596.8 69.12 1599.82 L77.87 1599.82 L77.87 1609.46 L-3.17124 1609.46 L-3.17124 1599.82 L28.3911 1599.82 Z" fill="#ffffff" fill-rule="evenodd" fill-opacity="1" /><path clip-path="url(#clip020)" d="M48.5472 1514.88 Q48.5472 1526.49 51.2035 1530.97 Q53.8597 1535.45 60.2659 1535.45 Q65.3701 1535.45 68.3909 1532.12 Q71.3596 1528.73 71.3596 1522.95 Q71.3596 1514.98 65.7346 1510.19 Q60.0576 1505.35 50.6826 1505.35 L48.5472 1505.35 L48.5472 1514.88 M44.5889 1495.76 L77.87 1495.76 L77.87 1505.35 L69.0159 1505.35 Q74.3283 1508.63 76.8804 1513.52 Q79.3804 1518.42 79.3804 1525.5 Q79.3804 1534.46 74.3804 1539.77 Q69.3284 1545.03 60.8909 1545.03 Q51.0472 1545.03 46.0472 1538.47 Q41.0473 1531.86 41.0473 1518.78 L41.0473 1505.35 L40.1098 1505.35 Q33.4952 1505.35 29.9015 1509.72 Q26.2557 1514.04 26.2557 1521.91 Q26.2557 1526.91 27.4536 1531.65 Q28.6515 1536.39 31.0473 1540.76 L22.1932 1540.76 Q20.162 1535.5 19.1724 1530.55 Q18.1307 1525.61 18.1307 1520.92 Q18.1307 1508.26 24.6932 1502.01 Q31.2557 1495.76 44.5889 1495.76 Z" fill="#ffffff" fill-rule="evenodd" fill-opacity="1" /><path clip-path="url(#clip020)" d="M48.7556 1434.15 Q38.1827 1434.15 32.1932 1438.52 Q26.1515 1442.85 26.1515 1450.45 Q26.1515 1458.05 32.1932 1462.43 Q38.1827 1466.75 48.7556 1466.75 Q59.3284 1466.75 65.3701 1462.43 Q71.3596 1458.05 71.3596 1450.45 Q71.3596 1442.85 65.3701 1438.52 Q59.3284 1434.15 48.7556 1434.15 M28.3911 1466.75 Q23.1828 1463.73 20.6828 1459.15 Q18.1307 1454.51 18.1307 1448.11 Q18.1307 1437.48 26.5682 1430.87 Q35.0056 1424.2 48.7556 1424.2 Q62.5055 1424.2 70.9429 1430.87 Q79.3804 1437.48 79.3804 1448.11 Q79.3804 1454.51 76.8804 1459.15 Q74.3283 1463.73 69.12 1466.75 L77.87 1466.75 L77.87 1476.39 L-3.17124 1476.39 L-3.17124 1466.75 L28.3911 1466.75 Z" fill="#ffffff" fill-rule="evenodd" fill-opacity="1" /><path clip-path="url(#clip020)" d="M19.537 1408.31 L19.537 1398.73 L77.87 1398.73 L77.87 1408.31 L19.537 1408.31 M-3.17124 1408.31 L-3.17124 1398.73 L8.96411 1398.73 L8.96411 1408.31 L-3.17124 1408.31 Z" fill="#ffffff" fill-rule="evenodd" fill-opacity="1" /><path clip-path="url(#clip020)" d="M-3.17124 1378.68 L-3.17124 1369.1 L77.87 1369.1 L77.87 1378.68 L-3.17124 1378.68 Z" fill="#ffffff" fill-rule="evenodd" fill-opacity="1" /><path clip-path="url(#clip020)" d="M19.537 1349.04 L19.537 1339.46 L77.87 1339.46 L77.87 1349.04 L19.537 1349.04 M-3.17124 1349.04 L-3.17124 1339.46 L8.96411 1339.46 L8.96411 1349.04 L-3.17124 1349.04 Z" fill="#ffffff" fill-rule="evenodd" fill-opacity="1" /><path clip-path="url(#clip020)" d="M2.97456 1309.93 L19.537 1309.93 L19.537 1290.19 L26.9848 1290.19 L26.9848 1309.93 L58.6513 1309.93 Q65.7867 1309.93 67.818 1308 Q69.8492 1306.02 69.8492 1300.03 L69.8492 1290.19 L77.87 1290.19 L77.87 1300.03 Q77.87 1311.13 73.7554 1315.35 Q69.5888 1319.57 58.6513 1319.57 L26.9848 1319.57 L26.9848 1326.6 L19.537 1326.6 L19.537 1319.57 L2.97456 1319.57 L2.97456 1309.93 Z" fill="#ffffff" fill-rule="evenodd" fill-opacity="1" /><path clip-path="url(#clip020)" d="M83.2866 1253.32 Q93.7032 1257.38 96.8803 1261.23 Q100.057 1265.09 100.057 1271.54 L100.057 1279.2 L92.0366 1279.2 L92.0366 1273.58 Q92.0366 1269.62 90.1616 1267.43 Q88.2866 1265.24 81.3075 1262.59 L76.9325 1260.87 L19.537 1284.46 L19.537 1274.31 L65.1617 1256.08 L19.537 1237.85 L19.537 1227.69 L83.2866 1253.32 Z" fill="#ffffff" fill-rule="evenodd" fill-opacity="1" /><path clip-path="url(#clip020)" d="M28.3911 1142.17 L-3.17124 1142.17 L-3.17124 1132.59 L77.87 1132.59 L77.87 1142.17 L69.12 1142.17 Q74.3283 1145.19 76.8804 1149.83 Q79.3804 1154.41 79.3804 1160.87 Q79.3804 1171.44 70.9429 1178.11 Q62.5055 1184.72 48.7556 1184.72 Q35.0056 1184.72 26.5682 1178.11 Q18.1307 1171.44 18.1307 1160.87 Q18.1307 1154.41 20.6828 1149.83 Q23.1828 1145.19 28.3911 1142.17 M48.7556 1174.83 Q59.3284 1174.83 65.3701 1170.5 Q71.3596 1166.13 71.3596 1158.52 Q71.3596 1150.92 65.3701 1146.55 Q59.3284 1142.17 48.7556 1142.17 Q38.1827 1142.17 32.1932 1146.55 Q26.1515 1150.92 26.1515 1158.52 Q26.1515 1166.13 32.1932 1170.5 Q38.1827 1174.83 48.7556 1174.83 Z" fill="#ffffff" fill-rule="evenodd" fill-opacity="1" /><path clip-path="url(#clip020)" d="M46.3077 1062.95 L50.9951 1062.95 L50.9951 1107.01 Q60.8909 1106.39 66.0992 1101.08 Q71.2554 1095.71 71.2554 1086.18 Q71.2554 1080.66 69.9013 1075.5 Q68.5471 1070.3 65.8388 1065.19 L74.9013 1065.19 Q77.0887 1070.35 78.2346 1075.76 Q79.3804 1081.18 79.3804 1086.75 Q79.3804 1100.71 71.2554 1108.89 Q63.1305 1117.01 49.2764 1117.01 Q34.9536 1117.01 26.5682 1109.31 Q18.1307 1101.55 18.1307 1088.42 Q18.1307 1076.65 25.7349 1069.83 Q33.2869 1062.95 46.3077 1062.95 M43.4952 1072.54 Q35.6306 1072.64 30.9432 1076.96 Q26.2557 1081.23 26.2557 1088.32 Q26.2557 1096.34 30.7869 1101.18 Q35.3181 1105.97 43.5473 1106.7 L43.4952 1072.54 Z" fill="#ffffff" fill-rule="evenodd" fill-opacity="1" /><path clip-path="url(#clip020)" d="M42.6618 998.734 L77.87 998.734 L77.87 1008.32 L42.9743 1008.32 Q34.6931 1008.32 30.5786 1011.55 Q26.464 1014.78 26.464 1021.23 Q26.464 1028.99 31.4119 1033.47 Q36.3598 1037.95 44.9014 1037.95 L77.87 1037.95 L77.87 1047.59 L19.537 1047.59 L19.537 1037.95 L28.5994 1037.95 Q23.339 1034.51 20.7349 1029.88 Q18.1307 1025.19 18.1307 1019.1 Q18.1307 1009.05 24.3807 1003.89 Q30.5786 998.734 42.6618 998.734 Z" fill="#ffffff" fill-rule="evenodd" fill-opacity="1" /><path clip-path="url(#clip020)" d="M21.2557 942.432 L30.3182 942.432 Q28.2348 946.494 27.1932 950.869 Q26.1515 955.244 26.1515 959.932 Q26.1515 967.067 28.339 970.661 Q30.5265 974.203 34.9015 974.203 Q38.2348 974.203 40.1619 971.651 Q42.0368 969.099 43.7556 961.39 L44.4848 958.109 Q46.6722 947.901 50.6826 943.63 Q54.6409 939.307 61.7763 939.307 Q69.9013 939.307 74.6408 945.765 Q79.3804 952.172 79.3804 963.421 Q79.3804 968.109 78.4429 973.213 Q77.5575 978.265 75.7346 983.89 L65.8388 983.89 Q68.5992 978.578 70.0054 973.421 Q71.3596 968.265 71.3596 963.213 Q71.3596 956.442 69.068 952.797 Q66.7242 949.151 62.5055 949.151 Q58.5993 949.151 56.5159 951.807 Q54.4326 954.411 52.5055 963.317 L51.7243 966.651 Q49.8493 975.557 45.9952 979.515 Q42.0889 983.473 35.3181 983.473 Q27.089 983.473 22.6099 977.64 Q18.1307 971.807 18.1307 961.078 Q18.1307 955.765 18.912 951.078 Q19.6932 946.39 21.2557 942.432 Z" fill="#ffffff" fill-rule="evenodd" fill-opacity="1" /><path clip-path="url(#clip020)" d="M19.537 924.047 L19.537 914.463 L77.87 914.463 L77.87 924.047 L19.537 924.047 M-3.17124 924.047 L-3.17124 914.463 L8.96411 914.463 L8.96411 924.047 L-3.17124 924.047 Z" fill="#ffffff" fill-rule="evenodd" fill-opacity="1" /><path clip-path="url(#clip020)" d="M2.97456 884.932 L19.537 884.932 L19.537 865.193 L26.9848 865.193 L26.9848 884.932 L58.6513 884.932 Q65.7867 884.932 67.818 883.005 Q69.8492 881.026 69.8492 875.037 L69.8492 865.193 L77.87 865.193 L77.87 875.037 Q77.87 886.13 73.7554 890.349 Q69.5888 894.568 58.6513 894.568 L26.9848 894.568 L26.9848 901.599 L19.537 901.599 L19.537 894.568 L2.97456 894.568 L2.97456 884.932 Z" fill="#ffffff" fill-rule="evenodd" fill-opacity="1" /><path clip-path="url(#clip020)" d="M83.2866 828.318 Q93.7032 832.381 96.8803 836.235 Q100.057 840.089 100.057 846.547 L100.057 854.203 L92.0366 854.203 L92.0366 848.578 Q92.0366 844.62 90.1616 842.433 Q88.2866 840.245 81.3075 837.589 L76.9325 835.87 L19.537 859.464 L19.537 849.307 L65.1617 831.078 L19.537 812.849 L19.537 802.693 L83.2866 828.318 Z" fill="#ffffff" fill-rule="evenodd" fill-opacity="1" /><path clip-path="url(#clip020)" d="M9.20124 711.803 Q12.0998 711.803 13.8916 713.647 Q15.6834 715.439 15.6834 717.705 Q15.6834 719.339 14.6821 720.551 Q13.6808 721.711 11.9417 721.711 Q10.1498 721.711 8.25263 720.34 Q6.35541 718.97 6.09191 715.861 Q4.14199 717.916 4.14199 721.184 Q4.14199 722.817 5.196 724.187 Q6.19731 725.505 7.83103 726.243 Q9.51744 727.033 19.0562 728.825 Q22.1656 729.405 25.1695 729.932 Q28.1734 730.459 31.3354 731.091 L31.3354 722.132 Q31.3354 720.973 31.3881 720.498 Q31.4408 720.024 31.7044 719.655 Q31.9679 719.234 32.5476 719.234 Q34.0232 719.234 34.3921 719.919 Q34.7083 720.551 34.7083 722.448 L34.7083 731.724 L68.9109 738.206 Q69.9122 738.364 73.0742 739.049 Q76.1836 739.681 81.2955 741.21 Q86.4602 742.738 89.5168 744.266 Q91.2559 745.11 92.8896 746.216 Q94.576 747.27 96.2625 748.799 Q97.9489 750.327 98.9502 752.33 Q100.004 754.332 100.004 756.44 Q100.004 760.024 98.0016 762.817 Q95.999 765.61 92.5734 765.61 Q89.6749 765.61 87.8831 763.818 Q86.0913 761.974 86.0913 759.708 Q86.0913 758.074 87.0926 756.914 Q88.0939 755.702 89.833 755.702 Q90.5708 755.702 91.414 755.966 Q92.2572 756.229 93.2058 756.809 Q94.2071 757.389 94.8923 758.654 Q95.5774 759.918 95.6828 761.657 Q97.6327 759.602 97.6327 756.44 Q97.6327 755.439 97.2111 754.543 Q96.8422 753.647 95.8936 752.909 Q94.945 752.119 93.9963 751.539 Q93.1004 750.959 91.3613 750.38 Q89.6749 749.8 88.4101 749.431 Q87.1453 749.062 84.8792 748.588 Q82.613 748.061 81.2428 747.797 Q79.9253 747.534 77.343 747.059 L34.7083 738.996 L34.7083 746.111 Q34.7083 747.376 34.6556 747.903 Q34.6029 748.377 34.3394 748.746 Q34.0232 749.115 33.3908 749.115 Q32.3895 749.115 31.9679 748.693 Q31.4936 748.219 31.4408 747.692 Q31.3354 747.165 31.3354 745.9 L31.3354 738.417 Q18.0022 735.887 14.4186 734.886 Q10.6242 733.726 7.98913 731.934 Q5.3014 730.143 4.03659 728.14 Q2.77178 726.137 2.29747 724.504 Q1.77047 722.817 1.77047 721.184 Q1.77047 717.494 3.77309 714.649 Q5.72301 711.803 9.20124 711.803 Z" fill="#ffffff" fill-rule="evenodd" fill-opacity="1" /><path clip-path="url(#clip020)" d="M50.8873 697.274 Q32.653 697.274 17.9495 690.476 Q11.7836 687.577 6.61891 683.519 Q1.45427 679.461 -0.811856 676.774 Q-3.07798 674.086 -3.07798 673.348 Q-3.07798 672.294 -2.02397 672.241 Q-1.49696 672.241 -0.17945 673.664 Q17.5279 691.056 50.8873 691.003 Q84.3522 691.003 101.374 674.086 Q103.219 672.241 103.799 672.241 Q104.853 672.241 104.853 673.348 Q104.853 674.086 102.692 676.668 Q100.531 679.251 95.5774 683.256 Q90.6235 687.261 84.563 690.16 Q69.8595 697.274 50.8873 697.274 Z" fill="#ffffff" fill-rule="evenodd" fill-opacity="1" /><path clip-path="url(#clip020)" d="M10.4134 628.269 Q12.7322 628.269 14.4713 630.166 Q16.1577 632.011 16.1577 634.013 Q16.1577 635.858 15.051 637.017 Q13.8916 638.124 12.2579 638.124 Q10.0971 638.124 8.30533 636.279 Q6.51351 634.435 6.51351 632.274 Q6.51351 630.482 7.62022 629.376 Q8.72693 628.269 10.4134 628.269 M62.4287 627.32 Q62.8503 627.32 64.5368 627.795 Q66.1705 628.269 68.7001 629.428 Q71.177 630.535 73.4958 632.063 Q75.8147 633.592 77.4484 636.121 Q79.0821 638.598 79.0821 641.444 Q79.0821 645.291 76.5525 647.821 Q74.0229 650.298 70.2284 650.298 Q68.1731 650.298 61.5855 647.821 Q42.4026 640.653 41.612 640.39 Q38.6081 639.178 35.9731 639.178 Q34.761 639.178 34.0232 639.441 Q33.2327 639.705 32.9692 640.232 Q32.653 640.759 32.6003 641.075 Q32.5476 641.339 32.5476 641.866 Q32.5476 644.975 35.7096 647.873 Q38.8716 650.772 45.9335 652.775 Q47.251 653.196 47.5672 653.46 Q47.8834 653.723 47.8834 654.514 Q47.8307 655.831 46.7767 655.831 Q46.4605 655.831 45.2484 655.462 Q43.9836 655.093 42.0864 654.408 Q40.1364 653.723 38.1338 652.511 Q36.0785 651.299 34.2867 649.823 Q32.4949 648.295 31.3354 646.134 Q30.176 643.974 30.176 641.549 Q30.176 637.597 32.7584 635.173 Q35.288 632.696 39.0297 632.696 Q41.085 632.696 44.7214 634.119 Q49.4644 635.858 50.9927 636.49 L62.3233 640.706 Q66.434 642.234 67.6988 642.709 Q68.9109 643.13 70.3865 643.499 Q71.8094 643.815 73.1269 643.815 Q74.9715 643.815 75.8147 643.236 Q76.6579 642.603 76.6579 641.233 Q76.6579 637.439 72.9161 634.646 Q69.1217 631.852 63.3247 630.219 Q63.1666 630.166 62.903 630.113 Q61.5855 629.692 61.4274 629.27 Q61.3747 629.059 61.3747 628.638 Q61.3747 627.32 62.4287 627.32 Z" fill="#ffffff" fill-rule="evenodd" fill-opacity="1" /><path clip-path="url(#clip020)" d="M77.592 576.609 Q82.9779 576.609 88.1795 579.339 Q93.381 582.032 96.5905 586.275 Q99.7631 590.517 99.7631 594.833 Q99.7631 597.416 98.3612 599.149 Q96.9225 600.846 94.8935 601.769 Q97.4021 602.47 103.415 603.982 Q109.428 605.495 110.019 605.495 Q110.351 605.495 110.498 605.421 Q110.646 605.347 110.83 605.015 Q111.051 604.683 111.125 603.871 Q111.236 603.06 111.236 601.695 Q111.236 600.994 111.236 600.736 Q111.273 600.441 111.457 600.182 Q111.642 599.887 112.048 599.887 Q113.56 599.887 113.56 601.252 Q113.56 602.47 113.449 604.978 Q113.339 607.487 113.339 608.741 Q113.339 609.811 113.449 611.95 Q113.56 614.09 113.56 615.086 Q113.56 616.082 112.675 616.082 Q112.158 616.082 111.826 615.934 Q111.531 615.824 111.384 615.529 Q111.273 615.234 111.236 614.975 Q111.236 614.754 111.236 614.311 Q111.236 612.614 110.941 611.877 Q110.683 611.139 110.129 610.881 Q109.613 610.585 108.137 610.253 L74.4932 601.769 Q72.2429 601.252 70.6566 601.252 Q68.6645 601.252 67.9267 601.879 Q67.1889 602.506 67.1889 603.613 Q67.1889 605.531 69.4761 606.786 Q71.7633 608.04 76.1901 609.11 Q77.4075 609.442 77.6657 609.663 Q77.924 609.848 77.924 610.401 Q77.8871 611.323 77.1493 611.323 Q76.9648 611.323 75.7843 611.028 Q74.5669 610.733 72.7962 610.18 Q70.9886 609.589 69.845 608.962 Q69.0703 608.593 68.5538 608.261 Q68.0374 607.929 67.2258 607.265 Q66.4142 606.564 65.9715 605.568 Q65.5288 604.572 65.5288 603.355 Q65.5288 600.994 66.9306 599.039 Q68.3325 597.084 71.173 596.567 Q68.7014 594.464 67.1151 591.882 Q65.5288 589.3 65.5288 586.68 Q65.5288 582.327 68.9227 579.487 Q72.2797 576.609 77.592 576.609 M74.2718 582.069 Q70.9148 582.069 69.0703 583.36 Q67.1889 584.615 67.1889 586.902 Q67.1889 589.742 70.0663 593.026 Q72.7962 596.272 75.3416 596.936 L90.1347 600.662 L91.3521 600.883 Q91.5734 600.883 92.2374 600.773 Q92.8646 600.625 93.8975 600.219 Q94.9304 599.777 95.8527 599.186 Q96.738 598.559 97.4021 597.452 Q98.0661 596.309 98.0661 594.907 Q98.0661 592.657 96.074 590.222 Q94.0819 587.75 90.3191 585.906 Q87.8844 584.762 82.6459 583.434 Q77.3706 582.069 74.2718 582.069 Z" fill="#ffffff" fill-rule="evenodd" fill-opacity="1" /><path clip-path="url(#clip020)" d="M103.799 565.479 Q103.272 565.479 101.954 564.108 Q84.2468 546.717 50.8873 546.717 Q17.4225 546.717 0.505656 563.423 Q-1.44426 565.479 -2.02397 565.479 Q-3.07798 565.479 -3.07798 564.425 Q-3.07798 563.687 -0.917257 561.105 Q1.24346 558.47 6.19731 554.517 Q11.1512 550.512 17.2117 547.561 Q31.9152 540.446 50.8873 540.446 Q69.1217 540.446 83.8251 547.244 Q89.9911 550.143 95.1558 554.201 Q100.32 558.259 102.587 560.946 Q104.853 563.634 104.853 564.425 Q104.853 565.479 103.799 565.479 Z" fill="#ffffff" fill-rule="evenodd" fill-opacity="1" /><path clip-path="url(#clip020)" d="M976.182 67.0952 L976.182 50.8511 L962.814 50.8511 L962.814 44.1266 L984.284 44.1266 L984.284 70.0929 Q979.544 73.4552 973.832 75.197 Q968.121 76.8984 961.639 76.8984 Q947.461 76.8984 939.44 68.6346 Q931.46 60.3302 931.46 45.5444 Q931.46 30.7181 939.44 22.4543 Q947.461 14.1499 961.639 14.1499 Q967.554 14.1499 972.86 15.6082 Q978.207 17.0666 982.704 19.9022 L982.704 28.6117 Q978.167 24.7633 973.063 22.8189 Q967.959 20.8744 962.328 20.8744 Q951.228 20.8744 945.638 27.0723 Q940.088 33.2702 940.088 45.5444 Q940.088 57.7782 945.638 63.976 Q951.228 70.1739 962.328 70.1739 Q966.662 70.1739 970.065 69.4448 Q973.468 68.6751 976.182 67.0952 Z" fill="#ffffff" fill-rule="evenodd" fill-opacity="1" /><path clip-path="url(#clip020)" d="M1019.53 52.9171 Q1010.49 52.9171 1007.01 54.983 Q1003.53 57.049 1003.53 62.0316 Q1003.53 66.0015 1006.12 68.351 Q1008.75 70.66 1013.25 70.66 Q1019.45 70.66 1023.17 66.2851 Q1026.94 61.8696 1026.94 54.5779 L1026.94 52.9171 L1019.53 52.9171 M1034.39 49.8384 L1034.39 75.7237 L1026.94 75.7237 L1026.94 68.8371 Q1024.39 72.9691 1020.58 74.954 Q1016.77 76.8984 1011.26 76.8984 Q1004.3 76.8984 1000.16 73.0096 Q996.072 69.0802 996.072 62.5177 Q996.072 54.8615 1001.18 50.9726 Q1006.32 47.0838 1016.49 47.0838 L1026.94 47.0838 L1026.94 46.3546 Q1026.94 41.21 1023.54 38.4148 Q1020.17 35.5792 1014.06 35.5792 Q1010.17 35.5792 1006.48 36.5109 Q1002.8 37.4426 999.394 39.306 L999.394 32.4195 Q1003.49 30.8396 1007.33 30.07 Q1011.18 29.2598 1014.83 29.2598 Q1024.67 29.2598 1029.53 34.3639 Q1034.39 39.4681 1034.39 49.8384 Z" fill="#ffffff" fill-rule="evenodd" fill-opacity="1" /><path clip-path="url(#clip020)" d="M1085.07 39.063 Q1087.87 34.0399 1091.75 31.6498 Q1095.64 29.2598 1100.91 29.2598 Q1108 29.2598 1111.85 34.2424 Q1115.7 39.1845 1115.7 48.3396 L1115.7 75.7237 L1108.2 75.7237 L1108.2 48.5826 Q1108.2 42.0607 1105.89 38.9009 Q1103.58 35.7412 1098.84 35.7412 Q1093.05 35.7412 1089.69 39.5896 Q1086.33 43.438 1086.33 50.0814 L1086.33 75.7237 L1078.83 75.7237 L1078.83 48.5826 Q1078.83 42.0201 1076.52 38.9009 Q1074.21 35.7412 1069.39 35.7412 Q1063.68 35.7412 1060.32 39.6301 Q1056.96 43.4785 1056.96 50.0814 L1056.96 75.7237 L1049.46 75.7237 L1049.46 30.3535 L1056.96 30.3535 L1056.96 37.4021 Q1059.51 33.2297 1063.07 31.2447 Q1066.64 29.2598 1071.54 29.2598 Q1076.48 29.2598 1079.93 31.7714 Q1083.41 34.2829 1085.07 39.063 Z" fill="#ffffff" fill-rule="evenodd" fill-opacity="1" /><path clip-path="url(#clip020)" d="M1165.89 39.063 Q1168.68 34.0399 1172.57 31.6498 Q1176.46 29.2598 1181.72 29.2598 Q1188.81 29.2598 1192.66 34.2424 Q1196.51 39.1845 1196.51 48.3396 L1196.51 75.7237 L1189.02 75.7237 L1189.02 48.5826 Q1189.02 42.0607 1186.71 38.9009 Q1184.4 35.7412 1179.66 35.7412 Q1173.87 35.7412 1170.5 39.5896 Q1167.14 43.438 1167.14 50.0814 L1167.14 75.7237 L1159.65 75.7237 L1159.65 48.5826 Q1159.65 42.0201 1157.34 38.9009 Q1155.03 35.7412 1150.21 35.7412 Q1144.5 35.7412 1141.13 39.6301 Q1137.77 43.4785 1137.77 50.0814 L1137.77 75.7237 L1130.28 75.7237 L1130.28 30.3535 L1137.77 30.3535 L1137.77 37.4021 Q1140.32 33.2297 1143.89 31.2447 Q1147.45 29.2598 1152.36 29.2598 Q1157.3 29.2598 1160.74 31.7714 Q1164.22 34.2829 1165.89 39.063 Z" fill="#ffffff" fill-rule="evenodd" fill-opacity="1" /><path clip-path="url(#clip020)" d="M1232 52.9171 Q1222.96 52.9171 1219.48 54.983 Q1216 57.049 1216 62.0316 Q1216 66.0015 1218.59 68.351 Q1221.22 70.66 1225.72 70.66 Q1231.92 70.66 1235.64 66.2851 Q1239.41 61.8696 1239.41 54.5779 L1239.41 52.9171 L1232 52.9171 M1246.86 49.8384 L1246.86 75.7237 L1239.41 75.7237 L1239.41 68.8371 Q1236.86 72.9691 1233.05 74.954 Q1229.24 76.8984 1223.73 76.8984 Q1216.77 76.8984 1212.63 73.0096 Q1208.54 69.0802 1208.54 62.5177 Q1208.54 54.8615 1213.65 50.9726 Q1218.79 47.0838 1228.96 47.0838 L1239.41 47.0838 L1239.41 46.3546 Q1239.41 41.21 1236.01 38.4148 Q1232.64 35.5792 1226.53 35.5792 Q1222.64 35.5792 1218.95 36.5109 Q1215.27 37.4426 1211.86 39.306 L1211.86 32.4195 Q1215.96 30.8396 1219.8 30.07 Q1223.65 29.2598 1227.3 29.2598 Q1237.14 29.2598 1242 34.3639 Q1246.86 39.4681 1246.86 49.8384 Z" fill="#ffffff" fill-rule="evenodd" fill-opacity="1" /><path clip-path="url(#clip020)" d="M1311.56 12.6916 L1311.56 18.8895 L1304.43 18.8895 Q1300.42 18.8895 1298.84 20.5098 Q1297.3 22.1302 1297.3 26.3431 L1297.3 30.3535 L1309.57 30.3535 L1309.57 36.1463 L1297.3 36.1463 L1297.3 75.7237 L1289.8 75.7237 L1289.8 36.1463 L1282.67 36.1463 L1282.67 30.3535 L1289.8 30.3535 L1289.8 27.1938 Q1289.8 19.6186 1293.33 16.1754 Q1296.85 12.6916 1304.51 12.6916 L1311.56 12.6916 Z" fill="#ffffff" fill-rule="evenodd" fill-opacity="1" /><path clip-path="url(#clip020)" d="M1317.79 30.3535 L1325.25 30.3535 L1325.25 75.7237 L1317.79 75.7237 L1317.79 30.3535 M1317.79 12.6916 L1325.25 12.6916 L1325.25 22.1302 L1317.79 22.1302 L1317.79 12.6916 Z" fill="#ffffff" fill-rule="evenodd" fill-opacity="1" /><path clip-path="url(#clip020)" d="M1348.22 17.4717 L1348.22 30.3535 L1363.57 30.3535 L1363.57 36.1463 L1348.22 36.1463 L1348.22 60.7758 Q1348.22 66.3256 1349.72 67.9054 Q1351.26 69.4853 1355.91 69.4853 L1363.57 69.4853 L1363.57 75.7237 L1355.91 75.7237 Q1347.29 75.7237 1344 72.5235 Q1340.72 69.2827 1340.72 60.7758 L1340.72 36.1463 L1335.25 36.1463 L1335.25 30.3535 L1340.72 30.3535 L1340.72 17.4717 L1348.22 17.4717 Z" fill="#ffffff" fill-rule="evenodd" fill-opacity="1" /><path clip-path="url(#clip020)" d="M1407.12 17.4717 L1407.12 30.3535 L1422.47 30.3535 L1422.47 36.1463 L1407.12 36.1463 L1407.12 60.7758 Q1407.12 66.3256 1408.62 67.9054 Q1410.16 69.4853 1414.81 69.4853 L1422.47 69.4853 L1422.47 75.7237 L1414.81 75.7237 Q1406.19 75.7237 1402.9 72.5235 Q1399.62 69.2827 1399.62 60.7758 L1399.62 36.1463 L1394.15 36.1463 L1394.15 30.3535 L1399.62 30.3535 L1399.62 17.4717 L1407.12 17.4717 Z" fill="#ffffff" fill-rule="evenodd" fill-opacity="1" /><path clip-path="url(#clip020)" d="M1449.85 35.5792 Q1443.86 35.5792 1440.38 40.2783 Q1436.89 44.9368 1436.89 53.0791 Q1436.89 61.2214 1440.33 65.9205 Q1443.82 70.579 1449.85 70.579 Q1455.81 70.579 1459.29 65.88 Q1462.78 61.1809 1462.78 53.0791 Q1462.78 45.0178 1459.29 40.3188 Q1455.81 35.5792 1449.85 35.5792 M1449.85 29.2598 Q1459.58 29.2598 1465.13 35.5792 Q1470.68 41.8986 1470.68 53.0791 Q1470.68 64.2191 1465.13 70.579 Q1459.58 76.8984 1449.85 76.8984 Q1440.09 76.8984 1434.54 70.579 Q1429.03 64.2191 1429.03 53.0791 Q1429.03 41.8986 1434.54 35.5792 Q1440.09 29.2598 1449.85 29.2598 Z" fill="#ffffff" fill-rule="evenodd" fill-opacity="1" /><path clip-path="url(#clip020)" d="M1516.78 17.4717 L1516.78 30.3535 L1532.13 30.3535 L1532.13 36.1463 L1516.78 36.1463 L1516.78 60.7758 Q1516.78 66.3256 1518.27 67.9054 Q1519.81 69.4853 1524.47 69.4853 L1532.13 69.4853 L1532.13 75.7237 L1524.47 75.7237 Q1515.84 75.7237 1512.56 72.5235 Q1509.28 69.2827 1509.28 60.7758 L1509.28 36.1463 L1503.81 36.1463 L1503.81 30.3535 L1509.28 30.3535 L1509.28 17.4717 L1516.78 17.4717 Z" fill="#ffffff" fill-rule="evenodd" fill-opacity="1" /><path clip-path="url(#clip020)" d="M1579.65 48.3396 L1579.65 75.7237 L1572.19 75.7237 L1572.19 48.5826 Q1572.19 42.1417 1569.68 38.9415 Q1567.17 35.7412 1562.15 35.7412 Q1556.11 35.7412 1552.63 39.5896 Q1549.14 43.438 1549.14 50.0814 L1549.14 75.7237 L1541.65 75.7237 L1541.65 12.6916 L1549.14 12.6916 L1549.14 37.4021 Q1551.82 33.3107 1555.42 31.2852 Q1559.07 29.2598 1563.81 29.2598 Q1571.62 29.2598 1575.63 34.1209 Q1579.65 38.9415 1579.65 48.3396 Z" fill="#ffffff" fill-rule="evenodd" fill-opacity="1" /><path clip-path="url(#clip020)" d="M1633.32 51.1752 L1633.32 54.821 L1599.05 54.821 Q1599.54 62.5177 1603.67 66.5686 Q1607.84 70.579 1615.25 70.579 Q1619.55 70.579 1623.56 69.5258 Q1627.61 68.4725 1631.58 66.3661 L1631.58 73.4147 Q1627.57 75.116 1623.35 76.0072 Q1619.14 76.8984 1614.81 76.8984 Q1603.95 76.8984 1597.59 70.579 Q1591.27 64.2596 1591.27 53.4842 Q1591.27 42.3442 1597.27 35.8223 Q1603.3 29.2598 1613.51 29.2598 Q1622.67 29.2598 1627.97 35.1741 Q1633.32 41.0479 1633.32 51.1752 M1625.87 48.9877 Q1625.79 42.8708 1622.42 39.225 Q1619.1 35.5792 1613.59 35.5792 Q1607.35 35.5792 1603.59 39.1035 Q1599.86 42.6278 1599.29 49.0282 L1625.87 48.9877 Z" fill="#ffffff" fill-rule="evenodd" fill-opacity="1" /><path clip-path="url(#clip020)" d="M1701.78 37.2401 L1701.78 12.6916 L1709.23 12.6916 L1709.23 75.7237 L1701.78 75.7237 L1701.78 68.9181 Q1699.43 72.9691 1695.83 74.954 Q1692.26 76.8984 1687.24 76.8984 Q1679.01 76.8984 1673.83 70.336 Q1668.68 63.7735 1668.68 53.0791 Q1668.68 42.3847 1673.83 35.8223 Q1679.01 29.2598 1687.24 29.2598 Q1692.26 29.2598 1695.83 31.2447 Q1699.43 33.1892 1701.78 37.2401 M1676.38 53.0791 Q1676.38 61.3024 1679.74 66.0015 Q1683.15 70.66 1689.06 70.66 Q1694.97 70.66 1698.38 66.0015 Q1701.78 61.3024 1701.78 53.0791 Q1701.78 44.8558 1698.38 40.1972 Q1694.97 35.4982 1689.06 35.4982 Q1683.15 35.4982 1679.74 40.1972 Q1676.38 44.8558 1676.38 53.0791 Z" fill="#ffffff" fill-rule="evenodd" fill-opacity="1" /><path clip-path="url(#clip020)" d="M1745.21 52.9171 Q1736.17 52.9171 1732.69 54.983 Q1729.2 57.049 1729.2 62.0316 Q1729.2 66.0015 1731.8 68.351 Q1734.43 70.66 1738.93 70.66 Q1745.12 70.66 1748.85 66.2851 Q1752.62 61.8696 1752.62 54.5779 L1752.62 52.9171 L1745.21 52.9171 M1760.07 49.8384 L1760.07 75.7237 L1752.62 75.7237 L1752.62 68.8371 Q1750.07 72.9691 1746.26 74.954 Q1742.45 76.8984 1736.94 76.8984 Q1729.97 76.8984 1725.84 73.0096 Q1721.75 69.0802 1721.75 62.5177 Q1721.75 54.8615 1726.86 50.9726 Q1732 47.0838 1742.17 47.0838 L1752.62 47.0838 L1752.62 46.3546 Q1752.62 41.21 1749.22 38.4148 Q1745.85 35.5792 1739.74 35.5792 Q1735.85 35.5792 1732.16 36.5109 Q1728.48 37.4426 1725.07 39.306 L1725.07 32.4195 Q1729.16 30.8396 1733.01 30.07 Q1736.86 29.2598 1740.51 29.2598 Q1750.35 29.2598 1755.21 34.3639 Q1760.07 39.4681 1760.07 49.8384 Z" fill="#ffffff" fill-rule="evenodd" fill-opacity="1" /><path clip-path="url(#clip020)" d="M1782.8 17.4717 L1782.8 30.3535 L1798.15 30.3535 L1798.15 36.1463 L1782.8 36.1463 L1782.8 60.7758 Q1782.8 66.3256 1784.3 67.9054 Q1785.84 69.4853 1790.49 69.4853 L1798.15 69.4853 L1798.15 75.7237 L1790.49 75.7237 Q1781.87 75.7237 1778.59 72.5235 Q1775.3 69.2827 1775.3 60.7758 L1775.3 36.1463 L1769.84 36.1463 L1769.84 30.3535 L1775.3 30.3535 L1775.3 17.4717 L1782.8 17.4717 Z" fill="#ffffff" fill-rule="evenodd" fill-opacity="1" /><path clip-path="url(#clip020)" d="M1828.57 52.9171 Q1819.54 52.9171 1816.06 54.983 Q1812.57 57.049 1812.57 62.0316 Q1812.57 66.0015 1815.16 68.351 Q1817.8 70.66 1822.29 70.66 Q1828.49 70.66 1832.22 66.2851 Q1835.99 61.8696 1835.99 54.5779 L1835.99 52.9171 L1828.57 52.9171 M1843.44 49.8384 L1843.44 75.7237 L1835.99 75.7237 L1835.99 68.8371 Q1833.43 72.9691 1829.63 74.954 Q1825.82 76.8984 1820.31 76.8984 Q1813.34 76.8984 1809.21 73.0096 Q1805.12 69.0802 1805.12 62.5177 Q1805.12 54.8615 1810.22 50.9726 Q1815.37 47.0838 1825.54 47.0838 L1835.99 47.0838 L1835.99 46.3546 Q1835.99 41.21 1832.58 38.4148 Q1829.22 35.5792 1823.1 35.5792 Q1819.22 35.5792 1815.53 36.5109 Q1811.84 37.4426 1808.44 39.306 L1808.44 32.4195 Q1812.53 30.8396 1816.38 30.07 Q1820.23 29.2598 1823.87 29.2598 Q1833.72 29.2598 1838.58 34.3639 Q1843.44 39.4681 1843.44 49.8384 Z" fill="#ffffff" fill-rule="evenodd" fill-opacity="1" /><path clip-path="url(#clip020)" d="M1860.7 65.4344 L1869.24 65.4344 L1869.24 72.4019 L1862.6 85.3648 L1857.38 85.3648 L1860.7 72.4019 L1860.7 65.4344 Z" fill="#ffffff" fill-rule="evenodd" fill-opacity="1" /><path clip-path="url(#clip020)" d="M1941.71 43.916 Q1941.71 46.2524 1940.28 47.646 Q1938.89 49.0396 1937.12 49.0396 Q1935.57 49.0396 1934.75 48.1379 Q1933.93 47.2361 1933.93 46.0884 Q1933.93 45.5965 1934.13 44.9817 Q1934.34 44.3259 1934.79 43.5471 Q1935.28 42.7683 1936.3 42.1944 Q1937.33 41.6206 1938.72 41.5386 Q1938.44 41.2517 1938.35 41.2107 Q1937.74 40.7188 1936.59 40.5549 Q1936.43 40.4729 1935.85 40.4729 Q1933.02 40.4729 1930.16 42.5633 Q1927.33 44.6128 1923.84 48.5068 Q1919.46 53.0566 1916.63 54.7372 Q1929.05 56.3767 1929.05 63.5499 Q1929.05 64.7385 1928.72 66.1732 Q1928.07 68.8785 1928.07 70.8459 Q1928.07 74.7809 1930.73 74.7809 Q1933.31 74.7809 1934.95 72.1576 Q1936.63 69.5343 1938.03 64.4106 Q1938.23 63.4679 1938.44 63.1809 Q1938.64 62.894 1939.21 62.894 Q1940.24 62.894 1940.24 63.7138 Q1939.3 68.5096 1937.21 72.1986 Q1934.54 76.6664 1930.57 76.6664 Q1927.25 76.6664 1925.03 74.371 Q1922.86 72.0346 1922.86 68.3456 Q1922.86 67.4438 1923.19 65.3944 Q1923.43 64.5746 1923.43 63.6318 Q1923.43 61.7053 1922.37 60.2707 Q1921.3 58.7951 1919.58 58.0573 Q1917.86 57.3195 1916.42 56.9916 Q1915.03 56.6227 1913.68 56.4997 Q1909.58 73.8382 1909.01 74.9039 Q1908.64 75.6417 1907.82 76.1336 Q1907 76.6664 1906.14 76.6664 Q1905.32 76.6664 1904.5 76.0926 Q1903.72 75.5597 1903.72 74.289 Q1903.72 73.6332 1904.05 72.4445 L1916.22 24.0772 L1916.47 22.4376 Q1916.47 21.9457 1916.26 21.6998 Q1916.1 21.4129 1915.11 21.2079 Q1914.17 21.003 1912.28 21.003 Q1911.51 21.003 1911.14 20.962 Q1910.81 20.921 1910.52 20.7161 Q1910.23 20.4701 1910.23 19.9782 Q1910.23 19.2814 1910.52 18.9125 Q1910.85 18.5026 1911.1 18.4207 Q1911.34 18.3387 1911.83 18.2977 Q1912.53 18.2567 1914.87 18.0518 Q1917.2 17.8058 1919.21 17.6419 Q1921.22 17.4779 1922.08 17.4779 Q1922.57 17.4779 1922.82 17.7238 Q1923.11 17.9288 1923.15 18.1747 L1923.19 18.3797 L1914.46 53.7944 Q1918.06 52.3598 1923.76 46.0064 Q1930.36 38.6284 1936.02 38.6284 Q1938.68 38.6284 1940.2 40.2679 Q1941.71 41.8665 1941.71 43.916 Z" fill="#ffffff" fill-rule="evenodd" fill-opacity="1" /><path clip-path="url(#clip020)" d="M1970.33 62.976 Q1970.41 61.9513 1972.01 61.9513 L2023.45 61.9513 Q2025.87 61.9513 2025.91 62.894 Q2025.91 63.9188 2023.62 63.8778 L1972.58 63.8778 Q1970.33 63.9188 1970.33 62.976 M1970.33 46.5803 Q1970.33 45.5556 1972.09 45.5965 L2023.37 45.5965 Q2025.87 45.5965 2025.91 46.5803 Q2025.91 47.523 2023.78 47.523 L1972.01 47.523 Q1970.33 47.523 1970.33 46.5803 Z" fill="#ffffff" fill-rule="evenodd" fill-opacity="1" /><path clip-path="url(#clip020)" d="M2058.3 27.8072 L2058.3 25.1839 Q2068.38 25.1839 2073.59 19.8143 Q2075.02 19.8143 2075.27 20.1422 Q2075.51 20.4701 2075.51 21.9867 L2075.51 69.0834 Q2075.51 71.5837 2076.74 72.3625 Q2077.97 73.1413 2083.34 73.1413 L2086.01 73.1413 L2086.01 75.7237 Q2083.05 75.4777 2072.4 75.4777 Q2061.74 75.4777 2058.83 75.7237 L2058.83 73.1413 L2061.49 73.1413 Q2066.78 73.1413 2068.05 72.4035 Q2069.32 71.6247 2069.32 69.0834 L2069.32 25.5938 Q2064.94 27.8072 2058.3 27.8072 Z" fill="#ffffff" fill-rule="evenodd" fill-opacity="1" /><path clip-path="url(#clip020)" d="M2092.64 74.371 Q2091.37 73.0184 2091.37 71.2558 Q2091.37 69.4933 2092.64 68.2226 Q2093.91 66.911 2095.84 66.911 Q2097.68 66.911 2098.91 68.1407 Q2100.18 69.3293 2100.18 71.2968 Q2100.18 73.2233 2098.83 74.494 Q2097.52 75.7237 2095.84 75.7237 Q2093.91 75.7237 2092.64 74.371 Z" fill="#ffffff" fill-rule="evenodd" fill-opacity="1" /><path clip-path="url(#clip020)" d="M2114.47 63.058 Q2114.47 53.6714 2126.56 47.605 Q2121.36 44.0799 2120.41 43.0552 Q2116.73 38.9563 2116.73 33.8326 Q2116.73 27.9712 2121.15 23.9132 Q2125.62 19.8143 2131.93 19.8143 Q2137.96 19.8143 2142.51 23.2984 Q2147.06 26.7825 2147.06 32.316 Q2147.06 40.104 2136.89 45.3506 Q2143.61 49.5315 2145.21 51.2941 Q2149.31 55.8439 2149.31 61.6234 Q2149.31 68.3456 2144.15 72.9774 Q2138.98 77.5682 2131.85 77.5682 Q2124.88 77.5682 2119.68 73.5102 Q2114.47 69.4523 2114.47 63.058 M2118.65 63.058 Q2118.65 68.2636 2122.55 71.7477 Q2126.48 75.2318 2131.93 75.2318 Q2137.22 75.2318 2141.15 72.1986 Q2145.13 69.1654 2145.13 64.6566 Q2145.13 62.894 2144.52 61.3774 Q2143.94 59.8608 2142.75 58.6721 Q2141.61 57.4424 2140.87 56.9096 Q2140.17 56.3357 2138.82 55.393 L2128.49 48.8757 Q2118.65 54.3273 2118.65 63.058 M2120.41 30.5535 Q2120.41 34.5704 2124.64 37.3577 L2135.05 44.0799 Q2143.37 39.2022 2143.37 32.316 Q2143.37 27.8482 2139.97 24.897 Q2136.56 21.9047 2131.85 21.9047 Q2127.22 21.9047 2123.82 24.3641 Q2120.41 26.7825 2120.41 30.5535 Z" fill="#ffffff" fill-rule="evenodd" fill-opacity="1" /><path clip-path="url(#clip020)" d="M2156.04 64.4106 Q2156.04 61.9103 2157.48 60.7216 Q2158.91 59.5329 2160.76 59.5329 Q2162.68 59.5329 2164.04 60.8036 Q2165.43 62.0332 2165.43 64.2057 Q2165.43 66.5421 2163.79 67.8537 Q2162.19 69.1654 2159.9 68.8375 Q2161.91 72.1986 2165.59 73.7152 Q2169.32 75.2318 2172.77 75.2318 Q2176.37 75.2318 2179.28 72.1166 Q2182.24 69.0014 2182.24 61.3774 Q2182.24 54.9011 2179.69 51.1711 Q2177.19 47.4411 2172.23 47.4411 L2168.55 47.4411 Q2167.27 47.4411 2166.91 47.3181 Q2166.54 47.1951 2166.54 46.4983 Q2166.54 45.6785 2167.81 45.5146 Q2169.08 45.5146 2171.09 45.2686 Q2175.96 45.1047 2178.55 40.8828 Q2180.88 36.9478 2180.88 31.3323 Q2180.88 26.2086 2178.42 24.0772 Q2176.01 21.9047 2172.85 21.9047 Q2169.9 21.9047 2166.66 23.1344 Q2163.42 24.3641 2161.66 27.1104 Q2166.86 27.1104 2166.86 31.3323 Q2166.86 33.1768 2165.68 34.4065 Q2164.53 35.5952 2162.6 35.5952 Q2160.76 35.5952 2159.53 34.4475 Q2158.3 33.2588 2158.3 31.2503 Q2158.3 26.4546 2162.56 23.1344 Q2166.86 19.8143 2173.18 19.8143 Q2179.41 19.8143 2184 23.0934 Q2188.63 26.3726 2188.63 31.4143 Q2188.63 36.374 2185.35 40.4319 Q2182.07 44.4898 2176.87 46.1704 Q2183.26 47.4411 2187.07 51.7859 Q2190.88 56.0898 2190.88 61.3774 Q2190.88 67.9357 2185.72 72.7724 Q2180.56 77.5682 2173.01 77.5682 Q2166.05 77.5682 2161.04 73.7972 Q2156.04 70.0262 2156.04 64.4106 Z" fill="#ffffff" fill-rule="evenodd" fill-opacity="1" /><path clip-path="url(#clip020)" d="M2198.81 74.371 Q2197.62 73.0184 2197.62 71.2558 Q2197.62 69.4933 2198.76 68.1816 Q2199.95 66.829 2202.08 66.829 Q2204.58 66.829 2206.02 69.2474 Q2207.45 71.6247 2207.45 75.6417 Q2207.45 79.9866 2205.69 84.0035 Q2203.93 88.0614 2202.21 89.9879 Q2200.49 91.9144 2199.79 91.9144 Q2198.97 91.9144 2198.97 91.0127 Q2198.97 90.6848 2199.54 90.0699 Q2205.57 83.5936 2205.61 75.6417 Q2205.61 74.371 2205.45 74.371 L2205.24 74.535 Q2203.81 75.7237 2202.08 75.7237 Q2199.99 75.7237 2198.81 74.371 Z" fill="#ffffff" fill-rule="evenodd" fill-opacity="1" /><path clip-path="url(#clip020)" d="M2268.62 33.7506 Q2268.62 40.6368 2266.41 48.3838 Q2264.24 56.0898 2260.79 62.3202 Q2257.35 68.5096 2252.84 72.6085 Q2248.33 76.6664 2244.03 76.6664 Q2241.28 76.6664 2239.23 75.1498 Q2237.23 73.5922 2236.12 71.0099 Q2235.01 68.3866 2234.48 65.5173 Q2233.95 62.6071 2233.95 59.4509 Q2233.95 54.7372 2234.97 49.6135 Q2236 44.4488 2237.72 39.7761 Q2239.44 35.0623 2241.86 30.7994 Q2244.28 26.4955 2246.94 23.3804 Q2249.65 20.2242 2252.68 18.3797 Q2255.71 16.5351 2258.54 16.5351 Q2260.59 16.5351 2262.23 17.4369 Q2263.91 18.2977 2264.98 19.8143 Q2266.04 21.2899 2266.78 23.0524 Q2267.56 24.815 2267.93 26.8644 Q2268.3 28.8729 2268.46 30.5535 Q2268.62 32.1931 2268.62 33.7506 M2263.09 28.545 Q2263.09 26.4546 2262.93 24.897 Q2262.76 23.2984 2262.31 21.6998 Q2261.86 20.1012 2260.88 19.2404 Q2259.93 18.3797 2258.46 18.3797 Q2254.15 18.3797 2249.32 27.1924 Q2247.76 29.9386 2246.37 33.6687 Q2244.97 37.3987 2244.48 39.1612 Q2243.99 40.9238 2242.84 45.2686 L2260.38 45.2686 Q2263.09 34.0786 2263.09 28.545 M2259.65 47.9329 L2242.19 47.9329 Q2239.48 58.1803 2239.48 64.5746 Q2239.48 70.1491 2240.63 72.4855 Q2241.82 74.7809 2244.03 74.7809 Q2246.57 74.7809 2248.95 72.2396 Q2251.33 69.6573 2253.74 64.9845 Q2256.94 58.9181 2259.65 47.9329 Z" fill="#ffffff" fill-rule="evenodd" fill-opacity="1" /><path clip-path="url(#clip020)" d="M2296.22 62.976 Q2296.3 61.9513 2297.9 61.9513 L2349.34 61.9513 Q2351.76 61.9513 2351.8 62.894 Q2351.8 63.9188 2349.5 63.8778 L2298.47 63.8778 Q2296.22 63.9188 2296.22 62.976 M2296.22 46.5803 Q2296.22 45.5556 2297.98 45.5965 L2349.26 45.5965 Q2351.76 45.5965 2351.8 46.5803 Q2351.8 47.523 2349.67 47.523 L2297.9 47.523 Q2296.22 47.523 2296.22 46.5803 Z" fill="#ffffff" fill-rule="evenodd" fill-opacity="1" /><path clip-path="url(#clip020)" d="M2384.18 27.8072 L2384.18 25.1839 Q2394.27 25.1839 2399.47 19.8143 Q2400.91 19.8143 2401.15 20.1422 Q2401.4 20.4701 2401.4 21.9867 L2401.4 69.0834 Q2401.4 71.5837 2402.63 72.3625 Q2403.86 73.1413 2409.23 73.1413 L2411.89 73.1413 L2411.89 75.7237 Q2408.94 75.4777 2398.28 75.4777 Q2387.63 75.4777 2384.72 75.7237 L2384.72 73.1413 L2387.38 73.1413 Q2392.67 73.1413 2393.94 72.4035 Q2395.21 71.6247 2395.21 69.0834 L2395.21 25.5938 Q2390.82 27.8072 2384.18 27.8072 Z" fill="#ffffff" fill-rule="evenodd" fill-opacity="1" /><path clip-path="url(#clip020)" d="M2412.55 61.8693 L2412.55 59.287 L2438.33 19.8963 Q2438.99 18.8715 2440.01 18.9125 Q2440.96 18.9125 2441.16 19.2814 Q2441.37 19.6503 2441.37 21.085 L2441.37 59.287 L2449.77 59.287 L2449.77 61.8693 L2441.37 61.8693 L2441.37 69.1654 Q2441.37 71.5837 2442.35 72.3625 Q2443.38 73.1413 2447.72 73.1413 L2449.48 73.1413 L2449.48 75.7237 Q2446.04 75.4777 2438.09 75.4777 Q2430.18 75.4777 2426.73 75.7237 L2426.73 73.1413 L2428.5 73.1413 Q2432.84 73.1413 2433.87 72.4035 Q2434.89 71.6247 2434.89 69.1654 L2434.89 61.8693 L2412.55 61.8693 M2414.93 59.287 L2435.38 59.287 L2435.38 27.9712 L2414.93 59.287 Z" fill="#ffffff" fill-rule="evenodd" fill-opacity="1" /><path clip-path="url(#clip020)" d="M2455.4 74.371 Q2454.12 73.0184 2454.12 71.2558 Q2454.12 69.4933 2455.4 68.2226 Q2456.67 66.911 2458.59 66.911 Q2460.44 66.911 2461.67 68.1407 Q2462.94 69.3293 2462.94 71.2968 Q2462.94 73.2233 2461.58 74.494 Q2460.27 75.7237 2458.59 75.7237 Q2456.67 75.7237 2455.4 74.371 Z" fill="#ffffff" fill-rule="evenodd" fill-opacity="1" /><path clip-path="url(#clip020)" d="M2477.23 62.1972 Q2477.23 59.6969 2478.58 58.7541 Q2479.93 57.7704 2481.36 57.7704 Q2483.29 57.7704 2484.4 59 Q2485.55 60.1887 2485.55 61.8693 Q2485.55 63.5499 2484.4 64.7795 Q2483.29 65.9682 2481.36 65.9682 Q2480.42 65.9682 2479.93 65.8043 Q2481.04 69.6573 2484.4 72.4445 Q2487.8 75.2318 2492.27 75.2318 Q2497.88 75.2318 2501.24 69.7802 Q2503.25 66.2551 2503.25 58.2622 Q2503.25 51.2121 2501.74 47.687 Q2499.4 42.3174 2494.6 42.3174 Q2487.8 42.3174 2483.78 48.1789 Q2483.29 48.9167 2482.72 48.9577 Q2481.9 48.9577 2481.69 48.5068 Q2481.53 48.0149 2481.53 46.7442 L2481.53 21.9047 Q2481.53 19.8963 2482.35 19.8963 Q2482.68 19.8963 2483.37 20.1422 Q2488.66 22.4786 2494.52 22.5196 Q2500.55 22.5196 2505.96 20.0602 Q2506.37 19.8143 2506.61 19.8143 Q2507.43 19.8143 2507.48 20.757 Q2507.48 21.085 2506.78 22.0687 Q2506.12 23.0115 2504.69 24.2821 Q2503.25 25.5118 2501.41 26.7005 Q2499.56 27.8892 2496.86 28.709 Q2494.19 29.4878 2491.24 29.4878 Q2487.72 29.4878 2484.11 28.3811 L2484.11 44.7358 Q2488.46 40.4729 2494.77 40.4729 Q2501.49 40.4729 2506.12 45.8835 Q2510.75 51.2941 2510.75 58.8361 Q2510.75 66.747 2505.26 72.1576 Q2499.81 77.5682 2492.43 77.5682 Q2485.71 77.5682 2481.45 72.7724 Q2477.23 67.9767 2477.23 62.1972 Z" fill="#ffffff" fill-rule="evenodd" fill-opacity="1" /><path clip-path="url(#clip023)" d="M378.311 2170.9 L379.407 2113.24 L380.503 2069.04 L381.599 2029.09 L382.695 1991.8 L383.791 1956.46 L384.887 1922.68 L385.984 1890.21 L387.08 1858.86 L389.272 1799.02 L391.464 1742.42 L392.56 1715.19 L393.656 1688.6 L394.752 1662.61 L395.848 1637.19 L398.382 1580.47 L400.915 1526.35 L403.449 1474.58 L405.983 1424.99 L408.517 1377.42 L411.05 1331.73 L413.584 1287.81 L416.118 1245.57 L418.651 1204.9 L421.185 1165.75 L423.719 1128.03 L426.252 1091.68 L428.786 1056.65 L431.32 1022.89 L433.853 990.332 L436.387 958.946 L441.454 899.511 L446.522 844.275 L451.589 792.965 L456.656 745.336 L461.724 701.17 L466.791 660.265 L471.858 622.438 L476.926 587.518 L481.993 555.351 L487.06 525.789 L492.128 498.697 L497.195 473.947 L502.263 451.422 L507.33 431.007 L512.397 412.598 L517.465 396.095 L522.532 381.404 L527.599 368.434 L532.667 357.102 L537.734 347.326 L542.801 339.032 L547.869 332.144 L552.936 326.596 L558.003 322.32 L564.094 318.776 L570.184 316.875 L576.275 316.521 L582.366 317.619 L588.456 320.083 L594.547 323.828 L600.637 328.776 L606.728 334.853 L618.909 350.108 L631.09 369.067 L643.271 391.257 L655.452 416.249 L665.751 439.277 L676.05 463.82 L686.349 489.681 L696.648 516.683 L717.246 573.465 L737.843 633.015 L782.594 767.528 L827.344 903.275 L847.972 964.823 L868.599 1025.22 L889.227 1084.18 L909.855 1141.5 L931.97 1200.94 L954.085 1258.15 L976.201 1313.04 L998.316 1365.54 L1023.94 1423.35 L1049.56 1477.91 L1075.18 1529.26 L1100.81 1577.48 L1123.58 1617.76 L1146.35 1655.7 L1169.12 1691.4 L1191.89 1724.92 L1211.86 1752.61 L1231.82 1778.76 L1251.79 1803.45 L1271.76 1826.73 L1293.53 1850.59 L1315.3 1872.93 L1337.07 1893.84 L1358.84 1913.39 L1402.64 1948.91 L1446.44 1979.82 L1494.86 2009.28 L1543.29 2034.4 L1589.36 2054.83 L1635.44 2072.32 L1683.34 2087.81 L1731.25 2100.95 L1771.58 2110.43 L1811.91 2118.66 L1910.38 2134.46 L2000.59 2144.78 L2083.9 2151.73 L2168.29 2156.92 L2262.87 2161.11 L2348.58 2163.82 L2446.71 2166.03 L2537.56 2167.46 L2627.14 2168.46 L2714.11 2169.15 L2803.26 2169.66 L2900.94 2170.05 L3042.84 2170.41 L3071.95 2170.47 L3071.95 2170.9 L3042.84 2170.9 L2900.94 2170.9 L2803.26 2170.9 L2714.11 2170.9 L2627.14 2170.9 L2537.56 2170.9 L2446.71 2170.9 L2348.58 2170.9 L2262.87 2170.9 L2168.29 2170.9 L2083.9 2170.9 L2000.59 2170.9 L1910.38 2170.9 L1811.91 2170.9 L1771.58 2170.9 L1731.25 2170.9 L1683.34 2170.9 L1635.44 2170.9 L1589.36 2170.9 L1543.29 2170.9 L1494.86 2170.9 L1446.44 2170.9 L1402.64 2170.9 L1358.84 2170.9 L1337.07 2170.9 L1315.3 2170.9 L1293.53 2170.9 L1271.76 2170.9 L1251.79 2170.9 L1231.82 2170.9 L1211.86 2170.9 L1191.89 2170.9 L1169.12 2170.9 L1146.35 2170.9 L1123.58 2170.9 L1100.81 2170.9 L1075.18 2170.9 L1049.56 2170.9 L1023.94 2170.9 L998.316 2170.9 L976.201 2170.9 L954.085 2170.9 L931.97 2170.9 L909.855 2170.9 L889.227 2170.9 L868.599 2170.9 L847.972 2170.9 L827.344 2170.9 L782.594 2170.9 L737.843 2170.9 L717.246 2170.9 L696.648 2170.9 L686.349 2170.9 L676.05 2170.9 L665.751 2170.9 L655.452 2170.9 L643.271 2170.9 L631.09 2170.9 L618.909 2170.9 L606.728 2170.9 L600.637 2170.9 L594.547 2170.9 L588.456 2170.9 L582.366 2170.9 L576.275 2170.9 L570.184 2170.9 L564.094 2170.9 L558.003 2170.9 L552.936 2170.9 L547.869 2170.9 L542.801 2170.9 L537.734 2170.9 L532.667 2170.9 L527.599 2170.9 L522.532 2170.9 L517.465 2170.9 L512.397 2170.9 L507.33 2170.9 L502.263 2170.9 L497.195 2170.9 L492.128 2170.9 L487.06 2170.9 L481.993 2170.9 L476.926 2170.9 L471.858 2170.9 L466.791 2170.9 L461.724 2170.9 L456.656 2170.9 L451.589 2170.9 L446.522 2170.9 L441.454 2170.9 L436.387 2170.9 L433.853 2170.9 L431.32 2170.9 L428.786 2170.9 L426.252 2170.9 L423.719 2170.9 L421.185 2170.9 L418.651 2170.9 L416.118 2170.9 L413.584 2170.9 L411.05 2170.9 L408.517 2170.9 L405.983 2170.9 L403.449 2170.9 L400.915 2170.9 L398.382 2170.9 L395.848 2170.9 L394.752 2170.9 L393.656 2170.9 L392.56 2170.9 L391.464 2170.9 L389.272 2170.9 L387.08 2170.9 L385.984 2170.9 L384.887 2170.9 L383.791 2170.9 L382.695 2170.9 L381.599 2170.9 L380.503 2170.9 L379.407 2170.9 L378.311 2170.9  Z" fill="#ffc0cb" fill-rule="evenodd" fill-opacity="0.2"/>
<polyline clip-path="url(#clip023)" style="stroke:#ffc0cb; stroke-linecap:round; stroke-linejoin:round; stroke-width:4; stroke-opacity:1; fill:none" points="378.311,2170.9 379.407,2113.24 380.503,2069.04 381.599,2029.09 382.695,1991.8 383.791,1956.46 384.887,1922.68 385.984,1890.21 387.08,1858.86 389.272,1799.02 391.464,1742.42 392.56,1715.19 393.656,1688.6 394.752,1662.61 395.848,1637.19 398.382,1580.47 400.915,1526.35 403.449,1474.58 405.983,1424.99 408.517,1377.42 411.05,1331.73 413.584,1287.81 416.118,1245.57 418.651,1204.9 421.185,1165.75 423.719,1128.03 426.252,1091.68 428.786,1056.65 431.32,1022.89 433.853,990.332 436.387,958.946 441.454,899.511 446.522,844.275 451.589,792.965 456.656,745.336 461.724,701.17 466.791,660.265 471.858,622.438 476.926,587.518 481.993,555.351 487.06,525.789 492.128,498.697 497.195,473.947 502.263,451.422 507.33,431.007 512.397,412.598 517.465,396.095 522.532,381.404 527.599,368.434 532.667,357.102 537.734,347.326 542.801,339.032 547.869,332.144 552.936,326.596 558.003,322.32 564.094,318.776 570.184,316.875 576.275,316.521 582.366,317.619 588.456,320.083 594.547,323.828 600.637,328.776 606.728,334.853 618.909,350.108 631.09,369.067 643.271,391.257 655.452,416.249 665.751,439.277 676.05,463.82 686.349,489.681 696.648,516.683 717.246,573.465 737.843,633.015 782.594,767.528 827.344,903.275 847.972,964.823 868.599,1025.22 889.227,1084.18 909.855,1141.5 931.97,1200.94 954.085,1258.15 976.201,1313.04 998.316,1365.54 1023.94,1423.35 1049.56,1477.91 1075.18,1529.26 1100.81,1577.48 1123.58,1617.76 1146.35,1655.7 1169.12,1691.4 1191.89,1724.92 1211.86,1752.61 1231.82,1778.76 1251.79,1803.45 1271.76,1826.73 1293.53,1850.59 1315.3,1872.93 1337.07,1893.84 1358.84,1913.39 1402.64,1948.91 1446.44,1979.82 1494.86,2009.28 1543.29,2034.4 1589.36,2054.83 1635.44,2072.32 1683.34,2087.81 1731.25,2100.95 1771.58,2110.43 1811.91,2118.66 1910.38,2134.46 2000.59,2144.78 2083.9,2151.73 2168.29,2156.92 2262.87,2161.11 2348.58,2163.82 2446.71,2166.03 2537.56,2167.46 2627.14,2168.46 2714.11,2169.15 2803.26,2169.66 2900.94,2170.05 3042.84,2170.41 3071.95,2170.47 "/>
<path clip-path="url(#clip020)" d="M2115.77 432.308 L3057.58 432.308 L3057.58 199.028 L2115.77 199.028  Z" fill="#7711d7" fill-rule="evenodd" fill-opacity="0.0313725"/>
<polyline clip-path="url(#clip020)" style="stroke:#ffffff; stroke-linecap:round; stroke-linejoin:round; stroke-width:4; stroke-opacity:1; fill:none" points="2115.77,432.308 3057.58,432.308 3057.58,199.028 2115.77,199.028 2115.77,432.308 "/>
<path clip-path="url(#clip020)" d="M2147.49 362.324 L2337.84 362.324 L2337.84 269.012 L2147.49 269.012 L2147.49 362.324  Z" fill="#ffc0cb" fill-rule="evenodd" fill-opacity="0.2"/>
<polyline clip-path="url(#clip020)" style="stroke:#ffc0cb; stroke-linecap:round; stroke-linejoin:round; stroke-width:9; stroke-opacity:1; fill:none" points="2147.49,269.012 2337.84,269.012 "/>
<path clip-path="url(#clip020)" d="M2427.07 340.928 L2427.07 320.043 L2409.88 320.043 L2409.88 311.397 L2437.49 311.397 L2437.49 344.782 Q2431.39 349.105 2424.05 351.345 Q2416.7 353.532 2408.37 353.532 Q2390.14 353.532 2379.83 342.907 Q2369.57 332.23 2369.57 313.22 Q2369.57 294.158 2379.83 283.533 Q2390.14 272.856 2408.37 272.856 Q2415.98 272.856 2422.8 274.731 Q2429.67 276.606 2435.45 280.251 L2435.45 291.449 Q2429.62 286.501 2423.06 284.001 Q2416.5 281.501 2409.26 281.501 Q2394.99 281.501 2387.8 289.47 Q2380.66 297.439 2380.66 313.22 Q2380.66 328.949 2387.8 336.918 Q2394.99 344.887 2409.26 344.887 Q2414.83 344.887 2419.2 343.949 Q2423.58 342.959 2427.07 340.928 Z" fill="#ffffff" fill-rule="evenodd" fill-opacity="1" /><path clip-path="url(#clip020)" d="M2482.8 322.699 Q2471.18 322.699 2466.7 325.355 Q2462.23 328.012 2462.23 334.418 Q2462.23 339.522 2465.56 342.543 Q2468.94 345.512 2474.73 345.512 Q2482.69 345.512 2487.49 339.887 Q2492.33 334.209 2492.33 324.835 L2492.33 322.699 L2482.8 322.699 M2501.91 318.741 L2501.91 352.022 L2492.33 352.022 L2492.33 343.168 Q2489.05 348.48 2484.15 351.032 Q2479.26 353.532 2472.17 353.532 Q2463.22 353.532 2457.9 348.532 Q2452.64 343.48 2452.64 335.043 Q2452.64 325.199 2459.2 320.199 Q2465.82 315.199 2478.89 315.199 L2492.33 315.199 L2492.33 314.262 Q2492.33 307.647 2487.95 304.053 Q2483.63 300.408 2475.77 300.408 Q2470.77 300.408 2466.03 301.605 Q2461.29 302.803 2456.91 305.199 L2456.91 296.345 Q2462.17 294.314 2467.12 293.324 Q2472.07 292.283 2476.76 292.283 Q2489.41 292.283 2495.66 298.845 Q2501.91 305.408 2501.91 318.741 Z" fill="#ffffff" fill-rule="evenodd" fill-opacity="1" /><path clip-path="url(#clip020)" d="M2567.07 304.887 Q2570.66 298.428 2575.66 295.356 Q2580.66 292.283 2587.43 292.283 Q2596.55 292.283 2601.5 298.689 Q2606.44 305.043 2606.44 316.814 L2606.44 352.022 L2596.81 352.022 L2596.81 317.126 Q2596.81 308.741 2593.84 304.678 Q2590.87 300.616 2584.78 300.616 Q2577.33 300.616 2573.01 305.564 Q2568.68 310.512 2568.68 319.053 L2568.68 352.022 L2559.05 352.022 L2559.05 317.126 Q2559.05 308.689 2556.08 304.678 Q2553.11 300.616 2546.91 300.616 Q2539.57 300.616 2535.25 305.616 Q2530.92 310.564 2530.92 319.053 L2530.92 352.022 L2521.29 352.022 L2521.29 293.689 L2530.92 293.689 L2530.92 302.751 Q2534.2 297.387 2538.79 294.835 Q2543.37 292.283 2549.67 292.283 Q2556.03 292.283 2560.45 295.512 Q2564.93 298.741 2567.07 304.887 Z" fill="#ffffff" fill-rule="evenodd" fill-opacity="1" /><path clip-path="url(#clip020)" d="M2670.97 304.887 Q2674.57 298.428 2679.57 295.356 Q2684.57 292.283 2691.34 292.283 Q2700.45 292.283 2705.4 298.689 Q2710.35 305.043 2710.35 316.814 L2710.35 352.022 L2700.71 352.022 L2700.71 317.126 Q2700.71 308.741 2697.75 304.678 Q2694.78 300.616 2688.68 300.616 Q2681.23 300.616 2676.91 305.564 Q2672.59 310.512 2672.59 319.053 L2672.59 352.022 L2662.95 352.022 L2662.95 317.126 Q2662.95 308.689 2659.98 304.678 Q2657.02 300.616 2650.82 300.616 Q2643.47 300.616 2639.15 305.616 Q2634.83 310.564 2634.83 319.053 L2634.83 352.022 L2625.19 352.022 L2625.19 293.689 L2634.83 293.689 L2634.83 302.751 Q2638.11 297.387 2642.69 294.835 Q2647.28 292.283 2653.58 292.283 Q2659.93 292.283 2664.36 295.512 Q2668.84 298.741 2670.97 304.887 Z" fill="#ffffff" fill-rule="evenodd" fill-opacity="1" /><path clip-path="url(#clip020)" d="M2755.97 322.699 Q2744.36 322.699 2739.88 325.355 Q2735.4 328.012 2735.4 334.418 Q2735.4 339.522 2738.73 342.543 Q2742.12 345.512 2747.9 345.512 Q2755.87 345.512 2760.66 339.887 Q2765.51 334.209 2765.51 324.835 L2765.51 322.699 L2755.97 322.699 M2775.09 318.741 L2775.09 352.022 L2765.51 352.022 L2765.51 343.168 Q2762.22 348.48 2757.33 351.032 Q2752.43 353.532 2745.35 353.532 Q2736.39 353.532 2731.08 348.532 Q2725.82 343.48 2725.82 335.043 Q2725.82 325.199 2732.38 320.199 Q2738.99 315.199 2752.07 315.199 L2765.51 315.199 L2765.51 314.262 Q2765.51 307.647 2761.13 304.053 Q2756.81 300.408 2748.94 300.408 Q2743.94 300.408 2739.2 301.605 Q2734.46 302.803 2730.09 305.199 L2730.09 296.345 Q2735.35 294.314 2740.3 293.324 Q2745.24 292.283 2749.93 292.283 Q2762.59 292.283 2768.84 298.845 Q2775.09 305.408 2775.09 318.741 Z" fill="#ffffff" fill-rule="evenodd" fill-opacity="1" /><path clip-path="url(#clip020)" d="M2818.68 352.022 L2818.68 348.702 L2820.26 348.702 Q2826.01 348.702 2827.8 347.911 Q2829.64 347.068 2829.8 344.011 L2829.8 286.41 Q2829.7 283.617 2827.9 282.773 Q2826.11 281.878 2820.26 281.878 L2818.68 281.878 L2818.68 278.61 Q2823.74 278.821 2833.86 278.821 Q2837.97 278.821 2841.5 278.715 Q2845.08 278.61 2845.66 278.61 L2875.02 278.61 L2878.02 302.905 L2875.23 302.905 Q2874.39 296.317 2873.44 292.892 Q2872.54 289.414 2870.33 286.621 Q2868.12 283.827 2864.43 282.879 Q2860.74 281.878 2854.52 281.878 L2845.3 281.878 Q2841.82 281.878 2840.61 282.563 Q2839.39 283.248 2839.39 286.094 L2839.39 343.695 Q2839.39 347.015 2841.61 347.859 Q2843.82 348.702 2851.25 348.702 L2853.2 348.702 L2853.2 352.022 Q2844.03 351.706 2834.76 351.706 L2834.07 351.706 Q2827.32 351.706 2818.68 352.022 Z" fill="#ffffff" fill-rule="evenodd" fill-opacity="1" /><path clip-path="url(#clip020)" d="M2958.98 270.981 L2958.98 278.949 L2949.81 278.949 Q2944.66 278.949 2942.63 281.033 Q2940.65 283.116 2940.65 288.533 L2940.65 293.689 L2956.43 293.689 L2956.43 301.137 L2940.65 301.137 L2940.65 352.022 L2931.01 352.022 L2931.01 301.137 L2921.85 301.137 L2921.85 293.689 L2931.01 293.689 L2931.01 289.626 Q2931.01 279.887 2935.54 275.46 Q2940.07 270.981 2949.92 270.981 L2958.98 270.981 Z" fill="#ffffff" fill-rule="evenodd" fill-opacity="1" /><path clip-path="url(#clip020)" d="M2967 293.689 L2976.59 293.689 L2976.59 352.022 L2967 352.022 L2967 293.689 M2967 270.981 L2976.59 270.981 L2976.59 283.116 L2967 283.116 L2967 270.981 Z" fill="#ffffff" fill-rule="evenodd" fill-opacity="1" /><path clip-path="url(#clip020)" d="M3006.12 277.126 L3006.12 293.689 L3025.86 293.689 L3025.86 301.137 L3006.12 301.137 L3006.12 332.803 Q3006.12 339.939 3008.04 341.97 Q3010.02 344.001 3016.01 344.001 L3025.86 344.001 L3025.86 352.022 L3016.01 352.022 Q3004.92 352.022 3000.7 347.907 Q2996.48 343.741 2996.48 332.803 L2996.48 301.137 L2989.45 301.137 L2989.45 293.689 L2996.48 293.689 L2996.48 277.126 L3006.12 277.126 Z" fill="#ffffff" fill-rule="evenodd" fill-opacity="1" /></svg>
