<?xml version="1.0" encoding="utf-8"?>
<svg xmlns="http://www.w3.org/2000/svg" xmlns:xlink="http://www.w3.org/1999/xlink" width="480" height="240" viewBox="0 0 1920 960">
<defs>
  <clipPath id="clip720">
    <rect x="0" y="0" width="1920" height="960"/>
  </clipPath>
</defs>
<path clip-path="url(#clip720)" d="
M0 960 L1920 960 L1920 0 L0 0  Z
  " fill="#ffffff" fill-rule="evenodd" fill-opacity="1"/>
<defs>
  <clipPath id="clip721">
    <rect x="384" y="0" width="1345" height="960"/>
  </clipPath>
</defs>
<path clip-path="url(#clip720)" d="
M491.339 948.661 L1428.66 948.661 L1428.66 11.3386 L491.339 11.3386  Z
  " fill="#ffffff" fill-rule="evenodd" fill-opacity="1"/>
<defs>
  <clipPath id="clip722">
    <rect x="491" y="11" width="938" height="938"/>
  </clipPath>
</defs>
<polyline clip-path="url(#clip722)" style="stroke:#000000; stroke-width:0.96; stroke-opacity:1; fill:none" points="
  796.378,355.919 821.265,363.691 845.93,371.416 870.151,379.048 893.707,386.54 916.375,393.846 937.935,400.919 958.164,407.712 976.839,414.178 993.741,420.272 
  1008.65,425.946 1021.33,431.153 1031.58,435.848 1039.17,439.983 1043.87,443.513 1045.46,446.389 1043.73,448.567 1038.45,449.998 1029.4,450.636 1016.36,450.436 
  999.103,449.349 977.409,447.331 951.058,444.333 919.826,440.309 883.493,435.213 841.846,429 794.884,421.67 742.821,413.267 685.878,403.839 624.277,393.432 
  558.24,382.093 487.988,369.867 413.744,356.803 335.729,342.945 254.165,328.342 169.274,313.039 81.2773,297.084 -9.6027,280.523 -103.144,263.402 -199.126,245.768 
  -297.326,227.668 -397.522,209.149 -499.493,190.256 -603.016,171.037 -707.87,151.538 -813.833,131.807 -920.684,111.888 -1028.2,91.8302 -1136.16,71.6788 -1244.34,51.4808 
  
  "/>
<polyline clip-path="url(#clip722)" style="stroke:#000000; stroke-width:0.96; stroke-opacity:1; fill:none" points="
  -1218.67,70.9219 -1244.34,51.4808 -1213.39,42.6112 
  "/>
<polyline clip-path="url(#clip722)" style="stroke:#000000; stroke-width:0.96; stroke-opacity:1; fill:none" points="
  -1244.34,51.4808 -1136.16,71.6788 
  "/>
<polyline clip-path="url(#clip722)" style="stroke:#000000; stroke-width:0.96; stroke-opacity:1; fill:none" points="
  1119.77,335.794 1096.71,346.287 1073.85,356.709 1051.41,366.99 1029.58,377.059 1008.59,386.846 988.63,396.279 969.913,405.289 952.645,413.804 937.033,421.755 
  923.285,429.069 911.607,435.678 902.207,441.51 895.291,446.494 891.066,450.561 889.74,453.638 891.519,455.657 896.611,456.545 905.223,456.233 917.561,454.65 
  933.833,451.725 954.246,447.387 979.006,441.567 1008.32,434.193 1042.4,425.194 1081.44,414.504 1125.43,402.122 1174.19,388.115 1227.51,372.555 1285.17,355.511 
  1346.97,337.056 1412.71,317.258 1482.17,296.19 1555.15,273.921 1631.45,250.522 1710.85,226.063 1793.15,200.616 1878.14,174.251 1965.61,147.039 2055.36,119.049 
  2147.18,90.3536 2240.87,61.0224 2336.21,31.1263 2433,0.735825 2531.04,-30.0784 2630.11,-61.2457 2730,-92.6954 2830.52,-124.357 2931.45,-156.16 3032.59,-188.033 
  
  "/>
<polyline clip-path="url(#clip722)" style="stroke:#000000; stroke-width:0.96; stroke-opacity:1; fill:none" points="
  3000.8,-193.111 3032.59,-188.033 3009.45,-165.643 
  "/>
<polyline clip-path="url(#clip722)" style="stroke:#000000; stroke-width:0.96; stroke-opacity:1; fill:none" points="
  3032.59,-188.033 2931.45,-156.16 
  "/>
<polyline clip-path="url(#clip722)" style="stroke:#000000; stroke-width:0.96; stroke-opacity:1; fill:none" points="
  973.653,659.188 977.12,633.519 980.536,608.065 983.852,583.041 987.015,558.663 989.977,535.144 992.687,512.7 995.093,491.546 997.146,471.898 998.795,453.969 
  999.989,437.975 1000.68,424.132 1000.81,412.653 1000.34,403.755 999.212,397.652 997.376,394.558 994.784,394.69 991.383,398.262 987.124,405.489 981.955,416.586 
  975.828,431.768 968.69,451.251 960.492,475.248 951.183,503.976 940.713,537.648 929.033,576.472 916.143,620.447 902.091,669.367 886.929,723.017 870.706,781.183 
  853.473,843.648 835.281,910.199 816.18,980.619 796.22,1054.7 775.453,1132.21 753.928,1212.95 731.696,1296.7 708.808,1383.25 685.313,1472.37 661.263,1563.87 
  636.709,1657.51 611.699,1753.08 586.286,1850.38 560.519,1949.18 534.45,2049.27 508.128,2150.44 481.603,2252.47 454.928,2355.14 428.151,2458.24 401.324,2561.55 
  
  "/>
<polyline clip-path="url(#clip722)" style="stroke:#000000; stroke-width:0.96; stroke-opacity:1; fill:none" points="
  422.5,2537.3 401.324,2561.55 394.624,2530.06 
  "/>
<polyline clip-path="url(#clip722)" style="stroke:#000000; stroke-width:0.96; stroke-opacity:1; fill:none" points="
  401.324,2561.55 428.151,2458.24 
  "/>
<polyline clip-path="url(#clip722)" style="stroke:#000000; stroke-width:0.96; stroke-opacity:1; fill:none" points="
  730.515,172.406 734.234,207.824 737.942,242.92 741.629,277.373 745.283,310.86 748.893,343.06 752.449,373.652 755.939,402.313 759.353,428.722 762.68,452.557 
  765.908,473.496 769.028,491.218 772.028,505.4 774.896,515.722 777.623,521.861 780.198,523.496 782.608,520.304 784.845,511.965 786.895,498.156 788.75,478.555 
  790.397,452.842 791.827,420.693 793.027,381.788 793.988,335.805 794.697,282.421 795.146,221.329 795.333,152.529 795.269,76.3286 794.965,-6.95024 794.433,-96.9857 
  793.682,-193.456 792.724,-296.039 791.57,-404.414 790.231,-518.259 788.717,-637.251 787.039,-761.07 785.209,-889.393 783.237,-1021.9 781.134,-1158.26 778.911,-1298.17 
  776.579,-1441.29 774.149,-1587.31 771.632,-1735.91 769.039,-1886.75 766.38,-2039.53 763.666,-2193.91 760.909,-2349.58 758.119,-2506.22 755.308,-2663.5 752.485,-2821.1 
  
  "/>
<polyline clip-path="url(#clip722)" style="stroke:#000000; stroke-width:0.96; stroke-opacity:1; fill:none" points="
  738.603,-2792.05 752.485,-2821.1 767.398,-2792.56 
  "/>
<polyline clip-path="url(#clip722)" style="stroke:#000000; stroke-width:0.96; stroke-opacity:1; fill:none" points="
  752.485,-2821.1 755.308,-2663.5 
  "/>
<polyline clip-path="url(#clip722)" style="stroke:#000000; stroke-width:0.96; stroke-opacity:1; fill:none" points="
  625.242,405.399 663.923,405.218 702.247,405.015 739.859,404.769 776.403,404.459 811.523,404.063 844.862,403.56 876.064,402.928 904.773,402.146 930.633,401.193 
  953.289,400.047 972.383,398.687 987.559,397.09 998.462,395.237 1004.74,393.105 1006.02,390.672 1001.97,387.919 992.218,384.822 976.412,381.361 954.196,377.514 
  925.214,373.259 889.109,368.576 845.526,363.443 794.108,357.839 734.499,351.741 666.359,345.129 589.686,338.005 504.822,330.387 412.124,322.297 311.947,313.758 
  204.647,304.789 90.5819,295.414 -29.8939,285.652 -156.424,275.527 -288.652,265.058 -426.221,254.267 -568.776,243.177 -715.961,231.808 -867.42,220.182 -1022.8,208.319 
  -1181.73,196.243 -1343.87,183.974 -1508.86,171.533 -1676.35,158.942 -1845.97,146.222 -2017.37,133.396 -2190.2,120.483 -2364.09,107.506 -2538.7,94.4868 -2713.66,81.4457 
  
  "/>
<polyline clip-path="url(#clip722)" style="stroke:#000000; stroke-width:0.96; stroke-opacity:1; fill:none" points="
  -2686.01,97.9466 -2713.66,81.4457 -2683.87,69.2263 
  "/>
<polyline clip-path="url(#clip722)" style="stroke:#000000; stroke-width:0.96; stroke-opacity:1; fill:none" points="
  -2713.66,81.4457 -2538.7,94.4868 
  "/>
<polyline clip-path="url(#clip722)" style="stroke:#000000; stroke-width:0.96; stroke-opacity:1; fill:none" points="
  1294.76,363.736 1258.11,368.015 1221.79,372.232 1186.14,376.325 1151.48,380.232 1118.17,383.891 1086.52,387.239 1056.86,390.215 1029.55,392.756 1004.9,394.801 
  983.247,396.287 964.931,397.153 950.283,397.336 939.634,396.774 933.32,395.405 931.673,393.168 935.026,389.999 943.714,385.838 958.069,380.621 978.425,374.287 
  1005.11,366.774 1038.47,358.019 1078.83,347.962 1126.52,336.539 1181.88,323.688 1245.23,309.35 1316.57,293.526 1395.57,276.274 1481.91,257.656 1575.24,237.735 
  1675.25,216.573 1781.59,194.232 1893.93,170.773 2011.94,146.259 2135.28,120.753 2263.62,94.315 2396.63,67.0085 2533.97,38.895 2675.32,10.0368 2820.33,-19.5041 
  2968.68,-49.6656 3120.02,-80.3858 3274.03,-111.602 3430.38,-143.254 3588.73,-175.277 3748.74,-207.611 3910.09,-240.193 4072.43,-272.961 4235.45,-305.854 4398.79,-338.808 
  
  "/>
<polyline clip-path="url(#clip722)" style="stroke:#000000; stroke-width:0.96; stroke-opacity:1; fill:none" points="
  4367.72,-347.228 4398.79,-338.808 4373.41,-318.997 
  "/>
<polyline clip-path="url(#clip722)" style="stroke:#000000; stroke-width:0.96; stroke-opacity:1; fill:none" points="
  4398.79,-338.808 4235.45,-305.854 
  "/>
<polyline clip-path="url(#clip722)" style="stroke:#000000; stroke-width:0.96; stroke-opacity:1; fill:none" points="
  1167.04,145.242 1166.86,181.002 1166.66,216.44 1166.42,251.233 1166.11,285.059 1165.72,317.595 1165.23,348.519 1164.61,377.508 1163.83,404.241 1162.89,428.395 
  1161.76,449.647 1160.42,467.675 1158.85,482.156 1157.02,492.769 1154.92,499.19 1152.52,501.097 1149.8,498.169 1146.75,490.082 1143.33,476.514 1139.54,457.142 
  1135.34,431.645 1130.72,399.7 1125.66,360.985 1120.13,315.176 1114.11,261.952 1107.59,201.004 1100.56,132.331 1093.04,56.2432 1085.06,-26.9376 1076.64,-116.889 
  1067.79,-213.289 1058.54,-315.814 1048.91,-424.142 1038.92,-537.952 1028.59,-656.92 1017.94,-780.724 1007,-909.042 995.783,-1041.55 984.312,-1177.93 972.609,-1317.85 
  960.694,-1461 948.588,-1607.05 936.314,-1755.68 923.891,-1906.57 911.342,-2059.39 898.686,-2213.82 885.946,-2369.54 873.143,-2526.23 860.297,-2683.57 847.431,-2841.22 
  
  "/>
<polyline clip-path="url(#clip722)" style="stroke:#000000; stroke-width:0.96; stroke-opacity:1; fill:none" points="
  835.421,-2811.35 847.431,-2841.22 864.126,-2813.69 
  "/>
<polyline clip-path="url(#clip722)" style="stroke:#000000; stroke-width:0.96; stroke-opacity:1; fill:none" points="
  847.431,-2841.22 860.297,-2683.57 
  "/>
<polyline clip-path="url(#clip722)" style="stroke:#000000; stroke-width:0.96; stroke-opacity:1; fill:none" points="
  1097.52,800.259 1068.25,780.293 1039.25,760.489 1010.81,741.009 983.204,722.015 956.71,703.669 931.606,686.134 908.171,669.571 886.682,654.142 867.418,640.01 
  850.657,627.337 836.677,616.284 825.755,607.014 818.171,599.688 814.202,594.469 814.126,591.519 818.221,591 826.766,593.074 840.038,597.903 858.315,605.649 
  881.877,616.474 911,630.54 945.962,648.009 987.043,669.044 1034.52,693.806 1088.66,722.451 1149.46,754.979 1216.66,791.234 1289.97,831.054 1369.13,874.277 
  1453.85,920.742 1543.85,970.285 1638.85,1022.75 1738.59,1077.96 1842.77,1135.77 1951.12,1196.01 2063.37,1258.52 2179.23,1323.13 2298.43,1389.69 2420.69,1458.04 
  2545.73,1528 2673.27,1599.42 2803.04,1672.14 2934.76,1745.99 3068.14,1820.82 3202.91,1896.45 3338.79,1972.74 3475.51,2049.51 3612.79,2126.6 3750.34,2203.86 
  
  "/>
<polyline clip-path="url(#clip722)" style="stroke:#000000; stroke-width:0.96; stroke-opacity:1; fill:none" points="
  3732.28,2177.2 3750.34,2203.86 3718.18,2202.31 
  "/>
<polyline clip-path="url(#clip722)" style="stroke:#000000; stroke-width:0.96; stroke-opacity:1; fill:none" points="
  3750.34,2203.86 3612.79,2126.6 
  "/>
<polyline clip-path="url(#clip722)" style="stroke:#000000; stroke-width:0.96; stroke-opacity:1; fill:none" points="
  864.531,814.758 891.539,791.504 918.287,768.443 944.517,745.769 969.969,723.674 994.384,702.352 1017.5,681.995 1039.06,662.798 1058.81,644.953 1076.48,628.654 
  1091.82,614.093 1104.57,601.465 1114.46,590.961 1121.24,582.775 1124.65,577.101 1124.43,574.132 1120.32,574.06 1112.06,577.08 1099.39,583.383 1082.06,593.164 
  1059.79,606.615 1032.34,623.93 999.45,645.303 960.85,670.925 916.286,700.99 865.509,735.684 808.519,775.006 745.565,818.772 676.906,866.788 602.802,918.86 
  523.511,974.797 439.292,1034.4 350.407,1097.49 257.112,1163.86 159.669,1233.32 58.3359,1305.67 -46.6277,1380.73 -154.962,1458.31 -266.409,1538.2 -380.708,1620.22 
  -497.6,1704.16 -616.826,1789.85 -738.127,1877.08 -861.243,1965.67 -985.915,2055.41 -1111.88,2146.12 -1238.89,2237.61 -1366.67,2329.67 -1494.97,2422.12 -1623.54,2514.76 
  
  "/>
<polyline clip-path="url(#clip722)" style="stroke:#000000; stroke-width:0.96; stroke-opacity:1; fill:none" points="
  -1591.75,2509.6 -1623.54,2514.76 -1608.59,2486.24 
  "/>
<polyline clip-path="url(#clip722)" style="stroke:#000000; stroke-width:0.96; stroke-opacity:1; fill:none" points="
  -1623.54,2514.76 -1494.97,2422.12 
  "/>
<path clip-path="url(#clip722)" d="
M4464.88 355.919 L2630.63 -2821.1 L-1037.87 -2821.1 L-2872.13 355.919 L-1037.87 3532.94 L2630.63 3532.94 L4464.88 355.919 L4464.88 355.919  Z
  " fill="#009af9" fill-rule="evenodd" fill-opacity="1"/>
<polyline clip-path="url(#clip722)" style="stroke:#000000; stroke-width:0.96; stroke-opacity:1; fill:none" points="
  4464.88,355.919 2630.63,-2821.1 -1037.87,-2821.1 -2872.13,355.919 -1037.87,3532.94 2630.63,3532.94 4464.88,355.919 4464.88,355.919 
  "/>
<path clip-path="url(#clip722)" d="
M4788.28 335.794 L2954.02 -2841.22 L-714.48 -2841.22 L-2548.73 335.794 L-714.48 3512.81 L2954.02 3512.81 L4788.28 335.794 L4788.28 335.794  Z
  " fill="#009af9" fill-rule="evenodd" fill-opacity="1"/>
<polyline clip-path="url(#clip722)" style="stroke:#000000; stroke-width:0.96; stroke-opacity:1; fill:none" points="
  4788.28,335.794 2954.02,-2841.22 -714.48,-2841.22 -2548.73,335.794 -714.48,3512.81 2954.02,3512.81 4788.28,335.794 4788.28,335.794 
  "/>
<path clip-path="url(#clip722)" d="
M4642.16 659.188 L2807.91 -2517.83 L-860.598 -2517.83 L-2694.85 659.188 L-860.598 3836.21 L2807.91 3836.21 L4642.16 659.188 L4642.16 659.188  Z
  " fill="#009af9" fill-rule="evenodd" fill-opacity="1"/>
<polyline clip-path="url(#clip722)" style="stroke:#000000; stroke-width:0.96; stroke-opacity:1; fill:none" points="
  4642.16,659.188 2807.91,-2517.83 -860.598,-2517.83 -2694.85,659.188 -860.598,3836.21 2807.91,3836.21 4642.16,659.188 4642.16,659.188 
  "/>
<path clip-path="url(#clip722)" d="
M4399.02 172.406 L2564.77 -3004.61 L-1103.74 -3004.61 L-2937.99 172.406 L-1103.74 3349.42 L2564.77 3349.42 L4399.02 172.406 L4399.02 172.406  Z
  " fill="#009af9" fill-rule="evenodd" fill-opacity="1"/>
<polyline clip-path="url(#clip722)" style="stroke:#000000; stroke-width:0.96; stroke-opacity:1; fill:none" points="
  4399.02,172.406 2564.77,-3004.61 -1103.74,-3004.61 -2937.99,172.406 -1103.74,3349.42 2564.77,3349.42 4399.02,172.406 4399.02,172.406 
  "/>
<path clip-path="url(#clip722)" d="
M4293.75 405.399 L2459.49 -2771.62 L-1209.01 -2771.62 L-3043.26 405.399 L-1209.01 3582.42 L2459.49 3582.42 L4293.75 405.399 L4293.75 405.399  Z
  " fill="#009af9" fill-rule="evenodd" fill-opacity="1"/>
<polyline clip-path="url(#clip722)" style="stroke:#000000; stroke-width:0.96; stroke-opacity:1; fill:none" points="
  4293.75,405.399 2459.49,-2771.62 -1209.01,-2771.62 -3043.26,405.399 -1209.01,3582.42 2459.49,3582.42 4293.75,405.399 4293.75,405.399 
  "/>
<path clip-path="url(#clip722)" d="
M4963.26 363.736 L3129.01 -2813.28 L-539.494 -2813.28 L-2373.75 363.736 L-539.494 3540.75 L3129.01 3540.75 L4963.26 363.736 L4963.26 363.736  Z
  " fill="#009af9" fill-rule="evenodd" fill-opacity="1"/>
<polyline clip-path="url(#clip722)" style="stroke:#000000; stroke-width:0.96; stroke-opacity:1; fill:none" points="
  4963.26,363.736 3129.01,-2813.28 -539.494,-2813.28 -2373.75,363.736 -539.494,3540.75 3129.01,3540.75 4963.26,363.736 4963.26,363.736 
  "/>
<path clip-path="url(#clip722)" d="
M4835.54 145.242 L3001.29 -3031.78 L-667.214 -3031.78 L-2501.47 145.242 L-667.214 3322.26 L3001.29 3322.26 L4835.54 145.242 L4835.54 145.242  Z
  " fill="#009af9" fill-rule="evenodd" fill-opacity="1"/>
<polyline clip-path="url(#clip722)" style="stroke:#000000; stroke-width:0.96; stroke-opacity:1; fill:none" points="
  4835.54,145.242 3001.29,-3031.78 -667.214,-3031.78 -2501.47,145.242 -667.214,3322.26 3001.29,3322.26 4835.54,145.242 4835.54,145.242 
  "/>
<path clip-path="url(#clip722)" d="
M4766.03 800.259 L2931.78 -2376.76 L-736.728 -2376.76 L-2570.98 800.259 L-736.728 3977.28 L2931.78 3977.28 L4766.03 800.259 L4766.03 800.259  Z
  " fill="#009af9" fill-rule="evenodd" fill-opacity="1"/>
<polyline clip-path="url(#clip722)" style="stroke:#000000; stroke-width:0.96; stroke-opacity:1; fill:none" points="
  4766.03,800.259 2931.78,-2376.76 -736.728,-2376.76 -2570.98,800.259 -736.728,3977.28 2931.78,3977.28 4766.03,800.259 4766.03,800.259 
  "/>
<path clip-path="url(#clip722)" d="
M4533.03 814.758 L2698.78 -2362.26 L-969.721 -2362.26 L-2803.97 814.758 L-969.721 3991.78 L2698.78 3991.78 L4533.03 814.758 L4533.03 814.758  Z
  " fill="#009af9" fill-rule="evenodd" fill-opacity="1"/>
<polyline clip-path="url(#clip722)" style="stroke:#000000; stroke-width:0.96; stroke-opacity:1; fill:none" points="
  4533.03,814.758 2698.78,-2362.26 -969.721,-2362.26 -2803.97,814.758 -969.721,3991.78 2698.78,3991.78 4533.03,814.758 4533.03,814.758 
  "/>
<path clip-path="url(#clip722)" d="
M3401.13 450.3 L2182.2 -1660.95 L-255.665 -1660.95 L-1474.6 450.3 L-255.665 2561.55 L2182.2 2561.55 L3401.13 450.3 L3401.13 450.3  Z
  " fill="#009af9" fill-rule="evenodd" fill-opacity="1"/>
<polyline clip-path="url(#clip722)" style="stroke:#000000; stroke-width:0.96; stroke-opacity:1; fill:none" points="
  3401.13,450.3 2182.2,-1660.95 -255.665,-1660.95 -1474.6,450.3 -255.665,2561.55 2182.2,2561.55 3401.13,450.3 3401.13,450.3 
  "/>
<path clip-path="url(#clip722)" d="M796.378 384.719 L771.438 370.319 L771.438 341.519 L796.378 327.119 L821.319 341.519 L821.319 370.319 Z" fill="#009af9" fill-rule="evenodd" fill-opacity="1" stroke="#000000" stroke-opacity="1" stroke-width="1.92"/>
<path clip-path="url(#clip722)" d="M1119.77 364.594 L1094.83 350.194 L1094.83 321.394 L1119.77 306.994 L1144.71 321.394 L1144.71 350.194 Z" fill="#009af9" fill-rule="evenodd" fill-opacity="1" stroke="#000000" stroke-opacity="1" stroke-width="1.92"/>
<path clip-path="url(#clip722)" d="M973.653 687.988 L948.713 673.588 L948.713 644.788 L973.653 630.388 L998.594 644.788 L998.594 673.588 Z" fill="#009af9" fill-rule="evenodd" fill-opacity="1" stroke="#000000" stroke-opacity="1" stroke-width="1.92"/>
<path clip-path="url(#clip722)" d="M730.515 201.206 L705.574 186.806 L705.574 158.006 L730.515 143.606 L755.456 158.006 L755.456 186.806 Z" fill="#009af9" fill-rule="evenodd" fill-opacity="1" stroke="#000000" stroke-opacity="1" stroke-width="1.92"/>
<path clip-path="url(#clip722)" d="M625.242 434.199 L600.301 419.799 L600.301 390.999 L625.242 376.599 L650.183 390.999 L650.183 419.799 Z" fill="#009af9" fill-rule="evenodd" fill-opacity="1" stroke="#000000" stroke-opacity="1" stroke-width="1.92"/>
<path clip-path="url(#clip722)" d="M1294.76 392.536 L1269.82 378.136 L1269.82 349.336 L1294.76 334.936 L1319.7 349.336 L1319.7 378.136 Z" fill="#009af9" fill-rule="evenodd" fill-opacity="1" stroke="#000000" stroke-opacity="1" stroke-width="1.92"/>
<path clip-path="url(#clip722)" d="M1167.04 174.042 L1142.1 159.642 L1142.1 130.842 L1167.04 116.442 L1191.98 130.842 L1191.98 159.642 Z" fill="#009af9" fill-rule="evenodd" fill-opacity="1" stroke="#000000" stroke-opacity="1" stroke-width="1.92"/>
<path clip-path="url(#clip722)" d="M1097.52 829.059 L1072.58 814.659 L1072.58 785.859 L1097.52 771.459 L1122.46 785.859 L1122.46 814.659 Z" fill="#009af9" fill-rule="evenodd" fill-opacity="1" stroke="#000000" stroke-opacity="1" stroke-width="1.92"/>
<path clip-path="url(#clip722)" d="M864.531 843.558 L839.59 829.158 L839.59 800.358 L864.531 785.958 L889.472 800.358 L889.472 829.158 Z" fill="#009af9" fill-rule="evenodd" fill-opacity="1" stroke="#000000" stroke-opacity="1" stroke-width="1.92"/>
<path clip-path="url(#clip722)" d="M963.268 479.1 L938.327 464.7 L938.327 435.9 L963.268 421.5 L988.209 435.9 L988.209 464.7 Z" fill="#009af9" fill-rule="evenodd" fill-opacity="1" stroke="#000000" stroke-opacity="1" stroke-width="1.92"/>
<path clip-path="url(#clip720)" d="M 0 0 M796.299 352.284 Q796.299 352.318 796.215 352.466 Q796.137 352.609 795.846 352.968 Q795.556 353.327 795.123 353.745 Q794.961 353.907 794.715 354.133 Q794.469 354.36 794.302 354.507 L794.135 354.655 Q793.495 355.196 792.935 355.801 Q792.974 355.786 793.043 355.781 Q793.112 355.771 793.161 355.771 L793.21 355.771 Q793.466 355.771 793.913 355.944 Q794.307 356.071 794.509 356.071 Q794.705 356.071 794.922 356.003 Q795.138 355.934 795.374 355.732 Q795.61 355.53 795.719 355.225 Q795.738 355.176 795.748 355.161 Q795.758 355.142 795.787 355.122 Q795.817 355.098 795.856 355.098 Q795.91 355.098 795.945 355.127 Q795.979 355.157 795.979 355.196 Q795.979 355.284 795.91 355.461 Q795.846 355.639 795.704 355.86 Q795.566 356.081 795.384 356.283 Q795.207 356.48 794.941 356.617 Q794.676 356.75 794.395 356.75 Q794.194 356.75 794.046 356.652 Q793.899 356.558 793.751 356.376 Q793.549 356.145 793.441 356.071 Q793.333 355.993 793.166 355.993 Q792.718 355.993 792.31 356.617 Q792.266 356.706 792.236 356.726 Q792.212 356.75 792.152 356.75 Q792.03 356.745 792.03 356.647 Q792.03 356.608 792.138 356.435 Q792.251 356.258 792.502 355.948 Q792.757 355.639 793.067 355.329 L793.972 354.483 Q794.976 353.637 795.374 353.16 Q795.207 353.16 795.133 353.155 Q795.064 353.15 794.927 353.12 Q794.789 353.086 794.597 353.012 Q794.149 352.859 793.963 352.859 Q793.913 352.859 793.859 352.864 Q793.805 352.869 793.682 352.894 Q793.564 352.919 793.466 352.968 Q793.367 353.012 793.264 353.11 Q793.161 353.204 793.107 353.332 Q793.092 353.371 793.082 353.391 Q793.072 353.41 793.043 353.43 Q793.018 353.445 792.979 353.445 Q792.92 353.445 792.885 353.41 Q792.856 353.376 792.856 353.332 Q792.856 353.243 792.944 353.061 Q793.033 352.879 793.18 352.682 Q793.328 352.481 793.569 352.333 Q793.81 352.186 794.076 352.186 Q794.233 352.186 794.366 352.254 Q794.504 352.323 794.572 352.397 Q794.646 352.466 794.769 352.618 Q794.873 352.737 794.922 352.786 Q794.971 352.835 795.069 352.889 Q795.173 352.938 795.286 352.938 Q795.473 352.938 795.645 352.796 Q795.817 352.648 796.038 352.294 Q796.097 352.186 796.191 352.186 Q796.299 352.186 796.299 352.284 Z" fill="#000000" fill-rule="evenodd" fill-opacity="1" /><path clip-path="url(#clip720)" d="M 0 0 M797.342 355.413 L797.342 355.192 Q798.189 355.192 798.626 354.741 Q798.747 354.741 798.768 354.769 Q798.788 354.796 798.788 354.924 L798.788 358.88 Q798.788 359.09 798.892 359.155 Q798.995 359.221 799.446 359.221 L799.67 359.221 L799.67 359.438 Q799.422 359.417 798.527 359.417 Q797.631 359.417 797.387 359.438 L797.387 359.221 L797.611 359.221 Q798.055 359.221 798.162 359.159 Q798.268 359.093 798.268 358.88 L798.268 355.227 Q797.9 355.413 797.342 355.413 Z" fill="#000000" fill-rule="evenodd" fill-opacity="1" /><path clip-path="url(#clip720)" d="M 0 0 M1119.45 332.159 Q1119.45 332.194 1119.37 332.341 Q1119.29 332.484 1119 332.843 Q1118.71 333.202 1118.28 333.62 Q1118.11 333.783 1117.87 334.009 Q1117.62 334.235 1117.46 334.383 L1117.29 334.53 Q1116.65 335.071 1116.09 335.676 Q1116.13 335.662 1116.2 335.657 Q1116.26 335.647 1116.31 335.647 L1116.36 335.647 Q1116.62 335.647 1117.07 335.819 Q1117.46 335.947 1117.66 335.947 Q1117.86 335.947 1118.07 335.878 Q1118.29 335.809 1118.53 335.607 Q1118.76 335.406 1118.87 335.101 Q1118.89 335.052 1118.9 335.037 Q1118.91 335.017 1118.94 334.998 Q1118.97 334.973 1119.01 334.973 Q1119.06 334.973 1119.1 335.002 Q1119.13 335.032 1119.13 335.071 Q1119.13 335.16 1119.06 335.337 Q1119 335.514 1118.86 335.735 Q1118.72 335.957 1118.54 336.158 Q1118.36 336.355 1118.09 336.493 Q1117.83 336.626 1117.55 336.626 Q1117.35 336.626 1117.2 336.527 Q1117.05 336.434 1116.9 336.252 Q1116.7 336.021 1116.59 335.947 Q1116.49 335.868 1116.32 335.868 Q1115.87 335.868 1115.46 336.493 Q1115.42 336.581 1115.39 336.601 Q1115.36 336.626 1115.31 336.626 Q1115.18 336.621 1115.18 336.522 Q1115.18 336.483 1115.29 336.311 Q1115.4 336.134 1115.65 335.824 Q1115.91 335.514 1116.22 335.204 L1117.13 334.358 Q1118.13 333.512 1118.53 333.035 Q1118.36 333.035 1118.29 333.03 Q1118.22 333.025 1118.08 332.996 Q1117.94 332.961 1117.75 332.887 Q1117.3 332.735 1117.12 332.735 Q1117.07 332.735 1117.01 332.74 Q1116.96 332.745 1116.84 332.769 Q1116.72 332.794 1116.62 332.843 Q1116.52 332.887 1116.42 332.986 Q1116.31 333.079 1116.26 333.207 Q1116.25 333.246 1116.24 333.266 Q1116.23 333.286 1116.2 333.305 Q1116.17 333.32 1116.13 333.32 Q1116.07 333.32 1116.04 333.286 Q1116.01 333.251 1116.01 333.207 Q1116.01 333.119 1116.1 332.937 Q1116.19 332.755 1116.33 332.558 Q1116.48 332.356 1116.72 332.209 Q1116.96 332.061 1117.23 332.061 Q1117.39 332.061 1117.52 332.13 Q1117.66 332.199 1117.73 332.273 Q1117.8 332.341 1117.92 332.494 Q1118.03 332.612 1118.07 332.661 Q1118.12 332.71 1118.22 332.764 Q1118.33 332.814 1118.44 332.814 Q1118.63 332.814 1118.8 332.671 Q1118.97 332.523 1119.19 332.169 Q1119.25 332.061 1119.34 332.061 Q1119.45 332.061 1119.45 332.159 Z" fill="#000000" fill-rule="evenodd" fill-opacity="1" /><path clip-path="url(#clip720)" d="M 0 0 M1120.5 339.313 Q1120.5 339.186 1120.51 339.148 Q1120.52 339.11 1120.57 339.051 L1121.93 337.543 Q1122.67 336.71 1122.67 335.984 Q1122.67 335.512 1122.42 335.174 Q1122.18 334.837 1121.72 334.837 Q1121.41 334.837 1121.15 335.026 Q1120.89 335.216 1120.77 335.553 Q1120.79 335.546 1120.86 335.546 Q1121.04 335.546 1121.14 335.656 Q1121.24 335.767 1121.24 335.915 Q1121.24 336.104 1121.11 336.197 Q1120.99 336.287 1120.87 336.287 Q1120.82 336.287 1120.76 336.276 Q1120.7 336.266 1120.6 336.169 Q1120.5 336.07 1120.5 335.894 Q1120.5 335.402 1120.87 335.009 Q1121.24 334.617 1121.81 334.617 Q1122.46 334.617 1122.88 335.002 Q1123.31 335.384 1123.31 335.984 Q1123.31 336.194 1123.25 336.386 Q1123.18 336.576 1123.1 336.724 Q1123.02 336.872 1122.79 337.109 Q1122.56 337.347 1122.38 337.516 Q1122.2 337.684 1121.79 338.042 L1121.04 338.769 L1122.31 338.769 Q1122.93 338.769 1122.98 338.714 Q1123.05 338.614 1123.13 338.087 L1123.31 338.087 L1123.11 339.313 L1120.5 339.313 Z" fill="#000000" fill-rule="evenodd" fill-opacity="1" /><path clip-path="url(#clip720)" d="M 0 0 M973.276 655.479 Q973.276 655.513 973.193 655.661 Q973.114 655.803 972.824 656.163 Q972.534 656.522 972.101 656.94 Q971.939 657.102 971.693 657.328 Q971.447 657.555 971.279 657.702 L971.112 657.85 Q970.473 658.391 969.912 658.996 Q969.951 658.981 970.02 658.976 Q970.089 658.966 970.138 658.966 L970.187 658.966 Q970.443 658.966 970.891 659.138 Q971.284 659.266 971.486 659.266 Q971.683 659.266 971.899 659.197 Q972.116 659.129 972.352 658.927 Q972.588 658.725 972.696 658.42 Q972.716 658.371 972.726 658.356 Q972.735 658.337 972.765 658.317 Q972.794 658.292 972.834 658.292 Q972.888 658.292 972.922 658.322 Q972.957 658.351 972.957 658.391 Q972.957 658.479 972.888 658.656 Q972.824 658.833 972.681 659.055 Q972.544 659.276 972.362 659.478 Q972.184 659.675 971.919 659.812 Q971.653 659.945 971.373 659.945 Q971.171 659.945 971.024 659.847 Q970.876 659.753 970.729 659.571 Q970.527 659.34 970.419 659.266 Q970.31 659.188 970.143 659.188 Q969.696 659.188 969.287 659.812 Q969.243 659.901 969.214 659.92 Q969.189 659.945 969.13 659.945 Q969.007 659.94 969.007 659.842 Q969.007 659.802 969.115 659.63 Q969.228 659.453 969.479 659.143 Q969.735 658.833 970.045 658.524 L970.95 657.678 Q971.953 656.831 972.352 656.354 Q972.184 656.354 972.111 656.349 Q972.042 656.345 971.904 656.315 Q971.766 656.281 971.575 656.207 Q971.127 656.054 970.94 656.054 Q970.891 656.054 970.837 656.059 Q970.783 656.064 970.66 656.089 Q970.542 656.113 970.443 656.163 Q970.345 656.207 970.242 656.305 Q970.138 656.399 970.084 656.527 Q970.069 656.566 970.06 656.586 Q970.05 656.605 970.02 656.625 Q969.996 656.64 969.956 656.64 Q969.897 656.64 969.863 656.605 Q969.833 656.571 969.833 656.527 Q969.833 656.438 969.922 656.256 Q970.01 656.074 970.158 655.877 Q970.306 655.676 970.547 655.528 Q970.788 655.38 971.053 655.38 Q971.211 655.38 971.343 655.449 Q971.481 655.518 971.55 655.592 Q971.624 655.661 971.747 655.813 Q971.85 655.931 971.899 655.981 Q971.948 656.03 972.047 656.084 Q972.15 656.133 972.263 656.133 Q972.45 656.133 972.622 655.99 Q972.794 655.843 973.016 655.489 Q973.075 655.38 973.168 655.38 Q973.276 655.38 973.276 655.479 Z" fill="#000000" fill-rule="evenodd" fill-opacity="1" /><path clip-path="url(#clip720)" d="M 0 0 M974.32 661.682 Q974.32 661.472 974.44 661.372 Q974.561 661.272 974.716 661.272 Q974.877 661.272 974.991 661.379 Q975.108 661.482 975.108 661.665 Q975.108 661.861 974.97 661.971 Q974.836 662.082 974.643 662.054 Q974.812 662.336 975.122 662.464 Q975.435 662.591 975.724 662.591 Q976.027 662.591 976.272 662.329 Q976.52 662.068 976.52 661.427 Q976.52 660.883 976.306 660.57 Q976.096 660.257 975.68 660.257 L975.37 660.257 Q975.263 660.257 975.232 660.246 Q975.201 660.236 975.201 660.177 Q975.201 660.109 975.308 660.095 Q975.415 660.095 975.583 660.074 Q975.993 660.06 976.21 659.706 Q976.406 659.375 976.406 658.904 Q976.406 658.473 976.2 658.294 Q975.996 658.112 975.731 658.112 Q975.483 658.112 975.211 658.215 Q974.939 658.318 974.791 658.549 Q975.229 658.549 975.229 658.904 Q975.229 659.058 975.129 659.162 Q975.032 659.262 974.871 659.262 Q974.716 659.262 974.612 659.165 Q974.509 659.065 974.509 658.897 Q974.509 658.494 974.867 658.215 Q975.229 657.936 975.759 657.936 Q976.282 657.936 976.668 658.211 Q977.057 658.487 977.057 658.91 Q977.057 659.327 976.782 659.668 Q976.506 660.009 976.069 660.15 Q976.606 660.257 976.926 660.622 Q977.246 660.983 977.246 661.427 Q977.246 661.978 976.812 662.384 Q976.379 662.787 975.745 662.787 Q975.16 662.787 974.74 662.471 Q974.32 662.154 974.32 661.682 Z" fill="#000000" fill-rule="evenodd" fill-opacity="1" /><path clip-path="url(#clip720)" d="M 0 0 M965.426 448.575 Q965.426 448.851 965.254 449.008 Q965.082 449.161 964.885 449.161 Q964.698 449.161 964.6 449.052 Q964.502 448.944 964.502 448.806 Q964.502 448.619 964.639 448.457 Q964.777 448.295 964.984 448.26 Q964.782 448.133 964.482 448.133 Q964.285 448.133 964.113 448.236 Q963.946 448.339 963.842 448.472 Q963.744 448.605 963.656 448.797 Q963.572 448.983 963.537 449.097 Q963.508 449.205 963.483 449.323 L963.139 450.7 Q962.972 451.354 962.972 451.585 Q962.972 451.871 963.11 452.063 Q963.247 452.249 963.523 452.249 Q963.631 452.249 963.754 452.22 Q963.877 452.186 964.034 452.097 Q964.197 452.004 964.339 451.866 Q964.487 451.723 964.629 451.482 Q964.772 451.241 964.866 450.931 Q964.895 450.823 964.993 450.823 Q965.116 450.823 965.116 450.921 Q965.116 451.005 965.048 451.182 Q964.984 451.354 964.841 451.581 Q964.703 451.802 964.521 452.004 Q964.339 452.2 964.069 452.338 Q963.798 452.476 963.503 452.476 Q963.08 452.476 962.8 452.249 Q962.519 452.023 962.416 451.708 Q962.391 451.753 962.357 451.812 Q962.323 451.871 962.219 452.004 Q962.121 452.131 962.008 452.23 Q961.895 452.323 961.718 452.397 Q961.545 452.476 961.358 452.476 Q961.122 452.476 960.911 452.407 Q960.704 452.338 960.557 452.181 Q960.409 452.023 960.409 451.807 Q960.409 451.566 960.572 451.399 Q960.739 451.226 960.965 451.226 Q961.108 451.226 961.221 451.31 Q961.339 451.394 961.339 451.576 Q961.339 451.777 961.201 451.93 Q961.063 452.082 960.867 452.122 Q961.068 452.249 961.368 452.249 Q961.693 452.249 961.949 451.964 Q962.205 451.679 962.327 451.202 Q962.632 450.056 962.75 449.544 Q962.869 449.028 962.869 448.806 Q962.869 448.6 962.814 448.457 Q962.76 448.314 962.667 448.251 Q962.578 448.182 962.495 448.157 Q962.416 448.133 962.327 448.133 Q962.18 448.133 962.013 448.192 Q961.85 448.251 961.654 448.388 Q961.462 448.521 961.28 448.797 Q961.098 449.072 960.975 449.451 Q960.95 449.564 960.842 449.564 Q960.724 449.559 960.724 449.461 Q960.724 449.377 960.788 449.205 Q960.857 449.028 960.995 448.806 Q961.137 448.585 961.319 448.388 Q961.506 448.187 961.777 448.049 Q962.052 447.911 962.347 447.911 Q962.48 447.911 962.608 447.941 Q962.741 447.965 962.898 448.039 Q963.06 448.113 963.203 448.275 Q963.346 448.437 963.434 448.674 Q963.493 448.56 963.572 448.452 Q963.656 448.344 963.783 448.211 Q963.916 448.073 964.098 447.995 Q964.285 447.911 964.492 447.911 Q964.693 447.911 964.89 447.965 Q965.087 448.014 965.254 448.177 Q965.426 448.334 965.426 448.575 Z" fill="#000000" fill-rule="evenodd" fill-opacity="1" /></svg>
